<svg width="35" height="34" viewBox="0 0 35 34" fill="none" xmlns="http://www.w3.org/2000/svg">
<rect x="0.142578" width="34" height="34" rx="17" fill="#5CD1B4" fill-opacity="0.2"/>
<g clip-path="url(#clip0_2420_17898)">
<path d="M17.1426 11.2616C19.0128 11.2616 19.2323 11.2699 19.9715 11.3033C20.6551 11.3339 21.0247 11.4478 21.272 11.5451C21.5999 11.6729 21.8333 11.8229 22.0779 12.0675C22.3224 12.312 22.4753 12.5455 22.6003 12.8734C22.6948 13.1207 22.8115 13.4903 22.8421 14.1739C22.8754 14.9131 22.8838 15.1326 22.8838 17.0028C22.8838 18.873 22.8754 19.0925 22.8421 19.8317C22.8115 20.5153 22.6976 20.8849 22.6003 21.1322C22.4725 21.4601 22.3224 21.6935 22.0779 21.9381C21.8333 22.1826 21.5999 22.3354 21.272 22.4605C21.0247 22.555 20.6551 22.6717 19.9715 22.7023C19.2323 22.7356 19.0128 22.7439 17.1426 22.7439C15.2724 22.7439 15.0529 22.7356 14.3137 22.7023C13.6301 22.6717 13.2605 22.5578 13.0132 22.4605C12.6853 22.3327 12.4518 22.1826 12.2073 21.9381C11.9627 21.6935 11.8099 21.4601 11.6849 21.1322C11.5904 20.8849 11.4737 20.5153 11.4431 19.8317C11.4097 19.0925 11.4014 18.873 11.4014 17.0028C11.4014 15.1326 11.4097 14.9131 11.4431 14.1739C11.4737 13.4903 11.5876 13.1207 11.6849 12.8734C11.8127 12.5455 11.9627 12.312 12.2073 12.0675C12.4518 11.8229 12.6853 11.6701 13.0132 11.5451C13.2605 11.4506 13.6301 11.3339 14.3137 11.3033C15.0529 11.2672 15.2752 11.2616 17.1426 11.2616ZM17.1426 10C15.2418 10 15.0028 10.0083 14.2553 10.0417C13.5106 10.075 13.002 10.1945 12.5574 10.3668C12.0961 10.5447 11.7071 10.7864 11.318 11.1755C10.929 11.5645 10.69 11.9563 10.5094 12.4148C10.3371 12.8595 10.2176 13.368 10.1843 14.1155C10.1509 14.8603 10.1426 15.0992 10.1426 17C10.1426 18.9008 10.1509 19.1397 10.1843 19.8873C10.2176 20.632 10.3371 21.1405 10.5094 21.5879C10.6872 22.0492 10.929 22.4383 11.318 22.8273C11.7071 23.2164 12.0989 23.4553 12.5574 23.636C13.002 23.8083 13.5106 23.9277 14.2581 23.9611C15.0056 23.9944 15.2418 24.0028 17.1454 24.0028C19.0489 24.0028 19.2851 23.9944 20.0326 23.9611C20.7774 23.9277 21.2859 23.8083 21.7333 23.636C22.1946 23.4581 22.5836 23.2164 22.9727 22.8273C23.3617 22.4383 23.6007 22.0464 23.7813 21.5879C23.9536 21.1433 24.0731 20.6348 24.1065 19.8873C24.1398 19.1397 24.1481 18.9035 24.1481 17C24.1481 15.0965 24.1398 14.8603 24.1065 14.1127C24.0731 13.368 23.9536 12.8595 23.7813 12.4121C23.6035 11.9508 23.3617 11.5617 22.9727 11.1727C22.5836 10.7836 22.1918 10.5447 21.7333 10.364C21.2887 10.1917 20.7801 10.0723 20.0326 10.0389C19.2823 10.0083 19.0433 10 17.1426 10Z" fill="white"/>
<path d="M17.1426 11.2616C19.0128 11.2616 19.2323 11.2699 19.9715 11.3033C20.6551 11.3339 21.0247 11.4478 21.272 11.5451C21.5999 11.6729 21.8333 11.8229 22.0779 12.0675C22.3224 12.312 22.4753 12.5455 22.6003 12.8734C22.6948 13.1207 22.8115 13.4903 22.8421 14.1739C22.8754 14.9131 22.8838 15.1326 22.8838 17.0028C22.8838 18.873 22.8754 19.0925 22.8421 19.8317C22.8115 20.5153 22.6976 20.8849 22.6003 21.1322C22.4725 21.4601 22.3224 21.6935 22.0779 21.9381C21.8333 22.1826 21.5999 22.3354 21.272 22.4605C21.0247 22.555 20.6551 22.6717 19.9715 22.7023C19.2323 22.7356 19.0128 22.7439 17.1426 22.7439C15.2724 22.7439 15.0529 22.7356 14.3137 22.7023C13.6301 22.6717 13.2605 22.5578 13.0132 22.4605C12.6853 22.3327 12.4518 22.1826 12.2073 21.9381C11.9627 21.6935 11.8099 21.4601 11.6849 21.1322C11.5904 20.8849 11.4737 20.5153 11.4431 19.8317C11.4097 19.0925 11.4014 18.873 11.4014 17.0028C11.4014 15.1326 11.4097 14.9131 11.4431 14.1739C11.4737 13.4903 11.5876 13.1207 11.6849 12.8734C11.8127 12.5455 11.9627 12.312 12.2073 12.0675C12.4518 11.8229 12.6853 11.6701 13.0132 11.5451C13.2605 11.4506 13.6301 11.3339 14.3137 11.3033C15.0529 11.2672 15.2752 11.2616 17.1426 11.2616Z" fill="white"/>
<path d="M17.1427 13.4067C15.1586 13.4067 13.5469 15.0157 13.5469 17.0026C13.5469 18.9895 15.1558 20.5985 17.1427 20.5985C19.1296 20.5985 20.7386 18.9895 20.7386 17.0026C20.7386 15.0157 19.1296 13.4067 17.1427 13.4067ZM17.1427 19.3341C15.8533 19.3341 14.8085 18.2892 14.8085 16.9998C14.8085 15.7104 15.8533 14.6656 17.1427 14.6656C18.4321 14.6656 19.477 15.7104 19.477 16.9998C19.477 18.2892 18.4321 19.3341 17.1427 19.3341Z" fill="#626262"/>
<path d="M20.8802 14.1018C21.3437 14.1018 21.7195 13.7261 21.7195 13.2626C21.7195 12.7991 21.3437 12.4233 20.8802 12.4233C20.4167 12.4233 20.041 12.7991 20.041 13.2626C20.041 13.7261 20.4167 14.1018 20.8802 14.1018Z" fill="#626262"/>
</g>
<defs>
<clipPath id="clip0_2420_17898">
<rect width="14" height="14" fill="white" transform="translate(10.1426 10)"/>
</clipPath>
</defs>
</svg>
