<svg width="35" height="34" viewBox="0 0 35 34" fill="none" xmlns="http://www.w3.org/2000/svg">
<rect x="0.714844" width="34" height="34" rx="17" fill="#5CD1B4" fill-opacity="0.2"/>
<g clip-path="url(#clip0_2420_17900)">
<path d="M23.6814 10H11.7483C11.4742 10 11.2114 10.1089 11.0175 10.3027C10.8237 10.4965 10.7148 10.7594 10.7148 11.0335V22.9665C10.7148 23.2406 10.8237 23.5035 11.0175 23.6973C11.2114 23.8911 11.4742 24 11.7483 24H23.6814C23.9555 24 24.2183 23.8911 24.4121 23.6973C24.606 23.5035 24.7148 23.2406 24.7148 22.9665V11.0335C24.7148 10.7594 24.606 10.4965 24.4121 10.3027C24.2183 10.1089 23.9555 10 23.6814 10ZM14.8876 21.9262H12.7828V15.2403H14.8876V21.9262ZM13.8337 14.3137C13.595 14.3124 13.362 14.2404 13.1641 14.1067C12.9662 13.9731 12.8124 13.7838 12.722 13.5628C12.6316 13.3418 12.6087 13.099 12.6562 12.865C12.7037 12.631 12.8194 12.4163 12.9888 12.248C13.1581 12.0798 13.3736 11.9654 13.6079 11.9194C13.8422 11.8735 14.0848 11.8979 14.3052 11.9897C14.5256 12.0816 14.7139 12.2366 14.8463 12.4353C14.9787 12.634 15.0492 12.8675 15.049 13.1063C15.0513 13.2661 15.0213 13.4248 14.9609 13.5728C14.9006 13.7208 14.811 13.8552 14.6976 13.9679C14.5842 14.0806 14.4493 14.1692 14.3008 14.2287C14.1524 14.2881 13.9936 14.317 13.8337 14.3137ZM22.646 21.9321H20.5421V18.2794C20.5421 17.2022 20.0841 16.8697 19.493 16.8697C18.8689 16.8697 18.2564 17.3403 18.2564 18.3067V21.9321H16.1515V15.2451H18.1757V16.1717H18.2029C18.4061 15.7604 19.1178 15.0575 20.2037 15.0575C21.3782 15.0575 22.6469 15.7546 22.6469 17.7962L22.646 21.9321Z" fill="white"/>
</g>
<defs>
<clipPath id="clip0_2420_17900">
<rect width="14" height="14" fill="white" transform="translate(10.7148 10)"/>
</clipPath>
</defs>
</svg>
