<svg width="35" height="34" viewBox="0 0 35 34" fill="none" xmlns="http://www.w3.org/2000/svg">
<rect x="0.570312" width="34" height="34" rx="17" fill="#5CD1B4" fill-opacity="0.2"/>
<g clip-path="url(#clip0_2420_17896)">
<path d="M22.8532 14.1887C22.8586 14.3119 22.8586 14.4295 22.8586 14.5527C22.864 18.2879 20.1197 22.5999 15.1012 22.5999C13.621 22.5999 12.1678 22.1575 10.9199 21.3287C11.136 21.3567 11.3521 21.3679 11.5682 21.3679C12.7945 21.3679 13.9883 20.9423 14.9553 20.1527C13.7884 20.1303 12.762 19.3407 12.4055 18.1871C12.8161 18.2711 13.2374 18.2543 13.6372 18.1367C12.3677 17.8791 11.4547 16.7199 11.4493 15.3703C11.4493 15.3591 11.4493 15.3479 11.4493 15.3367C11.8275 15.5551 12.2542 15.6783 12.6864 15.6895C11.4925 14.8607 11.1198 13.2087 11.8437 11.9151C13.232 13.6847 15.274 14.7543 17.4673 14.8719C17.2458 13.8919 17.5483 12.8615 18.256 12.1671C19.3526 11.0975 21.0813 11.1535 22.1185 12.2903C22.7289 12.1671 23.3178 11.9319 23.8526 11.6015C23.6473 12.2567 23.2205 12.8111 22.6533 13.1639C23.1935 13.0967 23.7229 12.9455 24.2199 12.7215C23.8526 13.2927 23.388 13.7855 22.8532 14.1887Z" fill="white"/>
</g>
<defs>
<clipPath id="clip0_2420_17896">
<rect width="14" height="14" fill="white" transform="translate(10.5703 10)"/>
</clipPath>
</defs>
</svg>
