<svg width="544" height="209" viewBox="0 0 544 209" fill="none" xmlns="http://www.w3.org/2000/svg">
<path d="M1 167.134V168.134H2H95.596V201.777V202.777H96.596H136.436H137.436V201.777V168.134H160.879H161.879V167.134V133.741V132.741H160.879H137.436V4.69434V3.69434H136.436H84.2783H83.7286L83.434 4.15843L1.15572 133.782L1 134.028V134.318V167.134ZM96.366 132.741H44.9571V132.491L96.366 51.1334V132.741Z" fill="#5CD1B4" fill-opacity="0.08" stroke="url(#paint0_linear_2654_14692)" stroke-width="2"/>
<path d="M271.336 207.108H271.338C296.398 207.108 316.572 197.556 330.467 179.742C344.337 161.959 351.874 136.046 351.922 103.43C351.97 71.0496 344.384 45.445 330.462 27.914C316.516 10.3536 296.295 1 271.338 1C246.334 1 226.161 10.329 212.25 27.8786C198.364 45.3975 190.803 71.0011 190.755 103.426C190.658 135.948 198.171 161.839 212.065 179.634C225.984 197.46 246.229 207.059 271.336 207.108ZM307.388 103.428V103.43C307.435 126.058 303.812 142.892 297.474 154.033C291.167 165.12 282.189 170.561 271.338 170.561C260.437 170.561 251.436 165.119 245.118 154.032C238.769 142.892 235.145 126.058 235.193 103.43C235.241 81.1397 238.888 64.5225 245.224 53.5137C251.529 42.5583 260.483 37.1623 271.338 37.1623C282.144 37.1623 291.098 42.5575 297.404 53.5137C303.741 64.5222 307.388 81.1389 307.388 103.428Z" fill="#5CD1B4" fill-opacity="0.08" stroke="url(#paint1_linear_2654_14692)" stroke-width="2"/>
<path d="M382.07 167.134V168.134H383.07H476.666V201.777V202.777H477.666H517.506H518.506V201.777V168.134H541.949H542.949V167.134V133.741V132.741H541.949H518.506V4.69434V3.69434H517.506H465.349H464.799L464.504 4.15843L382.226 133.782L382.07 134.028V134.318V167.134ZM477.436 132.741H426.027V132.491L477.436 51.1334V132.741Z" fill="#5CD1B4" fill-opacity="0.08" stroke="url(#paint2_linear_2654_14692)" stroke-width="2"/>
<defs>
<linearGradient id="paint0_linear_2654_14692" x1="2" y1="4.69434" x2="197.015" y2="51.6291" gradientUnits="userSpaceOnUse">
<stop stop-color="#656BFE"/>
<stop offset="0.3125" stop-color="#6390FE" stop-opacity="0.7"/>
<stop offset="0.677083" stop-color="#60BCFF" stop-opacity="0.47"/>
<stop offset="1" stop-color="#5FE2FF"/>
</linearGradient>
<linearGradient id="paint1_linear_2654_14692" x1="191.754" y1="2" x2="387.814" y2="47.6451" gradientUnits="userSpaceOnUse">
<stop stop-color="#656BFE"/>
<stop offset="0.3125" stop-color="#6390FE" stop-opacity="0.7"/>
<stop offset="0.677083" stop-color="#60BCFF" stop-opacity="0.47"/>
<stop offset="1" stop-color="#5FE2FF"/>
</linearGradient>
<linearGradient id="paint2_linear_2654_14692" x1="383.07" y1="4.69434" x2="578.086" y2="51.6291" gradientUnits="userSpaceOnUse">
<stop stop-color="#656BFE"/>
<stop offset="0.3125" stop-color="#6390FE" stop-opacity="0.7"/>
<stop offset="0.677083" stop-color="#60BCFF" stop-opacity="0.47"/>
<stop offset="1" stop-color="#5FE2FF"/>
</linearGradient>
</defs>
</svg>
