<svg width="540" height="192" viewBox="0 0 540 192" fill="none" xmlns="http://www.w3.org/2000/svg">
<path d="M0 38.9745H94.596V4.33083H134.436V38.9745H158.879V72.3673H134.436V201.416H82.2783L0 71.7901V38.9745ZM95.366 72.3673H41.9571V73.9072L93.8261 155.994H95.366V72.3673Z" fill="url(#paint0_linear_2654_14696)" fill-opacity="0.08"/>
<path d="M269.338 0.000366211C318.897 0.000366211 348.826 37.7239 348.922 102.681C349.018 167.157 318.705 204.11 269.338 204.11C219.875 204.11 189.851 167.253 189.755 102.681C189.562 37.916 219.682 0.0964508 269.338 0.000366211ZM269.338 34.548C246.724 34.548 232.096 57.2589 232.193 102.681C232.289 147.429 246.82 169.948 269.338 169.948C291.76 169.948 306.388 147.429 306.388 102.681C306.484 57.2589 291.857 34.548 269.338 34.548Z" fill="url(#paint1_linear_2654_14696)" fill-opacity="0.08"/>
<path d="M381.07 38.9745H475.666V4.33083H515.506V38.9745H539.949V72.3673H515.506V201.416H463.349L381.07 71.7901V38.9745ZM476.436 72.3673H423.027V73.9072L474.896 155.994H476.436V72.3673Z" fill="url(#paint2_linear_2654_14696)" fill-opacity="0.08"/>
<defs>
<linearGradient id="paint0_linear_2654_14696" x1="79.4394" y1="201.416" x2="79.4394" y2="4.33083" gradientUnits="userSpaceOnUse">
<stop offset="0.25" stop-color="white" stop-opacity="0.1"/>
<stop offset="0.536458" stop-color="#5CD1B4"/>
<stop offset="1" stop-color="#5CD1B4"/>
</linearGradient>
<linearGradient id="paint1_linear_2654_14696" x1="269.338" y1="204.11" x2="269.338" y2="0.000350952" gradientUnits="userSpaceOnUse">
<stop offset="0.25" stop-color="white" stop-opacity="0.1"/>
<stop offset="0.536458" stop-color="#5CD1B4"/>
<stop offset="1" stop-color="#5CD1B4"/>
</linearGradient>
<linearGradient id="paint2_linear_2654_14696" x1="460.51" y1="201.416" x2="460.51" y2="4.33083" gradientUnits="userSpaceOnUse">
<stop offset="0.25" stop-color="white" stop-opacity="0.1"/>
<stop offset="0.536458" stop-color="#5CD1B4"/>
<stop offset="1" stop-color="#5CD1B4"/>
</linearGradient>
</defs>
</svg>
