<svg width="112" height="80" viewBox="0 0 112 80" fill="none" xmlns="http://www.w3.org/2000/svg">
<path d="M91.7832 67.0564C75.4112 77.396 54.4106 82.5716 42.4988 78.7349C36.0685 76.6654 33.4673 72.3544 34.4428 67.0105L49.2274 61.1387C47.6514 65.2853 49.0897 68.7242 53.81 70.2428C60.8102 72.4959 72.7947 69.8106 82.7442 64.1454L77.7025 62.5235L106.503 51.086L96.7025 68.64L91.7832 67.0564ZM63.3043 47.475C73.2537 41.8136 85.2344 39.1244 92.2384 41.3775C96.9588 42.8961 98.3971 46.335 96.8211 50.4816L111.606 44.6098C112.577 39.2698 109.98 34.9549 103.55 32.8855C91.6341 29.0526 70.6373 34.2243 54.2652 44.5639L49.3498 42.9841L39.5495 60.5382L68.3498 49.1007L63.3043 47.475Z" fill="#00161A"/>
<path d="M15.8287 14.1L9.84215 10.6382L1.26978 15.5613L7.25629 19.0231L15.8287 14.1Z" fill="url(#paint0_linear_360_3727)"/>
<path d="M64.0612 37.1011L52.8608 50.3211L58.8512 53.7753C58.3654 56.2273 57.2446 57.9984 55.6647 59.0695C55.6227 63.8625 55.1675 68.69 53.7177 73.265C62.2671 74.4776 68.77 69.608 69.6039 59.9722L75.4451 63.3385L64.0612 37.1011Z" fill="#027582"/>
<path d="M42.3683 57.0193C36.9862 53.4159 32.1855 47.3643 29.0373 40.8193L20.4688 45.7424L21.9529 52.1918C21.9529 52.1918 30.2958 64.0156 30.6248 64.1495C30.8581 64.2413 37.1736 66.2993 40.777 67.4698C41.3049 67.86 41.8366 68.2349 42.3721 68.5906C45.0154 70.3617 47.6204 71.6279 50.1029 72.4274C51.3729 68.4682 51.8396 64.4249 51.9429 60.2707C49.1887 60.4237 45.8646 59.3603 42.3683 57.0193Z" fill="url(#paint1_linear_360_3727)"/>
<path d="M27.2394 17.6877C27.0711 17.6074 26.9066 17.5309 26.7345 17.4544C26.5662 17.3779 26.4438 17.332 26.088 17.1981C24.8142 16.7161 23.5098 16.3336 22.2054 15.9472C20.0021 15.2893 17.7337 14.5969 15.7331 13.434C15.714 13.6176 15.6948 13.8013 15.6757 13.9925L9.83838 10.6187L20.6677 37.6172L32.3997 23.6704L26.4132 20.2086C26.6044 19.2484 26.8837 18.4107 27.2394 17.6877Z" fill="#032444"/>
<path d="M42.3684 6.12437C34.1442 0.619836 26.5357 -0.321179 21.5438 2.80787L13.1665 7.62004L16.001 9.26106C16.1464 9.30314 16.2841 9.36818 16.4103 9.46381C16.9764 9.87694 17.5732 10.2442 18.1967 10.5693C18.4836 10.7185 18.7743 10.8524 19.065 10.9863C19.2295 11.0628 19.3443 11.1048 19.7 11.2425C20.9662 11.7245 22.2706 12.1071 23.5674 12.4934C25.7057 13.1322 27.8899 13.7978 29.8561 14.8803C30.12 14.7388 30.3916 14.6202 30.6785 14.5208L52.6813 32.4076L54.4065 31.4169C54.8617 32.2355 55.2901 33.0617 55.6918 33.8995L61.2499 27.4845C56.3574 18.8051 49.7014 11.0322 42.3684 6.12437Z" fill="url(#paint2_linear_360_3727)"/>
<path d="M66.8349 68.2345L60.6762 63.0513L56.9772 69.5618L57.6007 69.9023L46.4922 76.3134L54.4678 76.6577L62.4435 72.0521C62.8413 71.8532 63.2238 71.6313 63.5949 71.3865L63.6331 71.3635H63.6293C64.8648 70.5487 65.9436 69.5045 66.8349 68.2345Z" fill="#032444"/>
<path d="M61.0318 64.8992C59.8613 78.5056 47.3795 82.6063 33.796 73.5136C26.463 68.6059 19.8071 60.833 14.9069 52.1573L20.465 45.7424C23.6132 52.2874 28.4139 58.3389 33.796 61.9423C41.7793 67.2861 48.8445 65.9817 50.2828 58.7023L44.2925 55.2481L55.4928 42.028L66.8729 68.2731L61.0318 64.8992ZM17.8447 25.1243C19.2945 17.8486 25.8127 17.2749 33.796 22.6187C39.1781 26.2221 43.9788 32.2737 47.127 38.8187L52.6851 32.4037C47.7849 23.7281 41.129 15.959 33.796 11.0474C20.2126 1.95475 8.29692 5.30949 7.10344 18.9121L1.26611 15.5382L12.0954 42.5368L23.8274 28.59L17.8447 25.1243Z" fill="url(#paint3_linear_360_3727)"/>
<path d="M52.6848 32.3997L61.2572 27.4805L55.6991 33.8954L47.1267 38.8147L52.6848 32.3997Z" fill="#032444"/>
<path d="M66.8728 68.2654L75.4413 63.3423L64.0612 37.1011L55.4927 42.0242L66.8728 68.2654Z" fill="url(#paint4_linear_360_3727)"/>
<path d="M23.8352 28.5862L32.4038 23.6631L20.6717 37.6138L12.0994 42.533L23.8352 28.5862Z" fill="#032444"/>
<path d="M32.4034 23.663L26.4169 20.2012L17.8445 25.1243L23.8348 28.5861L32.4034 23.663Z" fill="url(#paint5_linear_360_3727)"/>
<path d="M64.0612 37.1008L69.7494 50.2214L75.4375 63.342L66.8689 68.2651L66.8269 68.2422C65.9356 69.5083 64.8607 70.5526 63.629 71.3674L63.606 71.3827C63.2273 71.6313 62.8333 71.8608 62.4278 72.0636L54.4675 76.6615H54.4637C52.509 77.79 50.2062 78.3752 47.6662 78.3752C43.5158 78.3752 38.7304 76.8145 33.7997 73.5133C26.4667 68.6055 19.8107 60.8327 14.9106 52.157L20.4687 45.7421L29.0372 40.8189C32.1854 47.3639 36.9861 53.4155 42.3682 57.0189C45.0344 58.8053 47.6012 59.8457 49.8887 60.1747C50.0493 59.7157 50.1794 59.2222 50.2827 58.702L44.2923 55.2478L55.4927 42.0277L64.0612 37.1008ZM64.547 35.6357L63.5486 36.2095L54.9801 41.1326L54.8232 41.2206L54.7085 41.3583L43.5082 54.5784L42.7125 55.5194L43.7798 56.1352L48.4007 58.8014C46.6602 58.3042 44.8049 57.4091 42.942 56.1659C37.8965 52.7882 33.1685 47.035 29.9668 40.3752L29.4886 39.3768L28.5285 39.9277L19.9599 44.8508L19.8107 44.9387L19.696 45.0688L14.1379 51.4837L13.6636 52.0308L14.0193 52.6619C19.1987 61.831 26.0229 69.5389 33.2335 74.3664C38.1566 77.6599 43.1486 79.4042 47.67 79.4042C50.2827 79.4042 52.6505 78.8304 54.7161 77.702H54.7238L54.9877 77.5528L62.9175 72.9663C63.3382 72.7521 63.7552 72.515 64.1492 72.2548L65.6869 71.3674L65.4842 71.2488C66.2187 70.6176 66.8842 69.8985 67.4772 69.1028L75.9577 64.2333L76.7534 63.7743L76.3862 62.9289L70.698 49.8083L65.0099 36.6877L64.547 35.6357Z" fill="#00161A"/>
<path d="M28.1729 1.02899C32.3386 1.02899 37.235 2.68915 42.3646 6.12422C49.6976 11.032 56.3535 18.8049 61.2537 27.4806L55.6956 33.8955L47.127 38.8186C43.9789 32.2736 39.1782 26.2221 33.7961 22.6187C31.214 20.8897 28.7812 19.7804 26.6275 19.3175C26.5472 19.6006 26.4784 19.8951 26.4172 20.205L32.4037 23.6668L20.6716 37.6137L12.1031 42.5368L1.27381 15.5611L1.28146 15.5573L1.29676 15.5496L9.89209 10.6418C10.9287 9.20355 12.2217 8.08658 13.7173 7.30622L21.5476 2.81156C23.4182 1.62956 25.6636 1.02899 28.1729 1.02899ZM28.1729 0C25.4647 0 23.0548 0.646466 21.0121 1.9241L13.2162 6.39964C11.6364 7.22972 10.2784 8.38877 9.18442 9.85384L0.780351 14.6545L0 15.0983L0.31367 15.9436L11.1429 42.9193L11.5828 44.0171L12.608 43.428L21.1766 38.5049L21.3334 38.4131L21.452 38.2754L33.184 24.3286L33.6507 23.7701C38.5317 27.1822 43.0799 32.7977 46.1899 39.2623L46.668 40.2607L47.6282 39.7099L56.1967 34.7868L56.3459 34.6988L56.4606 34.5688L62.0187 28.1538L62.4931 27.6068L62.1373 26.9757C56.9579 17.8065 50.1337 10.0987 42.9231 5.27119C37.7896 1.82082 32.6867 0 28.1729 0Z" fill="#00161A"/>
<defs>
<linearGradient id="paint0_linear_360_3727" x1="0.930094" y1="24.6663" x2="14.6011" y2="7.01828" gradientUnits="userSpaceOnUse">
<stop stop-color="#00C39D"/>
<stop offset="1" stop-color="#042666"/>
</linearGradient>
<linearGradient id="paint1_linear_360_3727" x1="10.4169" y1="28.631" x2="47.08" y2="68.5253" gradientUnits="userSpaceOnUse">
<stop stop-color="#00C39D"/>
<stop offset="1" stop-color="#042666"/>
</linearGradient>
<linearGradient id="paint2_linear_360_3727" x1="38.0872" y1="-11.5437" x2="35.4266" y2="76.8462" gradientUnits="userSpaceOnUse">
<stop stop-color="#00C39D"/>
<stop offset="1" stop-color="#042666"/>
</linearGradient>
<linearGradient id="paint3_linear_360_3727" x1="32.3228" y1="43.257" x2="55.9867" y2="24.891" gradientUnits="userSpaceOnUse">
<stop stop-color="#00C39D"/>
<stop offset="1" stop-color="#042666"/>
</linearGradient>
<linearGradient id="paint4_linear_360_3727" x1="67.3735" y1="-10.6623" x2="64.7129" y2="77.7276" gradientUnits="userSpaceOnUse">
<stop stop-color="#00C39D"/>
<stop offset="1" stop-color="#042666"/>
</linearGradient>
<linearGradient id="paint5_linear_360_3727" x1="15.9195" y1="36.2777" x2="29.5905" y2="18.6297" gradientUnits="userSpaceOnUse">
<stop stop-color="#00C39D"/>
<stop offset="1" stop-color="#042666"/>
</linearGradient>
</defs>
</svg>
