<svg width="130" height="80" viewBox="0 0 130 80" fill="none" xmlns="http://www.w3.org/2000/svg">
<path d="M89.14 79.2471L129.795 56.7037L125.789 50.6885L117.48 49.5923L73.6222 24.2715L48.4067 24.6694L6.08955 49.1008L1.94678 52.362L21.5801 52.5375L67.369 79.0482L89.14 79.2471Z" fill="#00161A"/>
<path d="M22.1956 4.39648L21.7197 51.5235L67.3682 78.4944L67.8442 31.3713L22.1956 4.39648Z" fill="#00C39D"/>
<path d="M50.6841 68.6365L53.4732 70.2866V50.2515H50.6841V68.6365Z" fill="#027582"/>
<path d="M27.326 1.50195L72.9745 28.4768L67.8448 31.3713L22.1963 4.39643L27.326 1.50195Z" fill="#027582"/>
<path d="M67.8446 31.3711L88.2503 31.5544V78.6814L67.3687 78.4942L67.8446 31.3711Z" fill="#00A18B"/>
<path d="M1.33398 4.19336L22.1961 4.3962L21.7241 51.5232L1.31445 51.3164L1.33398 4.19336Z" fill="#00A18B"/>
<path d="M72.9739 28.4766L86.5608 28.5819L88.2499 31.5739L67.8442 31.371L72.9739 28.4766Z" fill="#027582"/>
<path d="M6.88885 1.31836L27.3258 1.5017L22.1609 4.41569L1.29883 4.21283L6.88885 1.31836Z" fill="#027582"/>
<path d="M6.88903 1.31851L27.3298 1.50575L72.9783 28.4767L86.5652 28.582L88.2387 31.5545H88.2504V78.6815L67.3688 78.4981L21.7203 51.5272L1.31461 51.3205L1.33413 4.19348L6.88903 1.31851ZM6.57306 0L6.28439 0.148237L0.729469 3.02321L0.0195236 3.3899V4.18958L0 51.3165V52.6156L1.29901 52.6273L21.3536 52.8301L66.6979 79.6216L67.0021 79.801L67.3532 79.805L88.2348 79.9883L89.5572 80V78.6776V31.5545V30.2555L89.0033 30.2516L87.7004 27.9423L87.3259 27.2791L86.5652 27.2713L73.3294 27.166L27.9852 0.374485L27.6809 0.195046L27.3298 0.191141L6.88903 0.00390473L6.57306 0Z" fill="#00161A"/>
<path d="M30.3804 9.2334V56.6412L34.2306 58.9155V11.6559L30.3804 9.2334Z" fill="#027582"/>
<path d="M88.2505 45.1686H81.0143V58.9155H67.3689L21.9076 33.1577H1.49805" stroke="#027582" stroke-width="27.7614" stroke-miterlimit="10"/>
<path d="M88.2504 45.1689H87.1035" stroke="#00C39D" stroke-width="2.5238" stroke-miterlimit="10"/>
<path d="M85.4531 45.1689H82.9839" stroke="#00C39D" stroke-width="2.5238" stroke-miterlimit="10" stroke-dasharray="4.22 4.22"/>
<path d="M82.161 45.1689H81.0142V46.3158" stroke="#00C39D" stroke-width="2.5238" stroke-miterlimit="10"/>
<path d="M81.0142 48.6055V56.6218" stroke="#00C39D" stroke-width="2.5238" stroke-miterlimit="10" stroke-dasharray="5.87 5.87"/>
<path d="M81.0141 57.7646V58.9154H79.8633" stroke="#00C39D" stroke-width="2.5238" stroke-miterlimit="10"/>
<path d="M77.5934 58.9155H67.3691L21.9078 33.1577H3.78418" stroke="#00C39D" stroke-width="2.5238" stroke-miterlimit="10" stroke-dasharray="5.82 5.82"/>
<path d="M2.64882 33.1577H1.49805" stroke="#00C39D" stroke-width="2.5238" stroke-miterlimit="10"/>
<path d="M32.3032 28.4767L44.1503 35.6036V13.9185" stroke="#027582" stroke-width="7.1507" stroke-miterlimit="10"/>
<path d="M83.9126 43.1674V30.9341" stroke="#027582" stroke-width="7.1507" stroke-miterlimit="10"/>
<path d="M38.2291 36.2591C35.4438 34.6247 33.1852 30.4624 33.1852 26.9594C33.1852 23.4563 35.4438 21.9389 38.2291 23.5734C41.0143 25.2079 43.273 29.3701 43.273 32.8732C43.2691 36.3762 41.0104 37.8936 38.2291 36.2591ZM38.2291 17.8663C32.9394 14.7651 28.6484 17.644 28.6484 24.2989C28.6484 30.9539 38.2291 54.5896 38.2291 54.5896C38.2291 54.5896 47.8097 42.1885 47.8097 35.5336C47.8097 28.8786 43.5187 20.9676 38.2291 17.8663Z" fill="#00161A"/>
<path d="M26.4405 16.9064C24.5096 17.9791 23.3003 20.4523 23.3003 23.9866C23.3003 30.6415 32.8809 54.2772 32.8809 54.2772L35.5843 52.6427C35.5843 52.6427 45.1649 40.2417 45.1649 33.5867C45.1649 26.9318 40.8739 19.0207 35.5843 15.9156C33.0916 14.4527 30.8213 14.3201 29.1205 15.2836L26.4405 16.9064ZM30.5404 25.0164C30.5404 24.0607 30.7081 23.2571 31.0085 22.6212C31.5858 22.668 32.2178 22.8787 32.8809 23.2649C35.6662 24.8994 37.9248 29.0616 37.9248 32.5647C37.9248 33.5204 37.7571 34.324 37.4567 34.9598C36.8794 34.913 36.2474 34.7024 35.5843 34.3162C32.7951 32.6817 30.5404 28.5194 30.5404 25.0164Z" fill="#720000"/>
<path d="M39.6454 30.0138L39.8093 28.4222C38.6585 24.4628 34.8434 19.1575 30.1194 21.0963C25.1223 23.1442 25.8323 29.8772 27.6657 33.8523C28.7775 36.263 30.6031 38.5685 33.1738 39.5203C34.9019 40.1601 37.0825 40.0118 38.4907 38.7284C40.6714 36.7467 40.4295 32.5962 39.6454 30.0138ZM37.4531 34.9601C36.8757 34.9133 36.2438 34.7027 35.5806 34.3165C32.7954 32.682 30.5368 28.5197 30.5368 25.0167C30.5368 24.061 30.7045 23.2574 31.0049 22.6215C31.5822 22.6683 32.2142 22.879 32.8773 23.2652C35.6626 24.8997 37.9212 29.0619 37.9212 32.565C37.9212 33.5168 37.7535 34.3243 37.4531 34.9601Z" fill="#720000"/>
<path d="M32.877 35.9471C30.0918 34.3126 27.8332 30.1504 27.8332 26.6474C27.8332 23.1443 30.0918 21.6269 32.877 23.2614C35.6623 24.8958 37.9209 29.0581 37.9209 32.5611C37.9209 36.0642 35.6623 37.5816 32.877 35.9471ZM32.877 17.5543C27.5874 14.4531 23.2964 17.332 23.2964 23.9869C23.2964 30.6419 32.877 54.2775 32.877 54.2775C32.877 54.2775 42.4577 41.8765 42.4577 35.2216C42.4577 28.5666 38.1706 20.6555 32.877 17.5543Z" fill="#FF0000"/>
<path d="M31.5386 14.6715C32.7674 14.6715 34.1366 15.0733 35.58 15.9198C40.8696 19.021 45.1606 26.9321 45.1606 33.5909C45.1606 40.2459 35.58 52.6469 35.58 52.6469L32.8766 54.2814C32.8766 54.2814 32.034 52.1983 30.8443 49.0932C30.7818 48.9294 30.7194 48.7655 30.6531 48.5939C30.4152 47.9658 30.1616 47.2988 29.9002 46.6005C29.8534 46.4796 29.8105 46.3587 29.7637 46.2377C29.2449 44.8451 28.6949 43.3432 28.1448 41.7946C27.825 40.8974 27.5051 39.9885 27.193 39.0717C27.1189 38.8572 27.0448 38.6426 26.9746 38.4281C26.8029 37.9288 26.6352 37.4256 26.4714 36.9262C26.3777 36.6376 26.2802 36.3528 26.1905 36.0641C26.011 35.518 25.8394 34.9758 25.6716 34.4375C25.4922 33.8601 25.3167 33.2867 25.1489 32.7249C25.028 32.3192 24.911 31.9175 24.7978 31.5235C24.7432 31.3284 24.6886 31.1295 24.634 30.9383C24.5404 30.6028 24.4507 30.2752 24.3688 29.9514C23.7173 27.4743 23.3038 25.3639 23.3038 23.983C23.3038 23.7684 23.3077 23.5578 23.3194 23.351C23.3233 23.2808 23.3272 23.2145 23.3311 23.1482C23.3389 23.0117 23.3467 22.8751 23.3584 22.7425C23.3662 22.6645 23.374 22.5865 23.3818 22.5084C23.3935 22.3914 23.4052 22.2744 23.4208 22.1574C23.4325 22.0754 23.4442 21.9974 23.4559 21.9194C23.4715 21.8102 23.491 21.7049 23.5105 21.5995C23.5261 21.5215 23.5418 21.4435 23.5574 21.3655C23.5769 21.2641 23.6003 21.1626 23.6237 21.0651C23.6432 20.9871 23.6627 20.913 23.6822 20.8389C23.7056 20.7452 23.7329 20.6516 23.7602 20.558C23.7836 20.4839 23.807 20.4097 23.8304 20.3395C23.8616 20.2498 23.8889 20.164 23.9201 20.0743C23.9474 20.0041 23.9709 19.9338 23.9982 19.8675C24.0333 19.7856 24.0645 19.6998 24.0996 19.6218C24.1269 19.5555 24.1581 19.4891 24.1893 19.4267C24.2283 19.3487 24.2634 19.2707 24.3063 19.1927C24.3375 19.1302 24.3726 19.0678 24.4038 19.0093C24.4468 18.9352 24.4897 18.8611 24.5326 18.7909C24.5677 18.7324 24.6028 18.6777 24.6379 18.6192C24.6847 18.549 24.7315 18.4827 24.7783 18.4164C24.8174 18.3657 24.8525 18.3111 24.8915 18.2604C24.9422 18.194 24.9929 18.1316 25.0475 18.0692C25.0865 18.0224 25.1255 17.9756 25.1645 17.9288C25.2191 17.8664 25.2777 17.8078 25.3362 17.7493C25.3752 17.7103 25.4142 17.6674 25.4571 17.6284C25.5195 17.5699 25.5858 17.5114 25.6482 17.4568C25.6872 17.4217 25.7263 17.3865 25.7653 17.3553C25.8394 17.2929 25.9174 17.2383 25.9954 17.1837C26.0266 17.1603 26.0578 17.1369 26.089 17.1135C26.2022 17.0394 26.3153 16.9652 26.4323 16.9028L29.1084 15.2839C29.83 14.8822 30.6492 14.6715 31.5386 14.6715ZM37.4524 34.9602C37.4875 34.8822 37.5226 34.8041 37.5538 34.7222C37.5577 34.7144 37.5578 34.7105 37.5617 34.7027C37.5929 34.6286 37.6202 34.5506 37.6436 34.4726C37.6475 34.4609 37.6514 34.4452 37.6553 34.4335C37.6787 34.3594 37.7021 34.2853 37.7216 34.2073C37.7255 34.1878 37.7333 34.1683 37.7372 34.1527C37.7567 34.0786 37.7723 34.0083 37.7879 33.9303C37.7918 33.9069 37.7996 33.8835 37.8035 33.8562C37.8191 33.786 37.8308 33.7119 37.8425 33.6378C37.8464 33.6104 37.8503 33.5793 37.8542 33.5519C37.8659 33.4817 37.8737 33.4076 37.8815 33.3335C37.8854 33.3023 37.8893 33.2711 37.8932 33.236C37.901 33.1579 37.9049 33.0799 37.9088 33.0019C37.9088 32.9707 37.9127 32.9395 37.9127 32.9083C37.9166 32.7991 37.9205 32.6859 37.9205 32.5689C37.9205 31.582 37.7411 30.5443 37.4251 29.5262C37.3198 29.1868 37.1989 28.8474 37.0623 28.5159C37.0155 28.4066 36.9687 28.2935 36.9219 28.1843C36.0013 26.0973 34.5345 24.2366 32.8806 23.2691C32.8806 23.2691 32.8766 23.2691 32.8766 23.2652C32.7947 23.2184 32.7128 23.1716 32.6309 23.1287C32.588 23.1053 32.549 23.0897 32.5061 23.0663C32.4631 23.0468 32.4241 23.0234 32.3812 23.0078C32.3266 22.9844 32.272 22.961 32.2174 22.9375C32.1901 22.9258 32.1667 22.9141 32.1394 22.9063C32.077 22.8829 32.0145 22.8595 31.9521 22.8361C31.9365 22.8322 31.9209 22.8244 31.9053 22.8205C31.8351 22.7971 31.7688 22.7776 31.6986 22.7581C31.6908 22.7542 31.683 22.7542 31.6752 22.7503C31.601 22.7308 31.5308 22.7113 31.4567 22.6957C31.4528 22.6957 31.4528 22.6957 31.4489 22.6957C31.3748 22.6801 31.3007 22.6645 31.2266 22.6567C31.1525 22.645 31.0783 22.6372 31.0081 22.6294C30.7077 23.2652 30.54 24.0727 30.54 25.0245C30.54 28.5276 32.7986 32.6898 35.5839 34.3243C36.2431 34.7027 36.8712 34.9095 37.4524 34.9602ZM31.5386 13.6885C30.4815 13.6885 29.5024 13.9381 28.6285 14.4336L28.6169 14.4414L28.6051 14.4492L25.9447 16.0602C25.8121 16.1343 25.6756 16.2202 25.5429 16.3099C25.5117 16.3333 25.4766 16.3567 25.4454 16.3801L25.4259 16.3918C25.3323 16.4581 25.2387 16.5283 25.1489 16.5986C25.1099 16.6298 25.0748 16.661 25.0397 16.6922L25.0085 16.7195C24.9227 16.7936 24.8486 16.856 24.7783 16.9223C24.7393 16.9574 24.7042 16.9964 24.6652 17.0355L24.634 17.0667C24.5599 17.1408 24.4936 17.2071 24.4312 17.2812C24.3921 17.3241 24.357 17.367 24.318 17.4138L24.2907 17.4451C24.2283 17.5192 24.1659 17.5933 24.1074 17.6713C24.0684 17.722 24.0294 17.7766 23.9904 17.8273L23.9748 17.8508C23.9201 17.9288 23.8655 18.0068 23.8109 18.0887C23.768 18.1511 23.729 18.2174 23.69 18.2838C23.6393 18.3657 23.5925 18.4476 23.5418 18.5334C23.5028 18.6036 23.4676 18.6738 23.4286 18.7441C23.3818 18.8299 23.3389 18.9196 23.296 19.0093C23.2609 19.0834 23.2297 19.1576 23.1946 19.2317C23.1556 19.3214 23.1166 19.415 23.0775 19.5086C23.0463 19.5867 23.0151 19.6647 22.9878 19.7427C22.9527 19.8402 22.9176 19.9377 22.8864 20.0353C22.8591 20.1172 22.8318 20.1952 22.8084 20.2771C22.7772 20.3785 22.7499 20.4839 22.7226 20.5853L22.7148 20.6165C22.6953 20.6906 22.6757 20.7608 22.6562 20.835C22.6289 20.9442 22.6055 21.0534 22.5821 21.1626L22.5704 21.2133C22.5548 21.2797 22.5431 21.3499 22.5275 21.4201C22.508 21.5293 22.4885 21.6385 22.4729 21.7478L22.469 21.7673L22.4573 21.8336C22.4456 21.896 22.4378 21.9623 22.43 22.0247C22.4144 22.1379 22.4027 22.251 22.391 22.368L22.3871 22.4031L22.3793 22.4772C22.3715 22.5358 22.3676 22.5943 22.3598 22.6567C22.3481 22.7932 22.3403 22.9336 22.3325 23.0741L22.3286 23.1599C22.3247 23.2106 22.3208 23.2574 22.3208 23.3081C22.313 23.5344 22.3052 23.7606 22.3052 23.983C22.3052 25.3639 22.6641 27.3963 23.4013 30.201C23.4872 30.5287 23.5769 30.8603 23.6705 31.2036C23.7251 31.3986 23.7797 31.5976 23.8382 31.7965C23.9514 32.1944 24.0684 32.6001 24.1932 33.0097C24.3609 33.5753 24.5365 34.1527 24.7198 34.7339C24.8876 35.2722 25.0631 35.8184 25.2426 36.3684C25.3362 36.6571 25.4298 36.9457 25.5273 37.2344C25.6951 37.7376 25.8628 38.2408 26.0345 38.7441C26.1086 38.9586 26.1827 39.1771 26.2568 39.3916C26.5572 40.2615 26.877 41.1821 27.2125 42.1262C27.7196 43.5539 28.2697 45.0518 28.8392 46.581L28.9757 46.9477C29.2371 47.646 29.4907 48.313 29.7286 48.945L29.9197 49.4443C31.0978 52.5221 31.9521 54.6286 31.9599 54.6481L32.3929 55.7169L33.3799 55.1201L36.0832 53.4856L36.2392 53.392L36.3524 53.2477C36.7502 52.7288 46.1398 40.5034 46.1398 33.5909C46.1398 26.6356 41.6225 18.3267 36.0715 15.0733C34.515 14.1527 32.9859 13.6885 31.5386 13.6885ZM36.8049 33.8133C36.5708 33.7275 36.3251 33.6144 36.0793 33.4661C33.61 32.0189 31.523 28.1492 31.523 25.0167C31.523 24.5642 31.5659 24.1429 31.6518 23.7684C31.6908 23.784 31.7337 23.7996 31.7727 23.8153L31.7922 23.8231L31.8312 23.8387C31.8819 23.8582 31.9209 23.8777 31.9638 23.8972C31.9833 23.905 32.0028 23.9167 32.0223 23.9245L32.0613 23.944L32.1043 23.9674C32.1238 23.9752 32.1433 23.9869 32.1628 23.9947C32.233 24.0298 32.2993 24.0688 32.3695 24.1078L32.3851 24.1156H32.389C33.7934 24.9426 35.147 26.6083 36.013 28.5744C36.0559 28.6758 36.1027 28.7772 36.1417 28.8825C36.2665 29.1907 36.3797 29.5028 36.4772 29.8149C36.7776 30.7745 36.9297 31.699 36.9297 32.5611C36.9297 32.6625 36.9258 32.76 36.9219 32.8576V32.8849L36.918 32.9356C36.9141 33.0019 36.9102 33.0721 36.9024 33.1384L36.8985 33.1736L36.8946 33.2204C36.8868 33.2828 36.8829 33.3452 36.8712 33.4076L36.8634 33.4466L36.8595 33.4817C36.8517 33.5441 36.84 33.6026 36.8283 33.6651L36.8205 33.7041L36.8166 33.7275C36.8166 33.7548 36.8127 33.7821 36.8049 33.8133Z" fill="#00161A"/>
</svg>
