<svg width="98" height="90" viewBox="0 0 98 90" fill="none" xmlns="http://www.w3.org/2000/svg">
<path d="M97.4127 65.5891C97.4127 65.5891 89.8679 70.0094 68.7135 82.4076C47.5592 94.8058 20.657 88.2878 20.657 88.2878C20.657 88.2878 19.6663 66.5839 30.1191 60.459C42.9505 52.9383 58.8182 43.6406 58.8182 43.6406C58.8182 43.6406 77.8507 46.5045 92.6676 46.3601C93.2171 58.285 97.4127 65.5891 97.4127 65.5891Z" fill="#00161A"/>
<path d="M30.2432 1.93359C19.674 7.48892 11.0061 1.93758 11.0061 1.93758C11.0061 1.93758 11.0061 10.6817 11.0061 35.2014C11.0061 51.8633 19.8826 66.3954 25.5703 74.0004L22.2732 74.9109L20.5725 85.1832L30.2351 79.6359C30.2351 79.6359 49.4601 69.52 49.4601 57.4026C49.4601 42.5296 49.4601 24.1388 49.4601 24.1388C49.4601 24.1388 34.896 15.8119 30.2432 1.93359Z" fill="url(#paint0_linear_360_3695)"/>
<path d="M11.0102 12.607L12.9716 15.8038L20.5725 7.36858L30.2432 1.93359C19.6741 7.48892 11.0061 1.93758 11.0061 1.93758L1.34351 7.48489L6.99508 12.619C6.99909 14.0189 11.0102 10.6095 11.0102 12.607Z" fill="url(#paint1_linear_360_3695)"/>
<path d="M24.9327 19.4455C24.9327 19.9669 39.8017 29.6817 39.8017 29.6817L49.4644 24.1344C49.4644 24.1344 34.9002 15.8115 30.2474 1.9292L20.5767 7.36418C20.5727 7.36418 24.9327 18.9241 24.9327 19.4455Z" fill="url(#paint2_linear_360_3695)"/>
<path d="M1.34741 7.48595C1.34741 7.48595 1.34741 16.2301 1.34741 40.7497C1.34741 65.2693 20.5725 85.1843 20.5725 85.1843C20.5725 85.1843 39.7975 75.0684 39.7975 62.9509C39.7975 48.0779 39.7975 29.6872 39.7975 29.6872C39.7975 29.6872 25.2333 21.3642 20.5805 7.48193C10.0153 13.0373 1.34741 7.48595 1.34741 7.48595Z" fill="#00C39D"/>
<path d="M3.69409 12.2306C3.69409 12.2306 3.69409 19.9077 3.69409 41.4311C3.69409 62.9585 20.5726 80.4387 20.5726 80.4387C20.5726 80.4387 37.4512 71.5582 37.4512 60.9209C37.4512 47.8649 37.4512 31.7203 37.4512 31.7203C37.4512 31.7203 23.252 24.4122 19.1688 12.2266C9.89119 17.104 3.69409 12.2306 3.69409 12.2306Z" fill="url(#paint3_linear_360_3695)"/>
<path d="M5.19824 40.9522C5.19824 24.4948 5.19824 16.1358 5.19824 13.1074C4.22355 12.6421 3.69409 12.229 3.69409 12.229C3.69409 12.229 3.69409 19.9062 3.69409 41.4295C3.69409 62.9569 20.5727 80.4371 20.5727 80.4371C20.5727 80.4371 21.054 80.1844 21.8482 79.7151C19.8466 77.5491 5.19824 61.0075 5.19824 40.9522Z" fill="url(#paint4_linear_360_3695)"/>
<path d="M8.69561 36.1515L8.68359 26.2241L12.9955 28.707L12.9834 38.6343L8.69561 36.1515Z" fill="#00C39D"/>
<path d="M8.69561 51.0328L8.68359 41.1055L12.9955 43.5883L12.9834 53.5157L8.69561 51.0328Z" fill="#00C39D"/>
<path d="M25.8829 46.0791L25.8708 36.1558L30.1868 38.6346L30.1707 48.562L25.8829 46.0791Z" fill="#00C39D"/>
<path d="M25.8829 60.9605L25.8708 51.0371L30.1868 53.5159L30.1707 63.4433L25.8829 60.9605Z" fill="#00C39D"/>
<path d="M12.9834 38.6362L12.9954 43.5899L25.8709 51.0384L25.883 46.0808L12.9834 38.6362Z" fill="#00C39D"/>
<path d="M21.5832 23.7493L21.5872 28.711L8.68359 21.2584V16.3008L21.5832 23.7493Z" fill="#0D4751"/>
<path d="M21.5873 28.7117L21.5913 38.6351L17.2754 36.1201V26.2168L21.5873 28.7117Z" fill="#1F7F67"/>
<path d="M25.8791 60.9676L25.8871 65.9293L12.9795 58.4767V53.519L25.8791 60.9676Z" fill="#0D4751"/>
<path d="M19.4175 64.5224L15.1296 62.0396V66.9892L19.4215 69.4801L19.4175 64.5224Z" fill="#1F7F67"/>
<path d="M18.5188 49.164L14.231 46.6812V51.6308L18.5228 54.1217L18.5188 49.164Z" fill="#1F7F67"/>
<path d="M34.5227 50.7363L30.2349 48.2534V53.2071L34.5267 55.6979L34.5227 50.7363Z" fill="#1F7F67"/>
<path d="M12.9792 38.6341L8.69141 36.1553V41.1049L12.9832 43.5958L12.9792 38.6341Z" fill="#0D4751"/>
<path d="M25.887 65.9303V75.8537L21.571 73.3388V63.4395L25.887 65.9303Z" fill="#0D4751"/>
<path d="M34.4708 36.1679L30.187 33.6851V38.6347L34.4789 41.1256L34.4708 36.1679Z" fill="#0D4751"/>
<path d="M30.1791 33.6806L25.8953 31.1978V36.1474L30.1871 38.6383L30.1791 33.6806Z" fill="#0D4751"/>
<path d="M30.1791 28.7944L25.8953 26.3115V31.2612L30.1871 33.752L30.1791 28.7944Z" fill="#1F7F67"/>
<path d="M30.2434 1.93334C30.6806 3.23292 31.2021 4.48838 31.7917 5.68768C31.9361 5.98049 32.0845 6.2733 32.2369 6.56209C32.3974 6.86292 32.5578 7.15973 32.7223 7.45254C33.0472 8.02612 33.3881 8.58767 33.7411 9.13719C33.9737 9.50219 34.2144 9.86319 34.4591 10.2162C34.5794 10.3927 34.7037 10.5691 34.8281 10.7416C35.3254 11.4355 35.8389 12.1094 36.3603 12.7552C36.4927 12.9156 36.621 13.0761 36.7534 13.2365C42.5654 20.2077 49.4524 24.1426 49.4524 24.1426C49.4524 24.1426 49.4524 42.5333 49.4524 57.4063C49.4524 69.5237 30.2274 79.6396 30.2274 79.6396L22.5221 84.0638C21.3188 84.7898 20.5687 85.1869 20.5647 85.1869C20.5647 85.1869 1.33971 65.272 1.33971 40.7524C1.33971 16.2328 1.33971 7.48865 1.33971 7.48865L11.0023 1.94134C11.0023 1.94134 11.5439 2.2863 12.5226 2.7235C12.7071 2.80372 12.9036 2.88796 13.1162 2.9762C13.1884 3.00428 13.2606 3.03237 13.3328 3.06044C13.4812 3.1166 13.6376 3.17676 13.7981 3.23292C14.0387 3.32116 14.2954 3.4054 14.5642 3.48963C15.0134 3.63002 15.4987 3.76238 16.0162 3.88672C16.1205 3.91079 16.2248 3.93485 16.3331 3.95892C16.7582 4.05117 17.2035 4.13138 17.6727 4.19957C17.7891 4.21561 17.9054 4.23166 18.0257 4.2477C18.8159 4.34798 19.6582 4.40815 20.5487 4.40815C23.4046 4.40414 26.7177 3.78645 30.2434 1.93334ZM31.0216 0L29.6177 0.738022C26.6936 2.27426 23.6452 3.05241 20.5527 3.05241C19.7705 3.05241 18.9804 3.00027 18.2022 2.90401C18.0899 2.88796 17.9816 2.87593 17.8733 2.85989C17.4602 2.79972 17.039 2.72351 16.6259 2.63527C16.5256 2.61522 16.4293 2.59114 16.3331 2.57108C15.8798 2.46679 15.4226 2.34246 14.9773 2.20207C14.7407 2.12586 14.5 2.04565 14.2633 1.96142C14.1149 1.90927 13.9706 1.85311 13.8302 1.80096C13.762 1.77289 13.6938 1.74881 13.6296 1.72074C13.4331 1.64052 13.2486 1.5643 13.0761 1.48809C12.2217 1.11105 11.7404 0.806224 11.7364 0.802212L11.0505 0.369011L10.3405 0.774132L0.677871 6.32144L0 6.7105V7.49266C0 7.49266 0 16.2368 0 40.7564C0 53.7322 5.3307 65.3763 9.80304 72.8609C14.6324 80.9432 19.4015 85.921 19.6021 86.1295L20.3241 86.8756L21.2185 86.3782C21.3469 86.31 22.0809 85.917 23.216 85.2311L30.8892 80.8269C31.3023 80.6063 35.9752 78.0954 40.7203 74.1044C47.4188 68.4688 50.8122 62.8533 50.8122 57.4103V24.1466V23.3644L50.1303 22.9754C50.0621 22.9393 43.3756 19.0646 37.8003 12.3781C37.6719 12.2257 37.5436 12.0693 37.4192 11.9129C36.8978 11.2711 36.4004 10.6173 35.9351 9.96347C35.8148 9.795 35.6945 9.62655 35.5781 9.45408C35.3415 9.10913 35.1089 8.76015 34.8842 8.4152C34.5393 7.87772 34.2104 7.33222 33.9055 6.79474C33.7611 6.54204 33.6087 6.26127 33.4402 5.94038C33.2718 5.62351 33.1354 5.35476 33.011 5.10206C32.4294 3.9188 31.9321 2.71146 31.531 1.51215L31.0216 0Z" fill="#00161A"/>
<defs>
<linearGradient id="paint0_linear_360_3695" x1="58.9597" y1="89.091" x2="38.8993" y2="60.2439" gradientUnits="userSpaceOnUse">
<stop stop-color="#1F7F67"/>
<stop offset="1" stop-color="#032444"/>
</linearGradient>
<linearGradient id="paint1_linear_360_3695" x1="17.4062" y1="7.7919" x2="9.60294" y2="-7.15515" gradientUnits="userSpaceOnUse">
<stop stop-color="#1F7F67"/>
<stop offset="1" stop-color="#032444"/>
</linearGradient>
<linearGradient id="paint2_linear_360_3695" x1="40.2519" y1="27.1344" x2="26.3256" y2="2.81872" gradientUnits="userSpaceOnUse">
<stop stop-color="#1F7F67"/>
<stop offset="1" stop-color="#032444"/>
</linearGradient>
<linearGradient id="paint3_linear_360_3695" x1="0.647731" y1="45.2844" x2="68.5142" y2="48.9833" gradientUnits="userSpaceOnUse">
<stop stop-color="#1F7F67"/>
<stop offset="1" stop-color="#032444"/>
</linearGradient>
<linearGradient id="paint4_linear_360_3695" x1="52.7707" y1="45.313" x2="14.3345" y2="46.2779" gradientUnits="userSpaceOnUse">
<stop stop-color="#1F7F67"/>
<stop offset="1" stop-color="#032444"/>
</linearGradient>
</defs>
</svg>
