<svg width="26" height="31" viewBox="0 0 26 31" fill="none" xmlns="http://www.w3.org/2000/svg">
<path d="M21.0343 16.5038C20.9992 12.691 24.2363 10.836 24.3843 10.7497C22.551 8.14356 19.7094 7.78748 18.7108 7.75908C16.3242 7.5142 14.0092 9.15147 12.7934 9.15147C11.5534 9.15147 9.68125 7.78274 7.66348 7.82296C5.06697 7.862 2.63789 9.32773 1.30566 11.6038C-1.44374 16.2447 0.606779 23.0646 3.24091 26.8159C4.55858 28.6531 6.09829 30.7044 8.11363 30.6323C10.0853 30.553 10.8218 29.4067 13.2011 29.4067C15.5586 29.4067 16.2502 30.6323 18.3056 30.5861C20.4216 30.553 21.7538 28.7406 23.0254 26.8869C24.5481 24.7812 25.1596 22.7074 25.1839 22.6009C25.1342 22.5844 21.0744 21.0737 21.0343 16.5038Z" fill="white"/>
<path d="M17.1517 5.29136C18.2121 3.99835 18.9377 2.23924 18.7363 0.454102C17.2014 0.520349 15.282 1.48922 14.1766 2.75384C13.1987 3.86822 12.3251 5.69476 12.5508 7.41247C14.2749 7.53786 16.0451 6.56426 17.1517 5.29136Z" fill="white"/>
</svg>
