<svg width="27" height="29" viewBox="0 0 27 29" fill="none" xmlns="http://www.w3.org/2000/svg">
<path d="M0.86686 1.65866C0.551283 1.98074 0.368652 2.48221 0.368652 3.13163V26.2959C0.368652 26.9453 0.551283 27.4468 0.86686 27.7689L0.944748 27.8396L14.2581 14.8643V14.558L0.944748 1.58272L0.86686 1.65866Z" fill="white"/>
<path d="M20.3022 19.1909L15.8694 14.8637V14.5573L20.3076 10.23L20.407 10.2863L25.663 13.2021C27.163 14.0296 27.163 15.3913 25.663 16.224L20.407 19.1346L20.3022 19.1909Z" fill="white"/>
<path d="M19.6014 19.9412L15.0638 15.517L1.67261 28.5747C2.17082 29.0854 2.98326 29.1469 3.90716 28.6363L19.6014 19.9412Z" fill="white"/>
<path d="M19.6014 9.48124L3.90716 0.786122C2.98326 0.280728 2.17082 0.342264 1.67261 0.852894L15.0638 13.9054L19.6014 9.48124Z" fill="white"/>
</svg>
