<svg width="309" height="267" viewBox="0 0 309 267" fill="none" xmlns="http://www.w3.org/2000/svg">
  <g filter="url(#filter0_d_318_4747)">
    <path
      d="M61.55 178.175C50.0046 171.244 44.2319 167.779 42.069 163.783C40.1665 160.268 40.1665 156.482 42.069 152.967C44.2319 148.971 50.0046 145.505 61.55 138.575L121.536 102.566C133.082 95.6351 138.855 92.1698 145.511 90.8714C151.367 89.7294 157.674 89.7294 163.529 90.8714C170.186 92.1698 175.959 95.6351 187.504 102.566L247.49 138.575C259.036 145.505 264.809 148.971 266.972 152.967C268.874 156.482 268.874 160.268 266.972 163.783C264.809 167.779 259.036 171.244 247.49 178.175L187.504 214.184C175.959 221.114 170.186 224.58 163.529 225.878C157.674 227.02 151.367 227.02 145.511 225.878C138.855 224.58 133.082 221.114 121.536 214.184L61.55 178.175Z"
      fill="#060A1F" />
  </g>
  <path
    d="M142.7 32.3599H165.075V182.277C163.668 183.172 162.965 183.619 162.28 183.978C157.002 186.745 150.774 186.745 145.495 183.978C144.81 183.619 144.107 183.172 142.7 182.277V32.3599Z"
    fill="url(#paint0_linear_318_4747)" />
  <path
    d="M28.1934 78.8254L152.731 150.864L278.796 78.8254V106.598C278.796 113.13 275.343 119.172 269.723 122.471L162.758 185.276C157.037 188.636 149.953 188.636 144.231 185.276L37.2668 122.471C31.6469 119.172 28.1934 113.13 28.1934 106.598V78.8254Z"
    fill="url(#paint1_linear_318_4747)" />
  <path fill-rule="evenodd" clip-rule="evenodd"
    d="M28.0254 73.1444L152.954 146.455L278.815 72.6611V106.71C278.815 112.979 275.58 118.766 270.342 121.87L165.421 184.03C157.982 188.437 148.858 188.437 141.419 184.03L36.4987 121.87C31.26 118.766 28.0254 112.979 28.0254 106.71V73.1444ZM152.954 148.681L29.89 76.4647V106.71C29.89 112.282 32.7652 117.427 37.4218 120.185L142.343 182.346C149.209 186.414 157.631 186.414 164.498 182.346L269.418 120.185C274.075 117.427 276.95 112.282 276.95 106.71V75.9801L152.954 148.681Z"
    fill="#027582" />
  <path
    d="M37.5423 84.9002C32.1161 81.6429 29.403 80.0143 28.3864 78.1362C27.4923 76.4843 27.4923 74.7048 28.3864 73.0528C29.403 71.1748 32.1161 69.5461 37.5423 66.2888L138.144 5.89873C143.57 2.64142 146.283 1.01278 149.412 0.402568C152.164 -0.134191 155.128 -0.134189 157.88 0.40257C161.009 1.01278 163.722 2.64143 169.148 5.89873L269.75 66.2888C275.176 69.5461 277.889 71.1748 278.906 73.0528C279.8 74.7048 279.8 76.4842 278.906 78.1362C277.889 80.0142 275.176 81.6429 269.75 84.9002L169.148 145.29C163.722 148.548 161.009 150.176 157.88 150.786C155.128 151.323 152.164 151.323 149.412 150.786C146.283 150.176 143.57 148.548 138.144 145.29L37.5423 84.9002Z"
    fill="url(#paint2_linear_318_4747)" />
  <path fill-rule="evenodd" clip-rule="evenodd"
    d="M140.566 7.35274L39.9645 67.7428C37.2114 69.3955 35.2942 70.5486 33.9221 71.5188C32.5761 72.4706 31.9572 73.1102 31.6443 73.6882C30.9737 74.9272 30.9737 76.2618 31.6443 77.5008C31.9572 78.0788 32.5761 78.7184 33.9221 79.6702C35.2942 80.6404 37.2114 81.7936 39.9645 83.4462L140.566 143.836C143.319 145.489 145.24 146.64 146.857 147.463C148.442 148.271 149.508 148.643 150.471 148.831C152.534 149.233 154.758 149.233 156.822 148.831C157.785 148.643 158.85 148.271 160.436 147.463C162.052 146.64 163.973 145.489 166.726 143.836L267.328 83.4462C270.081 81.7936 271.998 80.6404 273.37 79.6702C274.716 78.7184 275.335 78.0788 275.648 77.5008C276.319 76.2618 276.319 74.9272 275.648 73.6882C275.335 73.1102 274.716 72.4706 273.37 71.5188C271.998 70.5486 270.081 69.3955 267.328 67.7428L166.726 7.35274C163.973 5.7001 162.052 4.5492 160.436 3.72558C158.85 2.91755 157.785 2.54602 156.822 2.35821C154.758 1.95564 152.534 1.95565 150.471 2.35821C149.508 2.54602 148.442 2.91755 146.857 3.72558C145.24 4.54919 143.319 5.7001 140.566 7.35274ZM28.3864 78.1362C29.403 80.0143 32.1161 81.6429 37.5423 84.9002L138.144 145.29C143.57 148.548 146.283 150.176 149.412 150.786C152.164 151.323 155.128 151.323 157.88 150.786C161.009 150.176 163.722 148.548 169.148 145.29L269.75 84.9002C275.176 81.6429 277.889 80.0143 278.906 78.1362C279.8 76.4843 279.8 74.7048 278.906 73.0528C277.889 71.1748 275.176 69.5461 269.75 66.2888L169.148 5.89873C163.722 2.64143 161.009 1.01278 157.88 0.402568C155.128 -0.134191 152.164 -0.134187 149.412 0.402566C146.283 1.01278 143.57 2.64143 138.144 5.89872L37.5423 66.2888C32.1161 69.5461 29.403 71.1748 28.3864 73.0528C27.4923 74.7048 27.4923 76.4843 28.3864 78.1362Z"
    fill="#027582" />
  <defs>
    <filter id="filter0_d_318_4747" x="0.64209" y="50.0149" width="307.756" height="216.719"
      filterUnits="userSpaceOnUse" color-interpolation-filters="sRGB">
      <feFlood flood-opacity="0" result="BackgroundImageFix" />
      <feColorMatrix in="SourceAlpha" type="matrix" values="0 0 0 0 0 0 0 0 0 0 0 0 0 0 0 0 0 0 127 0"
        result="hardAlpha" />
      <feMorphology radius="8" operator="dilate" in="SourceAlpha" result="effect1_dropShadow_318_4747" />
      <feOffset />
      <feGaussianBlur stdDeviation="16" />
      <feColorMatrix type="matrix" values="0 0 0 0 0.0243137 0 0 0 0 0.0398745 0 0 0 0 0.121569 0 0 0 1 0" />
      <feBlend mode="normal" in2="BackgroundImageFix" result="effect1_dropShadow_318_4747" />
      <feBlend mode="normal" in="SourceGraphic" in2="effect1_dropShadow_318_4747" result="shape" />
    </filter>
    <linearGradient id="paint0_linear_318_4747" x1="153.422" y1="24.6051" x2="153.422" y2="189.394"
      gradientUnits="userSpaceOnUse">
      <stop stop-color="#50209B" />
      <stop offset="1" stop-color="#550D8F" />
    </linearGradient>
    <linearGradient id="paint1_linear_318_4747" x1="146.823" y1="134.954" x2="176.49" y2="76.5008"
      gradientUnits="userSpaceOnUse">
      <stop stop-color="#00C39D" />
      <stop offset="1" stop-color="#042666" />
    </linearGradient>
    <linearGradient id="paint2_linear_318_4747" x1="177.717" y1="-231.717" x2="172.753" y2="197.425"
      gradientUnits="userSpaceOnUse">
      <stop stop-color="#00C39D" />
      <stop offset="1" stop-color="#042666" />
    </linearGradient>
  </defs>
</svg>