<svg width="591" height="429" viewBox="0 0 591 429" fill="none" xmlns="http://www.w3.org/2000/svg">
<path d="M269.793 73.7949H322.293V415.671C318.992 417.712 317.341 418.732 315.735 419.55C303.349 425.859 288.736 425.859 276.35 419.55C274.744 418.732 273.094 417.712 269.793 415.671V73.7949Z" fill="url(#paint0_linear_360_3766)"/>
<path d="M1.12073 179.757L293.328 344.036L589.121 179.757V243.091C589.121 257.986 581.017 271.764 567.831 279.289L316.856 422.511C303.431 430.172 286.81 430.172 273.386 422.511L22.4101 279.289C9.224 271.764 1.12073 257.986 1.12073 243.091V179.757Z" fill="url(#paint1_linear_360_3766)"/>
<path fill-rule="evenodd" clip-rule="evenodd" d="M0.727051 166.802L293.853 333.982L589.165 165.7V243.346C589.165 257.642 581.575 270.84 569.284 277.917L323.104 419.67C305.649 429.72 284.243 429.72 266.788 419.67L20.6083 277.917C8.31658 270.84 0.727051 257.642 0.727051 243.346V166.802ZM293.852 339.058L5.10205 174.374V243.346C5.10205 256.054 11.8483 267.785 22.7743 274.076L268.954 415.829C285.066 425.106 304.826 425.106 320.938 415.829L567.117 274.076C578.044 267.785 584.79 256.054 584.79 243.346V173.269L293.852 339.058Z" fill="#027582"/>
<path d="M23.0563 193.609C10.3245 186.181 3.95864 182.467 1.57351 178.185C-0.524504 174.417 -0.524504 170.359 1.57351 166.592C3.95864 162.31 10.3245 158.595 23.0563 151.167L259.102 13.4517C271.834 6.0236 278.2 2.30957 285.541 0.918032C291.998 -0.306014 298.953 -0.306009 305.41 0.918036C312.751 2.30958 319.117 6.02361 331.849 13.4517L567.895 151.167C580.626 158.595 586.992 162.31 589.377 166.592C591.475 170.359 591.475 174.417 589.377 178.185C586.992 182.467 580.626 186.181 567.895 193.609L331.849 331.325C319.117 338.753 312.751 342.467 305.41 343.859C298.953 345.083 291.998 345.083 285.541 343.859C278.2 342.467 271.834 338.753 259.102 331.325L23.0563 193.609Z" fill="url(#paint2_linear_360_3766)"/>
<path fill-rule="evenodd" clip-rule="evenodd" d="M264.786 16.7675L28.7396 154.483C22.2799 158.252 17.7814 160.882 14.5621 163.094C11.4038 165.265 9.95163 166.723 9.21752 168.041C7.64401 170.867 7.64401 173.91 9.21752 176.736C9.95163 178.054 11.4038 179.512 14.5621 181.683C17.7814 183.895 22.2799 186.525 28.7396 190.294L264.786 328.009C271.245 331.778 275.753 334.403 279.545 336.281C283.265 338.124 285.765 338.971 288.024 339.399C292.867 340.317 298.084 340.317 302.927 339.399C305.186 338.971 307.686 338.124 311.406 336.281C315.198 334.403 319.706 331.778 326.165 328.009L562.211 190.294C568.671 186.525 573.17 183.895 576.389 181.683C579.547 179.512 580.999 178.054 581.733 176.736C583.307 173.91 583.307 170.867 581.733 168.041C580.999 166.723 579.547 165.265 576.389 163.094C573.17 160.882 568.671 158.252 562.211 154.483L326.165 16.7675C319.706 12.9987 315.198 10.3742 311.406 8.49595C307.686 6.65329 305.186 5.80605 302.927 5.37775C298.084 4.45972 292.867 4.45972 288.024 5.37775C285.765 5.80604 283.265 6.65329 279.545 8.49594C275.753 10.3741 271.245 12.9987 264.786 16.7675ZM1.57351 178.185C3.95864 182.467 10.3245 186.181 23.0563 193.61L259.102 331.325C271.834 338.753 278.2 342.467 285.541 343.859C291.998 345.083 298.953 345.083 305.41 343.859C312.751 342.467 319.117 338.753 331.849 331.325L567.895 193.609C580.626 186.181 586.992 182.467 589.377 178.185C591.475 174.417 591.475 170.359 589.377 166.592C586.992 162.31 580.626 158.595 567.895 151.167L331.849 13.4517C319.117 6.02361 312.751 2.30958 305.41 0.918031C298.953 -0.306014 291.998 -0.306005 285.541 0.918027C278.2 2.30957 271.834 6.02361 259.102 13.4517L23.0563 151.167C10.3245 158.595 3.95864 162.31 1.57351 166.592C-0.524504 170.359 -0.524504 174.417 1.57351 178.185Z" fill="#027582"/>
<defs>
<linearGradient id="paint0_linear_360_3766" x1="294.949" y1="56.1107" x2="294.949" y2="431.9" gradientUnits="userSpaceOnUse">
<stop stop-color="#50209B"/>
<stop offset="1" stop-color="#550D8F"/>
</linearGradient>
<linearGradient id="paint1_linear_360_3766" x1="279.466" y1="307.754" x2="345.974" y2="172.926" gradientUnits="userSpaceOnUse">
<stop stop-color="#00C39D"/>
<stop offset="1" stop-color="#042666"/>
</linearGradient>
<linearGradient id="paint2_linear_360_3766" x1="351.953" y1="-528.416" x2="340.952" y2="450.222" gradientUnits="userSpaceOnUse">
<stop stop-color="#00C39D"/>
<stop offset="1" stop-color="#042666"/>
</linearGradient>
</defs>
</svg>
