<svg width="168" height="40" viewBox="0 0 168 40" fill="none" xmlns="http://www.w3.org/2000/svg">
<path d="M10.0831 0.113304C8.9552 0.110672 7.83795 0.337777 6.79545 0.78158C5.75296 1.22538 4.80576 1.87713 4.00824 2.69943C3.21073 3.52171 2.5786 4.49832 2.14817 5.5732C1.71773 6.64807 1.49747 7.80001 1.50002 8.96291V31.0369C1.49747 32.1999 1.71773 33.3519 2.14817 34.4267C2.5786 35.5016 3.21073 36.4781 4.00824 37.3005C4.80576 38.1228 5.75296 38.7745 6.79545 39.2183C7.83795 39.6621 8.9552 39.8892 10.0831 39.8865H31.4923C32.6201 39.8892 33.7373 39.6621 34.7799 39.2183C35.8224 38.7745 36.7696 38.1228 37.5671 37.3005C38.3647 36.4781 38.9967 35.5016 39.4272 34.4267C39.8576 33.3519 40.0779 32.1999 40.0753 31.0369V8.96291C40.0779 7.80001 39.8576 6.64807 39.4272 5.5732C38.9967 4.49832 38.3647 3.52171 37.5671 2.69943C36.7696 1.87713 35.8224 1.22538 34.7799 0.78158C33.7373 0.337777 32.6201 0.110672 31.4923 0.113304H10.0831ZM20.5679 4.36929C22.3895 4.35337 24.1944 4.72605 25.8696 5.46391C27.5447 6.20177 29.0537 7.28887 30.3019 8.65688C32.2043 10.6453 33.4737 13.1844 33.9409 15.9356C34.1321 17.5115 34.1361 19.1055 33.9529 20.6823C33.3516 24.1797 31.4916 27.3143 28.7452 29.4587C27.5899 30.3232 26.3283 31.0253 24.9933 31.5468C24.8521 31.5468 24.8392 31.3955 24.9029 30.7841C25.0183 29.8029 25.1344 29.5984 25.6748 29.3656C26.8653 28.754 27.9543 27.9515 28.9009 26.9881C30.4697 25.3708 31.5845 23.3459 32.1271 21.128C32.4536 19.2043 32.4263 17.2344 32.0464 15.3211C31.4743 13.1309 30.3291 11.1451 28.7359 9.58088C27.1427 8.01669 25.1629 6.9344 23.0133 6.45239C21.4161 6.18716 19.7881 6.18716 18.1911 6.45239C15.9955 6.95407 13.9791 8.07725 12.3687 9.69569C10.7582 11.3141 9.61757 13.3636 9.07491 15.6139C8.77917 17.444 8.77917 19.312 9.07491 21.1421C9.82309 24.206 11.6523 26.8721 14.2052 28.6196C14.6287 28.9115 15.0712 29.1729 15.5295 29.4021C16.0699 29.6408 16.1852 29.8395 16.2885 30.8208C16.3529 31.4171 16.3368 31.59 16.1981 31.59C15.7033 31.4151 15.2219 31.2024 14.7577 30.9539L14.6932 30.904C12.7775 29.9671 11.1042 28.5757 9.81033 26.8439C8.51644 25.112 7.63869 23.0889 7.24893 20.94C7.00671 19.2712 6.99041 17.5759 7.20055 15.9024C7.67503 13.2215 8.8996 10.7423 10.7234 8.76997C11.9783 7.37053 13.5024 6.25624 15.1984 5.49823C16.8944 4.74023 18.7251 4.35516 20.5736 4.36763L20.5679 4.36929ZM20.7832 9.02611C21.3788 9.02516 21.9731 9.08392 22.5576 9.20156C24.7392 9.72675 26.6589 11.0569 27.9547 12.9412C29.2504 14.8255 29.8325 17.1335 29.5913 19.4299C29.3891 21.1788 28.7116 22.8332 27.6371 24.2023C27.0552 24.9575 26.3503 25.6024 25.5539 26.1083C25.4797 25.7815 25.4525 25.4453 25.4732 25.1104V24.1108L26.1417 23.2892C27.3557 21.8379 27.9887 19.9647 27.9123 18.0497C27.8359 16.1348 27.0559 14.3215 25.7304 12.9777C24.6799 11.8767 23.314 11.1529 21.8341 10.9129C21.0701 10.7194 20.2725 10.7149 19.5065 10.8996C17.9767 11.1195 16.5587 11.8497 15.4691 12.9786C14.138 14.3184 13.3529 16.1313 13.274 18.0476C13.1952 19.9639 13.8285 21.8389 15.0448 23.29L15.7077 24.1116V25.1187C15.7385 25.458 15.7056 25.8001 15.6109 26.1265C15.3173 25.9579 15.0417 25.758 14.7883 25.5303L14.7335 25.5112C13.2703 24.2043 12.2219 22.474 11.7243 20.5451C11.4264 19.0576 11.4308 17.5227 11.7372 16.0371C12.1474 14.4933 12.9205 13.0779 13.9883 11.916C15.0559 10.7541 16.3851 9.88171 17.858 9.37619C18.8069 9.10743 19.7901 8.98937 20.7736 9.02611H20.7832ZM20.5744 13.9815C21.0427 13.9703 21.5069 14.0713 21.9309 14.2767C22.7303 14.7209 23.3301 15.4692 23.6028 16.3623C23.7576 16.9577 23.7433 17.5864 23.5617 18.1737C23.3803 18.7611 23.0389 19.2824 22.5787 19.6756C22.1183 20.0689 21.5581 20.3179 20.9647 20.3927C20.3712 20.4675 19.7693 20.3651 19.2307 20.0976H19.2073C18.6612 19.8475 18.2003 19.4344 17.884 18.9116C17.5677 18.3889 17.4107 17.7804 17.4329 17.1647C17.4399 16.5588 17.6109 15.9669 17.9267 15.4559C18.2424 14.9448 18.6905 14.5349 19.2201 14.2725C19.6445 14.0688 20.1088 13.9689 20.5768 13.9807L20.5744 13.9815ZM20.5591 21.8173C22.1471 21.8107 23.3012 22.3953 23.7255 23.4248C24.044 24.194 23.9247 26.6264 23.3755 30.5539C23.0028 33.298 22.7971 33.9908 22.2825 34.4623C21.9219 34.7819 21.4841 34.9949 21.0156 35.0789C20.5471 35.1629 20.0652 35.1148 19.6211 34.9396H19.6153C18.4645 34.5129 18.2169 33.9375 17.7443 30.558C17.1959 26.6305 17.0756 24.1973 17.3943 23.4289C17.8152 22.4077 18.9597 21.8281 20.5607 21.8215L20.5591 21.8173Z" fill="url(#paint0_linear_3364_21588)"/>
<path d="M58.7032 29.3335H55.3281L61.4731 11.8789H65.3765L71.5299 29.3335H68.1549L63.4929 15.4585H63.3565L58.7032 29.3335ZM58.814 22.4897H68.0185V25.0295H58.814V22.4897ZM73.6925 34.2425V16.2425H76.7267V18.4073H76.9056C77.0647 18.0892 77.2891 17.7511 77.5789 17.3931C77.8687 17.0295 78.2607 16.7199 78.7551 16.4641C79.2493 16.2028 79.88 16.0721 80.6471 16.0721C81.6584 16.0721 82.5704 16.3307 83.3829 16.8477C84.2011 17.3591 84.8488 18.1176 85.326 19.1232C85.8091 20.1232 86.0505 21.3505 86.0505 22.8051C86.0505 24.2425 85.8147 25.4641 85.3431 26.4699C84.8715 27.4755 84.2295 28.2425 83.4169 28.7709C82.6044 29.2993 81.684 29.5636 80.6556 29.5636C79.9056 29.5636 79.2835 29.4385 78.7891 29.1885C78.2948 28.9385 77.8971 28.6375 77.596 28.2852C77.3005 27.9272 77.0704 27.5892 76.9056 27.2709H76.7777V34.2425H73.6925ZM76.7181 22.788C76.7181 23.6347 76.8375 24.3761 77.076 25.0124C77.3204 25.6488 77.6699 26.146 78.1244 26.5039C78.5845 26.8561 79.1413 27.0323 79.7948 27.0323C80.4767 27.0323 81.0476 26.8505 81.5079 26.4869C81.9681 26.1176 82.3147 25.6147 82.5476 24.9784C82.7863 24.3363 82.9056 23.6061 82.9056 22.788C82.9056 21.9755 82.7891 21.2539 82.5561 20.6232C82.3232 19.9925 81.9767 19.4983 81.5164 19.1403C81.0561 18.7823 80.4823 18.6033 79.7948 18.6033C79.1357 18.6033 78.576 18.7767 78.1159 19.1232C77.6556 19.4699 77.3061 19.9556 77.0675 20.5807C76.8345 21.2056 76.7181 21.9415 76.7181 22.788ZM88.6925 34.2425V16.2425H91.7267V18.4073H91.9056C92.0647 18.0892 92.2891 17.7511 92.5789 17.3931C92.8687 17.0295 93.2607 16.7199 93.7551 16.4641C94.2493 16.2028 94.88 16.0721 95.6471 16.0721C96.6584 16.0721 97.5704 16.3307 98.3829 16.8477C99.201 17.3591 99.8488 18.1176 100.326 19.1232C100.809 20.1232 101.051 21.3505 101.051 22.8051C101.051 24.2425 100.815 25.4641 100.343 26.4699C99.8715 27.4755 99.2295 28.2425 98.4169 28.7709C97.6044 29.2993 96.684 29.5636 95.6556 29.5636C94.9056 29.5636 94.2835 29.4385 93.7891 29.1885C93.2948 28.9385 92.8971 28.6375 92.596 28.2852C92.3005 27.9272 92.0704 27.5892 91.9056 27.2709H91.7777V34.2425H88.6925ZM91.7181 22.788C91.7181 23.6347 91.8375 24.3761 92.076 25.0124C92.3204 25.6488 92.6699 26.146 93.1244 26.5039C93.5845 26.8561 94.1413 27.0323 94.7948 27.0323C95.4767 27.0323 96.0476 26.8505 96.5079 26.4869C96.9681 26.1176 97.3147 25.6147 97.5476 24.9784C97.7863 24.3363 97.9056 23.6061 97.9056 22.788C97.9056 21.9755 97.7891 21.2539 97.5561 20.6232C97.3232 19.9925 96.9767 19.4983 96.5164 19.1403C96.0561 18.7823 95.4823 18.6033 94.7948 18.6033C94.1357 18.6033 93.576 18.7767 93.1159 19.1232C92.6556 19.4699 92.3061 19.9556 92.0675 20.5807C91.8345 21.2056 91.7181 21.9415 91.7181 22.788ZM106.778 11.8789V29.3335H103.693V11.8789H106.778ZM115.746 29.5892C114.433 29.5892 113.3 29.3164 112.345 28.7709C111.396 28.2199 110.666 27.4415 110.155 26.4357C109.643 25.4244 109.388 24.234 109.388 22.8647C109.388 21.5181 109.643 20.3363 110.155 19.3192C110.672 18.2965 111.393 17.5011 112.32 16.9329C113.246 16.3591 114.334 16.0721 115.584 16.0721C116.391 16.0721 117.152 16.2028 117.868 16.4641C118.59 16.7199 119.226 17.1176 119.777 17.6573C120.334 18.1971 120.771 18.8847 121.09 19.7199C121.408 20.5493 121.567 21.538 121.567 22.6857V23.6317H110.837V21.5523H118.609C118.604 20.9613 118.476 20.4357 118.226 19.9755C117.976 19.5096 117.627 19.1431 117.178 18.8761C116.734 18.6091 116.217 18.4755 115.627 18.4755C114.996 18.4755 114.442 18.6289 113.965 18.9357C113.487 19.2369 113.115 19.6347 112.848 20.1289C112.587 20.6176 112.453 21.1545 112.447 21.7397V23.5551C112.447 24.3164 112.587 24.9699 112.865 25.5153C113.143 26.0551 113.533 26.4699 114.033 26.7596C114.533 27.0437 115.118 27.1857 115.788 27.1857C116.237 27.1857 116.643 27.1232 117.007 26.9983C117.371 26.8676 117.686 26.6772 117.953 26.4272C118.22 26.1772 118.422 25.8676 118.558 25.4983L121.439 25.8221C121.257 26.5835 120.911 27.2483 120.399 27.8164C119.893 28.3789 119.246 28.8164 118.456 29.1289C117.666 29.4357 116.763 29.5892 115.746 29.5892ZM130.266 29.3335V11.8789H136.812C138.153 11.8789 139.277 12.1289 140.187 12.6289C141.101 13.1289 141.792 13.8164 142.259 14.6915C142.729 15.5608 142.965 16.5493 142.965 17.6573C142.965 18.7767 142.729 19.7709 142.259 20.6403C141.787 21.5096 141.091 22.1943 140.169 22.6943C139.249 23.1885 138.116 23.4357 136.769 23.4357H132.431V20.8363H136.343C137.127 20.8363 137.769 20.7 138.269 20.4272C138.769 20.1545 139.139 19.7795 139.377 19.3023C139.621 18.8249 139.744 18.2767 139.744 17.6573C139.744 17.038 139.621 16.4925 139.377 16.0209C139.139 15.5493 138.767 15.1829 138.261 14.9216C137.761 14.6545 137.116 14.5209 136.327 14.5209H133.428V29.3335H130.266ZM151.099 29.5892C149.82 29.5892 148.712 29.3079 147.775 28.7453C146.837 28.1829 146.109 27.396 145.592 26.3847C145.081 25.3732 144.825 24.1915 144.825 22.8392C144.825 21.4869 145.081 20.3023 145.592 19.2852C146.109 18.2681 146.837 17.4784 147.775 16.9159C148.712 16.3533 149.82 16.0721 151.099 16.0721C152.376 16.0721 153.484 16.3533 154.423 16.9159C155.36 17.4784 156.084 18.2681 156.596 19.2852C157.112 20.3023 157.371 21.4869 157.371 22.8392C157.371 24.1915 157.112 25.3732 156.596 26.3847C156.084 27.396 155.36 28.1829 154.423 28.7453C153.484 29.3079 152.376 29.5892 151.099 29.5892ZM151.115 27.1176C151.808 27.1176 152.388 26.9272 152.853 26.5465C153.32 26.1601 153.667 25.6431 153.893 24.9953C154.127 24.3477 154.243 23.6261 154.243 22.8307C154.243 22.0295 154.127 21.3051 153.893 20.6573C153.667 20.0039 153.32 19.484 152.853 19.0977C152.388 18.7113 151.808 18.5181 151.115 18.5181C150.405 18.5181 149.815 18.7113 149.343 19.0977C148.876 19.484 148.527 20.0039 148.295 20.6573C148.067 21.3051 147.953 22.0295 147.953 22.8307C147.953 23.6261 148.067 24.3477 148.295 24.9953C148.527 25.6431 148.876 26.1601 149.343 26.5465C149.815 26.9272 150.405 27.1176 151.115 27.1176ZM164.848 29.5636C163.819 29.5636 162.899 29.2993 162.087 28.7709C161.273 28.2425 160.632 27.4755 160.16 26.4699C159.688 25.4641 159.452 24.2425 159.452 22.8051C159.452 21.3505 159.691 20.1232 160.168 19.1232C160.652 18.1176 161.303 17.3591 162.12 16.8477C162.939 16.3307 163.851 16.0721 164.856 16.0721C165.623 16.0721 166.253 16.2028 166.748 16.4641C167.243 16.7199 167.635 17.0295 167.924 17.3931C168.213 17.7511 168.439 18.0892 168.597 18.4073H168.725V11.8789H171.819V29.3335H168.785V27.2709H168.597C168.439 27.5892 168.208 27.9272 167.907 28.2852C167.607 28.6375 167.208 28.9385 166.713 29.1885C166.22 29.4385 165.597 29.5636 164.848 29.5636ZM165.708 27.0323C166.361 27.0323 166.919 26.8561 167.379 26.5039C167.839 26.146 168.188 25.6488 168.427 25.0124C168.665 24.3761 168.785 23.6347 168.785 22.788C168.785 21.9415 168.665 21.2056 168.427 20.5807C168.195 19.9556 167.848 19.4699 167.387 19.1232C166.933 18.7767 166.373 18.6033 165.708 18.6033C165.021 18.6033 164.447 18.7823 163.987 19.1403C163.527 19.4983 163.18 19.9925 162.947 20.6232C162.713 21.2539 162.597 21.9755 162.597 22.788C162.597 23.6061 162.713 24.3363 162.947 24.9784C163.185 25.6147 163.535 26.1176 163.995 26.4869C164.461 26.8505 165.032 27.0323 165.708 27.0323ZM180.817 29.5892C179.511 29.5892 178.388 29.3023 177.451 28.7284C176.519 28.1545 175.8 27.3619 175.295 26.3505C174.795 25.3335 174.544 24.1631 174.544 22.8392C174.544 21.5096 174.8 20.3363 175.311 19.3192C175.823 18.2965 176.544 17.5011 177.476 16.9329C178.413 16.3591 179.521 16.0721 180.8 16.0721C181.863 16.0721 182.803 16.2681 183.621 16.6601C184.445 17.0465 185.101 17.5948 185.589 18.3051C186.079 19.0096 186.357 19.8335 186.425 20.7767H183.476C183.357 20.146 183.072 19.6204 182.624 19.2C182.18 18.7739 181.587 18.5608 180.843 18.5608C180.212 18.5608 179.657 18.7312 179.18 19.0721C178.703 19.4073 178.331 19.8903 178.064 20.5209C177.803 21.1516 177.672 21.9073 177.672 22.788C177.672 23.68 177.803 24.4471 178.064 25.0892C178.325 25.7255 178.692 26.2169 179.164 26.5636C179.641 26.9045 180.2 27.0749 180.843 27.0749C181.297 27.0749 181.703 26.9897 182.061 26.8192C182.425 26.6431 182.729 26.3903 182.973 26.0608C183.217 25.7312 183.385 25.3307 183.476 24.8591H186.425C186.351 25.7852 186.079 26.6061 185.607 27.3221C185.135 28.0323 184.493 28.5892 183.68 28.9925C182.868 29.3903 181.913 29.5892 180.817 29.5892ZM192.725 29.5977C191.896 29.5977 191.148 29.45 190.484 29.1545C189.825 28.8533 189.303 28.4101 188.916 27.8249C188.535 27.2397 188.344 26.5181 188.344 25.6601C188.344 24.9216 188.481 24.3108 188.753 23.8277C189.027 23.3448 189.399 22.9585 189.871 22.6687C190.341 22.3789 190.873 22.1601 191.464 22.0124C192.06 21.8591 192.677 21.7483 193.313 21.68C194.08 21.6005 194.703 21.5295 195.18 21.4669C195.657 21.3988 196.004 21.2965 196.22 21.1601C196.441 21.0181 196.552 20.7993 196.552 20.5039V20.4528C196.552 19.8108 196.361 19.3136 195.981 18.9613C195.6 18.6091 195.052 18.4329 194.336 18.4329C193.58 18.4329 192.981 18.5977 192.537 18.9272C192.1 19.2568 191.805 19.646 191.652 20.0948L188.771 19.6857C188.999 18.8903 189.373 18.2255 189.896 17.6915C190.419 17.1516 191.057 16.7483 191.813 16.4812C192.569 16.2084 193.404 16.0721 194.319 16.0721C194.949 16.0721 195.577 16.146 196.203 16.2937C196.828 16.4415 197.399 16.6857 197.916 17.0267C198.433 17.3619 198.848 17.8192 199.16 18.3988C199.479 18.9784 199.637 19.7028 199.637 20.5721V29.3335H196.672V27.5352H196.569C196.381 27.8988 196.117 28.2397 195.776 28.5579C195.441 28.8704 195.017 29.1232 194.507 29.3164C194.001 29.5039 193.407 29.5977 192.725 29.5977ZM193.527 27.3307C194.145 27.3307 194.683 27.2084 195.137 26.9641C195.592 26.7141 195.941 26.3847 196.185 25.9755C196.436 25.5664 196.56 25.1204 196.56 24.6375V23.0948C196.464 23.1744 196.299 23.2483 196.067 23.3164C195.839 23.3847 195.583 23.4443 195.299 23.4953C195.015 23.5465 194.733 23.592 194.456 23.6317C194.177 23.6716 193.936 23.7056 193.731 23.734C193.271 23.7965 192.859 23.8988 192.495 24.0408C192.132 24.1829 191.844 24.3817 191.635 24.6375C191.424 24.8875 191.319 25.2113 191.319 25.6091C191.319 26.1772 191.527 26.6061 191.941 26.896C192.356 27.1857 192.884 27.3307 193.527 27.3307ZM213.087 19.7028L210.273 20.0096C210.195 19.7255 210.055 19.4585 209.856 19.2084C209.663 18.9585 209.401 18.7568 209.072 18.6033C208.743 18.45 208.339 18.3732 207.861 18.3732C207.22 18.3732 206.68 18.5124 206.243 18.7908C205.811 19.0692 205.597 19.43 205.603 19.8732C205.597 20.2539 205.737 20.5636 206.021 20.8023C206.311 21.0408 206.788 21.2369 207.452 21.3903L209.685 21.8676C210.924 22.1347 211.844 22.5579 212.447 23.1375C213.055 23.7169 213.361 24.4755 213.368 25.4131C213.361 26.2369 213.12 26.9641 212.643 27.5948C212.172 28.2199 211.515 28.7084 210.675 29.0608C209.833 29.4131 208.868 29.5892 207.776 29.5892C206.175 29.5892 204.884 29.2539 203.907 28.5835C202.929 27.9073 202.348 26.9669 202.16 25.7624L205.168 25.4727C205.305 26.0636 205.595 26.5096 206.037 26.8108C206.481 27.1119 207.057 27.2624 207.768 27.2624C208.501 27.2624 209.089 27.1119 209.532 26.8108C209.981 26.5096 210.205 26.1375 210.205 25.6943C210.205 25.3192 210.06 25.0096 209.771 24.7653C209.487 24.5209 209.044 24.3335 208.441 24.2028L206.208 23.734C204.952 23.4727 204.024 23.0323 203.421 22.4131C202.819 21.788 202.521 20.9983 202.527 20.0437C202.521 19.2369 202.74 18.538 203.183 17.9471C203.632 17.3505 204.253 16.8903 205.049 16.5664C205.851 16.2369 206.773 16.0721 207.819 16.0721C209.353 16.0721 210.56 16.3988 211.441 17.0523C212.328 17.7056 212.876 18.5892 213.087 19.7028ZM222.448 16.2425V18.6289H214.923V16.2425H222.448ZM216.781 13.1062H219.865V25.396C219.865 25.8108 219.928 26.1289 220.053 26.3505C220.184 26.5664 220.355 26.7141 220.565 26.7937C220.775 26.8732 221.008 26.9131 221.264 26.9131C221.457 26.9131 221.633 26.8988 221.792 26.8704C221.957 26.842 222.081 26.8164 222.167 26.7937L222.687 29.2056C222.523 29.2624 222.287 29.3249 221.98 29.3931C221.679 29.4613 221.309 29.5011 220.872 29.5124C220.099 29.5352 219.403 29.4187 218.784 29.1631C218.164 28.9016 217.673 28.4983 217.309 27.9528C216.951 27.4073 216.775 26.7255 216.781 25.9073V13.1062ZM235.188 19.7028L232.375 20.0096C232.296 19.7255 232.156 19.4585 231.957 19.2084C231.764 18.9585 231.503 18.7568 231.173 18.6033C230.844 18.45 230.44 18.3732 229.963 18.3732C229.321 18.3732 228.781 18.5124 228.344 18.7908C227.912 19.0692 227.699 19.43 227.705 19.8732C227.699 20.2539 227.839 20.5636 228.123 20.8023C228.412 21.0408 228.889 21.2369 229.555 21.3903L231.787 21.8676C233.025 22.1347 233.947 22.5579 234.548 23.1375C235.156 23.7169 235.463 24.4755 235.469 25.4131C235.463 26.2369 235.221 26.9641 234.744 27.5948C234.273 28.2199 233.617 28.7084 232.776 29.0608C231.935 29.4131 230.969 29.5892 229.879 29.5892C228.276 29.5892 226.985 29.2539 226.009 28.5835C225.032 27.9073 224.449 26.9669 224.261 25.7624L227.271 25.4727C227.407 26.0636 227.696 26.5096 228.14 26.8108C228.583 27.1119 229.159 27.2624 229.869 27.2624C230.603 27.2624 231.191 27.1119 231.633 26.8108C232.083 26.5096 232.307 26.1375 232.307 25.6943C232.307 25.3192 232.163 25.0096 231.872 24.7653C231.588 24.5209 231.145 24.3335 230.543 24.2028L228.309 23.734C227.055 23.4727 226.125 23.0323 225.523 22.4131C224.92 21.788 224.623 20.9983 224.628 20.0437C224.623 19.2369 224.841 18.538 225.284 17.9471C225.733 17.3505 226.355 16.8903 227.151 16.5664C227.952 16.2369 228.875 16.0721 229.92 16.0721C231.455 16.0721 232.663 16.3988 233.543 17.0523C234.429 17.7056 234.977 18.5892 235.188 19.7028Z" fill="white"/>
<defs>
<linearGradient id="paint0_linear_3364_21588" x1="20.7877" y1="0.113281" x2="20.7877" y2="39.8867" gradientUnits="userSpaceOnUse">
<stop stop-color="#CC69F2"/>
<stop offset="1" stop-color="#8830C2"/>
</linearGradient>
</defs>
</svg>
