<svg width="238" height="40" viewBox="0 0 238 40" fill="none" xmlns="http://www.w3.org/2000/svg">
<path d="M9.83307 0.113304C8.7052 0.110672 7.58795 0.337777 6.54545 0.78158C5.50296 1.22538 4.55576 1.87713 3.75824 2.69943C2.96073 3.52171 2.3286 4.49832 1.89817 5.5732C1.46773 6.64807 1.24747 7.80001 1.25002 8.96291V31.0369C1.24747 32.1999 1.46773 33.3519 1.89817 34.4267C2.3286 35.5016 2.96073 36.4781 3.75824 37.3005C4.55576 38.1228 5.50296 38.7745 6.54545 39.2183C7.58795 39.6621 8.7052 39.8892 9.83307 39.8865H31.2423C32.3701 39.8892 33.4873 39.6621 34.5299 39.2183C35.5724 38.7745 36.5196 38.1228 37.3171 37.3005C38.1147 36.4781 38.7467 35.5016 39.1772 34.4267C39.6076 33.3519 39.8279 32.1999 39.8253 31.0369V8.96291C39.8279 7.80001 39.6076 6.64807 39.1772 5.5732C38.7467 4.49832 38.1147 3.52171 37.3171 2.69943C36.5196 1.87713 35.5724 1.22538 34.5299 0.78158C33.4873 0.337777 32.3701 0.110672 31.2423 0.113304H9.83307ZM20.3179 4.36929C22.1395 4.35337 23.9444 4.72605 25.6196 5.46391C27.2947 6.20177 28.8037 7.28887 30.0519 8.65688C31.9543 10.6453 33.2237 13.1844 33.6909 15.9356C33.8821 17.5115 33.8861 19.1055 33.7029 20.6823C33.1016 24.1797 31.2416 27.3143 28.4952 29.4587C27.3399 30.3232 26.0783 31.0253 24.7433 31.5468C24.6021 31.5468 24.5892 31.3955 24.6529 30.7841C24.7683 29.8029 24.8844 29.5984 25.4248 29.3656C26.6153 28.754 27.7043 27.9515 28.6509 26.9881C30.2197 25.3708 31.3345 23.3459 31.8771 21.128C32.2036 19.2043 32.1763 17.2344 31.7964 15.3211C31.2243 13.1309 30.0791 11.1451 28.4859 9.58088C26.8927 8.01669 24.9129 6.9344 22.7633 6.45239C21.1661 6.18716 19.5381 6.18716 17.9411 6.45239C15.7455 6.95407 13.7291 8.07725 12.1187 9.69569C10.5082 11.3141 9.36757 13.3636 8.82491 15.6139C8.52917 17.444 8.52917 19.312 8.82491 21.1421C9.57309 24.206 11.4023 26.8721 13.9552 28.6196C14.3787 28.9115 14.8212 29.1729 15.2795 29.4021C15.8199 29.6408 15.9352 29.8395 16.0385 30.8208C16.1029 31.4171 16.0868 31.59 15.9481 31.59C15.4533 31.4151 14.9719 31.2024 14.5077 30.9539L14.4432 30.904C12.5275 29.9671 10.8542 28.5757 9.56033 26.8439C8.26644 25.112 7.38869 23.0889 6.99893 20.94C6.75671 19.2712 6.74041 17.5759 6.95055 15.9024C7.42503 13.2215 8.6496 10.7423 10.4734 8.76997C11.7283 7.37053 13.2524 6.25624 14.9484 5.49823C16.6444 4.74023 18.4751 4.35516 20.3236 4.36763L20.3179 4.36929ZM20.5332 9.02611C21.1288 9.02516 21.7231 9.08392 22.3076 9.20156C24.4892 9.72675 26.4089 11.0569 27.7047 12.9412C29.0004 14.8255 29.5825 17.1335 29.3413 19.4299C29.1391 21.1788 28.4616 22.8332 27.3871 24.2023C26.8052 24.9575 26.1003 25.6024 25.3039 26.1083C25.2297 25.7815 25.2025 25.4453 25.2232 25.1104V24.1108L25.8917 23.2892C27.1057 21.8379 27.7387 19.9647 27.6623 18.0497C27.5859 16.1348 26.8059 14.3215 25.4804 12.9777C24.4299 11.8767 23.064 11.1529 21.5841 10.9129C20.8201 10.7194 20.0225 10.7149 19.2565 10.8996C17.7267 11.1195 16.3087 11.8497 15.2191 12.9786C13.888 14.3184 13.1029 16.1313 13.024 18.0476C12.9452 19.9639 13.5785 21.8389 14.7948 23.29L15.4577 24.1116V25.1187C15.4885 25.458 15.4556 25.8001 15.3609 26.1265C15.0673 25.9579 14.7917 25.758 14.5383 25.5303L14.4835 25.5112C13.0203 24.2043 11.9719 22.474 11.4743 20.5451C11.1764 19.0576 11.1808 17.5227 11.4872 16.0371C11.8974 14.4933 12.6705 13.0779 13.7383 11.916C14.8059 10.7541 16.1351 9.88171 17.608 9.37619C18.5569 9.10743 19.5401 8.98937 20.5236 9.02611H20.5332ZM20.3244 13.9815C20.7927 13.9703 21.2569 14.0713 21.6809 14.2767C22.4803 14.7209 23.0801 15.4692 23.3528 16.3623C23.5076 16.9577 23.4933 17.5864 23.3117 18.1737C23.1303 18.7611 22.7889 19.2824 22.3287 19.6756C21.8683 20.0689 21.3081 20.3179 20.7147 20.3927C20.1212 20.4675 19.5193 20.3651 18.9807 20.0976H18.9573C18.4112 19.8475 17.9503 19.4344 17.634 18.9116C17.3177 18.3889 17.1607 17.7804 17.1829 17.1647C17.1899 16.5588 17.3609 15.9669 17.6767 15.4559C17.9924 14.9448 18.4405 14.5349 18.9701 14.2725C19.3945 14.0688 19.8588 13.9689 20.3268 13.9807L20.3244 13.9815ZM20.3091 21.8173C21.8971 21.8107 23.0512 22.3953 23.4755 23.4248C23.794 24.194 23.6747 26.6264 23.1255 30.5539C22.7528 33.298 22.5471 33.9908 22.0325 34.4623C21.6719 34.7819 21.2341 34.9949 20.7656 35.0789C20.2971 35.1629 19.8152 35.1148 19.3711 34.9396H19.3653C18.2145 34.5129 17.9669 33.9375 17.4943 30.558C16.9459 26.6305 16.8256 24.1973 17.1443 23.4289C17.5652 22.4077 18.7097 21.8281 20.3107 21.8215L20.3091 21.8173Z" fill="url(#paint0_linear_3420_22006)"/>
<path d="M58.4532 29.3335H55.0781L61.2231 11.8789H65.1265L71.2799 29.3335H67.9049L63.2429 15.4585H63.1065L58.4532 29.3335ZM58.564 22.4897H67.7685V25.0295H58.564V22.4897ZM73.4425 34.2425V16.2425H76.4767V18.4073H76.6556C76.8147 18.0892 77.0391 17.7511 77.3289 17.3931C77.6187 17.0295 78.0107 16.7199 78.5051 16.4641C78.9993 16.2028 79.63 16.0721 80.3971 16.0721C81.4084 16.0721 82.3204 16.3307 83.1329 16.8477C83.9511 17.3591 84.5988 18.1176 85.076 19.1232C85.5591 20.1232 85.8005 21.3505 85.8005 22.8051C85.8005 24.2425 85.5647 25.4641 85.0931 26.4699C84.6215 27.4755 83.9795 28.2425 83.1669 28.7709C82.3544 29.2993 81.434 29.5636 80.4056 29.5636C79.6556 29.5636 79.0335 29.4385 78.5391 29.1885C78.0448 28.9385 77.6471 28.6375 77.346 28.2852C77.0505 27.9272 76.8204 27.5892 76.6556 27.2709H76.5277V34.2425H73.4425ZM76.4681 22.788C76.4681 23.6347 76.5875 24.3761 76.826 25.0124C77.0704 25.6488 77.4199 26.146 77.8744 26.5039C78.3345 26.8561 78.8913 27.0323 79.5448 27.0323C80.2267 27.0323 80.7976 26.8505 81.2579 26.4869C81.7181 26.1176 82.0647 25.6147 82.2976 24.9784C82.5363 24.3363 82.6556 23.6061 82.6556 22.788C82.6556 21.9755 82.5391 21.2539 82.3061 20.6232C82.0732 19.9925 81.7267 19.4983 81.2664 19.1403C80.8061 18.7823 80.2323 18.6033 79.5448 18.6033C78.8857 18.6033 78.326 18.7767 77.8659 19.1232C77.4056 19.4699 77.0561 19.9556 76.8175 20.5807C76.5845 21.2056 76.4681 21.9415 76.4681 22.788ZM88.4425 34.2425V16.2425H91.4767V18.4073H91.6556C91.8147 18.0892 92.0391 17.7511 92.3289 17.3931C92.6187 17.0295 93.0107 16.7199 93.5051 16.4641C93.9993 16.2028 94.63 16.0721 95.3971 16.0721C96.4084 16.0721 97.3204 16.3307 98.1329 16.8477C98.951 17.3591 99.5988 18.1176 100.076 19.1232C100.559 20.1232 100.801 21.3505 100.801 22.8051C100.801 24.2425 100.565 25.4641 100.093 26.4699C99.6215 27.4755 98.9795 28.2425 98.1669 28.7709C97.3544 29.2993 96.434 29.5636 95.4056 29.5636C94.6556 29.5636 94.0335 29.4385 93.5391 29.1885C93.0448 28.9385 92.6471 28.6375 92.346 28.2852C92.0505 27.9272 91.8204 27.5892 91.6556 27.2709H91.5277V34.2425H88.4425ZM91.4681 22.788C91.4681 23.6347 91.5875 24.3761 91.826 25.0124C92.0704 25.6488 92.4199 26.146 92.8744 26.5039C93.3345 26.8561 93.8913 27.0323 94.5448 27.0323C95.2267 27.0323 95.7976 26.8505 96.2579 26.4869C96.7181 26.1176 97.0647 25.6147 97.2976 24.9784C97.5363 24.3363 97.6556 23.6061 97.6556 22.788C97.6556 21.9755 97.5391 21.2539 97.3061 20.6232C97.0732 19.9925 96.7267 19.4983 96.2664 19.1403C95.8061 18.7823 95.2323 18.6033 94.5448 18.6033C93.8857 18.6033 93.326 18.7767 92.8659 19.1232C92.4056 19.4699 92.0561 19.9556 91.8175 20.5807C91.5845 21.2056 91.4681 21.9415 91.4681 22.788ZM106.528 11.8789V29.3335H103.443V11.8789H106.528ZM115.496 29.5892C114.183 29.5892 113.05 29.3164 112.095 28.7709C111.146 28.2199 110.416 27.4415 109.905 26.4357C109.393 25.4244 109.138 24.234 109.138 22.8647C109.138 21.5181 109.393 20.3363 109.905 19.3192C110.422 18.2965 111.143 17.5011 112.07 16.9329C112.996 16.3591 114.084 16.0721 115.334 16.0721C116.141 16.0721 116.902 16.2028 117.618 16.4641C118.34 16.7199 118.976 17.1176 119.527 17.6573C120.084 18.1971 120.521 18.8847 120.84 19.7199C121.158 20.5493 121.317 21.538 121.317 22.6857V23.6317H110.587V21.5523H118.359C118.354 20.9613 118.226 20.4357 117.976 19.9755C117.726 19.5096 117.377 19.1431 116.928 18.8761C116.484 18.6091 115.967 18.4755 115.377 18.4755C114.746 18.4755 114.192 18.6289 113.715 18.9357C113.237 19.2369 112.865 19.6347 112.598 20.1289C112.337 20.6176 112.203 21.1545 112.197 21.7397V23.5551C112.197 24.3164 112.337 24.9699 112.615 25.5153C112.893 26.0551 113.283 26.4699 113.783 26.7596C114.283 27.0437 114.868 27.1857 115.538 27.1857C115.987 27.1857 116.393 27.1232 116.757 26.9983C117.121 26.8676 117.436 26.6772 117.703 26.4272C117.97 26.1772 118.172 25.8676 118.308 25.4983L121.189 25.8221C121.007 26.5835 120.661 27.2483 120.149 27.8164C119.643 28.3789 118.996 28.8164 118.206 29.1289C117.416 29.4357 116.513 29.5892 115.496 29.5892ZM130.016 29.3335V11.8789H136.562C137.903 11.8789 139.027 12.1289 139.937 12.6289C140.851 13.1289 141.542 13.8164 142.009 14.6915C142.479 15.5608 142.715 16.5493 142.715 17.6573C142.715 18.7767 142.479 19.7709 142.009 20.6403C141.537 21.5096 140.841 22.1943 139.919 22.6943C138.999 23.1885 137.866 23.4357 136.519 23.4357H132.181V20.8363H136.093C136.877 20.8363 137.519 20.7 138.019 20.4272C138.519 20.1545 138.889 19.7795 139.127 19.3023C139.371 18.8249 139.494 18.2767 139.494 17.6573C139.494 17.038 139.371 16.4925 139.127 16.0209C138.889 15.5493 138.517 15.1829 138.011 14.9216C137.511 14.6545 136.866 14.5209 136.077 14.5209H133.178V29.3335H130.016ZM150.849 29.5892C149.57 29.5892 148.462 29.3079 147.525 28.7453C146.587 28.1829 145.859 27.396 145.342 26.3847C144.831 25.3732 144.575 24.1915 144.575 22.8392C144.575 21.4869 144.831 20.3023 145.342 19.2852C145.859 18.2681 146.587 17.4784 147.525 16.9159C148.462 16.3533 149.57 16.0721 150.849 16.0721C152.126 16.0721 153.234 16.3533 154.173 16.9159C155.11 17.4784 155.834 18.2681 156.346 19.2852C156.862 20.3023 157.121 21.4869 157.121 22.8392C157.121 24.1915 156.862 25.3732 156.346 26.3847C155.834 27.396 155.11 28.1829 154.173 28.7453C153.234 29.3079 152.126 29.5892 150.849 29.5892ZM150.865 27.1176C151.558 27.1176 152.138 26.9272 152.603 26.5465C153.07 26.1601 153.417 25.6431 153.643 24.9953C153.877 24.3477 153.993 23.6261 153.993 22.8307C153.993 22.0295 153.877 21.3051 153.643 20.6573C153.417 20.0039 153.07 19.484 152.603 19.0977C152.138 18.7113 151.558 18.5181 150.865 18.5181C150.155 18.5181 149.565 18.7113 149.093 19.0977C148.626 19.484 148.277 20.0039 148.045 20.6573C147.817 21.3051 147.703 22.0295 147.703 22.8307C147.703 23.6261 147.817 24.3477 148.045 24.9953C148.277 25.6431 148.626 26.1601 149.093 26.5465C149.565 26.9272 150.155 27.1176 150.865 27.1176ZM164.598 29.5636C163.569 29.5636 162.649 29.2993 161.837 28.7709C161.023 28.2425 160.382 27.4755 159.91 26.4699C159.438 25.4641 159.202 24.2425 159.202 22.8051C159.202 21.3505 159.441 20.1232 159.918 19.1232C160.402 18.1176 161.053 17.3591 161.87 16.8477C162.689 16.3307 163.601 16.0721 164.606 16.0721C165.373 16.0721 166.003 16.2028 166.498 16.4641C166.993 16.7199 167.385 17.0295 167.674 17.3931C167.963 17.7511 168.189 18.0892 168.347 18.4073H168.475V11.8789H171.569V29.3335H168.535V27.2709H168.347C168.189 27.5892 167.958 27.9272 167.657 28.2852C167.357 28.6375 166.958 28.9385 166.463 29.1885C165.97 29.4385 165.347 29.5636 164.598 29.5636ZM165.458 27.0323C166.111 27.0323 166.669 26.8561 167.129 26.5039C167.589 26.146 167.938 25.6488 168.177 25.0124C168.415 24.3761 168.535 23.6347 168.535 22.788C168.535 21.9415 168.415 21.2056 168.177 20.5807C167.945 19.9556 167.598 19.4699 167.137 19.1232C166.683 18.7767 166.123 18.6033 165.458 18.6033C164.771 18.6033 164.197 18.7823 163.737 19.1403C163.277 19.4983 162.93 19.9925 162.697 20.6232C162.463 21.2539 162.347 21.9755 162.347 22.788C162.347 23.6061 162.463 24.3363 162.697 24.9784C162.935 25.6147 163.285 26.1176 163.745 26.4869C164.211 26.8505 164.782 27.0323 165.458 27.0323ZM180.567 29.5892C179.261 29.5892 178.138 29.3023 177.201 28.7284C176.269 28.1545 175.55 27.3619 175.045 26.3505C174.545 25.3335 174.294 24.1631 174.294 22.8392C174.294 21.5096 174.55 20.3363 175.061 19.3192C175.573 18.2965 176.294 17.5011 177.226 16.9329C178.163 16.3591 179.271 16.0721 180.55 16.0721C181.613 16.0721 182.553 16.2681 183.371 16.6601C184.195 17.0465 184.851 17.5948 185.339 18.3051C185.829 19.0096 186.107 19.8335 186.175 20.7767H183.226C183.107 20.146 182.822 19.6204 182.374 19.2C181.93 18.7739 181.337 18.5608 180.593 18.5608C179.962 18.5608 179.407 18.7312 178.93 19.0721C178.453 19.4073 178.081 19.8903 177.814 20.5209C177.553 21.1516 177.422 21.9073 177.422 22.788C177.422 23.68 177.553 24.4471 177.814 25.0892C178.075 25.7255 178.442 26.2169 178.914 26.5636C179.391 26.9045 179.95 27.0749 180.593 27.0749C181.047 27.0749 181.453 26.9897 181.811 26.8192C182.175 26.6431 182.479 26.3903 182.723 26.0608C182.967 25.7312 183.135 25.3307 183.226 24.8591H186.175C186.101 25.7852 185.829 26.6061 185.357 27.3221C184.885 28.0323 184.243 28.5892 183.43 28.9925C182.618 29.3903 181.663 29.5892 180.567 29.5892ZM192.475 29.5977C191.646 29.5977 190.898 29.45 190.234 29.1545C189.575 28.8533 189.053 28.4101 188.666 27.8249C188.285 27.2397 188.094 26.5181 188.094 25.6601C188.094 24.9216 188.231 24.3108 188.503 23.8277C188.777 23.3448 189.149 22.9585 189.621 22.6687C190.091 22.3789 190.623 22.1601 191.214 22.0124C191.81 21.8591 192.427 21.7483 193.063 21.68C193.83 21.6005 194.453 21.5295 194.93 21.4669C195.407 21.3988 195.754 21.2965 195.97 21.1601C196.191 21.0181 196.302 20.7993 196.302 20.5039V20.4528C196.302 19.8108 196.111 19.3136 195.731 18.9613C195.35 18.6091 194.802 18.4329 194.086 18.4329C193.33 18.4329 192.731 18.5977 192.287 18.9272C191.85 19.2568 191.555 19.646 191.402 20.0948L188.521 19.6857C188.749 18.8903 189.123 18.2255 189.646 17.6915C190.169 17.1516 190.807 16.7483 191.563 16.4812C192.319 16.2084 193.154 16.0721 194.069 16.0721C194.699 16.0721 195.327 16.146 195.953 16.2937C196.578 16.4415 197.149 16.6857 197.666 17.0267C198.183 17.3619 198.598 17.8192 198.91 18.3988C199.229 18.9784 199.387 19.7028 199.387 20.5721V29.3335H196.422V27.5352H196.319C196.131 27.8988 195.867 28.2397 195.526 28.5579C195.191 28.8704 194.767 29.1232 194.257 29.3164C193.751 29.5039 193.157 29.5977 192.475 29.5977ZM193.277 27.3307C193.895 27.3307 194.433 27.2084 194.887 26.9641C195.342 26.7141 195.691 26.3847 195.935 25.9755C196.186 25.5664 196.31 25.1204 196.31 24.6375V23.0948C196.214 23.1744 196.049 23.2483 195.817 23.3164C195.589 23.3847 195.333 23.4443 195.049 23.4953C194.765 23.5465 194.483 23.592 194.206 23.6317C193.927 23.6716 193.686 23.7056 193.481 23.734C193.021 23.7965 192.609 23.8988 192.245 24.0408C191.882 24.1829 191.594 24.3817 191.385 24.6375C191.174 24.8875 191.069 25.2113 191.069 25.6091C191.069 26.1772 191.277 26.6061 191.691 26.896C192.106 27.1857 192.634 27.3307 193.277 27.3307ZM212.837 19.7028L210.023 20.0096C209.945 19.7255 209.805 19.4585 209.606 19.2084C209.413 18.9585 209.151 18.7568 208.822 18.6033C208.493 18.45 208.089 18.3732 207.611 18.3732C206.97 18.3732 206.43 18.5124 205.993 18.7908C205.561 19.0692 205.347 19.43 205.353 19.8732C205.347 20.2539 205.487 20.5636 205.771 20.8023C206.061 21.0408 206.538 21.2369 207.202 21.3903L209.435 21.8676C210.674 22.1347 211.594 22.5579 212.197 23.1375C212.805 23.7169 213.111 24.4755 213.118 25.4131C213.111 26.2369 212.87 26.9641 212.393 27.5948C211.922 28.2199 211.265 28.7084 210.425 29.0608C209.583 29.4131 208.618 29.5892 207.526 29.5892C205.925 29.5892 204.634 29.2539 203.657 28.5835C202.679 27.9073 202.098 26.9669 201.91 25.7624L204.918 25.4727C205.055 26.0636 205.345 26.5096 205.787 26.8108C206.231 27.1119 206.807 27.2624 207.518 27.2624C208.251 27.2624 208.839 27.1119 209.282 26.8108C209.731 26.5096 209.955 26.1375 209.955 25.6943C209.955 25.3192 209.81 25.0096 209.521 24.7653C209.237 24.5209 208.794 24.3335 208.191 24.2028L205.958 23.734C204.702 23.4727 203.774 23.0323 203.171 22.4131C202.569 21.788 202.271 20.9983 202.277 20.0437C202.271 19.2369 202.49 18.538 202.933 17.9471C203.382 17.3505 204.003 16.8903 204.799 16.5664C205.601 16.2369 206.523 16.0721 207.569 16.0721C209.103 16.0721 210.31 16.3988 211.191 17.0523C212.078 17.7056 212.626 18.5892 212.837 19.7028ZM222.198 16.2425V18.6289H214.673V16.2425H222.198ZM216.531 13.1062H219.615V25.396C219.615 25.8108 219.678 26.1289 219.803 26.3505C219.934 26.5664 220.105 26.7141 220.315 26.7937C220.525 26.8732 220.758 26.9131 221.014 26.9131C221.207 26.9131 221.383 26.8988 221.542 26.8704C221.707 26.842 221.831 26.8164 221.917 26.7937L222.437 29.2056C222.273 29.2624 222.037 29.3249 221.73 29.3931C221.429 29.4613 221.059 29.5011 220.622 29.5124C219.849 29.5352 219.153 29.4187 218.534 29.1631C217.914 28.9016 217.423 28.4983 217.059 27.9528C216.701 27.4073 216.525 26.7255 216.531 25.9073V13.1062ZM234.938 19.7028L232.125 20.0096C232.046 19.7255 231.906 19.4585 231.707 19.2084C231.514 18.9585 231.253 18.7568 230.923 18.6033C230.594 18.45 230.19 18.3732 229.713 18.3732C229.071 18.3732 228.531 18.5124 228.094 18.7908C227.662 19.0692 227.449 19.43 227.455 19.8732C227.449 20.2539 227.589 20.5636 227.873 20.8023C228.162 21.0408 228.639 21.2369 229.305 21.3903L231.537 21.8676C232.775 22.1347 233.697 22.5579 234.298 23.1375C234.906 23.7169 235.213 24.4755 235.219 25.4131C235.213 26.2369 234.971 26.9641 234.494 27.5948C234.023 28.2199 233.367 28.7084 232.526 29.0608C231.685 29.4131 230.719 29.5892 229.629 29.5892C228.026 29.5892 226.735 29.2539 225.759 28.5835C224.782 27.9073 224.199 26.9669 224.011 25.7624L227.021 25.4727C227.157 26.0636 227.446 26.5096 227.89 26.8108C228.333 27.1119 228.909 27.2624 229.619 27.2624C230.353 27.2624 230.941 27.1119 231.383 26.8108C231.833 26.5096 232.057 26.1375 232.057 25.6943C232.057 25.3192 231.913 25.0096 231.622 24.7653C231.338 24.5209 230.895 24.3335 230.293 24.2028L228.059 23.734C226.805 23.4727 225.875 23.0323 225.273 22.4131C224.67 21.788 224.373 20.9983 224.378 20.0437C224.373 19.2369 224.591 18.538 225.034 17.9471C225.483 17.3505 226.105 16.8903 226.901 16.5664C227.702 16.2369 228.625 16.0721 229.67 16.0721C231.205 16.0721 232.413 16.3988 233.293 17.0523C234.179 17.7056 234.727 18.5892 234.938 19.7028Z" fill="white"/>
<defs>
<linearGradient id="paint0_linear_3420_22006" x1="20.5377" y1="0.113281" x2="20.5377" y2="39.8867" gradientUnits="userSpaceOnUse">
<stop stop-color="#CC69F2"/>
<stop offset="1" stop-color="#8830C2"/>
</linearGradient>
</defs>
</svg>
