<svg width="15" height="15" viewBox="0 0 15 15" fill="none" xmlns="http://www.w3.org/2000/svg">
<path d="M7.31895 0C10.9014 0 13.9291 2.39211 15 5.7L13.1741 6.31579C12.3652 3.79737 10.0462 1.97368 7.31895 1.97368C5.80894 1.97368 4.4453 2.54211 3.37442 3.45789L5.39291 5.52632H0V0L2.00308 2.05263C3.42835 0.789474 5.27735 0 7.31895 0ZM5.39291 7.10526V15H3.85208V8.68421H2.31125V7.10526H5.39291ZM11.5562 8.68421V13.4211C11.5562 14.2974 10.8706 15 10.0154 15H8.47458C8.06592 15 7.67401 14.8336 7.38504 14.5375C7.09608 14.2414 6.93374 13.8398 6.93374 13.4211V8.68421C6.93374 8.26545 7.09608 7.86384 7.38504 7.56773C7.67401 7.27162 8.06592 7.10526 8.47458 7.10526H10.0154C10.8706 7.10526 11.5562 7.81579 11.5562 8.68421ZM8.47458 8.68421V13.4211H10.0154V8.68421H8.47458Z" fill="white"/>
</svg>
