<svg width="15" height="15" viewBox="0 0 15 15" fill="none" xmlns="http://www.w3.org/2000/svg">
<path d="M6.50094 7V14.5H5.00094V8.5H3.50094V7H6.50094ZM12.5009 8.5V13C12.5009 13.8325 11.8334 14.5 11.0009 14.5H9.50094C9.10311 14.5 8.72158 14.342 8.44028 14.0607C8.15897 13.7794 8.00094 13.3978 8.00094 13V8.5C8.00094 8.10218 8.15897 7.72064 8.44028 7.43934C8.72158 7.15804 9.10311 7 9.50094 7H11.0009C11.8334 7 12.5009 7.675 12.5009 8.5ZM9.50094 8.5V13H11.0009V8.5H9.50094ZM7.62594 0.25C9.61344 0.25 11.4134 1 12.8009 2.2L14.7509 0.25V5.5H9.50094L11.4659 3.535C10.4234 2.665 9.09594 2.125 7.62594 2.125C4.97094 2.125 2.71344 3.8575 1.92594 6.25L0.148438 5.665C1.19094 2.5225 4.13844 0.25 7.62594 0.25Z" fill="#FFFCFC"/>
</svg>
