<svg width="239" height="38" viewBox="0 0 239 38" fill="none" xmlns="http://www.w3.org/2000/svg">
<path d="M21.066 12.6255C21.066 11.3834 20.091 10.3765 18.8885 10.3765C17.6859 10.3765 16.7109 11.3834 16.7109 12.6255V25.3699C16.7109 26.612 17.6859 27.619 18.8885 27.619C20.091 27.619 21.066 26.612 21.066 25.3699V12.6255Z" fill="#F0BA41"/>
<path d="M21.066 32.1192C21.066 30.8771 20.091 29.8701 18.8885 29.8701C17.6859 29.8701 16.7109 30.8771 16.7109 32.1192V35.1179C16.7109 36.36 17.6859 37.3669 18.8885 37.3669C20.091 37.3669 21.066 36.36 21.066 35.1179V32.1192Z" fill="#F0BA41"/>
<path d="M21.066 2.88232C21.066 1.64022 20.091 0.633301 18.8885 0.633301C17.6859 0.633301 16.7109 1.64022 16.7109 2.88232V5.88101C16.7109 7.12312 17.6859 8.13003 18.8885 8.13003C20.091 8.13003 21.066 7.12312 21.066 5.88101V2.88232Z" fill="#F0BA41"/>
<path d="M29.0738 11.1299C29.0738 9.88778 28.0988 8.88086 26.8963 8.88086C25.6937 8.88086 24.7188 9.88778 24.7188 11.1299V13.3789C24.7188 14.621 25.6937 15.628 26.8963 15.628C28.0988 15.628 29.0738 14.621 29.0738 13.3789V11.1299Z" fill="#58A45C"/>
<path d="M37.0582 17.8764C37.0582 16.6343 36.0832 15.6274 34.8807 15.6274C33.6781 15.6274 32.7031 16.6343 32.7031 17.8764V20.1255C32.7031 21.3676 33.6781 22.3745 34.8807 22.3745C36.0832 22.3745 37.0582 21.3676 37.0582 20.1255V17.8764Z" fill="#77A2F5"/>
<path d="M5.84644 18.2513C5.84644 16.8021 4.70906 15.6274 3.30604 15.6274C1.903 15.6274 0.765625 16.8021 0.765625 18.2513V19.7507C0.765625 21.1998 1.903 22.3745 3.30604 22.3745C4.70906 22.3745 5.84644 21.1998 5.84644 19.7507V18.2513Z" fill="#77A2F5"/>
<path d="M13.8315 25.3725C13.8315 24.1304 12.8567 23.1235 11.6541 23.1235C10.4515 23.1235 9.47656 24.1304 9.47656 25.3725V27.6216C9.47656 28.8637 10.4515 29.8706 11.6541 29.8706C12.8567 29.8706 13.8315 28.8637 13.8315 27.6216V25.3725Z" fill="#D8503F"/>
<path d="M13.8315 10.3789C13.8315 9.13679 12.8567 8.12988 11.6541 8.12988C10.4515 8.12988 9.47656 9.13679 9.47656 10.3789V18.6253C9.47656 19.8674 10.4515 20.8744 11.6541 20.8744C12.8567 20.8744 13.8315 19.8674 13.8315 18.6253V10.3789Z" fill="#D8503F"/>
<path d="M29.0738 19.3764C29.0738 18.1343 28.0988 17.1274 26.8963 17.1274C25.6937 17.1274 24.7188 18.1343 24.7188 19.3764V27.6228C24.7188 28.865 25.6937 29.8719 26.8963 29.8719C28.0988 29.8719 29.0738 28.865 29.0738 27.6228V19.3764Z" fill="#58A45C"/>
<path d="M62.4671 16.58C62.3322 16.1427 62.1459 15.7515 61.9084 15.4059C61.6763 15.0552 61.3956 14.7555 61.0664 14.5072C60.7425 14.259 60.3701 14.0728 59.9491 13.9486C59.528 13.819 59.0692 13.7543 58.5726 13.7543C57.682 13.7543 56.8886 13.9783 56.1923 14.4263C55.4959 14.8743 54.948 15.5328 54.5486 16.4019C54.1546 17.2655 53.9576 18.318 53.9576 19.5596C53.9576 20.8118 54.1546 21.8725 54.5486 22.7414C54.9427 23.6105 55.4905 24.2717 56.1923 24.7252C56.8939 25.1732 57.709 25.3971 58.6374 25.3971C59.4794 25.3971 60.2081 25.2353 60.8235 24.9114C61.4442 24.5875 61.9219 24.1287 62.2566 23.535C62.5912 22.9358 62.7585 22.2341 62.7585 21.4298L63.4386 21.5351H58.937V19.1871H65.6653V21.1789C65.6653 22.5984 65.3629 23.8265 64.7584 24.8629C64.1539 25.8991 63.3226 26.698 62.2647 27.2594C61.2067 27.8153 59.9923 28.0934 58.6212 28.0934C57.0936 28.0934 55.7524 27.7506 54.5972 27.0651C53.4475 26.3741 52.5487 25.3945 51.9011 24.126C51.2587 22.8522 50.9375 21.3408 50.9375 19.5919C50.9375 18.2533 51.1265 17.0577 51.5043 16.0052C51.8875 14.9526 52.4219 14.0592 53.1074 13.3252C53.7929 12.5857 54.5972 12.0243 55.5202 11.6411C56.4432 11.2524 57.4472 11.0581 58.5322 11.0581C59.4498 11.0581 60.3053 11.1931 61.0987 11.4629C61.8923 11.7274 62.5967 12.1053 63.212 12.5965C63.8327 13.0877 64.3428 13.6706 64.7423 14.3453C65.1416 15.0201 65.4035 15.7649 65.5276 16.58H62.4671ZM73.8651 28.1096C72.6506 28.1096 71.598 27.8423 70.7074 27.3079C69.8168 26.7736 69.1258 26.026 68.6346 25.0653C68.1488 24.1044 67.9059 22.9817 67.9059 21.6971C67.9059 20.4124 68.1488 19.287 68.6346 18.3208C69.1258 17.3546 69.8168 16.6043 70.7074 16.0699C71.598 15.5355 72.6506 15.2684 73.8651 15.2684C75.0795 15.2684 76.1321 15.5355 77.0227 16.0699C77.9133 16.6043 78.6015 17.3546 79.0874 18.3208C79.5785 19.287 79.8241 20.4124 79.8241 21.6971C79.8241 22.9817 79.5785 24.1044 79.0874 25.0653C78.6015 26.026 77.9133 26.7736 77.0227 27.3079C76.1321 27.8423 75.0795 28.1096 73.8651 28.1096ZM73.8813 25.7616C74.5398 25.7616 75.0903 25.5807 75.533 25.219C75.9756 24.852 76.3048 24.3608 76.5207 23.7454C76.742 23.1302 76.8527 22.4447 76.8527 21.689C76.8527 20.9278 76.742 20.2397 76.5207 19.6243C76.3048 19.0035 75.9756 18.5096 75.533 18.1427C75.0903 17.7756 74.5398 17.5921 73.8813 17.5921C73.2065 17.5921 72.6451 17.7756 72.1971 18.1427C71.7545 18.5096 71.4225 19.0035 71.2013 19.6243C70.9854 20.2397 70.8774 20.9278 70.8774 21.689C70.8774 22.4447 70.9854 23.1302 71.2013 23.7454C71.4225 24.3608 71.7545 24.852 72.1971 25.219C72.6451 25.5807 73.2065 25.7616 73.8813 25.7616ZM87.7366 28.1096C86.5221 28.1096 85.4695 27.8423 84.5789 27.3079C83.6882 26.7736 82.9973 26.026 82.5061 25.0653C82.0204 24.1044 81.7774 22.9817 81.7774 21.6971C81.7774 20.4124 82.0204 19.287 82.5061 18.3208C82.9973 17.3546 83.6882 16.6043 84.5789 16.0699C85.4695 15.5355 86.5221 15.2684 87.7366 15.2684C88.9511 15.2684 90.0035 15.5355 90.8942 16.0699C91.7848 16.6043 92.473 17.3546 92.9588 18.3208C93.45 19.287 93.6956 20.4124 93.6956 21.6971C93.6956 22.9817 93.45 24.1044 92.9588 25.0653C92.473 26.026 91.7848 26.7736 90.8942 27.3079C90.0035 27.8423 88.9511 28.1096 87.7366 28.1096ZM87.7527 25.7616C88.4112 25.7616 88.9618 25.5807 89.4044 25.219C89.8471 24.852 90.1763 24.3608 90.3923 23.7454C90.6135 23.1302 90.7241 22.4447 90.7241 21.689C90.7241 20.9278 90.6135 20.2397 90.3923 19.6243C90.1763 19.0035 89.8471 18.5096 89.4044 18.1427C88.9618 17.7756 88.4112 17.5921 87.7527 17.5921C87.078 17.5921 86.5166 17.7756 86.0686 18.1427C85.626 18.5096 85.2941 19.0035 85.0728 19.6243C84.8568 20.2397 84.7489 20.9278 84.7489 21.689C84.7489 22.4447 84.8568 23.1302 85.0728 23.7454C85.2941 24.3608 85.626 24.852 86.0686 25.219C86.5166 25.5807 87.078 25.7616 87.7527 25.7616ZM101.592 32.7894C100.539 32.7894 99.6351 32.6463 98.8794 32.3603C98.1237 32.0796 97.5165 31.7017 97.0577 31.2267C96.5989 30.7517 96.2805 30.2254 96.1023 29.6478L98.7419 29.0083C98.8606 29.2511 99.0333 29.4914 99.2599 29.7289C99.4867 29.9717 99.7917 30.1715 100.175 30.328C100.564 30.4899 101.052 30.5708 101.64 30.5708C102.472 30.5708 103.16 30.3684 103.705 29.9636C104.25 29.5642 104.523 28.9057 104.523 27.9881V25.632H104.377C104.226 25.9342 104.005 26.2447 103.713 26.5631C103.427 26.8815 103.047 27.1487 102.572 27.3647C102.102 27.5805 101.511 27.6885 100.798 27.6885C99.843 27.6885 98.9766 27.4645 98.1994 27.0164C97.4275 26.5631 96.8121 25.8884 96.3533 24.9923C95.8999 24.091 95.6733 22.9629 95.6733 21.6079C95.6733 20.2423 95.8999 19.0899 96.3533 18.1507C96.8121 17.2061 97.4301 16.491 98.2075 16.0052C98.9847 15.514 99.8511 15.2684 100.806 15.2684C101.535 15.2684 102.134 15.3925 102.604 15.6408C103.079 15.8837 103.457 16.1778 103.737 16.5233C104.018 16.8634 104.231 17.1846 104.377 17.4868H104.539V15.4302H107.429V28.069C107.429 29.1324 107.176 30.0122 106.668 30.7085C106.161 31.4048 105.467 31.9257 104.588 32.2712C103.708 32.6166 102.709 32.7894 101.592 32.7894ZM101.616 25.389C102.237 25.389 102.766 25.2379 103.203 24.9357C103.64 24.6333 103.972 24.1989 104.199 23.6322C104.426 23.0653 104.539 22.3853 104.539 21.5918C104.539 20.8091 104.426 20.1236 104.199 19.5353C103.978 18.9469 103.648 18.4908 103.211 18.1669C102.779 17.8377 102.248 17.673 101.616 17.673C100.963 17.673 100.418 17.843 99.9805 18.1831C99.5434 18.5232 99.2141 18.9901 98.9928 19.5838C98.7715 20.1721 98.6608 20.8414 98.6608 21.5918C98.6608 22.3528 98.7715 23.0195 98.9928 23.5916C99.2195 24.1583 99.5515 24.601 99.9887 24.9195C100.431 25.2326 100.974 25.389 101.616 25.389ZM113.364 11.2848V27.8666H110.433V11.2848H113.364ZM121.884 28.1096C120.637 28.1096 119.56 27.8504 118.653 27.3322C117.752 26.8087 117.058 26.0692 116.572 25.1138C116.087 24.153 115.844 23.0221 115.844 21.7213C115.844 20.4421 116.087 19.3193 116.572 18.3531C117.064 17.3815 117.749 16.6259 118.629 16.0861C119.509 15.541 120.543 15.2684 121.73 15.2684C122.497 15.2684 123.22 15.3925 123.9 15.6408C124.585 15.8837 125.19 16.2616 125.714 16.7743C126.243 17.2871 126.658 17.9403 126.961 18.7337C127.262 19.5217 127.414 20.4609 127.414 21.5513V22.45H117.22V20.4745H124.604C124.599 19.9131 124.478 19.4138 124.24 18.9765C124.002 18.534 123.671 18.1858 123.244 17.9322C122.823 17.6785 122.332 17.5515 121.771 17.5515C121.171 17.5515 120.645 17.6973 120.192 17.9888C119.738 18.2749 119.385 18.6528 119.131 19.1223C118.883 19.5866 118.756 20.0966 118.751 20.6526V22.3772C118.751 23.1004 118.883 23.7212 119.147 24.2394C119.412 24.7522 119.781 25.1462 120.256 25.4215C120.731 25.6914 121.287 25.8263 121.924 25.8263C122.351 25.8263 122.737 25.7669 123.082 25.6482C123.428 25.5241 123.727 25.3432 123.981 25.1057C124.235 24.8682 124.426 24.5741 124.556 24.2232L127.293 24.5309C127.119 25.2541 126.79 25.8857 126.305 26.4254C125.824 26.9598 125.209 27.3754 124.459 27.6723C123.708 27.9638 122.85 28.1096 121.884 28.1096ZM135.678 27.8666V11.2848H141.896C143.17 11.2848 144.239 11.5223 145.103 11.9973C145.972 12.4723 146.628 13.1254 147.07 13.9567C147.519 14.7826 147.743 15.7217 147.743 16.7743C147.743 17.8377 147.519 18.7822 147.07 19.6081C146.622 20.434 145.961 21.0844 145.087 21.5594C144.213 22.0289 143.135 22.2638 141.856 22.2638H137.735V19.7943H141.451C142.196 19.7943 142.806 19.6648 143.281 19.4057C143.756 19.1466 144.106 18.7903 144.333 18.337C144.566 17.8835 144.681 17.3627 144.681 16.7743C144.681 16.1859 144.566 15.6677 144.333 15.2197C144.106 14.7717 143.753 14.4236 143.273 14.1754C142.798 13.9216 142.185 13.7947 141.435 13.7947H138.683V27.8666H135.678ZM155.468 28.1096C154.254 28.1096 153.201 27.8423 152.311 27.3079C151.42 26.7736 150.73 26.026 150.238 25.0653C149.752 24.1044 149.51 22.9817 149.51 21.6971C149.51 20.4124 149.752 19.287 150.238 18.3208C150.73 17.3546 151.42 16.6043 152.311 16.0699C153.201 15.5355 154.254 15.2684 155.468 15.2684C156.683 15.2684 157.736 15.5355 158.626 16.0699C159.517 16.6043 160.204 17.3546 160.691 18.3208C161.182 19.287 161.428 20.4124 161.428 21.6971C161.428 22.9817 161.182 24.1044 160.691 25.0653C160.204 26.026 159.517 26.7736 158.626 27.3079C157.736 27.8423 156.683 28.1096 155.468 28.1096ZM155.485 25.7616C156.144 25.7616 156.693 25.5807 157.137 25.219C157.579 24.852 157.908 24.3608 158.125 23.7454C158.345 23.1302 158.456 22.4447 158.456 21.689C158.456 20.9278 158.345 20.2397 158.125 19.6243C157.908 19.0035 157.579 18.5096 157.137 18.1427C156.693 17.7756 156.144 17.5921 155.485 17.5921C154.81 17.5921 154.249 17.7756 153.8 18.1427C153.358 18.5096 153.026 19.0035 152.805 19.6243C152.589 20.2397 152.48 20.9278 152.48 21.689C152.48 22.4447 152.589 23.1302 152.805 23.7454C153.026 24.3608 153.358 24.852 153.8 25.219C154.249 25.5807 154.81 25.7616 155.485 25.7616ZM168.53 28.0853C167.554 28.0853 166.678 27.8342 165.907 27.3322C165.136 26.8302 164.525 26.1015 164.077 25.1462C163.63 24.1908 163.405 23.0302 163.405 21.6647C163.405 20.2828 163.632 19.1169 164.086 18.1669C164.544 17.2116 165.162 16.491 165.94 16.0052C166.716 15.514 167.583 15.2684 168.538 15.2684C169.267 15.2684 169.867 15.3925 170.337 15.6408C170.805 15.8837 171.178 16.1778 171.454 16.5233C171.729 16.8634 171.941 17.1846 172.093 17.4868H172.214V11.2848H175.154V27.8666H172.271V25.9072H172.093C171.941 26.2096 171.724 26.5307 171.437 26.8708C171.151 27.2054 170.774 27.4914 170.304 27.7289C169.834 27.9664 169.243 28.0853 168.53 28.0853ZM169.349 25.6805C169.969 25.6805 170.497 25.5132 170.936 25.1785C171.373 24.8385 171.705 24.3662 171.931 23.7616C172.158 23.1572 172.271 22.4528 172.271 21.6484C172.271 20.8442 172.158 20.1452 171.931 19.5515C171.71 18.9577 171.38 18.4962 170.943 18.1669C170.511 17.8377 169.979 17.673 169.349 17.673C168.695 17.673 168.15 17.843 167.712 18.1831C167.275 18.5232 166.946 18.9927 166.725 19.5919C166.504 20.191 166.393 20.8765 166.393 21.6484C166.393 22.4257 166.504 23.1193 166.725 23.7293C166.952 24.3338 167.284 24.8116 167.721 25.1624C168.163 25.5078 168.706 25.6805 169.349 25.6805ZM183.701 28.1096C182.46 28.1096 181.393 27.837 180.503 27.2918C179.617 26.7466 178.935 25.9936 178.455 25.0328C177.98 24.0666 177.743 22.9548 177.743 21.6971C177.743 20.434 177.985 19.3193 178.471 18.3531C178.956 17.3815 179.643 16.6259 180.528 16.0861C181.419 15.541 182.471 15.2684 183.685 15.2684C184.694 15.2684 185.588 15.4546 186.365 15.827C187.148 16.194 187.771 16.7149 188.236 17.3897C188.699 18.059 188.964 18.8416 189.029 19.7377H186.228C186.114 19.1385 185.844 18.6392 185.417 18.2398C184.997 17.835 184.433 17.6326 183.725 17.6326C183.126 17.6326 182.6 17.7945 182.147 18.1184C181.693 18.4368 181.34 18.8956 181.087 19.4947C180.838 20.0939 180.714 20.8118 180.714 21.6484C180.714 22.4958 180.838 23.2246 181.087 23.8346C181.335 24.439 181.682 24.9059 182.13 25.2353C182.584 25.5591 183.116 25.721 183.725 25.721C184.157 25.721 184.543 25.6401 184.883 25.4781C185.229 25.3108 185.518 25.0706 185.749 24.7576C185.982 24.4445 186.141 24.064 186.228 23.616H189.029C188.959 24.4958 188.699 25.2757 188.252 25.9559C187.804 26.6305 187.193 27.1596 186.422 27.5427C185.651 27.9206 184.744 28.1096 183.701 28.1096ZM195.014 28.1177C194.226 28.1177 193.517 27.9773 192.884 27.6966C192.259 27.4105 191.762 26.9895 191.395 26.4335C191.034 25.8776 190.853 25.1921 190.853 24.377C190.853 23.6754 190.982 23.0951 191.242 22.6362C191.5 22.1774 191.853 21.8104 192.302 21.5351C192.75 21.2598 193.254 21.052 193.815 20.9116C194.383 20.766 194.968 20.6607 195.574 20.5958C196.302 20.5203 196.892 20.4528 197.346 20.3934C197.799 20.3287 198.128 20.2315 198.334 20.102C198.544 19.9671 198.649 19.7592 198.649 19.4785V19.43C198.649 18.8201 198.469 18.3478 198.107 18.0131C197.746 17.6785 197.224 17.5111 196.545 17.5111C195.827 17.5111 195.257 17.6677 194.836 17.9807C194.421 18.2938 194.14 18.6635 193.994 19.0899L191.258 18.7013C191.473 17.9456 191.829 17.314 192.326 16.8067C192.822 16.2939 193.43 15.9107 194.149 15.657C194.866 15.3978 195.66 15.2684 196.529 15.2684C197.128 15.2684 197.724 15.3385 198.317 15.4789C198.911 15.6192 199.453 15.8513 199.945 16.1752C200.436 16.4936 200.83 16.9281 201.127 17.4787C201.429 18.0293 201.58 18.7175 201.58 19.5434V27.8666H198.763V26.1583H198.666C198.488 26.5037 198.237 26.8276 197.913 27.1298C197.594 27.4267 197.192 27.6669 196.706 27.8504C196.226 28.0285 195.662 28.1177 195.014 28.1177ZM195.775 25.964C196.364 25.964 196.874 25.8478 197.305 25.6158C197.737 25.3783 198.069 25.0653 198.302 24.6765C198.539 24.2879 198.658 23.8642 198.658 23.4054V21.9399C198.565 22.0155 198.41 22.0857 198.188 22.1504C197.973 22.2153 197.729 22.2719 197.46 22.3204C197.19 22.369 196.923 22.4122 196.658 22.45C196.393 22.4879 196.164 22.5202 195.97 22.5471C195.533 22.6065 195.142 22.7037 194.796 22.8386C194.45 22.9736 194.178 23.1625 193.978 23.4054C193.779 23.6429 193.679 23.9506 193.679 24.3285C193.679 24.8682 193.875 25.2757 194.269 25.551C194.663 25.8263 195.166 25.964 195.775 25.964ZM214.357 18.7175L211.686 19.009C211.61 18.739 211.478 18.4854 211.288 18.2478C211.105 18.0104 210.857 17.8188 210.543 17.673C210.23 17.5273 209.848 17.4544 209.394 17.4544C208.784 17.4544 208.271 17.5866 207.855 17.8511C207.445 18.1156 207.243 18.4583 207.248 18.8794C207.243 19.241 207.375 19.5353 207.645 19.762C207.92 19.9886 208.373 20.1749 209.005 20.3206L211.127 20.7741C212.304 21.0278 213.178 21.4298 213.75 21.9804C214.328 22.5309 214.619 23.2515 214.624 24.1423C214.619 24.9249 214.39 25.6158 213.936 26.2149C213.488 26.8087 212.865 27.2728 212.066 27.6076C211.266 27.9423 210.349 28.1096 209.313 28.1096C207.791 28.1096 206.566 27.791 205.637 27.1541C204.709 26.5118 204.155 25.6184 203.977 24.4741L206.836 24.1989C206.965 24.7603 207.24 25.184 207.661 25.4701C208.082 25.7561 208.63 25.8991 209.304 25.8991C210.001 25.8991 210.56 25.7561 210.981 25.4701C211.407 25.184 211.621 24.8304 211.621 24.4094C211.621 24.0531 211.483 23.759 211.208 23.5269C210.937 23.2947 210.516 23.1166 209.944 22.9925L207.824 22.5471C206.63 22.2989 205.747 21.8805 205.175 21.2923C204.604 20.6984 204.32 19.9482 204.325 19.0414C204.32 18.2749 204.528 17.6109 204.949 17.0496C205.375 16.4828 205.967 16.0456 206.722 15.7379C207.483 15.4249 208.361 15.2684 209.354 15.2684C210.81 15.2684 211.958 15.5787 212.794 16.1995C213.636 16.8202 214.157 17.6596 214.357 18.7175ZM223.252 15.4302V17.6973H216.102V15.4302H223.252ZM217.867 12.4507H220.798V24.126C220.798 24.5201 220.858 24.8223 220.977 25.0328C221.101 25.2379 221.262 25.3783 221.462 25.4539C221.662 25.5294 221.882 25.5673 222.125 25.5673C222.309 25.5673 222.476 25.5537 222.628 25.5267C222.784 25.4997 222.903 25.4754 222.984 25.4539L223.478 27.7452C223.321 27.7991 223.097 27.8585 222.806 27.9233C222.519 27.9881 222.169 28.0259 221.753 28.0366C221.02 28.0583 220.358 27.9476 219.769 27.7048C219.182 27.4564 218.714 27.0732 218.369 26.555C218.029 26.0368 217.862 25.389 217.867 24.6118V12.4507ZM235.353 18.7175L232.682 19.009C232.606 18.739 232.474 18.4854 232.285 18.2478C232.102 18.0104 231.853 17.8188 231.541 17.673C231.226 17.5273 230.844 17.4544 230.39 17.4544C229.78 17.4544 229.268 17.5866 228.851 17.8511C228.442 18.1156 228.24 18.4583 228.245 18.8794C228.24 19.241 228.371 19.5353 228.641 19.762C228.917 19.9886 229.371 20.1749 230.002 20.3206L232.123 20.7741C233.3 21.0278 234.174 21.4298 234.747 21.9804C235.324 22.5309 235.615 23.2515 235.621 24.1423C235.615 24.9249 235.386 25.6158 234.933 26.2149C234.484 26.8087 233.861 27.2728 233.062 27.6076C232.264 27.9423 231.346 28.1096 230.309 28.1096C228.787 28.1096 227.562 27.791 226.634 27.1541C225.705 26.5118 225.152 25.6184 224.974 24.4741L227.832 24.1989C227.961 24.7603 228.237 25.184 228.658 25.4701C229.078 25.7561 229.627 25.8991 230.302 25.8991C230.997 25.8991 231.556 25.7561 231.978 25.4701C232.403 25.184 232.617 24.8304 232.617 24.4094C232.617 24.0531 232.479 23.759 232.204 23.5269C231.935 23.2947 231.513 23.1166 230.941 22.9925L228.82 22.5471C227.627 22.2989 226.744 21.8805 226.172 21.2923C225.6 20.6984 225.316 19.9482 225.321 19.0414C225.316 18.2749 225.524 17.6109 225.946 17.0496C226.371 16.4828 226.963 16.0456 227.719 15.7379C228.479 15.4249 229.357 15.2684 230.35 15.2684C231.808 15.2684 232.954 15.5787 233.791 16.1995C234.633 16.8202 235.154 17.6596 235.353 18.7175Z" fill="white"/>
</svg>
