<svg width="145" height="40" viewBox="0 0 145 40" fill="none" xmlns="http://www.w3.org/2000/svg">
<path d="M-15.1328 28.75V12.3863H-12.1686V26.2651H-4.96156V28.75H-15.1328ZM0.575562 12.3863V28.75H-2.38869V12.3863H0.575562ZM12.6786 16.8847C12.6039 16.187 12.2897 15.6436 11.7357 15.2547C11.1871 14.866 10.4733 14.6715 9.59431 14.6715C8.97644 14.6715 8.44644 14.7647 8.00431 14.9511C7.56219 15.1376 7.22394 15.3906 6.98956 15.7102C6.75519 16.0298 6.63544 16.3947 6.63006 16.8048C6.63006 17.1457 6.70731 17.4413 6.86181 17.6917C7.02156 17.9421 7.23731 18.1551 7.50894 18.331C7.78056 18.5013 8.08156 18.6452 8.41181 18.7623C8.74206 18.8796 9.07506 18.9781 9.41056 19.058L10.9447 19.4416C11.5626 19.5853 12.1566 19.7798 12.7264 20.0248C13.3017 20.2698 13.8158 20.5788 14.2686 20.9517C14.7267 21.3246 15.0888 21.7746 15.3552 22.302C15.6216 22.8293 15.7547 23.4472 15.7547 24.1557C15.7547 25.1145 15.5097 25.9587 15.0196 26.6886C14.5296 27.413 13.8211 27.9802 12.8943 28.3905C11.9727 28.7952 10.8568 28.9977 9.54644 28.9977C8.27331 28.9977 7.16806 28.8006 6.23056 28.4063C5.29832 28.0122 4.56857 27.437 4.04132 26.6806C3.51932 25.9241 3.23694 25.0026 3.19431 23.916H6.11069C6.15331 24.486 6.32907 24.96 6.63807 25.3382C6.94694 25.7165 7.34919 25.9987 7.84456 26.1852C8.34519 26.3716 8.90456 26.4648 9.52244 26.4648C10.1669 26.4648 10.7316 26.369 11.2163 26.1772C11.7064 25.9801 12.0899 25.7085 12.3669 25.3622C12.6439 25.0106 12.7851 24.6005 12.7904 24.1317C12.7851 23.7056 12.6599 23.354 12.4148 23.077C12.1698 22.7947 11.8262 22.5603 11.3842 22.3738C10.9473 22.1821 10.4359 22.0117 9.85006 21.8626L7.98832 21.3831C6.64069 21.0368 5.57531 20.5122 4.79231 19.8091C4.01469 19.1006 3.62581 18.1605 3.62581 16.9886C3.62581 16.0245 3.88681 15.1802 4.40881 14.4557C4.93619 13.7313 5.65257 13.1693 6.55819 12.7698C7.46369 12.365 8.48907 12.1626 9.63432 12.1626C10.7956 12.1626 11.8129 12.365 12.6866 12.7698C13.5654 13.1693 14.2552 13.726 14.7559 14.4397C15.2567 15.1482 15.5149 15.9632 15.5309 16.8847H12.6786ZM17.6783 14.8712V12.3863H30.7341V14.8712H25.6763V28.75H22.7361V14.8712H17.6783ZM33.2509 28.75V12.3863H43.8937V14.8712H36.2152V19.3137H43.3423V21.7986H36.2152V26.2651H43.9576V28.75H33.2509ZM60.3649 12.3863V28.75H57.7287L50.0181 17.6038H49.8822V28.75H46.9179V12.3863H49.5706L57.2724 23.5405H57.4174V12.3863H60.3649Z" fill="white"/>
<path d="M82.6194 12.3863V28.75H79.9819L72.2719 17.6038H72.1356V28.75H69.1719V12.3863H71.8244L79.5269 23.5405H79.6706V12.3863H82.6194ZM100.471 20.5681C100.471 22.3313 100.141 23.8415 99.4806 25.0985C98.8256 26.3503 97.9306 27.3091 96.7956 27.975C95.6669 28.6407 94.3856 28.9737 92.9519 28.9737C91.5194 28.9737 90.2356 28.6407 89.1006 27.975C87.9719 27.3037 87.0769 26.3423 86.4169 25.0905C85.7619 23.8335 85.4331 22.326 85.4331 20.5681C85.4331 18.805 85.7619 17.2976 86.4169 16.0457C87.0769 14.7887 87.9719 13.8272 89.1006 13.1613C90.2356 12.4955 91.5194 12.1626 92.9519 12.1626C94.3856 12.1626 95.6669 12.4955 96.7956 13.1613C97.9306 13.8272 98.8256 14.7887 99.4806 16.0457C100.141 17.2976 100.471 18.805 100.471 20.5681ZM97.4906 20.5681C97.4906 19.327 97.2956 18.2803 96.9069 17.4281C96.5244 16.5705 95.9906 15.9232 95.3094 15.4865C94.6281 15.0443 93.8419 14.8233 92.9519 14.8233C92.0631 14.8233 91.2769 15.0443 90.5956 15.4865C89.9131 15.9232 89.3781 16.5705 88.9894 17.4281C88.6056 18.2803 88.4144 19.327 88.4144 20.5681C88.4144 21.8092 88.6056 22.8586 88.9894 23.7162C89.3781 24.5685 89.9131 25.2157 90.5956 25.6578C91.2769 26.0946 92.0631 26.313 92.9519 26.313C93.8419 26.313 94.6281 26.0946 95.3094 25.6578C95.9906 25.2157 96.5244 24.5685 96.9069 23.7162C97.2956 22.8586 97.4906 21.8092 97.4906 20.5681ZM101.829 14.8712V12.3863H114.886V14.8712H109.827V28.75H106.887V14.8712H101.829ZM117.402 28.75V12.3863H128.044V14.8712H120.366V19.3137H127.493V21.7986H120.366V26.2651H128.108V28.75H117.402ZM139.962 16.8847C139.887 16.187 139.573 15.6436 139.019 15.2547C138.471 14.866 137.757 14.6715 136.878 14.6715C136.259 14.6715 135.729 14.7647 135.288 14.9511C134.846 15.1376 134.507 15.3906 134.273 15.7102C134.038 16.0298 133.918 16.3947 133.913 16.8048C133.913 17.1457 133.991 17.4413 134.146 17.6917C134.304 17.9421 134.521 18.1551 134.792 18.331C135.064 18.5013 135.364 18.6452 135.696 18.7623C136.026 18.8796 136.358 18.9781 136.694 19.058L138.228 19.4416C138.846 19.5853 139.439 19.7798 140.009 20.0248C140.586 20.2698 141.099 20.5788 141.552 20.9517C142.009 21.3246 142.372 21.7746 142.638 22.302C142.904 22.8293 143.038 23.4472 143.038 24.1557C143.038 25.1145 142.793 25.9587 142.303 26.6886C141.813 27.413 141.104 27.9802 140.178 28.3905C139.256 28.7952 138.141 28.9977 136.829 28.9977C135.557 28.9977 134.452 28.8006 133.514 28.4063C132.582 28.0122 131.852 27.437 131.324 26.6806C130.803 25.9241 130.521 25.0026 130.478 23.916H133.394C133.437 24.486 133.612 24.96 133.922 25.3382C134.231 25.7165 134.632 25.9987 135.128 26.1852C135.628 26.3716 136.188 26.4648 136.806 26.4648C137.451 26.4648 138.014 26.369 138.499 26.1772C138.989 25.9801 139.373 25.7085 139.651 25.3622C139.927 25.0106 140.068 24.6005 140.073 24.1317C140.068 23.7056 139.943 23.354 139.698 23.077C139.453 22.7947 139.109 22.5603 138.667 22.3738C138.231 22.1821 137.719 22.0117 137.133 21.8626L135.272 21.3831C133.924 21.0368 132.858 20.5122 132.076 19.8091C131.298 19.1006 130.909 18.1605 130.909 16.9886C130.909 16.0245 131.171 15.1802 131.692 14.4557C132.219 13.7313 132.936 13.1693 133.842 12.7698C134.747 12.365 135.772 12.1626 136.918 12.1626C138.079 12.1626 139.096 12.365 139.969 12.7698C140.848 13.1693 141.538 13.726 142.039 14.4397C142.539 15.1482 142.798 15.9632 142.814 16.8847H139.962Z" fill="#FF0000"/>
</svg>
