<svg width="361" height="378" viewBox="0 0 361 378" fill="none" xmlns="http://www.w3.org/2000/svg">
<g filter="url(#filter0_d_856_6718)">
<path d="M293.292 189.782C311.087 200.028 315.581 215.127 306.414 227.889C304.976 231.124 302.1 234.18 297.786 236.696L169.268 310.751C168.189 311.291 167.111 312.01 165.852 312.369C142.126 323.693 106.896 322.974 84.787 310.212C63.2175 297.63 61.2403 278.217 79.2149 264.377C65.3745 252.873 67.3517 236.876 85.1465 226.63C91.0781 223.215 98.0882 220.879 105.638 219.441C103.481 207.218 110.311 194.636 126.668 185.289C150.933 171.269 188.321 169.112 216.361 179.177C224.629 175.403 236.493 175.762 244.401 179.896C261.837 178.638 279.811 182.053 293.292 189.782Z" fill="#060A1F"/>
</g>
<path d="M306.502 113.452C326.52 124.978 331.575 141.963 321.263 156.319C319.645 159.959 316.41 163.396 311.557 166.227L166.983 249.535C165.769 250.141 164.556 250.95 163.141 251.355C136.45 264.093 96.8182 263.285 71.9473 248.928C47.683 234.774 45.4588 212.936 65.679 197.366C50.1094 184.425 52.3337 166.429 72.3517 154.904C79.0244 151.062 86.9103 148.433 95.4028 146.816C92.9764 133.066 100.66 118.912 119.061 108.397C146.358 92.6254 188.416 90.199 219.96 101.522C229.261 97.2761 242.606 97.6805 251.503 102.331C271.117 100.916 291.337 104.758 306.502 113.452Z" fill="url(#paint0_linear_856_6718)"/>
<path fill-rule="evenodd" clip-rule="evenodd" d="M321.263 156.319C331.575 141.963 326.52 124.978 306.502 113.452C291.337 104.758 271.117 100.916 251.503 102.331C242.606 97.6805 229.261 97.2761 219.96 101.522C188.416 90.199 146.358 92.6254 119.061 108.397C100.66 118.912 92.9764 133.066 95.4028 146.816C86.9103 148.433 79.0244 151.062 72.3517 154.904C53.6397 165.677 50.4754 182.105 62.8588 194.772C63.7231 195.656 64.6632 196.522 65.679 197.366C64.6363 198.169 63.6533 198.989 62.7299 199.823C45.7468 215.168 48.9342 235.504 71.9473 248.928C96.8182 263.285 136.45 264.093 163.141 251.355C164.157 251.064 165.069 250.565 165.952 250.082C166.298 249.893 166.64 249.706 166.983 249.535L311.557 166.227C316.41 163.396 319.645 159.959 321.263 156.319ZM165.183 246.209L237.418 204.586L309.653 162.962C309.655 162.961 309.658 162.959 309.661 162.957C314.015 160.416 316.594 157.517 317.809 154.784L317.967 154.429L318.193 154.114C322.716 147.817 323.727 141.231 321.668 135.012C319.569 128.67 314.093 122.185 304.619 116.73C290.228 108.48 270.791 104.729 251.775 106.101L250.704 106.179L249.752 105.681C241.888 101.57 229.768 101.2 221.529 104.961L220.13 105.6L218.682 105.08C188.053 94.0849 147.171 96.5214 120.952 111.67L120.944 111.675L120.936 111.679C103.354 121.726 97.0746 134.538 99.1253 146.159L99.7733 149.831L96.1101 150.529C87.9154 152.09 80.4542 154.601 74.2378 158.18C64.8524 163.583 60.2987 170.114 59.4097 176.155C58.5368 182.087 61.0471 188.601 68.0952 194.459L71.7283 197.479L67.9852 200.361C58.5922 207.594 55.0203 215.758 55.8864 223.244C56.7642 230.83 62.3336 238.942 73.8434 245.658C85.6014 252.443 101.068 256.13 116.955 256.523C132.837 256.916 148.805 254.008 161.513 247.943L161.798 247.807L162.102 247.72C162.456 247.619 162.855 247.447 163.394 247.167C163.497 247.113 163.699 247.004 163.939 246.873C164.336 246.658 164.839 246.385 165.183 246.209Z" fill="#027582"/>
<path d="M65.6841 197.366C58.8092 191.705 55.574 185.032 55.574 178.359V201.006C55.574 203.028 55.7762 204.848 56.3828 206.87C58.607 203.635 61.64 200.399 65.6841 197.366ZM321.268 156.319C319.651 159.959 316.415 163.396 311.562 166.227L166.988 249.535C165.774 250.141 164.561 250.95 163.146 251.354C136.455 264.093 96.8233 263.284 71.9524 248.928C58.4048 241.042 51.7321 230.73 51.9343 220.417V243.266C51.5299 253.579 58.2026 264.093 71.9524 271.979C97.0255 286.335 136.455 287.346 163.348 274.608C164.763 274.001 165.977 273.394 167.19 272.788L311.765 189.278C316.617 186.447 319.853 183.01 321.47 179.37C324.706 174.922 326.323 170.069 326.525 165.418V142.367C326.323 147.018 324.503 151.871 321.268 156.319Z" fill="url(#paint1_linear_856_6718)"/>
<g filter="url(#filter1_i_856_6718)">
<path d="M158.869 182.385C164.293 185.517 164.293 190.594 158.869 193.725C153.445 196.857 144.652 196.857 139.228 193.725C133.804 190.594 133.804 185.517 139.228 182.385C144.652 179.254 153.445 179.254 158.869 182.385Z" fill="#5CD1B4"/>
</g>
<g filter="url(#filter2_i_856_6718)">
<path d="M194.879 161.595C200.303 164.727 200.303 169.804 194.879 172.935C189.455 176.067 180.661 176.067 175.237 172.935C169.813 169.804 169.813 164.727 175.237 161.595C180.661 158.464 189.455 158.464 194.879 161.595Z" fill="#5CD1B4"/>
</g>
<g filter="url(#filter3_i_856_6718)">
<path d="M230.888 140.805C236.312 143.937 236.312 149.014 230.888 152.145C225.464 155.277 216.67 155.277 211.247 152.145C205.823 149.014 205.823 143.937 211.247 140.805C216.67 137.674 225.464 137.674 230.888 140.805Z" fill="#5CD1B4"/>
</g>
<defs>
<filter id="filter0_d_856_6718" x="27.0369" y="132.935" width="324.004" height="227.42" filterUnits="userSpaceOnUse" color-interpolation-filters="sRGB">
<feFlood flood-opacity="0" result="BackgroundImageFix"/>
<feColorMatrix in="SourceAlpha" type="matrix" values="0 0 0 0 0 0 0 0 0 0 0 0 0 0 0 0 0 0 127 0" result="hardAlpha"/>
<feMorphology radius="8" operator="dilate" in="SourceAlpha" result="effect1_dropShadow_856_6718"/>
<feOffset/>
<feGaussianBlur stdDeviation="16"/>
<feColorMatrix type="matrix" values="0 0 0 0 0.0243137 0 0 0 0 0.0398745 0 0 0 0 0.121569 0 0 0 1 0"/>
<feBlend mode="normal" in2="BackgroundImageFix" result="effect1_dropShadow_856_6718"/>
<feBlend mode="normal" in="SourceGraphic" in2="effect1_dropShadow_856_6718" result="shape"/>
</filter>
<filter id="filter1_i_856_6718" x="135.16" y="180.037" width="27.7771" height="16.0371" filterUnits="userSpaceOnUse" color-interpolation-filters="sRGB">
<feFlood flood-opacity="0" result="BackgroundImageFix"/>
<feBlend mode="normal" in="SourceGraphic" in2="BackgroundImageFix" result="shape"/>
<feColorMatrix in="SourceAlpha" type="matrix" values="0 0 0 0 0 0 0 0 0 0 0 0 0 0 0 0 0 0 127 0" result="hardAlpha"/>
<feOffset dy="3"/>
<feComposite in2="hardAlpha" operator="arithmetic" k2="-1" k3="1"/>
<feColorMatrix type="matrix" values="0 0 0 0 0.1 0 0 0 0 0.3 0 0 0 0 0.5 0 0 0 1 0"/>
<feBlend mode="normal" in2="shape" result="effect1_innerShadow_856_6718"/>
</filter>
<filter id="filter2_i_856_6718" x="171.169" y="159.247" width="27.7771" height="16.0376" filterUnits="userSpaceOnUse" color-interpolation-filters="sRGB">
<feFlood flood-opacity="0" result="BackgroundImageFix"/>
<feBlend mode="normal" in="SourceGraphic" in2="BackgroundImageFix" result="shape"/>
<feColorMatrix in="SourceAlpha" type="matrix" values="0 0 0 0 0 0 0 0 0 0 0 0 0 0 0 0 0 0 127 0" result="hardAlpha"/>
<feOffset dy="3"/>
<feComposite in2="hardAlpha" operator="arithmetic" k2="-1" k3="1"/>
<feColorMatrix type="matrix" values="0 0 0 0 0.1 0 0 0 0 0.3 0 0 0 0 0.5 0 0 0 1 0"/>
<feBlend mode="normal" in2="shape" result="effect1_innerShadow_856_6718"/>
</filter>
<filter id="filter3_i_856_6718" x="207.179" y="138.457" width="27.7773" height="16.0371" filterUnits="userSpaceOnUse" color-interpolation-filters="sRGB">
<feFlood flood-opacity="0" result="BackgroundImageFix"/>
<feBlend mode="normal" in="SourceGraphic" in2="BackgroundImageFix" result="shape"/>
<feColorMatrix in="SourceAlpha" type="matrix" values="0 0 0 0 0 0 0 0 0 0 0 0 0 0 0 0 0 0 127 0" result="hardAlpha"/>
<feOffset dy="3"/>
<feComposite in2="hardAlpha" operator="arithmetic" k2="-1" k3="1"/>
<feColorMatrix type="matrix" values="0 0 0 0 0.1 0 0 0 0 0.3 0 0 0 0 0.5 0 0 0 1 0"/>
<feBlend mode="normal" in2="shape" result="effect1_innerShadow_856_6718"/>
</filter>
<linearGradient id="paint0_linear_856_6718" x1="215.457" y1="-159.669" x2="209.977" y2="311.053" gradientUnits="userSpaceOnUse">
<stop stop-color="#00C39D"/>
<stop offset="1" stop-color="#042666"/>
</linearGradient>
<linearGradient id="paint1_linear_856_6718" x1="181.91" y1="215.062" x2="223.909" y2="145.049" gradientUnits="userSpaceOnUse">
<stop stop-color="#00C39D"/>
<stop offset="1" stop-color="#042666"/>
</linearGradient>
</defs>
</svg>
