<svg width="602" height="414" viewBox="0 0 602 414" fill="none" xmlns="http://www.w3.org/2000/svg">
<path d="M557.634 41.9143C601.43 67.0997 612.49 104.215 589.928 135.587C586.389 143.54 579.311 151.051 568.694 157.237L252.389 339.28C249.734 340.605 247.08 342.372 243.983 343.256C185.589 371.093 98.881 369.325 44.4677 337.954C-8.61853 307.024 -13.4848 259.305 30.7537 225.282C-3.30991 197.004 1.55633 157.679 45.3524 132.494C59.9512 124.098 77.2042 118.354 95.7843 114.82C90.4757 84.7738 107.286 53.8442 147.543 30.868C207.265 -3.59633 299.281 -8.89853 368.293 15.8451C388.643 6.56623 417.841 7.44993 437.306 17.6125C480.217 14.5195 524.455 22.9147 557.634 41.9143Z" fill="url(#paint0_linear_360_3557)"/>
<path fill-rule="evenodd" clip-rule="evenodd" d="M589.928 135.587C612.49 104.215 601.43 67.0997 557.634 41.9143C524.455 22.9147 480.217 14.5195 437.306 17.6125C417.841 7.44993 388.643 6.56623 368.293 15.8451C299.281 -8.89853 207.265 -3.59633 147.543 30.868C107.286 53.8442 90.4757 84.7738 95.7843 114.82C77.2042 118.354 59.9512 124.098 45.3524 132.494C4.41376 156.036 -2.50921 191.933 24.5836 219.613C26.4746 221.545 28.5313 223.437 30.7537 225.282C28.4725 227.037 26.3218 228.827 24.3016 230.651C-12.8547 264.181 -5.88104 308.619 44.4677 337.954C98.881 369.325 185.589 371.093 243.983 343.256C246.207 342.622 248.203 341.531 250.134 340.476C250.892 340.062 251.64 339.653 252.389 339.28L568.694 157.237C579.311 151.051 586.389 143.54 589.928 135.587ZM248.451 332.013L406.489 241.057L564.527 150.102C564.533 150.099 564.538 150.096 564.544 150.092C574.072 144.538 579.713 138.205 582.371 132.232L582.716 131.457L583.212 130.768C593.107 117.008 595.319 102.616 590.815 89.0268C586.221 75.1688 574.241 60.9969 553.513 49.0758C522.029 31.0493 479.503 22.8525 437.901 25.8511L435.557 26.02L433.474 24.9327C416.268 15.9494 389.752 15.1407 371.728 23.3591L368.667 24.755L365.499 23.6194C298.487 -0.407178 209.044 4.91707 151.681 38.02L151.664 38.0299L151.646 38.0397C113.18 59.9938 99.442 87.9912 103.928 113.384L105.346 121.409L97.3318 122.934C79.4032 126.345 63.0794 131.831 49.4789 139.652C28.9452 151.46 18.9825 165.73 17.0376 178.931C15.1277 191.893 20.6199 206.129 36.0399 218.93L43.9886 225.529L35.7992 231.827C15.2489 247.631 7.43424 265.471 9.32913 281.829C11.2496 298.407 23.4346 316.132 48.6161 330.808C74.3406 345.635 108.178 353.692 142.937 354.551C177.683 355.409 212.62 349.054 240.421 335.802L241.046 335.504L241.711 335.314C242.485 335.093 243.358 334.717 244.537 334.105C244.763 333.988 245.204 333.749 245.73 333.464C246.599 332.993 247.7 332.397 248.451 332.013Z" fill="#027582"/>
<path d="M30.7651 225.282C15.724 212.911 8.64581 198.329 8.64581 183.748V233.236C8.64581 237.654 9.08819 241.631 10.4153 246.049C15.2816 238.98 21.9174 231.91 30.7651 225.282ZM589.94 135.587C586.401 143.54 579.322 151.052 568.705 157.237L252.4 339.28C249.746 340.605 247.091 342.373 243.995 343.256C185.6 371.093 98.8923 369.325 44.479 337.954C14.8392 320.722 0.240492 298.188 0.682877 275.653V325.582C-0.201893 348.117 14.3968 371.093 44.479 388.325C99.3347 419.696 185.6 421.906 244.437 394.069C247.534 392.743 250.188 391.418 252.842 390.092L569.148 207.608C579.765 201.422 586.843 193.911 590.382 185.958C597.46 176.237 600.999 165.633 601.442 155.47V105.099C600.999 115.262 597.018 125.866 589.94 135.587Z" fill="url(#paint1_linear_360_3557)"/>
<defs>
<linearGradient id="paint0_linear_360_3557" x1="358.443" y1="-554.906" x2="346.483" y2="473.709" gradientUnits="userSpaceOnUse">
<stop stop-color="#00C39D"/>
<stop offset="1" stop-color="#042666"/>
</linearGradient>
<linearGradient id="paint1_linear_360_3557" x1="285.048" y1="263.951" x2="376.77" y2="110.862" gradientUnits="userSpaceOnUse">
<stop stop-color="#00C39D"/>
<stop offset="1" stop-color="#042666"/>
</linearGradient>
</defs>
</svg>
