<svg width="60" height="56" viewBox="0 0 60 56" fill="none" xmlns="http://www.w3.org/2000/svg">
<path d="M35.8869 14.9736C34.894 14.9736 34.0863 14.1212 34.0863 13.0735V6.19934C34.0863 5.3831 33.4569 4.71913 32.6834 4.71913H22.7659C21.9924 4.71913 21.3631 5.3831 21.3631 6.19934V13.0735C21.3631 14.1212 20.5553 14.9736 19.5624 14.9736C18.5695 14.9736 17.7617 14.1212 17.7617 13.0735V6.19934C17.7617 3.28772 20.0065 0.918945 22.7659 0.918945H32.6834C35.4428 0.918945 37.6876 3.28772 37.6876 6.19934V13.0735C37.6876 14.1213 36.8798 14.9736 35.8869 14.9736Z" fill="#365E7D"/>
<path d="M49.1496 49.5882H6.29709C3.44337 49.5882 1.12988 47.1471 1.12988 44.1357V15.7733C1.12988 12.762 3.44325 10.3208 6.29709 10.3208H49.1496C52.0034 10.3208 54.3169 12.7619 54.3169 15.7733V44.1357C54.3167 47.147 52.0034 49.5882 49.1496 49.5882Z" fill="url(#paint0_linear_1993_12786)"/>
<path d="M49.1499 10.3213H41.793C44.6467 10.3213 46.9602 12.7624 46.9602 15.7738V44.1362C46.9602 47.1475 44.6468 49.5887 41.793 49.5887H49.1499C52.0037 49.5887 54.3171 47.1476 54.3171 44.1362V15.7737C54.317 12.7624 52.0037 10.3213 49.1499 10.3213Z" fill="url(#paint1_linear_1993_12786)"/>
<path d="M49.1496 10.3213H6.29709C3.44337 10.3213 1.12988 12.7624 1.12988 15.7738V19.5659C1.12988 25.0226 5.32188 29.446 10.493 29.446H44.9535C50.1246 29.446 54.3166 25.0226 54.3166 19.5659V15.7737C54.3167 12.7624 52.0034 10.3213 49.1496 10.3213Z" fill="url(#paint2_linear_1993_12786)"/>
<path d="M13.0143 36.231C11.6807 36.231 10.5996 35.0902 10.5996 33.6829V27.7614C10.5996 26.3542 11.6807 25.2134 13.0143 25.2134C14.3478 25.2134 15.429 26.3541 15.429 27.7614V33.6829C15.4289 35.0902 14.3478 36.231 13.0143 36.231Z" fill="#F4FBFF"/>
<path d="M10.5996 31.7754V33.6822C10.5996 35.0894 11.6807 36.2302 13.0143 36.2302C14.3478 36.2302 15.429 35.0895 15.429 33.6822V31.7754H10.5996Z" fill="#E4F6FF"/>
<path d="M36.2061 37.3833L38.684 39.9981L33.4937 45.475L31.0157 42.8603L36.2061 37.3833Z" fill="#F4FBFF"/>
<path d="M27.0554 53.7433L34.1608 46.2455C34.568 45.8158 34.568 45.1192 34.1608 44.6896L31.766 42.1626C31.3588 41.7329 30.6987 41.7329 30.2916 42.1626L23.1861 49.6604C22.1176 50.7879 22.1176 52.6158 23.1861 53.7433C24.2546 54.8706 25.9869 54.8706 27.0554 53.7433Z" fill="url(#paint3_linear_1993_12786)"/>
<path d="M34.1618 44.6896L31.7669 42.1626C31.3598 41.7329 30.6997 41.7329 30.2925 42.1626L28.7256 43.816L32.5948 47.8989L34.1618 46.2455C34.5688 45.8158 34.5688 45.1192 34.1618 44.6896Z" fill="#4A80AA"/>
<path d="M45.3011 44.726C52.7943 44.726 58.8688 38.3161 58.8688 30.4091C58.8688 22.5022 52.7943 16.0923 45.3011 16.0923C37.8079 16.0923 31.7334 22.5022 31.7334 30.4091C31.7334 38.3161 37.8079 44.726 45.3011 44.726Z" fill="#E4F6FF"/>
<path d="M45.3008 40.5326C50.5993 40.5326 54.8946 36.0002 54.8946 30.4091C54.8946 24.8181 50.5993 20.2856 45.3008 20.2856C40.0023 20.2856 35.707 24.8181 35.707 30.4091C35.707 36.0002 40.0023 40.5326 45.3008 40.5326Z" fill="#CBE2FF"/>
<path d="M52.0844 23.2501C49.2558 20.2653 45.101 19.5355 41.6221 21.0576C42.7511 21.5516 43.8094 22.2814 44.7274 23.2501C48.474 27.2036 48.474 33.6134 44.7274 37.567C43.8094 38.5357 42.7511 39.2655 41.6221 39.7594C45.1008 41.2815 49.2558 40.5517 52.0844 37.567C55.831 33.6134 55.831 27.2036 52.0844 23.2501Z" fill="#BED8FB"/>
<path d="M55.5095 19.636C55.4036 19.5242 55.2959 19.4151 55.1872 19.3072V15.7739C55.1872 12.2604 52.4784 9.40202 49.1488 9.40202H38.5568V6.19985C38.5568 2.78118 35.921 0 32.6814 0H22.7639C19.5241 0 16.8885 2.78118 16.8885 6.19985V9.40202H6.29625C2.96666 9.40202 0.257812 12.2604 0.257812 15.7739V44.1363C0.257812 47.6497 2.96666 50.5081 6.29625 50.5081H18.9036C19.3848 50.5081 19.775 50.0964 19.775 49.5886C19.775 49.0809 19.3848 48.6692 18.9036 48.6692H6.29625C3.92747 48.6692 2.00039 46.6357 2.00039 44.1361V25.5876C3.70661 28.2582 6.51328 30.084 9.72855 30.3354V33.683C9.72855 35.5948 11.2026 37.1503 13.0145 37.1503C14.8264 37.1503 16.3005 35.5948 16.3005 33.683V30.3654H30.8612C30.8612 30.3802 30.8607 30.3948 30.8607 30.4095C30.8607 33.5404 31.7505 36.5267 33.4024 39.0483L31.5526 41.0003C30.9066 40.8074 30.1828 40.9777 29.6755 41.5133L22.57 49.0111C21.1635 50.4952 21.1635 52.9101 22.57 54.3942C23.9797 55.8818 26.2616 55.882 27.6715 54.3942L34.7769 46.8965C35.2844 46.361 35.4459 45.5973 35.2631 44.9157L37.1146 42.962C42.0107 46.5204 48.5372 46.5316 53.4448 42.9909V44.1363C53.4448 46.6358 51.5177 48.6693 49.1489 48.6693H35.3858C34.9046 48.6693 34.5145 49.081 34.5145 49.5888C34.5145 50.0966 34.9046 50.5082 35.3858 50.5082H49.1488C52.4784 50.5082 55.1872 47.6498 55.1872 44.1364V41.512C55.2958 41.4044 55.4035 41.2952 55.5095 41.1833C61.1523 35.229 61.153 25.591 55.5095 19.636ZM18.6309 6.19985C18.6309 3.79516 20.4849 1.8388 22.7638 1.8388H32.6813C34.9601 1.8388 36.8141 3.79516 36.8141 6.19985V9.40202H34.9554V6.19985C34.9554 4.87669 33.9352 3.80019 32.6813 3.80019H22.7638C21.5099 3.80019 20.4897 4.87669 20.4897 6.19985V9.40202H18.6309V6.19985ZM22.2323 9.40202V6.19985C22.2323 5.89067 22.4707 5.6391 22.7638 5.6391H32.6813C32.9744 5.6391 33.2128 5.89067 33.2128 6.19985V9.40202H22.2323ZM14.5579 30.8569H11.4712V27.7617C11.4712 26.8637 12.1636 26.1331 13.0146 26.1331C13.8656 26.1331 14.5579 26.8637 14.5579 27.7617V30.8569ZM13.0146 35.3117C12.1636 35.3117 11.4712 34.5811 11.4712 33.6831V32.6957H14.5579V33.6831C14.5579 34.5811 13.8656 35.3117 13.0146 35.3117ZM16.3005 28.5268V27.7617C16.3005 25.8498 14.8264 24.2943 13.0145 24.2943C11.2026 24.2943 9.72855 25.8498 9.72855 27.7617V28.4888C5.40283 28.0798 2.00039 24.2352 2.00039 19.5661V15.7739C2.00039 13.2743 3.92747 11.2408 6.29625 11.2408H49.1488C51.5176 11.2408 53.4447 13.2743 53.4447 15.7739V17.825C47.9348 13.8361 40.1736 14.2712 35.0898 19.6359C32.7877 22.0649 31.3588 25.1699 30.9692 28.5267L16.3005 28.5268ZM26.4391 53.0941C25.7105 53.863 24.5309 53.8632 23.8021 53.0941C23.4498 52.7224 23.2559 52.2284 23.2559 51.7028C23.2559 51.1772 23.4498 50.683 23.8021 50.3115L28.7245 45.1173L31.3616 47.8999L26.4391 53.0941ZM33.5446 45.5964L32.5938 46.5997L29.9567 43.817L30.9075 42.8137C30.941 42.7785 30.9848 42.7609 31.0286 42.7609C31.0724 42.7609 31.1162 42.7785 31.1495 42.8136L31.1501 42.8141L33.5446 45.3407C33.6113 45.4112 33.6113 45.5259 33.5446 45.5964ZM34.2024 43.4344L32.9563 42.1195L34.486 40.5052C34.6802 40.7363 34.881 40.9629 35.0898 41.1831C35.299 41.4039 35.5137 41.6155 35.7324 41.8198L34.2024 43.4344ZM36.322 39.883C33.9239 37.3526 32.6033 33.9881 32.6033 30.4096C32.6033 26.8311 33.9239 23.4666 36.322 20.9362C41.2836 15.7006 49.3151 15.6998 54.2773 20.9362C59.239 26.1717 59.2397 34.6467 54.2773 39.883C49.3155 45.1187 41.2842 45.1193 36.322 39.883Z" fill="#00161A"/>
<path d="M54.86 31.6722C54.3898 31.5643 53.9255 31.8789 53.8234 32.3753C53.4688 34.0958 52.6546 35.6667 51.4687 36.9181C48.0598 40.515 42.5423 40.5153 39.1332 36.9181C35.7322 33.3293 35.7322 27.4902 39.1332 23.9015C42.542 20.3044 48.0595 20.304 51.4687 23.9015C52.6534 25.1515 53.4673 26.7208 53.8225 28.4394C53.9249 28.9356 54.3893 29.2505 54.8594 29.1419C55.3296 29.0338 55.6276 28.5439 55.5251 28.0477C55.0987 25.9842 54.1221 24.1009 52.701 22.6012C48.6111 18.2855 41.9914 18.285 37.9011 22.6012C33.8207 26.9069 33.8207 33.9126 37.9011 38.2183C41.9813 42.5238 48.6204 42.5241 52.701 38.2183C54.1236 36.7171 55.1006 34.8317 55.5262 32.766C55.6284 32.2699 55.3301 31.7802 54.86 31.6722Z" fill="black"/>
<defs>
<linearGradient id="paint0_linear_1993_12786" x1="26.3073" y1="30.5467" x2="39.4067" y2="15.3454" gradientUnits="userSpaceOnUse">
<stop stop-color="#00C39D"/>
<stop offset="1" stop-color="#042666"/>
</linearGradient>
<linearGradient id="paint1_linear_1993_12786" x1="48.0551" y1="10.3213" x2="48.0551" y2="49.5887" gradientUnits="userSpaceOnUse">
<stop stop-color="#66D4B9"/>
<stop offset="1" stop-color="#46A4CC"/>
</linearGradient>
<linearGradient id="paint2_linear_1993_12786" x1="26.3072" y1="20.1721" x2="30.9109" y2="9.20291" gradientUnits="userSpaceOnUse">
<stop stop-color="#00C39D"/>
<stop offset="1" stop-color="#042666"/>
</linearGradient>
<linearGradient id="paint3_linear_1993_12786" x1="28.4255" y1="41.8403" x2="28.4255" y2="54.5888" gradientUnits="userSpaceOnUse">
<stop stop-color="#66D4B9"/>
<stop offset="1" stop-color="#46A4CC"/>
</linearGradient>
</defs>
</svg>
