<svg width="86" height="86" viewBox="0 0 86 86" fill="none" xmlns="http://www.w3.org/2000/svg">
<path d="M86.0001 42.9462C86.0001 52.6431 82.7352 61.5796 77.2434 68.7104C74.7068 72.0061 71.6959 74.9173 68.3103 77.3398C65.5585 79.3101 62.5613 80.9596 59.3725 82.2299C58.8325 82.4451 58.2873 82.6491 57.7368 82.842C54.2822 84.0572 50.6211 84.8334 46.8214 85.1077C45.7998 85.1818 44.7664 85.2198 43.7258 85.2198C41.0514 85.2198 38.4354 84.9712 35.9008 84.4968C34.355 84.2088 32.84 83.8341 31.3578 83.3807C27.6015 82.2332 24.0662 80.5764 20.8361 78.4926C16.8036 75.8904 13.2441 72.6222 10.3105 68.8436C4.93028 61.9122 1.6608 53.2605 1.46265 43.8556C1.45543 43.5531 1.45215 43.2493 1.45215 42.9462C1.45215 41.2895 1.54663 39.6537 1.73297 38.0475C4.1613 17.0068 22.0349 0.671875 43.7258 0.671875C51.0521 0.671875 57.9421 2.53528 63.9483 5.81395C65.462 6.6387 66.9166 7.55466 68.3103 8.55197C74.1078 12.7039 78.8116 18.2837 81.9072 24.7787C84.5317 30.281 86.0001 36.4407 86.0001 42.9462Z" fill="#020615"/>
<path d="M38.5337 44.3312H31.3576V83.3807C27.6013 82.2331 24.0661 80.5764 20.836 78.4919C16.8034 75.8903 13.2439 72.6221 10.3104 68.8435V44.3312H3.1356C2.49915 44.3312 1.93357 44.1534 1.46247 43.8549C-0.0512179 42.8976 -0.570215 40.6923 0.775504 39.1478L1.7328 38.0468L20.836 16.0908L38.3802 36.2576L40.8945 39.1478C42.6581 41.1739 41.2186 44.3312 38.5337 44.3312Z" fill="#01AE96"/>
<path d="M20.8358 16.0908V78.4918C16.8032 75.8903 13.2437 72.6221 10.3102 68.8435V44.3312H3.13606C2.49896 44.3312 1.93338 44.1534 1.46228 43.8549C-0.0507491 42.8976 -0.570402 40.6923 0.775315 39.1478L1.73326 38.0468L20.8358 16.0908Z" fill="#01AE96"/>
<path d="M83.3371 24.7788H77.243V68.7105C74.7064 72.0062 71.6955 74.9175 68.3105 77.3399C65.558 79.3103 62.5609 80.9598 59.3721 82.23V24.7788H53.2812C51.0019 24.7788 49.7808 22.0972 51.2768 20.3788L63.9486 5.81409L68.3105 0.80127L85.3422 20.3788C86.8382 22.0972 85.6165 24.7788 83.3371 24.7788Z" fill="#56E6BF"/>
<path d="M68.3104 0.80127V77.3399C65.5586 79.3103 62.5614 80.9598 59.3726 82.23V24.7788H53.2818C51.0024 24.7788 49.7807 22.0972 51.2766 20.3788L63.9484 5.81409L68.3104 0.80127Z" fill="#1DBFBD"/>
<path d="M65.1839 55.8555H57.7368V82.842C54.2823 84.0565 50.6211 84.8334 46.8215 85.1076C45.7999 85.1818 44.7665 85.2198 43.7259 85.2198C41.0515 85.2198 38.4355 84.9711 35.9009 84.4968V55.8555H28.4571C25.6705 55.8555 24.1785 52.5788 26.0071 50.4772L38.3804 36.2576L46.8215 26.5554L59.3725 40.9824L67.6345 50.4778C69.4618 52.5794 67.9691 55.8555 65.1839 55.8555Z" fill="url(#paint0_linear_1810_16698)"/>
<path d="M46.8215 26.5554V85.1076C45.7999 85.1818 44.7665 85.2198 43.7259 85.2198C41.0515 85.2198 38.4355 84.9711 35.9009 84.4968V55.8561H28.4571C25.6705 55.8561 24.1785 52.5794 26.0071 50.4778L46.8215 26.5554Z" fill="url(#paint1_linear_1810_16698)"/>
<defs>
<linearGradient id="paint0_linear_1810_16698" x1="50.9523" y1="-63.3555" x2="46.6012" y2="103.069" gradientUnits="userSpaceOnUse">
<stop stop-color="#00C39D"/>
<stop offset="1" stop-color="#042666"/>
</linearGradient>
<linearGradient id="paint1_linear_1810_16698" x1="38.0784" y1="-63.3555" x2="29.3946" y2="102.728" gradientUnits="userSpaceOnUse">
<stop stop-color="#00C39D"/>
<stop offset="1" stop-color="#042666"/>
</linearGradient>
</defs>
</svg>
