<svg width="167" height="208" viewBox="0 0 167 208" fill="none" xmlns="http://www.w3.org/2000/svg">
<g opacity="0.05">
<path d="M136.556 0.539315L140.866 16.6274L124.747 20.9465L120.437 4.8584L136.556 0.539315Z" fill="url(#paint0_linear_2138_12172)"/>
<path d="M48.4683 58.6286L52.7796 74.7185L36.6623 79.0371L32.351 62.9473L48.4683 58.6286Z" fill="url(#paint1_linear_2138_12172)"/>
<path d="M16.232 67.2663L24.8541 99.4443L57.0904 90.8066L61.4016 106.896L13.048 119.853L0.114706 71.5849L16.232 67.2663Z" fill="url(#paint2_linear_2138_12172)"/>
<path d="M153.799 64.8935L158.111 80.9834L141.992 85.3025L137.68 69.2126L153.799 64.8935Z" fill="url(#paint3_linear_2138_12172)"/>
<path d="M118.377 126.118L114.066 110.028L162.421 97.0715L166.733 113.161L118.377 126.118Z" fill="url(#paint4_linear_2138_12172)"/>
<path d="M82.9566 187.341L87.2674 203.429L71.1501 207.747L66.8393 191.659L82.9566 187.341Z" fill="url(#paint5_linear_2138_12172)"/>
</g>
<defs>
<linearGradient id="paint0_linear_2138_12172" x1="83.6714" y1="204.392" x2="212.342" y2="77.2151" gradientUnits="userSpaceOnUse">
<stop stop-color="#5CD1B4"/>
<stop offset="1" stop-color="#225EF1"/>
</linearGradient>
<linearGradient id="paint1_linear_2138_12172" x1="83.6714" y1="204.392" x2="212.342" y2="77.2151" gradientUnits="userSpaceOnUse">
<stop stop-color="#5CD1B4"/>
<stop offset="1" stop-color="#225EF1"/>
</linearGradient>
<linearGradient id="paint2_linear_2138_12172" x1="83.6714" y1="204.392" x2="212.342" y2="77.2151" gradientUnits="userSpaceOnUse">
<stop stop-color="#5CD1B4"/>
<stop offset="1" stop-color="#225EF1"/>
</linearGradient>
<linearGradient id="paint3_linear_2138_12172" x1="83.6714" y1="204.392" x2="212.342" y2="77.2151" gradientUnits="userSpaceOnUse">
<stop stop-color="#5CD1B4"/>
<stop offset="1" stop-color="#225EF1"/>
</linearGradient>
<linearGradient id="paint4_linear_2138_12172" x1="83.6714" y1="204.392" x2="212.342" y2="77.2151" gradientUnits="userSpaceOnUse">
<stop stop-color="#5CD1B4"/>
<stop offset="1" stop-color="#225EF1"/>
</linearGradient>
<linearGradient id="paint5_linear_2138_12172" x1="83.6714" y1="204.392" x2="212.342" y2="77.2151" gradientUnits="userSpaceOnUse">
<stop stop-color="#5CD1B4"/>
<stop offset="1" stop-color="#225EF1"/>
</linearGradient>
</defs>
</svg>
