<svg width="168" height="159" viewBox="0 0 168 159" fill="none" xmlns="http://www.w3.org/2000/svg">
<g opacity="0.05">
<path d="M0.555655 7.53883L4.86646 23.627L20.9855 19.3079L16.6747 3.21974L0.555655 7.53883Z" fill="url(#paint0_linear_2138_12169)"/>
<path d="M105.886 13.802L110.197 29.8918L126.315 25.5732L122.004 9.48336L105.886 13.802Z" fill="url(#paint1_linear_2138_12169)"/>
<path d="M138.123 5.16428L146.745 37.3423L114.508 45.98L118.82 62.0698L167.173 49.1135L154.24 0.845663L138.123 5.16428Z" fill="url(#paint2_linear_2138_12169)"/>
<path d="M17.7993 71.8931L22.1106 87.9829L38.2296 83.6638L33.9184 67.574L17.7993 71.8931Z" fill="url(#paint3_linear_2138_12169)"/>
<path d="M79.088 107.204L74.7767 91.1143L26.4214 104.071L30.7327 120.161L79.088 107.204Z" fill="url(#paint4_linear_2138_12169)"/>
<path d="M140.375 142.514L144.685 158.602L160.803 154.283L156.492 138.195L140.375 142.514Z" fill="url(#paint5_linear_2138_12169)"/>
</g>
<defs>
<linearGradient id="paint0_linear_2138_12169" x1="148.281" y1="157.638" x2="-26.7391" y2="111.835" gradientUnits="userSpaceOnUse">
<stop stop-color="#5CD1B4"/>
<stop offset="1" stop-color="#225EF1"/>
</linearGradient>
<linearGradient id="paint1_linear_2138_12169" x1="148.281" y1="157.638" x2="-26.7391" y2="111.835" gradientUnits="userSpaceOnUse">
<stop stop-color="#5CD1B4"/>
<stop offset="1" stop-color="#225EF1"/>
</linearGradient>
<linearGradient id="paint2_linear_2138_12169" x1="148.281" y1="157.638" x2="-26.7391" y2="111.835" gradientUnits="userSpaceOnUse">
<stop stop-color="#5CD1B4"/>
<stop offset="1" stop-color="#225EF1"/>
</linearGradient>
<linearGradient id="paint3_linear_2138_12169" x1="148.281" y1="157.638" x2="-26.7391" y2="111.835" gradientUnits="userSpaceOnUse">
<stop stop-color="#5CD1B4"/>
<stop offset="1" stop-color="#225EF1"/>
</linearGradient>
<linearGradient id="paint4_linear_2138_12169" x1="148.281" y1="157.638" x2="-26.7391" y2="111.835" gradientUnits="userSpaceOnUse">
<stop stop-color="#5CD1B4"/>
<stop offset="1" stop-color="#225EF1"/>
</linearGradient>
<linearGradient id="paint5_linear_2138_12169" x1="148.281" y1="157.638" x2="-26.7391" y2="111.835" gradientUnits="userSpaceOnUse">
<stop stop-color="#5CD1B4"/>
<stop offset="1" stop-color="#225EF1"/>
</linearGradient>
</defs>
</svg>
