<svg width="167" height="208" viewBox="0 0 167 208" fill="none" xmlns="http://www.w3.org/2000/svg">
<g opacity="0.05">
<path d="M136.556 -0.000235335L140.866 16.0879L124.747 20.407L120.437 4.31885L136.556 -0.000235335Z" fill="url(#paint0_linear_2138_12171)"/>
<path d="M48.4683 58.0891L52.7796 74.1789L36.6623 78.4976L32.351 62.4077L48.4683 58.0891Z" fill="url(#paint1_linear_2138_12171)"/>
<path d="M16.232 66.7268L24.8541 98.9048L57.0904 90.2671L61.4016 106.357L13.048 119.313L0.114706 71.0454L16.232 66.7268Z" fill="url(#paint2_linear_2138_12171)"/>
<path d="M153.799 64.354L158.111 80.4439L141.992 84.7629L137.68 68.6731L153.799 64.354Z" fill="url(#paint3_linear_2138_12171)"/>
<path d="M118.377 125.579L114.066 109.489L162.421 96.532L166.733 112.622L118.377 125.579Z" fill="url(#paint4_linear_2138_12171)"/>
<path d="M82.9566 186.801L87.2674 202.889L71.1501 207.208L66.8393 191.12L82.9566 186.801Z" fill="url(#paint5_linear_2138_12171)"/>
</g>
<defs>
<linearGradient id="paint0_linear_2138_12171" x1="83.6714" y1="203.853" x2="212.342" y2="76.6756" gradientUnits="userSpaceOnUse">
<stop stop-color="#5CD1B4"/>
<stop offset="1" stop-color="#225EF1"/>
</linearGradient>
<linearGradient id="paint1_linear_2138_12171" x1="83.6714" y1="203.853" x2="212.342" y2="76.6756" gradientUnits="userSpaceOnUse">
<stop stop-color="#5CD1B4"/>
<stop offset="1" stop-color="#225EF1"/>
</linearGradient>
<linearGradient id="paint2_linear_2138_12171" x1="83.6714" y1="203.853" x2="212.342" y2="76.6756" gradientUnits="userSpaceOnUse">
<stop stop-color="#5CD1B4"/>
<stop offset="1" stop-color="#225EF1"/>
</linearGradient>
<linearGradient id="paint3_linear_2138_12171" x1="83.6714" y1="203.853" x2="212.342" y2="76.6756" gradientUnits="userSpaceOnUse">
<stop stop-color="#5CD1B4"/>
<stop offset="1" stop-color="#225EF1"/>
</linearGradient>
<linearGradient id="paint4_linear_2138_12171" x1="83.6714" y1="203.853" x2="212.342" y2="76.6756" gradientUnits="userSpaceOnUse">
<stop stop-color="#5CD1B4"/>
<stop offset="1" stop-color="#225EF1"/>
</linearGradient>
<linearGradient id="paint5_linear_2138_12171" x1="83.6714" y1="203.853" x2="212.342" y2="76.6756" gradientUnits="userSpaceOnUse">
<stop stop-color="#5CD1B4"/>
<stop offset="1" stop-color="#225EF1"/>
</linearGradient>
</defs>
</svg>
