<svg width="168" height="159" viewBox="0 0 168 159" fill="none" xmlns="http://www.w3.org/2000/svg">
<g opacity="0.05">
<path d="M0.555648 7.53932L4.86645 23.6274L20.9855 19.3084L16.6747 3.22023L0.555648 7.53932Z" fill="url(#paint0_linear_2138_12173)"/>
<path d="M105.886 13.8025L110.197 29.8923L126.315 25.5737L122.003 9.48385L105.886 13.8025Z" fill="url(#paint1_linear_2138_12173)"/>
<path d="M138.123 5.16476L146.745 37.3428L114.508 45.9805L118.82 62.0703L167.173 49.114L154.24 0.846151L138.123 5.16476Z" fill="url(#paint2_linear_2138_12173)"/>
<path d="M17.7993 71.8935L22.1106 87.9834L38.2296 83.6643L33.9184 67.5745L17.7993 71.8935Z" fill="url(#paint3_linear_2138_12173)"/>
<path d="M79.088 107.205L74.7767 91.1148L26.4214 104.072L30.7327 120.161L79.088 107.205Z" fill="url(#paint4_linear_2138_12173)"/>
<path d="M140.374 142.514L144.685 158.603L160.803 154.284L156.492 138.196L140.374 142.514Z" fill="url(#paint5_linear_2138_12173)"/>
</g>
<defs>
<linearGradient id="paint0_linear_2138_12173" x1="148.281" y1="157.639" x2="-26.7391" y2="111.836" gradientUnits="userSpaceOnUse">
<stop stop-color="#5CD1B4"/>
<stop offset="1" stop-color="#225EF1"/>
</linearGradient>
<linearGradient id="paint1_linear_2138_12173" x1="148.281" y1="157.639" x2="-26.7391" y2="111.836" gradientUnits="userSpaceOnUse">
<stop stop-color="#5CD1B4"/>
<stop offset="1" stop-color="#225EF1"/>
</linearGradient>
<linearGradient id="paint2_linear_2138_12173" x1="148.281" y1="157.639" x2="-26.7391" y2="111.836" gradientUnits="userSpaceOnUse">
<stop stop-color="#5CD1B4"/>
<stop offset="1" stop-color="#225EF1"/>
</linearGradient>
<linearGradient id="paint3_linear_2138_12173" x1="148.281" y1="157.639" x2="-26.7391" y2="111.836" gradientUnits="userSpaceOnUse">
<stop stop-color="#5CD1B4"/>
<stop offset="1" stop-color="#225EF1"/>
</linearGradient>
<linearGradient id="paint4_linear_2138_12173" x1="148.281" y1="157.639" x2="-26.7391" y2="111.836" gradientUnits="userSpaceOnUse">
<stop stop-color="#5CD1B4"/>
<stop offset="1" stop-color="#225EF1"/>
</linearGradient>
<linearGradient id="paint5_linear_2138_12173" x1="148.281" y1="157.639" x2="-26.7391" y2="111.836" gradientUnits="userSpaceOnUse">
<stop stop-color="#5CD1B4"/>
<stop offset="1" stop-color="#225EF1"/>
</linearGradient>
</defs>
</svg>
