<svg width="38" height="63" viewBox="0 0 38 63" fill="none" xmlns="http://www.w3.org/2000/svg">
<path d="M31.761 14.9311C33.2624 18.0609 34.1106 21.4568 34.1849 24.7228L34.284 29.2115L37.4973 30.4002L37.3983 25.9115C37.2992 21.4135 36.0331 16.8381 33.9899 12.8075L31.761 14.9311ZM24.0033 35.8858L24.0466 37.7989C24.0466 37.8577 24.0466 37.9134 24.0435 37.9692L24.1673 43.4454C26.0155 43.3959 27.3187 41.6499 27.2599 38.9907L27.2166 37.0776L24.0033 35.8858ZM18.6632 7.0155L21.3936 11.4392C21.6351 11.4949 21.8827 11.5661 22.1304 11.659C25.7709 13.0087 28.8201 17.9463 28.9254 22.6703L28.9842 25.3109L32.1944 26.4997L32.1356 23.8591C31.9777 16.8288 27.4549 9.50133 22.0344 7.49533C20.8457 7.04955 19.7096 6.90406 18.6632 7.0155ZM10.7166 27.0879L10.859 33.4464C10.9302 36.6318 11.7413 39.9473 13.1777 43.0151L10.9457 45.1449C8.96756 41.167 7.74476 36.6752 7.6457 32.2576L7.50331 25.8991L10.7166 27.0879ZM12.5059 16.5842L12.7164 26.0601L15.9297 27.2488L15.7192 17.773C15.7099 17.386 15.7223 17.0145 15.7533 16.6554L13.0508 12.2751C12.6638 13.535 12.4688 14.9838 12.5059 16.5842ZM17.781 19.1784L18.1493 35.6133C18.1524 35.7155 18.1555 35.8146 18.1617 35.9167C18.2422 37.2571 19.0285 38.192 19.8024 38.4799C20.6104 38.7802 21.4029 38.3747 21.3719 36.994C21.3657 36.9321 21.3627 36.8671 21.3596 36.8052L20.9943 20.4198C20.9726 19.4849 21.5081 18.8812 22.2294 19.1041C22.2511 19.1103 22.2759 19.1196 22.2975 19.1258C23.0374 19.4013 23.6565 20.4043 23.6782 21.364L23.7432 24.2244C23.7525 24.6516 23.4925 24.8992 23.1643 24.7754L21.8487 24.2894L21.9415 28.5088L23.8516 29.227L24.1766 29.3477C25.7709 29.939 27.0246 28.7409 26.9782 26.673L26.8853 22.5527C26.811 19.2899 24.7153 15.8908 22.1985 14.959C19.6879 14.0272 17.7098 15.9156 17.781 19.1784ZM29.074 29.2765L29.3216 40.39C29.4269 45.114 26.551 47.8567 22.9074 46.507C19.2638 45.1573 16.2176 40.2197 16.1124 35.4957L16.0164 31.2175L12.8031 30.0287L12.8991 34.307C13.0569 41.3372 17.5797 48.6647 23.0003 50.6738C28.4208 52.6829 32.6897 48.609 32.5318 41.5787L32.2842 30.4652L29.074 29.2765ZM34.4326 35.8703L34.575 42.2288C34.6679 46.3368 33.5194 49.742 31.3462 51.8161C29.1699 53.8902 26.2291 54.3886 23.0622 53.2153C20.9354 52.429 18.8768 50.9493 17.0566 48.9309L14.7936 51.0886C17.2175 54.0047 20.0934 56.2429 23.155 57.379C31.4793 60.4623 38.0298 54.2122 37.7883 43.4175L37.6459 37.059L34.4326 35.8703ZM7.25256 14.7485L7.35162 19.2372L10.5649 20.426L10.4659 15.9372C10.373 11.8293 11.5215 8.42403 13.6947 6.34993C15.8709 4.27583 18.8118 3.77742 21.9787 4.95068C24.0466 5.71532 26.0464 7.13314 27.8264 9.06174L30.0955 6.89786C27.7026 4.06842 24.8824 1.89835 21.8827 0.787002C13.5646 -2.29629 7.01109 3.95388 7.25256 14.7485Z" fill="#0D4751"/>
<path d="M31.5569 15.052C33.0583 18.1818 33.9066 21.5777 33.9809 24.8437L34.0799 29.3324L37.2932 30.5211L37.1942 26.0324C37.0951 21.5344 35.829 16.959 33.7858 12.9284L31.5569 15.052ZM23.7992 36.0067L23.8425 37.9198C23.8425 37.9786 23.8425 38.0343 23.8394 38.0901L23.9632 43.5663C25.8114 43.5168 27.1146 41.7708 27.0558 39.1116L27.0125 37.1985L23.7992 36.0067ZM18.4591 7.13641L21.1895 11.5601C21.431 11.6159 21.6786 11.6871 21.9263 11.7799C25.5668 13.1296 28.616 18.0672 28.7213 22.7912L28.7801 25.4318L31.9903 26.6206L31.9315 23.98C31.7736 16.9497 27.2508 9.62224 21.8303 7.61624C20.6416 7.17046 19.5055 7.02187 18.4591 7.13641ZM10.5125 27.2057L10.6549 33.5642C10.7261 36.7496 11.5372 40.0651 12.9736 43.1329L10.7416 45.2627C8.76346 41.2848 7.54067 36.793 7.44161 32.3755L7.29921 26.0169L10.5125 27.2057ZM12.3018 16.7051L12.5123 26.181L15.7256 27.3697L15.5151 17.8939C15.5059 17.5069 15.5182 17.1354 15.5492 16.7763L12.8467 12.396C12.4597 13.6559 12.2647 15.1016 12.3018 16.7051ZM17.5769 19.2993L17.9452 35.7343C17.9483 35.8364 17.9514 35.9355 17.9576 36.0376C18.0381 37.3781 18.8244 38.313 19.5983 38.6009C20.4063 38.9011 21.1988 38.4956 21.1678 37.1149C21.1616 37.053 21.1586 36.988 21.1555 36.9261L20.7902 20.5407C20.7685 19.6058 21.3041 19.0021 22.0253 19.225C22.047 19.2312 22.0718 19.2405 22.0935 19.2467C22.8333 19.5222 23.4525 20.5252 23.4741 21.4849L23.5391 24.3453C23.5484 24.7725 23.2884 25.0201 22.9602 24.8963L21.6446 24.4103L21.7374 28.6297L23.6475 29.3479L23.9725 29.4686C25.5668 30.0599 26.8206 28.8619 26.7741 26.7939L26.6812 22.6736C26.6069 19.4108 24.5112 16.0117 21.9944 15.0799C19.4838 14.1481 17.5057 16.0365 17.5769 19.2993ZM28.8699 29.3943L29.1176 40.5078C29.2228 45.2318 26.3469 47.9746 22.7033 46.6248C19.0628 45.2751 16.0135 40.3375 15.9083 35.6135L15.8123 31.3353L12.599 30.1466L12.695 34.4248C12.8528 41.4551 17.3756 48.7825 22.7962 50.7916C28.2167 52.8007 32.4856 48.7268 32.3278 41.6965L32.0801 30.5831L28.8699 29.3943ZM34.2285 35.9912L34.3709 42.3497C34.4638 46.4577 33.3153 49.8629 31.1421 51.937C28.9659 54.0111 26.025 54.5095 22.8581 53.3363C20.7314 52.55 18.6727 51.0702 16.8525 49.0518L14.5895 51.2095C17.0134 54.1257 19.8893 56.3638 22.951 57.4999C31.2752 60.5832 37.8257 54.3331 37.5842 43.5385L37.4418 37.1799L34.2285 35.9912ZM7.04846 14.8663L7.14752 19.355L10.3608 20.5438L10.2618 16.055C10.1689 11.9471 11.3174 8.54185 13.4906 6.46774C15.6668 4.39364 18.6077 3.89524 21.7746 5.0685C23.8425 5.83313 25.8423 7.25095 27.6223 9.17955L29.8915 7.01568C27.4985 4.18623 24.6783 2.01616 21.6786 0.904815C13.3605 -2.17538 6.80699 4.07479 7.04846 14.8663Z" fill="#0D4651"/>
<path d="M31.3528 15.1523C32.8542 18.2821 33.7024 21.678 33.7767 24.944L33.8758 29.4327L37.0891 30.6214L36.99 26.1327C36.891 21.6347 35.6248 17.0593 33.5817 13.0287L31.3528 15.1523ZM23.595 36.107L23.6384 38.0201C23.6384 38.0789 23.6384 38.1346 23.6353 38.1903L23.7591 43.6666C25.6072 43.6171 26.9105 41.8711 26.8517 39.2119L26.8084 37.2988L23.595 36.107ZM18.255 7.23669L20.9854 11.6604C21.2269 11.7161 21.4745 11.7873 21.7222 11.8802C25.3627 13.2299 28.4119 18.1675 28.5172 22.8915L28.576 25.5321L31.7862 26.7209L31.7274 24.0803C31.5695 17.05 27.0467 9.72252 21.6262 7.71652C20.4375 7.27384 19.3013 7.12525 18.255 7.23669ZM10.3084 27.309L10.4508 33.6676C10.522 36.853 11.3331 40.1685 12.7695 43.2363L10.5375 45.3661C8.55936 41.3882 7.33655 36.8963 7.23749 32.4788L7.0951 26.1203L10.3084 27.309ZM12.0977 16.8085L12.3082 26.2844L15.5215 27.4731L15.311 17.9973C15.3017 17.6103 15.3141 17.2388 15.3451 16.8797L12.6425 12.4993C12.2556 13.7562 12.0606 15.205 12.0977 16.8085ZM17.3727 19.3996L17.7411 35.8345C17.7442 35.9367 17.7473 36.0358 17.7535 36.1379C17.834 37.4783 18.6203 38.4132 19.3942 38.7011C20.2022 39.0014 20.9947 38.5959 20.9637 37.2152C20.9575 37.1533 20.9544 37.0883 20.9513 37.0264L20.586 20.641C20.5644 19.7061 21.0999 19.1024 21.8212 19.3253C21.8429 19.3315 21.8677 19.3408 21.8893 19.347C22.6292 19.6225 23.2483 20.6255 23.27 21.5851L23.335 24.4455C23.3443 24.8727 23.0843 25.1204 22.7561 24.9966L21.4404 24.5106L21.5333 28.73L23.4434 29.4482L23.7684 29.5689C25.3627 30.1602 26.6164 28.9621 26.57 26.8942L26.4771 22.7739C26.4028 19.511 24.307 16.112 21.7903 15.1802C19.2797 14.2484 17.3015 16.1399 17.3727 19.3996ZM28.6658 29.4977L28.9134 40.6112C29.0187 45.3352 26.1428 48.0779 22.4992 46.7282C18.8587 45.3785 15.8094 40.4409 15.7042 35.7169L15.6082 31.4387L12.3949 30.2499L12.4909 34.5282C12.6487 41.5584 17.1715 48.8859 22.592 50.895C28.0126 52.9041 32.2815 48.8302 32.1236 41.7999L31.876 30.6864L28.6658 29.4977ZM34.0244 36.0946L34.1668 42.4531C34.2596 46.561 33.1111 49.9663 30.938 52.0404C28.7617 54.1145 25.8208 54.6129 22.6539 53.4396C20.5272 52.6533 18.4686 51.1736 16.6483 49.1552L14.3854 51.3129C16.8093 54.229 19.6852 56.4672 22.7468 57.6033C31.0711 60.6866 37.6215 54.4364 37.3801 43.6418L37.2377 37.2833L34.0244 36.0946ZM6.84435 14.9697L6.9434 19.4584L10.1567 20.6472L10.0576 16.1584C9.96478 12.0505 11.1133 8.64522 13.2865 6.57112C15.4596 4.49702 18.4036 3.99862 21.5705 5.17188C23.6384 5.93651 25.6382 7.35433 27.4182 9.28293L29.6873 7.11906C27.2944 4.28961 24.4742 2.11954 21.4745 1.00819C13.1564 -2.0751 6.60289 4.17507 6.84435 14.9697Z" fill="#0C4550"/>
<path d="M31.1487 15.2886C32.6501 18.4183 33.4984 21.8143 33.5726 25.0802L33.6717 29.5689L36.885 30.7577L36.786 26.2689C36.6869 21.7709 35.4208 17.1955 33.3776 13.1649L31.1487 15.2886ZM23.391 36.2432L23.4343 38.1563C23.4343 38.2151 23.4343 38.2709 23.4312 38.3266L23.555 43.8028C25.4032 43.7533 26.7064 42.0073 26.6476 39.3482L26.6043 37.435L23.391 36.2432ZM18.0509 7.37294L20.7813 11.7967C21.0228 11.8524 21.2704 11.9236 21.5181 12.0164C25.1586 13.3662 28.2078 18.3038 28.3131 23.0278L28.3719 25.6684L31.5821 26.8571L31.5233 24.2165C31.3654 17.1862 26.8426 9.85876 21.4221 7.85277C20.2334 7.40699 19.0973 7.2584 18.0509 7.37294ZM10.1012 27.4422L10.2436 33.8007C10.3148 36.9862 11.1259 40.3016 12.5623 43.3694L10.3303 45.4993C8.35216 41.5213 7.12937 37.0295 7.03031 32.612L6.891 26.2535L10.1012 27.4422ZM11.8936 16.9417L12.1041 26.4175L15.3174 27.6063L15.1069 18.1304C15.0976 17.7434 15.11 17.372 15.141 17.0129L12.4385 12.6325C12.0515 13.8924 11.8565 15.3412 11.8936 16.9417ZM17.1687 19.5358L17.537 35.9708C17.5401 36.0729 17.5432 36.172 17.5494 36.2742C17.6299 37.6146 18.4162 38.5495 19.1901 38.8374C19.9981 39.1377 20.7906 38.7321 20.7596 37.3515C20.7534 37.2895 20.7504 37.2245 20.7473 37.1626L20.382 20.7772C20.3603 19.8423 20.8959 19.2387 21.6171 19.4615C21.6388 19.4677 21.6636 19.477 21.6852 19.4832C22.4251 19.7587 23.0442 20.7617 23.0659 21.7214L23.1309 24.5818C23.1402 25.009 22.8802 25.2567 22.552 25.1328L21.2395 24.6468L21.3323 28.8662L23.2424 29.5844L23.5674 29.7051C25.1617 30.2964 26.4154 29.0984 26.369 27.0305L26.2761 22.9101C26.2018 19.6473 24.1061 16.2482 21.5893 15.3164C19.0756 14.3846 17.0975 16.273 17.1687 19.5358ZM28.4617 29.6308L28.7093 40.7443C28.8146 45.4683 25.9387 48.2111 22.2951 46.8614C18.6546 45.5117 15.6053 40.5741 15.5001 35.85L15.4041 31.5718L12.1908 30.3831L12.2868 34.6613C12.4446 41.6916 16.9674 49.0191 22.388 51.0281C27.8085 53.0372 32.0774 48.9633 31.9195 41.9331L31.6719 30.8196L28.4617 29.6308ZM33.8203 36.2277L33.9627 42.5862C34.0556 46.6942 32.9071 50.0994 30.7339 52.1735C28.5577 54.2477 25.6168 54.746 22.4499 53.5728C20.3232 52.7865 18.2645 51.3068 16.4443 49.2884L14.1813 51.4461C16.6052 54.3622 19.4811 56.6004 22.5427 57.7365C30.867 60.8198 37.4175 54.5696 37.176 43.775L37.0336 37.4165L33.8203 36.2277ZM6.64025 15.1028L6.73932 19.5916L9.95263 20.7803L9.85357 16.2916C9.7607 12.1867 10.9092 8.78147 13.0824 6.70737C15.2586 4.63327 18.1995 4.13486 21.3664 5.30812C23.4343 6.07275 25.4341 7.49057 27.2141 9.41918L29.4833 7.2553C27.0903 4.42586 24.2701 2.25579 21.2704 1.14444C12.9523 -1.93885 6.39879 4.31132 6.64025 15.1028Z" fill="#0C4450"/>
<path d="M30.9415 15.3906C32.4429 18.5203 33.2912 21.9163 33.3655 25.1822L33.4645 29.671L36.6778 30.8597L36.5788 26.371C36.4797 21.873 35.2136 17.2975 33.1704 13.267L30.9415 15.3906ZM23.1869 36.3483L23.2302 38.2615C23.2302 38.3203 23.2302 38.376 23.2271 38.4317L23.3509 43.908C25.1991 43.8584 26.5023 42.1125 26.4435 39.4533L26.4002 37.5402L23.1869 36.3483ZM17.8468 7.47497L20.5772 11.8987C20.8187 11.9544 21.0663 12.0256 21.314 12.1185C24.9545 13.4682 28.0037 18.4058 28.109 23.1298L28.1678 25.7704L31.378 26.9592L31.3192 24.3185C31.1613 17.2883 26.6385 9.9608 21.218 7.9548C20.0293 7.51212 18.8932 7.36353 17.8468 7.47497ZM9.89712 27.5473L10.0395 33.9058C10.1107 37.0913 10.9218 40.4068 12.3582 43.4746L10.1262 45.6044C8.14807 41.6265 6.92527 37.1346 6.82621 32.7171L6.68382 26.3586L9.89712 27.5473ZM11.6895 17.0468L11.9 26.5227L15.1133 27.7114L14.9028 18.2355C14.8936 17.8486 14.9059 17.4771 14.9369 17.118L12.2344 12.7376C11.8474 13.9945 11.6524 15.4432 11.6895 17.0468ZM16.9646 19.6379L17.3329 36.0728C17.336 36.175 17.3391 36.274 17.3453 36.3762C17.4258 37.7166 18.2121 38.6515 18.986 38.9394C19.794 39.2397 20.5865 38.8342 20.5555 37.4535C20.5494 37.3916 20.5462 37.3266 20.5432 37.2646L20.1779 20.8792C20.1562 19.9443 20.6917 19.3407 21.413 19.5636C21.4347 19.5698 21.4595 19.5791 21.4812 19.5852C22.221 19.8608 22.8401 20.8638 22.8618 21.8234L22.9268 24.6838C22.9361 25.111 22.6761 25.3587 22.3479 25.2349L21.0323 24.7488L21.1251 28.9682L23.0352 29.6864L23.3602 29.8072C24.9545 30.3984 26.2082 29.2004 26.1618 27.1325L26.0689 23.0122C25.9946 19.7493 23.8989 16.3503 21.3821 15.4185C18.8715 14.4867 16.8934 16.3781 16.9646 19.6379ZM28.2576 29.736L28.5052 40.8494C28.6105 45.5734 25.7346 48.3162 22.091 46.9665C18.4505 45.6168 15.4012 40.6792 15.296 35.9552L15.2 31.677L11.9867 30.4882L12.0827 34.7664C12.2406 41.7967 16.7633 49.1242 22.1839 51.1333C27.6044 53.1424 31.8733 49.0685 31.7155 42.0382L31.4678 30.9247L28.2576 29.736ZM33.6162 36.3329L33.7586 42.6914C33.8515 46.7993 32.703 50.2046 30.5298 52.2787C28.3535 54.3528 25.4127 54.8512 22.2458 53.6779C20.119 52.8916 18.0604 51.4119 16.2402 49.3935L13.9772 51.5512C16.4011 54.4673 19.277 56.7055 22.3386 57.8416C30.6629 60.9249 37.2134 54.6747 36.9719 43.8801L36.8295 37.5216L33.6162 36.3329ZM6.43615 15.208L6.53522 19.6967L9.74853 20.8854L9.64947 16.3967C9.55659 12.2887 10.7051 8.8835 12.8783 6.8094C15.0514 4.7353 17.9954 4.2369 21.1623 5.41016C23.2302 6.17479 25.23 7.59261 27.01 9.52121L29.2792 7.35734C26.8862 4.52789 24.066 2.35782 21.0663 1.24647C12.7482 -1.83682 6.19469 4.41335 6.43615 15.208Z" fill="#0C4350"/>
<path d="M30.7374 15.5215C32.2388 18.6512 33.087 22.0472 33.1613 25.3131L33.2604 29.8018L36.4737 30.9906L36.3747 26.5018C36.2756 22.0038 35.0095 17.4284 32.9663 13.3978L30.7374 15.5215ZM22.9828 36.4761L23.0261 38.3892C23.0261 38.448 23.0261 38.5038 23.023 38.5595L23.1468 44.0357C24.995 43.9862 26.2982 42.2402 26.2394 39.5811L26.1961 37.6679L22.9828 36.4761ZM17.6427 7.60583L20.3731 12.0295C20.6146 12.0853 20.8622 12.1565 21.1099 12.2493C24.7504 13.5991 27.7996 18.5367 27.9049 23.2607L27.9637 25.9013L31.1739 27.09L31.1151 24.4494C30.9572 17.4191 26.4344 10.0917 21.0139 8.08566C19.8252 7.63988 18.686 7.49439 17.6427 7.60583ZM9.69301 27.6751L9.83542 34.0336C9.90662 37.2191 10.7177 40.5345 12.1541 43.6023L9.92209 45.7322C7.94395 41.7542 6.72117 37.2624 6.62211 32.8449L6.4797 26.4863L9.69301 27.6751ZM11.4854 17.1746L11.6959 26.6504L14.9092 27.8392L14.6987 18.3633C14.6894 17.9763 14.7018 17.6049 14.7328 17.2458L12.0302 12.8654C11.6433 14.1253 11.4483 15.5741 11.4854 17.1746ZM16.7604 19.7687L17.1288 36.2037C17.1319 36.3058 17.135 36.4049 17.1412 36.507C17.2217 37.8475 18.008 38.7824 18.7819 39.0703C19.5899 39.3705 20.3824 38.965 20.3514 37.5843C20.3452 37.5224 20.3421 37.4574 20.3391 37.3955L19.9738 21.0101C19.9521 20.0752 20.4876 19.4715 21.2089 19.6944C21.2306 19.7006 21.2554 19.7099 21.277 19.7161C22.0169 19.9916 22.636 20.9946 22.6577 21.9543L22.7227 24.8147C22.732 25.2419 22.472 25.4895 22.1438 25.3657L20.8313 24.8797L20.9241 29.0991L22.8342 29.8173L23.1592 29.938C24.7535 30.5293 26.0072 29.3313 25.9608 27.2634L25.8679 23.143C25.7936 19.8802 23.6979 16.4811 21.1811 15.5493C18.6674 14.6175 16.6892 16.5059 16.7604 19.7687ZM28.0535 29.8668L28.3011 40.9803C28.4064 45.7043 25.5305 48.4471 21.8869 47.0973C18.2464 45.7476 15.1971 40.81 15.0919 36.086L14.9959 31.8078L11.7826 30.6191L11.8786 34.8973C12.0364 41.9276 16.5592 49.255 21.9798 51.2641C27.4003 53.2732 31.6692 49.1993 31.5113 42.169L31.2637 31.0556L28.0535 29.8668ZM33.4121 36.4606L33.5545 42.8191C33.6474 46.9271 32.4989 50.3323 30.3257 52.4064C28.1494 54.4805 25.2085 54.9789 22.0417 53.8057C19.9149 53.0194 17.8563 51.5396 16.0361 49.5213L13.7731 51.6789C16.197 54.5951 19.0729 56.8332 22.1345 57.9694C30.4588 61.0526 37.0093 54.8025 36.7678 44.0079L36.6254 37.6493L33.4121 36.4606ZM6.23205 15.3388L6.33111 19.8276L9.54443 21.0163L9.44536 16.5276C9.35249 12.4196 10.501 9.01436 12.6742 6.94026C14.8504 4.86616 17.7913 4.36776 20.9582 5.54102C23.0261 6.30565 25.0259 7.72347 26.8059 9.65207L29.075 7.4882C26.6821 4.65875 23.8619 2.48868 20.8622 1.37733C12.5441 -1.70596 5.99059 4.54421 6.23205 15.3388Z" fill="#0C424F"/>
<path d="M30.5333 15.632C32.0347 18.7617 32.8829 22.1577 32.9572 25.4236L33.0563 29.9123L36.2696 31.1011L36.1706 26.6123C36.0715 22.1143 34.8054 17.5389 32.7622 13.5084L30.5333 15.632ZM22.7787 36.5866L22.822 38.4997C22.822 38.5586 22.822 38.6143 22.8189 38.67L22.9427 44.1462C24.7909 44.0967 26.0941 42.3508 26.0353 39.6916L25.992 37.7784L22.7787 36.5866ZM17.4386 7.71635L20.169 12.1401C20.4105 12.1958 20.6581 12.267 20.9058 12.3599C24.5463 13.7096 27.5955 18.6472 27.7008 23.3712L27.7596 26.0118L30.9698 27.2005L30.911 24.5599C30.7562 17.5265 26.2334 10.1991 20.8129 8.19308C19.618 7.7504 18.4819 7.60181 17.4386 7.71635ZM9.48891 27.7856L9.63132 34.1441C9.70252 37.3296 10.5136 40.645 11.95 43.7128L9.71799 45.8427C7.73985 41.8647 6.51707 37.3729 6.41801 32.9554L6.2756 26.5969L9.48891 27.7856ZM11.2813 17.2851L11.4918 26.7609L14.7051 27.9497L14.4946 18.4738C14.4854 18.0869 14.4977 17.7154 14.5287 17.3563L11.8261 12.9759C11.4392 14.2327 11.2442 15.6815 11.2813 17.2851ZM16.5564 19.8762L16.9247 36.3111C16.9278 36.4133 16.9309 36.5123 16.9371 36.6145C17.0176 37.9549 17.8039 38.8898 18.5778 39.1777C19.3858 39.478 20.1783 39.0724 20.1473 37.6918C20.1411 37.6299 20.138 37.5648 20.135 37.5029L19.7697 21.1175C19.748 20.1826 20.2835 19.579 21.0048 19.8019C21.0265 19.8081 21.0513 19.8173 21.073 19.8235C21.8128 20.099 22.4319 21.102 22.4536 22.0617L22.5186 24.9221C22.5279 25.3493 22.2679 25.597 21.9397 25.4731L20.6241 24.9871L20.7169 29.2065L22.627 29.9247L22.952 30.0455C24.5463 30.6367 25.8001 29.4387 25.7536 27.3708L25.6607 23.2504C25.5864 19.9876 23.4907 16.5886 20.9739 15.6568C18.4633 14.725 16.4852 16.6164 16.5564 19.8762ZM27.8494 29.9742L28.097 41.0877C28.2023 45.8117 25.3264 48.5545 21.6828 47.2048C18.0392 45.8551 14.993 40.9175 14.8878 36.1935L14.7918 31.9152L11.5785 30.7265L11.6745 35.0047C11.8323 42.035 16.3551 49.3625 21.7757 51.3716C27.1962 53.3806 31.4651 49.3067 31.3073 42.2765L31.0596 31.163L27.8494 29.9742ZM33.208 36.5711L33.3504 42.9296C33.4433 47.0376 32.2948 50.4428 30.1216 52.5169C27.9454 54.591 25.0045 55.0895 21.8376 53.9162C19.7108 53.1299 17.6522 51.6502 15.832 49.6318L13.569 51.7895C15.9929 54.7056 18.8688 56.9438 21.9304 58.0799C30.2547 61.1632 36.8052 54.913 36.5637 44.1184L36.4213 37.7599L33.208 36.5711ZM6.02795 15.4462L6.12701 19.935L9.34033 21.1237L9.24126 16.635C9.14839 12.527 10.2969 9.12179 12.4701 7.04768C14.6463 4.97358 17.5872 4.47518 20.7541 5.64844C22.822 6.41307 24.8218 7.83089 26.6018 9.75949L28.871 7.59562C26.478 4.76617 23.6578 2.5961 20.6581 1.48476C12.34 -1.59854 5.78649 4.65163 6.02795 15.4462Z" fill="#0B414F"/>
<path d="M30.3292 15.7397C31.8306 18.8695 32.6788 22.2654 32.7531 25.5313L32.8522 30.0201L36.0655 31.2088L35.9664 26.7201C35.8674 22.2221 34.6012 17.6467 32.5581 13.6161L30.3292 15.7397ZM22.5745 36.6944L22.6179 38.6075C22.6179 38.6663 22.6179 38.722 22.6148 38.7777L22.7386 44.254C24.5867 44.2045 25.89 42.4585 25.8312 39.7993L25.7878 37.8862L22.5745 36.6944ZM17.2345 7.82409L19.9649 12.2478C20.2063 12.3035 20.454 12.3747 20.7017 12.4676C24.3422 13.8173 27.3914 18.7549 27.4966 23.4789L27.5555 26.1195L30.7657 27.3083L30.7069 24.6677C30.549 17.6374 26.0262 10.3099 20.6057 8.30392C19.4139 7.85815 18.2777 7.71265 17.2345 7.82409ZM9.28481 27.8964L9.4272 34.255C9.4984 37.4404 10.3095 40.7559 11.7459 43.8237L9.51388 45.9535C7.53575 41.9756 6.31295 37.4837 6.21389 33.0662L6.0715 26.7077L9.28481 27.8964ZM11.0772 17.3928L11.2877 26.8687L14.501 28.0574L14.2905 18.5816C14.2812 18.1946 14.2936 17.8231 14.3246 17.464L11.622 13.0836C11.2351 14.3436 11.04 15.7924 11.0772 17.3928ZM16.3522 19.987L16.7206 36.4219C16.7237 36.5241 16.7268 36.6231 16.733 36.7253C16.8135 38.0657 17.5998 39.0006 18.3737 39.2885C19.1817 39.5888 19.9742 39.1833 19.9432 37.8026C19.937 37.7407 19.9339 37.6757 19.9308 37.6138L19.5655 21.2284C19.5439 20.2935 20.0794 19.6898 20.8007 19.9127C20.8224 19.9189 20.8471 19.9282 20.8688 19.9344C21.6087 20.2099 22.2278 21.2129 22.2495 22.1725L22.3145 25.0329C22.3238 25.4601 22.0637 25.7078 21.7356 25.584L20.4199 25.098L20.5128 29.3174L22.4228 30.0356L22.7479 30.1563C24.3422 30.7476 25.5959 29.5495 25.5495 27.4816L25.4566 23.3613C25.3823 20.0984 23.2865 16.6994 20.7697 15.7676C18.2592 14.8358 16.281 16.7242 16.3522 19.987ZM27.6452 30.0851L27.8929 41.1986C27.9981 45.9226 25.1223 48.6653 21.4787 47.3156C17.8381 45.9659 14.7889 41.0283 14.6837 36.3043L14.5877 32.0261L11.3744 30.8373L11.4704 35.1156C11.6282 42.1458 16.151 49.4733 21.5715 51.4824C26.9921 53.4915 31.261 49.4176 31.1031 42.3873L30.8555 31.2738L27.6452 30.0851ZM33.0039 36.6789L33.1462 43.0374C33.2391 47.1454 32.0906 50.5506 29.9175 52.6247C27.7412 54.6988 24.8003 55.1972 21.6334 54.0239C19.5067 53.2376 17.4481 51.7579 15.6278 49.7395L13.3649 51.8972C15.7888 54.8133 18.6647 57.0515 21.7263 58.1876C30.0506 61.2709 36.601 55.0207 36.3596 44.2261L36.2172 37.8676L33.0039 36.6789ZM5.82385 15.5571L5.92289 20.0458L9.1362 21.2346L9.03714 16.7458C8.94427 12.6379 10.0928 9.23262 12.2659 7.15852C14.4422 5.08442 17.3831 4.58602 20.5499 5.75928C22.6179 6.52391 24.6177 7.94173 26.3977 9.87033L28.6668 7.70646C26.2739 4.87701 23.4537 2.70694 20.454 1.5956C12.1359 -1.4877 5.58238 4.76247 5.82385 15.5571Z" fill="#0B404E"/>
<path d="M30.1271 15.8696C31.6285 18.9993 32.4767 22.3952 32.551 25.6612L32.6501 30.1499L35.8634 31.3386L35.7643 26.8499C35.6652 22.3519 34.3991 17.7765 32.356 13.7459L30.1271 15.8696ZM22.3724 36.8242L22.4157 38.7373C22.4157 38.7961 22.4157 38.8518 22.4127 38.9076L22.5365 44.3838C24.3846 44.3343 25.6879 42.5883 25.6291 39.9291L25.5857 38.016L22.3724 36.8242ZM17.0293 7.95391L19.7597 12.3776C20.0011 12.4334 20.2488 12.5046 20.4964 12.5974C24.1369 13.9471 27.1862 18.8847 27.2914 23.6087L27.3503 26.2494L30.5605 27.4381L30.5017 24.7975C30.3438 17.7672 25.821 10.4397 20.4005 8.43374C19.2117 7.98797 18.0756 7.83937 17.0293 7.95391ZM9.08266 28.0232L9.22507 34.3817C9.29627 37.5671 10.1073 40.8826 11.5437 43.9504L9.31174 46.0802C7.3336 42.1023 6.11082 37.6105 6.01176 33.193L5.86935 26.8344L9.08266 28.0232ZM10.872 17.5226L11.0825 26.9985L14.2958 28.1872L14.0853 18.7114C14.076 18.3244 14.0884 17.9529 14.1193 17.5938L11.4168 13.2135C11.0329 14.4734 10.8379 15.9191 10.872 17.5226ZM16.1501 20.1168L16.5185 36.5518C16.5216 36.6539 16.5247 36.753 16.5309 36.8551C16.6114 38.1956 17.3976 39.1305 18.1716 39.4184C18.9795 39.7186 19.772 39.3131 19.7411 37.9324C19.7349 37.8705 19.7318 37.8055 19.7287 37.7436L19.3634 21.3582C19.3417 20.4233 19.8773 19.8196 20.5986 20.0425C20.6203 20.0487 20.645 20.058 20.6667 20.0642C21.4066 20.3397 22.0257 21.3427 22.0474 22.3024L22.1124 25.1628C22.1217 25.59 21.8616 25.8376 21.5335 25.7138L20.2178 25.2278L20.3107 29.4472L22.2207 30.1654L22.5458 30.2861C24.14 30.8774 25.3938 29.6794 25.3473 27.6115L25.2545 23.4911C25.1802 20.2283 23.0844 16.8292 20.5676 15.8974C18.057 14.9656 16.0758 16.854 16.1501 20.1168ZM27.4431 30.2118L27.6908 41.3253C27.796 46.0493 24.9202 48.7921 21.2765 47.4423C17.636 46.0926 14.5868 41.155 14.4815 36.431L14.3856 32.1528L11.1722 30.9641L11.2682 35.2423C11.4261 42.2726 15.9489 49.6 21.3694 51.6091C26.7899 53.6182 31.0589 49.5443 30.901 42.514L30.6533 31.4006L27.4431 30.2118ZM32.8017 36.8087L32.9442 43.1672C33.037 47.2752 31.8885 50.6804 29.7154 52.7545C27.5391 54.8286 24.5982 55.327 21.4313 54.1538C19.3046 53.3675 17.246 51.8877 15.4257 49.8694L13.1628 52.027C15.5867 54.9432 18.4626 57.1813 21.5242 58.3175C29.8485 61.4007 36.3989 55.1506 36.1575 44.356L36.0151 37.9974L32.8017 36.8087ZM5.6217 15.6838L5.72076 20.1725L8.93408 21.3613L8.83501 16.8726C8.74214 12.7646 9.89064 9.35935 12.0638 7.28525C14.2401 5.21115 17.181 4.71274 20.3478 5.886C22.4158 6.65063 24.4156 8.06845 26.1956 9.99706L28.4647 7.83318C26.0717 5.00374 23.2516 2.83367 20.2519 1.72232C11.9338 -1.36097 5.38024 4.89229 5.6217 15.6838Z" fill="#0B3F4E"/>
<path d="M29.9318 15.9687C31.4332 19.0985 32.2814 22.4944 32.3557 25.7604L32.4547 30.2491L35.6681 31.4378L35.569 26.9491C35.4699 22.4511 34.2038 17.8757 32.1607 13.8451L29.9318 15.9687ZM22.1771 36.9234L22.2204 38.8365C22.2204 38.8953 22.2204 38.951 22.2174 39.0067L22.3412 44.483C24.1893 44.4335 25.4926 42.6875 25.4337 40.0283L25.3904 38.1152L22.1771 36.9234ZM16.834 8.0531L19.5644 12.4768C19.8058 12.5325 20.0535 12.6037 20.3011 12.6966C23.9416 14.0463 26.9909 18.9839 27.0961 23.7079L27.1549 26.3485L30.3652 27.5373L30.3063 24.8967C30.1485 17.8664 25.6257 10.5389 20.2052 8.53293C19.0164 8.09024 17.8803 7.94165 16.834 8.0531ZM8.88735 28.1254L9.02976 34.484C9.10096 37.6694 9.91203 40.9849 11.3484 44.0527L9.11645 46.1825C7.13831 42.2046 5.91551 37.7127 5.81645 33.2952L5.67406 26.9367L8.88735 28.1254ZM10.6767 17.6218L10.8872 27.0977L14.1005 28.2864L13.89 18.8106C13.8807 18.4236 13.8931 18.0521 13.924 17.693L11.2215 13.3126C10.8376 14.5726 10.6426 16.0214 10.6767 17.6218ZM15.9548 20.216L16.3232 36.6509C16.3263 36.7531 16.3294 36.8522 16.3356 36.9543C16.4161 38.2947 17.2024 39.2296 17.9763 39.5175C18.7842 39.8178 19.5767 39.4123 19.5458 38.0316C19.5396 37.9697 19.5365 37.9047 19.5334 37.8428L19.1681 21.4574C19.1464 20.5225 19.682 19.9188 20.4033 20.1417C20.4249 20.1479 20.4497 20.1572 20.4714 20.1634C21.2113 20.4389 21.8304 21.4419 21.852 22.4015L21.9171 25.2619C21.9264 25.6892 21.6663 25.9368 21.3382 25.813L20.0225 25.327L20.1154 29.5464L22.0254 30.2646L22.3505 30.3853C23.9447 30.9766 25.1985 29.7785 25.1521 27.7106L25.0592 23.5903C24.9849 20.3274 22.8891 16.9284 20.3723 15.9966C17.8617 15.0648 15.8805 16.9563 15.9548 20.216ZM27.2478 30.3141L27.4955 41.4276C27.6007 46.1516 24.7248 48.8943 21.0812 47.5446C17.4376 46.1949 14.3915 41.2573 14.2862 36.5333L14.1902 32.2551L10.9769 31.0663L11.0729 35.3446C11.2308 42.3748 15.7536 49.7023 21.1741 51.7114C26.5946 53.7205 30.8636 49.6466 30.7057 42.6163L30.458 31.5028L27.2478 30.3141ZM32.6064 36.9079L32.7488 43.2664C32.8417 47.3744 31.6932 50.7796 29.52 52.8537C27.3438 54.9278 24.4029 55.4262 21.236 54.2529C19.1093 53.4666 17.0507 51.9869 15.2304 49.9685L12.9675 52.1262C15.3914 55.0423 18.2673 57.2805 21.3289 58.4166C29.6532 61.4999 36.2036 55.2497 35.9621 44.4551L35.8197 38.0966L32.6064 36.9079ZM5.42639 15.7861L5.52545 20.2748L8.73877 21.4636L8.6397 16.9748C8.54683 12.8669 9.69533 9.46163 11.8685 7.38753C14.0448 5.31342 16.9856 4.81502 20.1525 5.98828C22.2204 6.75291 24.2202 8.17073 26.0003 10.0993L28.2694 7.93546C25.8764 5.10601 23.0563 2.93595 20.0566 1.8246C11.7354 -1.25869 5.18493 4.99148 5.42639 15.7861Z" fill="#0A3E4E"/>
<path d="M29.7374 16.1067C31.2388 19.2365 32.087 22.6324 32.1613 25.8984L32.2604 30.3871L35.4737 31.5758L35.3746 27.0871C35.2756 22.5891 34.0094 18.0137 31.9663 13.9831L29.7374 16.1067ZM21.9827 37.0614L22.0261 38.9745C22.0261 39.0333 22.0261 39.089 22.023 39.1448L22.1468 44.621C23.9949 44.5715 25.2982 42.8255 25.2394 40.1663L25.1961 38.2532L21.9827 37.0614ZM16.6396 8.1911L19.37 12.6148C19.6115 12.6705 19.8591 12.7417 20.1068 12.8346C23.7473 14.1843 26.7965 19.1219 26.9018 23.8459L26.9606 26.4865L30.1708 27.6753L30.112 25.0347C29.9541 18.0044 25.4313 10.6769 20.0108 8.67093C18.8221 8.22515 17.6859 8.07656 16.6396 8.1911ZM8.69302 28.2604L8.83542 34.6189C8.90662 37.8043 9.71769 41.1198 11.1541 44.1876L8.92209 46.3174C6.94396 42.3395 5.72117 37.8477 5.62211 33.4301L5.4797 27.0716L8.69302 28.2604ZM10.4823 17.7598L10.6928 27.2357L13.9061 28.4244L13.6956 18.9486C13.6863 18.5616 13.6987 18.1901 13.7297 17.831L11.0271 13.4506C10.6433 14.7106 10.4483 16.1563 10.4823 17.7598ZM15.7604 20.354L16.1288 36.7889C16.1319 36.8911 16.135 36.9902 16.1412 37.0923C16.2217 38.4327 17.008 39.3676 17.7819 39.6555C18.5899 39.9558 19.3824 39.5503 19.3514 38.1696C19.3452 38.1077 19.3421 38.0427 19.339 37.9808L18.9738 21.5954C18.9521 20.6605 19.4876 20.0568 20.2089 20.2797C20.2306 20.2859 20.2554 20.2952 20.277 20.3014C21.0169 20.5769 21.636 21.5799 21.6577 22.5396L21.7227 25.4C21.732 25.8272 21.472 26.0748 21.1438 25.951L19.8312 25.465L19.9241 29.6844L21.8342 30.4026L22.1592 30.5233C23.7535 31.1146 25.0072 29.9165 24.9608 27.8486L24.8679 23.7283C24.7936 20.4655 22.6978 17.0664 20.1811 16.1346C17.6674 15.2028 15.6862 17.0912 15.7604 20.354ZM27.0535 30.449L27.3011 41.5625C27.4064 46.2865 24.5305 49.0292 20.8869 47.6795C17.2464 46.3298 14.1971 41.3922 14.0919 36.6682L13.9959 32.39L10.7826 31.2013L10.8786 35.4795C11.0364 42.5098 15.5592 49.8372 20.9798 51.8463C26.4003 53.8554 30.6692 49.7815 30.5113 42.7512L30.2637 31.6377L27.0535 30.449ZM32.409 37.0459L32.5514 43.4044C32.6443 47.5124 31.4958 50.9176 29.3226 52.9917C27.1463 55.0658 24.2054 55.5642 21.0386 54.391C18.9118 53.6046 16.8532 52.1249 15.033 50.1065L12.77 52.2642C15.1939 55.1804 18.0698 57.4185 21.1314 58.5546C29.4557 61.6379 36.0062 55.3878 35.7647 44.5931L35.6223 38.2346L32.409 37.0459ZM5.23205 15.921L5.33112 20.4097L8.54443 21.5985L8.44537 17.1097C8.35249 13.0018 9.50099 9.59653 11.6742 7.52243C13.8504 5.44833 16.7913 4.94993 19.9582 6.12319C22.0261 6.88782 24.0259 8.30564 25.8059 10.2342L28.075 8.07037C25.6821 5.24092 22.8619 3.07085 19.8622 1.9595C11.541 -1.12069 4.99059 5.12947 5.23205 15.921Z" fill="#0A3D4D"/>
<path d="M29.5431 16.207C31.0445 19.3367 31.8927 22.7327 31.967 25.9986L32.0661 30.4874L35.2794 31.6761L35.1803 27.1874C35.0812 22.6894 33.8151 18.114 31.772 14.0834L29.5431 16.207ZM21.7884 37.1647L21.8318 39.0779C21.8318 39.1367 21.8318 39.1924 21.8287 39.2481L21.9525 44.7244C23.8006 44.6748 25.1039 42.9289 25.0451 40.2697L25.0017 38.3566L21.7884 37.1647ZM16.4453 8.29138L19.1757 12.7151C19.4171 12.7708 19.6648 12.842 19.9124 12.9349C23.5529 14.2846 26.6022 19.2222 26.7074 23.9462L26.7663 26.5868L29.9765 27.7756L29.9177 25.1349C29.7598 18.1047 25.237 10.7772 19.8165 8.77121C18.6277 8.32853 17.4916 8.17993 16.4453 8.29138ZM8.49868 28.3637L8.64109 34.7222C8.71229 37.9077 9.52335 41.2232 10.9597 44.291L8.72776 46.4208C6.74962 42.4429 5.52684 37.951 5.42777 33.5335L5.28537 27.175L8.49868 28.3637ZM10.288 17.8632L10.4985 27.3391L13.7118 28.5278L13.5013 19.0519C13.492 18.665 13.5044 18.2935 13.5353 17.9344L10.8328 13.554C10.449 14.8109 10.2539 16.2596 10.288 17.8632ZM15.5661 20.4543L15.9345 36.8892C15.9376 36.9914 15.9407 37.0904 15.9469 37.1926C16.0274 38.533 16.8137 39.4679 17.5876 39.7558C18.3956 40.0561 19.188 39.6506 19.1571 38.2699C19.1509 38.208 19.1478 38.143 19.1447 38.0811L18.7794 21.6957C18.7578 20.7608 19.2933 20.1571 20.0146 20.38C20.0363 20.3862 20.061 20.3955 20.0827 20.4017C20.8226 20.6772 21.4417 21.6802 21.4634 22.6398L21.5284 25.5002C21.5377 25.9274 21.2776 26.1751 20.9495 26.0513L19.6338 25.5652L19.7267 29.7846L21.6367 30.5028L21.9618 30.6236C23.556 31.2148 24.8098 30.0168 24.7634 27.9489L24.6705 23.8286C24.5962 20.5657 22.5004 17.1667 19.9836 16.2349C17.4731 15.3031 15.4918 17.1945 15.5661 20.4543ZM26.8591 30.5524L27.1068 41.6658C27.2121 46.3898 24.3362 49.1326 20.6925 47.7829C17.052 46.4332 14.0028 41.4956 13.8975 36.7716L13.8016 32.4934L10.5883 31.3046L10.6842 35.5828C10.8421 42.6131 15.3649 49.9406 20.7854 51.9497C26.2059 53.9588 30.4749 49.8849 30.317 42.8546L30.0693 31.7411L26.8591 30.5524ZM32.2147 37.1493L32.3571 43.5078C32.4499 47.6157 31.3014 51.021 29.1283 53.0951C26.952 55.1692 24.0111 55.6676 20.8442 54.4943C18.7175 53.708 16.6589 52.2283 14.8386 50.2099L12.5757 52.3676C14.9996 55.2837 17.8755 57.5219 20.9371 58.658C29.2614 61.7413 35.8118 55.4911 35.5704 44.6965L35.428 38.338L32.2147 37.1493ZM5.03772 16.0244L5.13678 20.5131L8.35009 21.7018L8.25103 17.2131C8.15816 13.1052 9.30665 9.69991 11.4798 7.62581C13.653 5.55171 16.597 5.0533 19.7638 6.22656C21.8318 6.99119 23.8316 8.40901 25.6116 10.3376L27.8807 8.17374C25.4878 5.3443 22.6676 3.17423 19.6679 2.06288C11.3467 -1.02041 4.79625 5.22976 5.03772 16.0244Z" fill="#0A3C4D"/>
<path d="M29.3487 16.3265C30.8501 19.4562 31.6984 22.8521 31.7727 26.1181L31.8717 30.6068L35.085 31.7955L34.986 27.3068C34.8869 22.8088 33.6208 18.2334 31.5776 14.2028L29.3487 16.3265ZM21.5941 37.2811L21.6374 39.1942C21.6374 39.253 21.6374 39.3087 21.6343 39.3645L21.7581 44.8407C23.6063 44.7912 24.9095 43.0452 24.8507 40.386L24.8074 38.4729L21.5941 37.2811ZM16.2509 8.41082L18.9813 12.8345C19.2228 12.8903 19.4704 12.9615 19.7181 13.0543C23.3586 14.404 26.4079 19.3417 26.5131 24.0656L26.5719 26.7063L29.7821 27.895L29.7233 25.2544C29.5655 18.2241 25.0427 10.8966 19.6221 8.89065C18.4334 8.44487 17.2973 8.29628 16.2509 8.41082ZM8.30434 28.4801L8.44673 34.8386C8.51793 38.024 9.329 41.3395 10.7654 44.4073L8.53342 46.5371C6.55528 42.5592 5.33248 38.0674 5.23342 33.6499L5.09103 27.2913L8.30434 28.4801ZM10.0936 17.9796L10.3041 27.4554L13.5175 28.6441L13.3069 19.1683C13.2977 18.7813 13.31 18.4099 13.341 18.0508L10.6385 13.6704C10.2546 14.9303 10.0596 16.3791 10.0936 17.9796ZM15.3718 20.5737L15.7401 37.0087C15.7432 37.1108 15.7463 37.2099 15.7525 37.312C15.833 38.6525 16.6193 39.5874 17.3932 39.8753C18.2012 40.1755 18.9937 39.77 18.9628 38.3893C18.9566 38.3274 18.9535 38.2624 18.9504 38.2005L18.5851 21.8151C18.5634 20.8802 19.099 20.2765 19.8202 20.4994C19.8419 20.5056 19.8667 20.5149 19.8884 20.5211C20.6282 20.7966 21.2474 21.7996 21.269 22.7593L21.334 25.6197C21.3433 26.0469 21.0833 26.2945 20.7551 26.1707L19.4426 25.6847L19.5354 29.9041L21.4455 30.6223L21.7705 30.743C23.3648 31.3343 24.6186 30.1363 24.5721 28.0684L24.4793 23.948C24.405 20.6852 22.3092 17.2861 19.7924 16.3543C17.2787 15.4225 15.2975 17.3109 15.3718 20.5737ZM26.6648 30.6687L26.9125 41.7822C27.0177 46.5062 24.1418 49.249 20.4982 47.8992C16.8577 46.5495 13.8085 41.6119 13.7032 36.8879L13.6072 32.6097L10.3939 31.421L10.4899 35.6992C10.6478 42.7295 15.1706 50.0569 20.5911 52.066C26.0116 54.0751 30.2805 50.0012 30.1227 42.9709L29.875 31.8575L26.6648 30.6687ZM32.0203 37.2656L32.1627 43.6241C32.2556 47.7321 31.1071 51.1373 28.9339 53.2114C26.7577 55.2855 23.8168 55.7839 20.6499 54.6107C18.5232 53.8244 16.4645 52.3446 14.6443 50.3263L12.3813 52.4839C14.8053 55.4001 17.6811 57.6382 20.7428 58.7743C29.067 61.8576 35.6175 55.6075 35.376 44.8129L35.2336 38.4543L32.0203 37.2656ZM4.84338 16.1407L4.94243 20.6294L8.15574 21.8182L8.05668 17.3295C7.9638 13.2215 9.11232 9.81626 11.2855 7.74216C13.4617 5.66805 16.4026 5.16965 19.5695 6.34291C21.6374 7.10754 23.6372 8.52536 25.4172 10.454L27.6864 8.29009C25.2934 5.46064 22.4732 3.29058 19.4735 2.17923C11.1524 -0.900966 4.60192 5.3492 4.84338 16.1407Z" fill="#0A3B4D"/>
<path d="M29.1544 16.4453C30.6558 19.575 31.504 22.971 31.5783 26.2369L31.6774 30.7256L34.8907 31.9144L34.7916 27.4257C34.6926 22.9276 33.4264 18.3522 31.3833 14.3217L29.1544 16.4453ZM21.3966 37.403L21.44 39.3161C21.44 39.375 21.44 39.4307 21.4369 39.4864L21.5607 44.9627C23.4088 44.9131 24.7121 43.1672 24.6533 40.508L24.61 38.5949L21.3966 37.403ZM16.0566 8.52966L18.787 12.9534C19.0285 13.0091 19.2761 13.0803 19.5238 13.1732C23.1643 14.5229 26.2135 19.4605 26.3188 24.1845L26.3776 26.8251L29.5878 28.0138L29.529 25.3732C29.3711 18.3429 24.8483 11.0155 19.4278 9.00949C18.2391 8.56681 17.1029 8.41821 16.0566 8.52966ZM8.11001 28.602L8.25242 34.9605C8.32362 38.146 9.13468 41.4614 10.5711 44.5293L8.33908 46.6591C6.36095 42.6811 5.13816 38.1893 5.0391 33.7718L4.8967 27.4133L8.11001 28.602ZM9.89932 18.1015L10.1098 27.5773L13.3231 28.7661L13.1126 19.2902C13.1033 18.9033 13.1157 18.5318 13.1467 18.1727L10.4441 13.7923C10.0603 15.0491 9.86526 16.4979 9.89932 18.1015ZM15.1774 20.6926L15.5458 37.1275C15.5489 37.2297 15.552 37.3287 15.5582 37.4309C15.6387 38.7713 16.425 39.7062 17.1989 39.9941C18.0069 40.2944 18.7994 39.8888 18.7684 38.5082C18.7622 38.4463 18.7591 38.3812 18.756 38.3193L18.3908 21.9339C18.3691 20.999 18.9046 20.3954 19.6259 20.6183C19.6476 20.6245 19.6723 20.6337 19.694 20.6399C20.4339 20.9155 21.053 21.9185 21.0747 22.8781L21.1397 25.7385C21.149 26.1657 20.889 26.4134 20.5608 26.2895L19.2452 25.8035L19.338 30.0229L21.2481 30.7411L21.5731 30.8619C23.1674 31.4531 24.4211 30.2551 24.3747 28.1872L24.2818 24.0669C24.2075 20.804 22.1117 17.405 19.595 16.4732C17.0844 15.5414 15.1031 17.4328 15.1774 20.6926ZM26.4705 30.7907L26.7181 41.9041C26.8234 46.6281 23.9475 49.3709 20.3039 48.0212C16.6634 46.6715 13.6141 41.7339 13.5089 37.0099L13.4129 32.7347L10.1996 31.546L10.2956 35.8242C10.4534 42.8545 14.9762 50.182 20.3967 52.1911C25.8173 54.2001 30.0862 50.1262 29.9283 43.096L29.6807 31.9825L26.4705 30.7907ZM31.826 37.3875L31.9684 43.7461C32.0613 47.854 30.9128 51.2593 28.7396 53.3334C26.5633 55.4075 23.6224 55.9059 20.4556 54.7326C18.3288 53.9463 16.2702 52.4666 14.4499 50.4482L12.187 52.6059C14.6109 55.522 17.4868 57.7602 20.5484 58.8963C28.8727 61.9796 35.4232 55.7294 35.1817 44.9348L35.0393 38.5763L31.826 37.3875ZM4.64904 16.2627L4.74811 20.7514L7.96142 21.9401L7.86236 17.4514C7.76949 13.3434 8.91798 9.93819 11.0911 7.86409C13.2643 5.78999 16.2083 5.29158 19.3752 6.46484C21.4431 7.22948 23.4429 8.64729 25.2229 10.5759L27.492 8.41202C25.0991 5.58258 22.2789 3.41251 19.2792 2.30116C10.958 -0.78213 4.40758 5.46804 4.64904 16.2627Z" fill="#093A4C"/>
<path d="M28.9591 16.5488C30.4605 19.6785 31.3087 23.0745 31.383 26.3404L31.4821 30.8292L34.6954 32.0179L34.5963 27.5292C34.4973 23.0312 33.2311 18.4558 31.188 14.4252L28.9591 16.5488ZM21.2013 37.5034L21.2447 39.4166C21.2447 39.4754 21.2447 39.5311 21.2416 39.5868L21.3654 45.0631C23.2135 45.0135 24.5168 43.2676 24.458 40.6084L24.4147 38.6953L21.2013 37.5034ZM15.8613 8.63317L18.5917 13.0569C18.8332 13.1126 19.0808 13.1838 19.3285 13.2767C22.969 14.6264 26.0182 19.564 26.1235 24.288L26.1823 26.9286L29.3925 28.1174L29.3337 25.4767C29.1758 18.4465 24.653 11.119 19.2325 9.113C18.0438 8.66723 16.9076 8.52173 15.8613 8.63317ZM7.9147 28.7024L8.0571 35.061C8.1283 38.2464 8.93937 41.5619 10.3758 44.6297L8.14379 46.7595C6.16565 42.7816 4.94285 38.2897 4.84379 33.8722L4.7014 27.5137L7.9147 28.7024ZM9.704 18.2019L9.91451 27.6778L13.1278 28.8665L12.9173 19.3906C12.908 19.0037 12.9204 18.6322 12.9514 18.2731L10.2488 13.8927C9.86189 15.1527 9.66995 16.6014 9.704 18.2019ZM14.9821 20.7961L15.3505 37.231C15.3536 37.3332 15.3567 37.4322 15.3629 37.5344C15.4434 38.8748 16.2297 39.8097 17.0036 40.0976C17.8116 40.3979 18.6041 39.9924 18.5731 38.6117C18.5669 38.5498 18.5638 38.4848 18.5607 38.4229L18.1954 22.0374C18.1738 21.1026 18.7093 20.4989 19.4306 20.7218C19.4523 20.728 19.4771 20.7373 19.4987 20.7435C20.2386 21.019 20.8577 22.022 20.8794 22.9816L20.9444 25.842C20.9537 26.2692 20.6937 26.5169 20.3655 26.3931L19.0529 25.907L19.1458 30.1264L21.0558 30.8446L21.3809 30.9654C22.9752 31.5566 24.2289 30.3586 24.1825 28.2907L24.0896 24.1704C24.0153 20.9075 21.9195 17.5085 19.4028 16.5767C16.8891 15.6449 14.9078 17.5332 14.9821 20.7961ZM26.2721 30.8942L26.5197 42.0076C26.625 46.7316 23.7491 49.4744 20.1055 48.1247C16.465 46.775 13.4157 41.8374 13.3105 37.1134L13.2145 32.8352L10.0012 31.6464L10.0972 35.9246C10.255 42.9549 14.7778 50.2824 20.1984 52.2915C25.6189 54.3006 29.8878 50.2267 29.7299 43.1964L29.4823 32.0829L26.2721 30.8942ZM31.6307 37.488L31.7731 43.8465C31.8659 47.9544 30.7174 51.3597 28.5443 53.4338C26.368 55.5079 23.4271 56.0063 20.2603 54.833C18.1335 54.0467 16.0749 52.567 14.2547 50.5486L11.9917 52.7063C14.4156 55.6224 17.2915 57.8606 20.3531 58.9967C28.6774 62.08 35.2278 55.8298 34.9864 45.0352L34.844 38.6767L31.6307 37.488ZM4.45373 16.3662L4.5528 20.8549L7.76611 22.0436L7.66704 17.5549C7.57417 13.4469 8.72267 10.0417 10.8958 7.96761C13.0721 5.8935 16.013 5.3951 19.1799 6.56836C21.2478 7.33299 23.2476 8.75081 25.0276 10.6794L27.2967 8.51554C24.9038 5.68609 22.0836 3.51602 19.0839 2.40468C10.7627 -0.678614 4.21227 5.57155 4.45373 16.3662Z" fill="#09394C"/>
<path d="M28.7648 16.6862C30.2662 19.8159 31.1144 23.2119 31.1887 26.4778L31.2877 30.9665L34.5011 32.1553L34.402 27.6665C34.3029 23.1685 33.0368 18.5931 30.9936 14.5626L28.7648 16.6862ZM21.007 37.6408L21.0503 39.5539C21.0503 39.6128 21.0503 39.6685 21.0472 39.7242L21.1711 45.2004C23.0192 45.1509 24.3225 43.405 24.2636 40.7458L24.2203 38.8326L21.007 37.6408ZM15.667 8.77055L18.3973 13.1943C18.6388 13.25 18.8865 13.3212 19.1341 13.4141C22.7746 14.7638 25.8239 19.7014 25.9291 24.4254L25.9879 27.066L29.1982 28.2547L29.1393 25.6141C28.9815 18.5838 24.4587 11.2564 19.0381 9.25038C17.8494 8.8046 16.7133 8.65601 15.667 8.77055ZM7.72036 28.8398L7.86277 35.1983C7.93397 38.3838 8.74503 41.6992 10.1814 44.7671L7.94944 46.8969C5.9713 42.9189 4.74852 38.4271 4.64945 34.0096L4.50705 27.6511L7.72036 28.8398ZM9.50965 18.3393L9.72017 27.8151L12.9335 29.0039L12.723 19.528C12.7137 19.1411 12.7261 18.7696 12.757 18.4105L10.0545 14.0301C9.66753 15.2869 9.4756 16.7357 9.50965 18.3393ZM14.7878 20.9304L15.1562 37.3653C15.1593 37.4674 15.1624 37.5665 15.1686 37.6687C15.249 39.0091 16.0353 39.944 16.8093 40.2319C17.6172 40.5322 18.4097 40.1266 18.3788 38.746C18.3726 38.6841 18.3695 38.619 18.3664 38.5571L18.0011 22.1717C17.9794 21.2368 18.515 20.6332 19.2363 20.8561C19.2579 20.8623 19.2827 20.8715 19.3044 20.8777C20.0442 21.1532 20.6634 22.1562 20.685 23.1159L20.75 25.9763C20.7593 26.4035 20.4993 26.6512 20.1712 26.5273L18.8555 26.0413L18.9484 30.2607L20.8584 30.9789L21.1834 31.0996C22.7777 31.6909 24.0315 30.4929 23.985 28.425L23.8922 24.3046C23.8179 21.0418 21.7221 17.6428 19.2053 16.711C16.6947 15.7792 14.7135 17.6706 14.7878 20.9304ZM26.0777 31.0284L26.3254 42.1419C26.4306 46.8659 23.5547 49.6087 19.9111 48.259C16.2706 46.9093 13.2214 41.9717 13.1161 37.2477L13.0202 32.9694L9.80684 31.7807L9.90281 36.0589C10.0607 43.0892 14.5835 50.4167 20.004 52.4258C25.4245 54.4348 29.6935 50.3609 29.5356 43.3307L29.2879 32.2172L26.0777 31.0284ZM31.4363 37.6253L31.5787 43.9838C31.6716 48.0918 30.5231 51.4971 28.3499 53.5712C26.1737 55.6453 23.2328 56.1437 20.0659 54.9704C17.9392 54.1841 15.8806 52.7044 14.0603 50.686L11.7974 52.8437C14.2213 55.7598 17.0972 57.998 20.1588 59.1341C28.4831 62.2174 35.0335 55.9672 34.792 45.1726L34.6496 38.8141L31.4363 37.6253ZM4.2594 16.5004L4.35846 20.9892L7.57177 22.1779L7.47271 17.6892C7.37984 13.5812 8.52833 10.176 10.7015 8.10188C12.8778 6.02778 15.8187 5.52938 18.9855 6.70264C21.0534 7.46727 23.0532 8.88509 24.8332 10.8137L27.1024 8.64982C24.7094 5.82037 21.8893 3.6503 18.8896 2.53896C10.5684 -0.544337 4.01793 5.70583 4.2594 16.5004Z" fill="#09384C"/>
<path d="M28.5607 16.7851C30.0621 19.9149 30.9103 23.3108 30.9846 26.5768L31.0836 31.0655L34.2969 32.2542L34.1979 27.7655C34.0988 23.2675 32.8327 18.6921 30.7895 14.6615L28.5607 16.7851ZM20.8029 37.7398L20.8462 39.6529C20.8462 39.7117 20.8462 39.7674 20.8431 39.8231L20.967 45.2994C22.8151 45.2499 24.1184 43.5039 24.0595 40.8447L24.0162 38.9316L20.8029 37.7398ZM15.4629 8.8695L18.1932 13.2932C18.4347 13.3489 18.6824 13.4201 18.93 13.513C22.5705 14.8627 25.6198 19.8003 25.725 24.5243L25.7838 27.1649L28.9941 28.3537L28.9352 25.7131C28.7774 18.6828 24.2546 11.3553 18.834 9.34933C17.6453 8.90355 16.5092 8.75806 15.4629 8.8695ZM7.51626 28.9418L7.65867 35.3004C7.72987 38.4858 8.54093 41.8013 9.97732 44.8691L7.74533 46.9989C5.7672 43.021 4.54441 38.5291 4.44535 34.1116L4.30295 27.7531L7.51626 28.9418ZM9.30557 18.4382L9.51607 27.9141L12.7294 29.1028L12.5189 19.627C12.5096 19.24 12.522 18.8685 12.5529 18.5094L9.85041 14.129C9.46345 15.389 9.27151 16.8378 9.30557 18.4382ZM14.5837 21.0324L14.9521 37.4673C14.9552 37.5695 14.9583 37.6685 14.9645 37.7707C15.0449 39.1111 15.8313 40.046 16.6052 40.3339C17.4131 40.6342 18.2056 40.2287 18.1747 38.848C18.1685 38.7861 18.1654 38.7211 18.1623 38.6592L17.797 22.2738C17.7753 21.3389 18.3109 20.7352 19.0322 20.9581C19.0538 20.9643 19.0786 20.9736 19.1003 20.9798C19.8402 21.2553 20.4593 22.2583 20.4809 23.2179L20.546 26.0784C20.5553 26.5056 20.2952 26.7532 19.9671 26.6294L18.6514 26.1434L18.7443 30.3628L20.6543 31.081L20.9793 31.2017C22.5736 31.793 23.8274 30.5949 23.7809 28.527L23.6881 24.4067C23.6138 21.1438 21.518 17.7448 19.0012 16.813C16.4875 15.8812 14.5094 17.7696 14.5837 21.0324ZM25.8736 31.1305L26.1213 42.244C26.2265 46.9679 23.3506 49.7107 19.707 48.361C16.0665 47.0113 13.0173 42.0737 12.912 37.3497L12.8161 33.0715L9.60274 31.8827L9.69871 36.161C9.85658 43.1912 14.3794 50.5187 19.7999 52.5278C25.2204 54.5369 29.4894 50.463 29.3315 43.4327L29.0838 32.3192L25.8736 31.1305ZM31.2322 37.7243L31.3746 44.0828C31.4675 48.1907 30.319 51.596 28.1458 53.6701C25.9696 55.7442 23.0287 56.2426 19.8618 55.0693C17.7351 54.283 15.6765 52.8033 13.8562 50.7849L11.5933 52.9426C14.0172 55.8587 16.8931 58.0969 19.9547 59.233C28.2789 62.3163 34.8294 56.0661 34.5879 45.2715L34.4455 38.913L31.2322 37.7243ZM4.05529 16.6025L4.15436 21.0912L7.36767 22.28L7.26861 17.7912C7.17574 13.6833 8.32423 10.278 10.4974 8.20393C12.6737 6.12983 15.6145 5.63143 18.7814 6.80469C20.8493 7.56932 22.8491 8.98713 24.6292 10.9157L26.8983 8.75186C24.5053 5.92242 21.6852 3.75235 18.6855 2.64101C10.3643 -0.442285 3.81383 5.80788 4.05529 16.6025Z" fill="#09374B"/>
<path d="M28.3566 16.9145C29.858 20.0442 30.7062 23.4402 30.7805 26.7061L30.8795 31.1948L34.0929 32.3836L33.9938 27.8948C33.8947 23.3968 32.6286 18.8214 30.5854 14.7908L28.3566 16.9145ZM20.5988 37.8691L20.6421 39.7822C20.6421 39.841 20.6421 39.8968 20.639 39.9525L20.7629 45.4287C22.611 45.3792 23.9143 43.6332 23.8555 40.9741L23.8121 39.0609L20.5988 37.8691ZM15.2588 8.99884L17.9891 13.4226C18.2306 13.4783 18.4783 13.5495 18.7259 13.6423C22.3664 14.9921 25.4157 19.9297 25.5209 24.6537L25.5797 27.2943L28.79 28.483L28.7311 25.8424C28.5733 18.8121 24.0505 11.4847 18.6299 9.47867C17.4412 9.03289 16.3051 8.8843 15.2588 8.99884ZM7.31216 29.0681L7.45455 35.4266C7.52575 38.6121 8.33681 41.9275 9.7732 44.9953L7.54123 47.1252C5.5631 43.1472 4.34029 38.6554 4.24123 34.2379L4.09884 27.8794L7.31216 29.0681ZM9.10145 18.5676L9.31195 28.0434L12.5253 29.2322L12.3148 19.7563C12.3055 19.3693 12.3179 18.9979 12.3488 18.6388L9.64629 14.2584C9.25933 15.5183 9.0643 16.964 9.10145 18.5676ZM14.3796 21.1617L14.748 37.5967C14.7511 37.6988 14.7542 37.7979 14.7604 37.9001C14.8408 39.2405 15.6271 40.1754 16.4011 40.4633C17.209 40.7636 18.0015 40.358 17.9706 38.9774C17.9644 38.9154 17.9613 38.8504 17.9582 38.7885L17.5929 22.4031C17.5712 21.4682 18.1068 20.8646 18.8281 21.0874C18.8497 21.0936 18.8745 21.1029 18.8962 21.1091C19.636 21.3846 20.2552 22.3876 20.2769 23.3473L20.3418 26.2077C20.3511 26.6349 20.0911 26.8826 19.763 26.7587L18.4473 26.2727L18.5402 30.4921L20.4502 31.2103L20.7752 31.331C22.3695 31.9223 23.6233 30.7243 23.5768 28.6564L23.484 24.536C23.4097 21.2732 21.3139 17.8741 18.7971 16.9423C16.2834 16.0105 14.3053 17.8989 14.3796 21.1617ZM25.6695 31.2567L25.9172 42.3702C26.0224 47.0942 23.1465 49.837 19.5029 48.4873C15.8624 47.1376 12.8132 42.2 12.7079 37.476L12.612 33.1977L9.39864 32.009L9.49461 36.2872C9.65248 43.3175 14.1753 50.645 19.5958 52.654C25.0163 54.6631 29.2853 50.5892 29.1274 43.559L28.8797 32.4455L25.6695 31.2567ZM31.0281 37.8536L31.1705 44.2121C31.2634 48.3201 30.1149 51.7253 27.9417 53.7994C25.7655 55.8736 22.8246 56.372 19.6577 55.1987C17.531 54.4124 15.4724 52.9327 13.6521 50.9143L11.3892 53.072C13.8131 55.9881 16.689 58.2263 19.7506 59.3624C28.0749 62.4457 34.6253 56.1955 34.3838 45.4009L34.2414 39.0424L31.0281 37.8536ZM3.85119 16.7287L3.95024 21.2175L7.16355 22.4062L7.06449 17.9175C6.97162 13.8095 8.12013 10.4043 10.2933 8.33017C12.4696 6.25607 15.4104 5.75766 18.5773 6.93092C20.6452 7.69556 22.645 9.11338 24.425 11.042L26.6942 8.8781C24.3012 6.04866 21.4811 3.87859 18.4813 2.76724C10.1602 -0.316051 3.60973 5.93721 3.85119 16.7287Z" fill="#08364B"/>
<path d="M28.1525 17.0234C29.6539 20.1532 30.5021 23.5491 30.5764 26.8151L30.6754 31.3038L33.8887 32.4925L33.7897 28.0038C33.6906 23.5058 32.4245 18.9304 30.3813 14.8998L28.1525 17.0234ZM20.3947 37.9781L20.438 39.8912C20.438 39.95 20.438 40.0057 20.4349 40.0614L20.5588 45.5377C22.4069 45.4882 23.7102 43.7422 23.6513 41.083L23.608 39.1699L20.3947 37.9781ZM15.0546 9.10779L17.785 13.5315C18.0265 13.5872 18.2742 13.6584 18.5218 13.7513C22.1623 15.101 25.2116 20.0386 25.3168 24.7626L25.3756 27.4032L28.5859 28.592L28.527 25.9514C28.3692 18.9211 23.8464 11.5936 18.4258 9.58762C17.2371 9.14493 16.101 8.99634 15.0546 9.10779ZM7.10805 29.1801L7.25046 35.5387C7.32166 38.7241 8.13273 42.0396 9.56912 45.1074L7.33713 47.2372C5.35899 43.2593 4.13621 38.7675 4.03715 34.3499L3.89474 27.9914L7.10805 29.1801ZM8.89736 18.6796L9.10787 28.1555L12.3212 29.3442L12.1107 19.8684C12.1014 19.4814 12.1138 19.1099 12.1447 18.7508L9.44219 14.3704C9.05523 15.6273 8.86022 17.0761 8.89736 18.6796ZM14.1755 21.2707L14.5439 37.7056C14.547 37.8078 14.5501 37.9069 14.5562 38.009C14.6367 39.3494 15.423 40.2843 16.197 40.5722C17.0049 40.8725 17.7974 40.467 17.7665 39.0863C17.7603 39.0244 17.7572 38.9594 17.7541 38.8975L17.3888 22.5121C17.3671 21.5772 17.9027 20.9735 18.624 21.1964C18.6456 21.2026 18.6704 21.2119 18.6921 21.2181C19.4319 21.4936 20.0511 22.4966 20.0727 23.4562L20.1378 26.3166C20.147 26.7439 19.887 26.9915 19.5589 26.8677L18.2432 26.3817L18.3361 30.6011L20.2461 31.3193L20.5711 31.44C22.1654 32.0313 23.4192 30.8332 23.3727 28.7653L23.2799 24.645C23.2056 21.3821 21.1098 17.9831 18.593 17.0513C16.0793 16.1195 14.1012 18.0109 14.1755 21.2707ZM25.4654 31.3688L25.7131 42.4823C25.8183 47.2063 22.9424 49.949 19.2988 48.5993C15.6552 47.2496 12.6091 42.312 12.5038 37.588L12.4078 33.3098L9.19454 32.121L9.2905 36.3993C9.44838 43.4295 13.9712 50.757 19.3917 52.7661C24.8122 54.7752 29.0812 50.7013 28.9233 43.671L28.6756 32.5575L25.4654 31.3688ZM30.824 37.9626L30.9664 44.3211C31.0593 48.4291 29.9108 51.8343 27.7376 53.9084C25.5614 55.9825 22.6205 56.4809 19.4536 55.3076C17.3269 54.5213 15.2682 53.0416 13.448 51.0232L11.1851 53.1809C13.609 56.097 16.4849 58.3352 19.5465 59.4713C27.8707 62.5546 34.4212 56.3045 34.1797 45.5098L34.0373 39.1513L30.824 37.9626ZM3.64709 16.8408L3.74616 21.3295L6.95947 22.5183L6.8604 18.0295C6.76753 13.9216 7.91603 10.5163 10.0892 8.44222C12.2655 6.36811 15.2063 5.86971 18.3732 7.04297C20.4411 7.8076 22.4409 9.22542 24.221 11.154L26.4901 8.99015C24.0971 6.1607 21.277 3.99063 18.2773 2.87929C9.95608 -0.204005 3.40563 6.04616 3.64709 16.8408Z" fill="#08364B"/>
<path d="M27.9484 17.1355C29.4498 20.2653 30.298 23.6612 30.3723 26.9272L30.4713 31.4159L33.6846 32.6046L33.5856 28.1159C33.4865 23.6179 32.2204 19.0425 30.1773 15.0119L27.9484 17.1355ZM20.1906 38.0902L20.2339 40.0033C20.2339 40.0621 20.2339 40.1178 20.2309 40.1736L20.3547 45.6498C22.2028 45.6003 23.5061 43.8543 23.4472 41.1951L23.4039 39.282L20.1906 38.0902ZM14.8506 9.21991L17.581 13.6436C17.8224 13.6993 18.0701 13.7705 18.3177 13.8634C21.9582 15.2131 25.0075 20.1507 25.1127 24.8747L25.1715 27.5153L28.3818 28.7041L28.3229 26.0635C28.1651 19.0332 23.6423 11.7057 18.2218 9.69974C17.033 9.25396 15.8969 9.10537 14.8506 9.21991ZM6.90395 29.2892L7.04636 35.6477C7.11756 38.8331 7.92863 42.1486 9.36502 45.2164L7.13305 47.3462C5.15491 43.3683 3.93211 38.8765 3.83305 34.4589L3.69066 28.1004L6.90395 29.2892ZM8.69326 18.7886L8.90377 28.2645L12.1171 29.4532L11.9066 19.9774C11.8973 19.5904 11.9097 19.2189 11.9406 18.8598L9.2381 14.4795C8.85114 15.7394 8.65611 17.1851 8.69326 18.7886ZM13.9683 21.3828L14.3367 37.8178C14.3398 37.9199 14.3429 38.019 14.3491 38.1211C14.4296 39.4616 15.2159 40.3965 15.9898 40.6843C16.7977 40.9846 17.5902 40.5791 17.5593 39.1984C17.5531 39.1365 17.55 39.0715 17.5469 39.0096L17.1816 22.6242C17.1599 21.6893 17.6955 21.0856 18.4168 21.3085C18.4384 21.3147 18.4632 21.324 18.4849 21.3302C19.2248 21.6057 19.8439 22.6087 19.8656 23.5684L19.9306 26.4288C19.9398 26.856 19.6798 27.1036 19.3517 26.9798L18.0391 26.4938L18.132 30.7132L20.042 31.4314L20.3671 31.5521C21.9613 32.1434 23.2151 30.9454 23.1686 28.8774L23.0758 24.7571C23.0015 21.4943 20.9057 18.0952 18.3889 17.1634C15.8752 16.2316 13.8971 18.12 13.9683 21.3828ZM25.2613 31.4778L25.509 42.5913C25.6142 47.3153 22.7383 50.0581 19.0947 48.7083C15.4542 47.3586 12.405 42.421 12.2997 37.697L12.2038 33.4188L8.99045 32.2301L9.08642 36.5083C9.2443 43.5386 13.7671 50.866 19.1876 52.8751C24.6081 54.8842 28.8771 50.8103 28.7192 43.78L28.4715 32.6666L25.2613 31.4778ZM30.6199 38.0747L30.7623 44.4332C30.8552 48.5412 29.7067 51.9464 27.5335 54.0205C25.3573 56.0946 22.4164 56.593 19.2495 55.4198C17.1228 54.6335 15.0642 53.1537 13.2439 51.1353L10.981 53.293C13.4049 56.2092 16.2808 58.4473 19.3424 59.5834C27.6667 62.6667 34.2171 56.4166 33.9756 45.622L33.8333 39.2634L30.6199 38.0747ZM3.44299 16.9498L3.54205 21.4385L6.75537 22.6273L6.6563 18.1385C6.56343 14.0306 7.71193 10.6253 9.88509 8.55124C12.0613 6.47714 15.0022 5.97873 18.1691 7.15199C20.237 7.91663 22.2368 9.33445 24.0169 11.2631L26.286 9.09917C23.893 6.26973 21.0729 4.09966 18.0732 2.98831C9.75198 -0.0918853 3.20153 6.15828 3.44299 16.9498Z" fill="#08354A"/>
<path d="M27.7472 17.2617C29.2486 20.3914 30.0968 23.7874 30.1711 27.0533L30.2701 31.5421L33.4835 32.7308L33.3844 28.2421C33.2853 23.744 32.0192 19.1686 29.9761 15.1381L27.7472 17.2617ZM19.9894 38.2194L20.0328 40.1325C20.0328 40.1914 20.0328 40.2471 20.0297 40.3028L20.1535 45.7791C22.0016 45.7295 23.3049 43.9836 23.2461 41.3244L23.2027 39.4113L19.9894 38.2194ZM14.6494 9.34607L17.3798 13.7698C17.6212 13.8255 17.8689 13.8967 18.1165 13.9896C21.757 15.3393 24.8063 20.2769 24.9115 25.0009L24.9704 27.6415L28.1806 28.8302L28.1218 26.1896C27.9639 19.1594 23.4411 11.8319 18.0206 9.82589C16.8318 9.38321 15.6957 9.23462 14.6494 9.34607ZM6.70279 29.4184L6.84519 35.7769C6.91639 38.9624 7.72746 42.2779 9.16385 45.3457L6.93186 47.4755C4.95373 43.4975 3.73094 39.0057 3.63188 34.5882L3.48948 28.2297L6.70279 29.4184ZM8.49208 18.9179L8.7026 28.3938L11.9159 29.5825L11.7054 20.1066C11.6961 19.7197 11.7085 19.3482 11.7395 18.9891L9.03692 14.6087C8.64996 15.8656 8.45493 17.3143 8.49208 18.9179ZM13.7671 21.509L14.1355 37.9439C14.1386 38.0461 14.1417 38.1451 14.1479 38.2473C14.2284 39.5877 15.0147 40.5226 15.7886 40.8105C16.5966 41.1108 17.389 40.7052 17.3581 39.3246C17.3519 39.2627 17.3488 39.1977 17.3457 39.1357L16.9804 22.7503C16.9588 21.8154 17.4943 21.2118 18.2156 21.4347C18.2373 21.4409 18.262 21.4502 18.2837 21.4563C19.0236 21.7319 19.6427 22.7349 19.6644 23.6945L19.7294 26.5549C19.7387 26.9821 19.4786 27.2298 19.1505 27.106L17.8348 26.6199L17.9277 30.8393L19.8377 31.5575L20.1628 31.6783C21.757 32.2695 23.0108 31.0715 22.9643 29.0036L22.8715 24.8833C22.7972 21.6204 20.7014 18.2214 18.1846 17.2896C15.674 16.3578 13.6959 18.2492 13.7671 21.509ZM25.0601 31.6071L25.3078 42.7205C25.413 47.4445 22.5372 50.1873 18.8936 48.8376C15.253 47.4879 12.2038 42.5503 12.0985 37.8263L12.0026 33.5481L8.78927 32.3593L8.88523 36.6375C9.04311 43.6678 13.5659 50.9953 18.9864 53.0044C24.4069 55.0135 28.6759 50.9396 28.518 43.9093L28.2703 32.7958L25.0601 31.6071ZM30.4187 38.2039L30.5611 44.5625C30.654 48.6704 29.5055 52.0757 27.3324 54.1498C25.1561 56.2239 22.2152 56.7223 19.0483 55.549C16.9216 54.7627 14.863 53.283 13.0427 51.2646L10.7798 53.4223C13.2037 56.3384 16.0796 58.5766 19.1412 59.7127C27.4655 62.796 34.0159 56.5458 33.7745 45.7512L33.632 39.3927L30.4187 38.2039ZM3.23873 17.0791L3.33779 21.5678L6.5511 22.7565L6.45204 18.2678C6.35917 14.1598 7.50766 10.7546 9.68082 8.6805C11.854 6.60639 14.798 6.10799 17.9648 7.28125C20.0328 8.04588 22.0326 9.4637 23.8126 11.3923L26.0817 9.22843C23.6887 6.39898 20.8686 4.22892 17.8689 3.11757C9.55081 0.0342767 3.00036 6.28444 3.23873 17.0791Z" fill="#07344A"/>
<path d="M27.5433 17.3655C29.0447 20.4953 29.8929 23.8912 29.9672 27.1571L30.0662 31.6459L33.2795 32.8346L33.1805 28.3459C33.0814 23.8479 31.8153 19.2725 29.7721 15.2419L27.5433 17.3655ZM19.7855 38.3202L19.8288 40.2333C19.8288 40.2921 19.8288 40.3478 19.8257 40.4035L19.9496 45.8798C21.7977 45.8303 23.101 44.0843 23.0421 41.4251L22.9988 39.512L19.7855 38.3202ZM14.4455 9.44989L17.1758 13.8736C17.4173 13.9293 17.6649 14.0005 17.9126 14.0934C21.5531 15.4431 24.6024 20.3807 24.7076 25.1047L24.7664 27.7453L27.9766 28.9341L27.9178 26.2935C27.76 19.2632 23.2372 11.9357 17.8166 9.92972C16.6279 9.48394 15.4918 9.33535 14.4455 9.44989ZM6.49885 29.5191L6.64125 35.8777C6.71245 39.0631 7.52352 42.3786 8.95991 45.4464L6.72792 47.5762C4.74979 43.5983 3.527 39.1065 3.42794 34.6889L3.28553 28.3304L6.49885 29.5191ZM8.28816 19.0186L8.49866 28.4945L11.712 29.6832L11.5015 20.2074C11.4922 19.8204 11.5046 19.4489 11.5355 19.0898L8.833 14.7094C8.44604 15.9694 8.25101 17.4182 8.28816 19.0186ZM13.5632 21.6128L13.9316 38.0477C13.9347 38.1499 13.9378 38.249 13.9439 38.3511C14.0244 39.6915 14.8107 40.6264 15.5847 40.9143C16.3926 41.2146 17.1851 40.8091 17.1542 39.4284C17.148 39.3665 17.1449 39.3015 17.1418 39.2396L16.7765 22.8542C16.7548 21.9193 17.2904 21.3156 18.0117 21.5385C18.0333 21.5447 18.0581 21.554 18.0798 21.5602C18.8196 21.8357 19.4388 22.8387 19.4604 23.7983L19.5255 26.6587C19.5347 27.0859 19.2747 27.3336 18.9466 27.2098L17.634 26.7238L17.7269 30.9432L19.6369 31.6614L19.9619 31.7821C21.5562 32.3734 22.81 31.1753 22.7635 29.1074L22.6707 24.9871C22.5964 21.7242 20.5006 18.3252 17.9838 17.3934C15.4701 16.4616 13.492 18.35 13.5632 21.6128ZM24.8562 31.7078L25.1039 42.8213C25.2091 47.5453 22.3332 50.288 18.6896 48.9383C15.0491 47.5886 11.9999 42.651 11.8946 37.927L11.7986 33.6488L8.58533 32.46L8.68129 36.7383C8.83917 43.7685 13.362 51.096 18.7825 53.1051C24.203 55.1142 28.472 51.0403 28.3141 44.01L28.0664 32.8965L24.8562 31.7078ZM30.2148 38.3047L30.3572 44.6632C30.4501 48.7712 29.3016 52.1764 27.1284 54.2505C24.9522 56.3246 22.0113 56.823 18.8444 55.6497C16.7177 54.8634 14.6591 53.3837 12.8388 51.3653L10.5759 53.523C12.9998 56.4391 15.8756 58.6773 18.9373 59.8134C27.2615 62.8967 33.812 56.6465 33.5705 45.8519L33.4281 39.4934L30.2148 38.3047ZM3.03478 17.1798L3.13385 21.6685L6.34716 22.8573L6.2481 18.3685C6.15523 14.2606 7.30372 10.8553 9.47688 8.78122C11.6531 6.70712 14.594 6.20871 17.7609 7.38198C19.8288 8.14661 21.8286 9.56443 23.6087 11.493L25.8778 9.32915C23.4848 6.49971 20.6647 4.32964 17.665 3.21829C9.34687 0.138095 2.79332 6.38826 3.03478 17.1798Z" fill="#073349"/>
<path d="M27.3391 17.5026C28.8405 20.6323 29.6888 24.0283 29.7631 27.2942L29.8621 31.7829L33.0754 32.9717L32.9764 28.483C32.8773 23.9849 31.6112 19.4095 29.568 15.379L27.3391 17.5026ZM19.5814 38.4572L19.6247 40.3703C19.6247 40.4292 19.6247 40.4849 19.6216 40.5406L19.7454 46.0169C21.5936 45.9673 22.8969 44.2214 22.838 41.5622L22.7947 39.6491L19.5814 38.4572ZM14.2413 9.58386L16.9717 14.0076C17.2132 14.0633 17.4608 14.1345 17.7085 14.2274C21.349 15.5771 24.3983 20.5147 24.5035 25.2387L24.5623 27.8793L27.7725 29.068L27.7137 26.4274C27.5558 19.3971 23.0331 12.0697 17.6125 10.0637C16.4238 9.62101 15.2877 9.47241 14.2413 9.58386ZM6.29474 29.6562L6.43713 36.0147C6.50833 39.2002 7.3194 42.5156 8.75579 45.5835L6.52382 47.7133C4.54568 43.7353 3.32288 39.2435 3.22382 34.826L3.08143 28.4675L6.29474 29.6562ZM8.08404 19.1557L8.29454 28.6315L11.5079 29.8203L11.2973 20.3444C11.2881 19.9575 11.3004 19.586 11.3314 19.2269L8.62888 14.8465C8.24192 16.1033 8.04689 17.5521 8.08404 19.1557ZM13.3591 21.7468L13.7275 38.1817C13.7306 38.2839 13.7337 38.3829 13.7398 38.4851C13.8203 39.8255 14.6066 40.7604 15.3805 41.0483C16.1885 41.3486 16.981 40.943 16.9501 39.5624C16.9439 39.5005 16.9408 39.4355 16.9377 39.3735L16.5724 22.9881C16.5507 22.0532 17.0863 21.4496 17.8076 21.6725C17.8292 21.6787 17.854 21.6879 17.8757 21.6941C18.6155 21.9697 19.2347 22.9727 19.2563 23.9323L19.3213 26.7927C19.3306 27.2199 19.0706 27.4676 18.7424 27.3437L17.4268 26.8577L17.5197 31.0771L19.4297 31.7953L19.7547 31.9161C21.349 32.5073 22.6028 31.3093 22.5563 29.2414L22.4635 25.121C22.3892 21.8582 20.2934 18.4592 17.7766 17.5274C15.266 16.5956 13.2879 18.487 13.3591 21.7468ZM24.6521 31.8449L24.8997 42.9583C25.005 47.6823 22.1291 50.4251 18.4855 49.0754C14.845 47.7257 11.7958 42.7881 11.6905 38.0641L11.5945 33.7858L8.38123 32.5971L8.47719 36.8753C8.63507 43.9056 13.1579 51.2331 18.5784 53.2422C23.9989 55.2512 28.2678 51.1773 28.11 44.1471L27.8623 33.0336L24.6521 31.8449ZM30.0107 38.4417L30.1531 44.8003C30.246 48.9082 29.0975 52.3135 26.9243 54.3876C24.7481 56.4617 21.8072 56.9601 18.6403 55.7868C16.5136 55.0005 14.4549 53.5208 12.6347 51.5024L10.3717 53.6601C12.7957 56.5762 15.6715 58.8144 18.7332 59.9505C27.0574 63.0338 33.6079 56.7836 33.3664 45.989L33.224 39.6305L30.0107 38.4417ZM2.83068 17.3169L2.92975 21.8056L6.14306 22.9943L6.044 18.5056C5.95113 14.3976 7.09962 10.9924 9.27278 8.91829C11.4459 6.84419 14.3899 6.34578 17.5568 7.51904C19.6247 8.28368 21.6245 9.70149 23.4045 11.6301L25.6737 9.46622C23.2807 6.63678 20.4606 4.46671 17.4609 3.35536C9.14277 0.27207 2.58922 6.52224 2.83068 17.3169Z" fill="#073249"/>
<path d="M27.1351 17.6016C28.6365 20.7313 29.4847 24.1272 29.559 27.3932L29.658 31.8819L32.8714 33.0706L32.7723 28.5819C32.6732 24.0839 31.4071 19.5085 29.3639 15.4779L27.1351 17.6016ZM19.3773 38.5562L19.4206 40.4693C19.4206 40.5281 19.4206 40.5838 19.4175 40.6396L19.5414 46.1158C21.3895 46.0663 22.6928 44.3203 22.6339 41.6611L22.5906 39.748L19.3773 38.5562ZM14.0372 9.68591L16.7676 14.1096C17.0091 14.1654 17.2568 14.2366 17.5044 14.3294C21.1449 15.6791 24.1942 20.6167 24.2994 25.3407L24.3582 27.9813L27.5685 29.1701L27.5096 26.5295C27.3518 19.4992 22.829 12.1717 17.4084 10.1657C16.2197 9.71996 15.0836 9.57447 14.0372 9.68591ZM6.09064 29.7552L6.23305 36.1137C6.30425 39.2991 7.11532 42.6146 8.55171 45.6824L6.31972 47.8122C4.34158 43.8343 3.1188 39.3425 3.01974 34.9249L2.87733 28.5664L6.09064 29.7552ZM7.87996 19.2546L8.09046 28.7305L11.3038 29.9192L11.0933 20.4434C11.084 20.0564 11.0964 19.6849 11.1273 19.3258L8.42478 14.9455C8.03782 16.2054 7.84281 17.6542 7.87996 19.2546ZM13.155 21.8488L13.5234 38.2838C13.5265 38.3859 13.5296 38.485 13.5357 38.5871C13.6162 39.9276 14.4025 40.8624 15.1765 41.1503C15.9844 41.4506 16.7769 41.0451 16.746 39.6644C16.7398 39.6025 16.7367 39.5375 16.7336 39.4756L16.3683 23.0902C16.3466 22.1553 16.8822 21.5516 17.6035 21.7745C17.6251 21.7807 17.6499 21.79 17.6716 21.7962C18.4115 22.0717 19.0306 23.0747 19.0522 24.0344L19.1173 26.8948C19.1265 27.322 18.8665 27.5696 18.5384 27.4458L17.2258 26.9598L17.3187 31.1792L19.2287 31.8974L19.5537 32.0181C21.148 32.6094 22.4018 31.4114 22.3553 29.3434L22.2625 25.2231C22.1882 21.9603 20.0924 18.5612 17.5756 17.6294C15.0619 16.6976 13.0838 18.586 13.155 21.8488ZM24.448 31.9469L24.6957 43.0604C24.8009 47.7844 21.925 50.5271 18.2814 49.1774C14.6409 47.8277 11.5917 42.8901 11.4864 38.1661L11.3904 33.8879L8.17713 32.6992L8.27309 36.9774C8.43097 44.0077 12.9538 51.3351 18.3743 53.3442C23.7948 55.3533 28.0638 51.2794 27.9059 44.2491L27.6582 33.1356L24.448 31.9469ZM29.8066 38.5407L29.949 44.8992C30.0419 49.0072 28.8934 52.4124 26.7202 54.4865C24.544 56.5606 21.6031 57.059 18.4362 55.8858C16.3095 55.0995 14.2508 53.6197 12.4306 51.6013L10.1676 53.759C12.5916 56.6752 15.4675 58.9133 18.5291 60.0494C26.8534 63.1327 33.4038 56.8826 33.1623 46.0879L33.0199 39.7294L29.8066 38.5407ZM2.62658 17.4189L2.72564 21.9076L5.93896 23.0964L5.8399 18.6076C5.74703 14.4997 6.89552 11.0944 9.06869 9.02034C11.2449 6.94624 14.1858 6.44783 17.3527 7.62109C19.4206 8.38573 21.4204 9.80355 23.2005 11.7322L25.4696 9.56827C23.0766 6.73883 20.2565 4.56876 17.2568 3.45741C8.93867 0.37412 2.38512 6.62429 2.62658 17.4189Z" fill="#073149"/>
<path d="M26.9309 17.7228C28.4323 20.8525 29.2806 24.2485 29.3548 27.5144L29.4539 32.0032L32.6672 33.1919L32.5681 28.7032C32.4691 24.2052 31.203 19.6297 29.1598 15.5992L26.9309 17.7228ZM19.1732 38.6774L19.2165 40.5906C19.2165 40.6494 19.2165 40.7051 19.2134 40.7608L19.3372 46.2371C21.1853 46.1875 22.4886 44.4416 22.4298 41.7824L22.3865 39.8693L19.1732 38.6774ZM13.8331 9.80717L16.5635 14.2309C16.805 14.2866 17.0526 14.3578 17.3003 14.4507C20.9408 15.8004 23.99 20.738 24.0953 25.462L24.1541 28.1026L27.3643 29.2913L27.3055 26.6507C27.1476 19.6205 22.6249 12.293 17.2043 10.287C16.0156 9.84122 14.8795 9.69263 13.8331 9.80717ZM5.88344 29.8764L6.02583 36.2349C6.09703 39.4204 6.90809 42.7359 8.34449 45.8037L6.11252 47.9335C4.13438 43.9556 2.91158 39.4637 2.81252 35.0462L2.67013 28.6877L5.88344 29.8764ZM7.67583 19.3759L7.88633 28.8518L11.0996 30.0405L10.8891 20.5646C10.8799 20.1777 10.8922 19.8062 10.9232 19.4471L8.22067 15.0667C7.83371 16.3236 7.63868 17.7723 7.67583 19.3759ZM12.9509 21.967L13.3192 38.4019C13.3223 38.5041 13.3254 38.6031 13.3316 38.7053C13.4121 40.0457 14.1984 40.9806 14.9723 41.2685C15.7803 41.5688 16.5728 41.1633 16.5418 39.7826C16.5357 39.7207 16.5325 39.6557 16.5295 39.5938L16.1642 23.2083C16.1425 22.2735 16.678 21.6698 17.3993 21.8927C17.421 21.8989 17.4458 21.9082 17.4675 21.9144C18.2073 22.1899 18.8265 23.1929 18.8481 24.1525L18.9131 27.0129C18.9224 27.4401 18.6624 27.6878 18.3342 27.564L17.0186 27.0779L17.1114 31.2973L19.0215 32.0155L19.3465 32.1363C20.9408 32.7275 22.1945 31.5295 22.1481 29.4616L22.0552 25.3413C21.9809 22.0784 19.8852 18.6794 17.3684 17.7476C14.8578 16.8189 12.8797 18.7072 12.9509 21.967ZM24.2439 32.0651L24.4915 43.1785C24.5968 47.9025 21.7209 50.6453 18.0773 49.2956C14.4368 47.9459 11.3876 43.0083 11.2823 38.2843L11.1863 34.0061L7.97302 32.8173L8.06899 37.0955C8.22687 44.1258 12.7496 51.4533 18.1702 53.4624C23.5907 55.4715 27.8596 51.3976 27.7017 44.3673L27.4541 33.2538L24.2439 32.0651ZM29.6025 38.662L29.7449 45.0205C29.8378 49.1284 28.6893 52.5337 26.5161 54.6078C24.3398 56.6819 21.3989 57.1803 18.2321 56.007C16.1053 55.2207 14.0467 53.741 12.2265 51.7226L9.96354 53.8803C12.3875 56.7964 15.2633 59.0346 18.325 60.1707C26.6492 63.254 33.1997 57.0038 32.9582 46.2092L32.8158 39.8507L29.6025 38.662ZM2.42248 17.5371L2.52152 22.0258L5.73484 23.2145L5.63577 18.7258C5.5429 14.6178 6.69141 11.2126 8.86458 9.1385C11.0408 7.0644 13.9817 6.566 17.1486 7.73926C19.2165 8.50389 21.2163 9.92171 22.9963 11.8503L25.2655 9.68644C22.8725 6.85699 20.0523 4.68692 17.0526 3.57558C8.73454 0.492285 2.18102 6.74245 2.42248 17.5371Z" fill="#063048"/>
<path d="M26.7238 17.8398C28.2252 20.9696 29.0734 24.3655 29.1477 27.6314L29.2467 32.1202L32.4601 33.3089L32.361 28.8202C32.2619 24.3222 30.9958 19.7468 28.9526 15.7162L26.7238 17.8398ZM18.9691 38.7944L19.0124 40.7076C19.0124 40.7664 19.0124 40.8221 19.0093 40.8778L19.1332 46.3541C20.9813 46.3046 22.2846 44.5586 22.2257 41.8994L22.1824 39.9863L18.9691 38.7944ZM13.629 9.92419L16.3594 14.3479C16.6009 14.4036 16.8485 14.4748 17.0962 14.5677C20.7367 15.9174 23.786 20.855 23.8912 25.579L23.95 28.2196L27.1603 29.4084L27.1014 26.7678C26.9436 19.7375 22.4208 12.41 17.0002 10.404C15.8115 9.95824 14.6754 9.81275 13.629 9.92419ZM5.67934 29.9965L5.82175 36.3551C5.89295 39.5405 6.70402 42.856 8.14041 45.9238L5.90842 48.0536C3.93028 44.0757 2.7075 39.5838 2.60844 35.1663L2.46603 28.8078L5.67934 29.9965ZM7.47173 19.4929L7.68226 28.9688L10.8956 30.1575L10.685 20.6817C10.6758 20.2947 10.6882 19.9232 10.7191 19.5641L8.01658 15.1837C7.62962 16.4437 7.43459 17.8925 7.47173 19.4929ZM12.7468 22.0871L13.1152 38.522C13.1183 38.6242 13.1214 38.7233 13.1275 38.8254C13.208 40.1658 13.9943 41.1007 14.7682 41.3886C15.5762 41.6889 16.3687 41.2834 16.3378 39.9027C16.3316 39.8408 16.3285 39.7758 16.3254 39.7139L15.9601 23.3285C15.9384 22.3936 16.474 21.7899 17.1953 22.0128C17.2169 22.019 17.2417 22.0283 17.2634 22.0345C18.0032 22.31 18.6224 23.313 18.644 24.2726L18.7091 27.133C18.7183 27.5602 18.4583 27.8079 18.1302 27.6841L16.8145 27.1981L16.9074 31.4175L18.8174 32.1357L19.1424 32.2564C20.7367 32.8477 21.9905 31.6496 21.944 29.5817L21.8512 25.4614C21.7769 22.1985 19.6811 18.7995 17.1643 17.8677C14.6537 16.9359 12.6756 18.8243 12.7468 22.0871ZM24.0398 32.1852L24.2875 43.2987C24.3927 48.0227 21.5168 50.7654 17.8732 49.4157C14.2327 48.066 11.1835 43.1284 11.0782 38.4044L10.9822 34.1262L7.76893 32.9374L7.86489 37.2157C8.02277 44.2459 12.5456 51.5734 17.9661 53.5825C23.3866 55.5916 27.6556 51.5177 27.4977 44.4874L27.25 33.3739L24.0398 32.1852ZM29.3984 38.779L29.5408 45.1375C29.6337 49.2454 28.4852 52.6507 26.312 54.7248C24.1358 56.7989 21.1949 57.2973 18.028 56.124C15.9013 55.3377 13.8426 53.858 12.0224 51.8396L9.75944 53.9973C12.1834 56.9134 15.0592 59.1516 18.1209 60.2877C26.4451 63.371 32.9956 57.1208 32.7541 46.3262L32.6117 39.9677L29.3984 38.779ZM2.21838 17.6572L2.31744 22.1459L5.53076 23.3347L5.43169 18.8459C5.33882 14.738 6.48732 11.3327 8.66048 9.25862C10.8367 7.18452 13.7776 6.68611 16.9445 7.85938C19.0124 8.62401 21.0122 10.0418 22.7923 11.9704L25.0614 9.80655C22.6684 6.97711 19.8483 4.80704 16.8486 3.69569C8.53047 0.612402 1.97692 6.86257 2.21838 17.6572Z" fill="#062F48"/>
<path d="M26.5197 17.9447C28.0211 21.0745 28.8693 24.4704 28.9436 27.7364L29.0426 32.2251L32.2559 33.4138L32.1569 28.9251C32.0578 24.4271 30.7917 19.8517 28.7486 15.8211L26.5197 17.9447ZM18.765 38.8994L18.8083 40.8125C18.8083 40.8713 18.8083 40.927 18.8052 40.9828L18.9291 46.459C20.7772 46.4095 22.0805 44.6635 22.0216 42.0043L21.9783 40.0912L18.765 38.8994ZM13.425 10.0291L16.1553 14.4528C16.3968 14.5086 16.6444 14.5798 16.8921 14.6726C20.5326 16.0223 23.5819 20.9599 23.6871 25.6839L23.7459 28.3245L26.9561 29.5133L26.8973 26.8727C26.7394 19.8424 22.2167 12.5149 16.7961 10.5089C15.6074 10.0632 14.4682 9.91457 13.425 10.0291ZM5.47524 30.0984L5.61765 36.4569C5.68885 39.6423 6.49991 42.9578 7.93631 46.0256L5.70434 48.1554C3.7262 44.1775 2.5034 39.6857 2.40433 35.2681L2.26195 28.9096L5.47524 30.0984ZM7.26765 19.5978L7.47815 29.0737L10.6915 30.2624L10.481 20.7866C10.4717 20.3996 10.4841 20.0281 10.515 19.669L7.81249 15.2887C7.42553 16.5486 7.2305 17.9943 7.26765 19.5978ZM12.5427 22.192L12.9111 38.627C12.9142 38.7291 12.9172 38.8282 12.9234 38.9303C13.0039 40.2708 13.7902 41.2057 14.5642 41.4935C15.3721 41.7938 16.1646 41.3883 16.1337 40.0076C16.1275 39.9457 16.1244 39.8807 16.1213 39.8188L15.756 23.4334C15.7343 22.4985 16.2699 21.8948 16.9912 22.1177C17.0128 22.1239 17.0376 22.1332 17.0593 22.1394C17.7991 22.4149 18.4183 23.4179 18.4399 24.3776L18.505 27.238C18.5142 27.6652 18.2542 27.9128 17.9261 27.789L16.6104 27.303L16.7033 31.5224L18.6133 32.2406L18.9384 32.3613C20.5326 32.9526 21.7864 31.7546 21.7399 29.6866L21.6471 25.5663C21.5728 22.3035 19.477 18.9044 16.9602 17.9726C14.4496 17.0408 12.4715 18.9292 12.5427 22.192ZM23.8357 32.287L24.0834 43.4005C24.1886 48.1245 21.3127 50.8673 17.6691 49.5175C14.0286 48.1678 10.9794 43.2302 10.8741 38.5062L10.7781 34.228L7.56482 33.0393L7.66079 37.3175C7.81867 44.3478 12.3415 51.6752 17.762 53.6843C23.1825 55.6934 27.4515 51.6195 27.2936 44.5892L27.0459 33.4757L23.8357 32.287ZM29.1943 38.8839L29.3367 45.2424C29.4296 49.3504 28.2811 52.7556 26.1079 54.8297C23.9317 56.9038 20.9908 57.4022 17.8239 56.229C15.6972 55.4427 13.6386 53.9629 11.8183 51.9445L9.55536 54.1022C11.9793 57.0184 14.8551 59.2565 17.9168 60.3926C26.241 63.4759 32.7915 57.2258 32.55 46.4312L32.4076 40.0726L29.1943 38.8839ZM2.01428 17.759L2.11334 22.2477L5.32665 23.4365L5.22759 18.9478C5.13472 14.8398 6.28321 11.4345 8.45638 9.36044C10.6326 7.28634 13.5735 6.78794 16.7404 7.9612C18.8083 8.72583 20.8081 10.1436 22.5882 12.0723L24.8573 9.90838C22.4643 7.07893 19.6442 4.90886 16.6444 3.79751C8.32636 0.714223 1.77281 6.96749 2.01428 17.759Z" fill="#062E48"/>
<path d="M26.3155 18.0776C27.8169 21.2073 28.6652 24.6033 28.7395 27.8692L28.8385 32.358L32.0518 33.5467L31.9528 29.058C31.8537 24.56 30.5876 19.9846 28.5444 15.954L26.3155 18.0776ZM18.5609 39.0322L18.6042 40.9454C18.6042 41.0042 18.6042 41.0599 18.6011 41.1156L18.7249 46.5919C20.5731 46.5423 21.8764 44.7964 21.8175 42.1372L21.7742 40.2241L18.5609 39.0322ZM13.2208 10.162L15.9512 14.5857C16.1927 14.6414 16.4403 14.7126 16.688 14.8055C20.3285 16.1552 23.3778 21.0928 23.483 25.8168L23.5418 28.4574L26.752 29.6462L26.6932 27.0055C26.5353 19.9753 22.0126 12.6478 16.592 10.6418C15.4002 10.1991 14.2641 10.0505 13.2208 10.162ZM5.27114 30.2343L5.41353 36.5929C5.48473 39.7783 6.29581 43.0938 7.73221 46.1616L5.50022 48.2914C3.52208 44.3135 2.29929 39.8216 2.20023 35.4041L2.05783 29.0456L5.27114 30.2343ZM7.06353 19.7338L7.27403 29.2097L10.4873 30.3984L10.2768 20.9225C10.2676 20.5356 10.2799 20.1641 10.3109 19.805L7.60837 15.4246C7.22141 16.6815 7.02638 18.1302 7.06353 19.7338ZM12.3386 22.3249L12.707 38.7598C12.7101 38.862 12.7131 38.961 12.7193 39.0632C12.7998 40.4036 13.5861 41.3385 14.36 41.6264C15.168 41.9267 15.9605 41.5212 15.9296 40.1405C15.9234 40.0786 15.9203 40.0136 15.9172 39.9517L15.5519 23.5663C15.5302 22.6314 16.0658 22.0277 16.7871 22.2506C16.8087 22.2568 16.8335 22.2661 16.8552 22.2723C17.595 22.5478 18.2142 23.5508 18.2358 24.5104L18.3008 27.3708C18.3101 27.798 18.0501 28.0457 17.7219 27.9219L16.4063 27.4358L16.4992 31.6552L18.4092 32.3734L18.7342 32.4942C20.3285 33.0855 21.5823 31.8874 21.5358 29.8195L21.443 25.6992C21.3687 22.4363 19.2729 19.0373 16.7561 18.1055C14.2455 17.1737 12.2674 19.0651 12.3386 22.3249ZM23.6316 32.423L23.8792 43.5364C23.9845 48.2604 21.1086 51.0032 17.465 49.6535C13.8214 48.3038 10.7753 43.3662 10.67 38.6422L10.574 34.364L7.36072 33.1752L7.45669 37.4534C7.61457 44.4837 12.1374 51.8112 17.5579 53.8203C22.9784 55.8294 27.2473 51.7555 27.0895 44.7252L26.8418 33.6117L23.6316 32.423ZM28.9902 39.0168L29.1326 45.3753C29.2255 49.4832 28.077 52.8885 25.9038 54.9626C23.7276 57.0367 20.7867 57.5351 17.6198 56.3618C15.4931 55.5755 13.4344 54.0958 11.6142 52.0774L9.35124 54.2351C11.7752 57.1512 14.651 59.3894 17.7127 60.5255C26.0369 63.6088 32.5874 57.3586 32.3459 46.564L32.2035 40.2055L28.9902 39.0168ZM1.81017 17.895L1.90924 22.3837L5.12255 23.5724L5.02349 19.0837C4.93062 14.9758 6.07911 11.5705 8.25228 9.49641C10.4254 7.42231 13.3694 6.92391 16.5363 8.09717C18.6042 8.8618 20.604 10.2796 22.384 12.2082L24.6532 10.0443C22.2602 7.2149 19.4401 5.04483 16.4403 3.93349C8.12226 0.850195 1.56871 7.10036 1.81017 17.895Z" fill="#062D47"/>
<path d="M26.1115 18.1814C27.6129 21.3112 28.4611 24.7071 28.5354 27.9731L28.6344 32.4618L31.8477 33.6505L31.7487 29.1618C31.6496 24.6638 30.3835 20.0884 28.3403 16.0578L26.1115 18.1814ZM18.3568 39.1361L18.4001 41.0492C18.4001 41.108 18.4001 41.1637 18.397 41.2194L18.5209 46.6957C20.369 46.6462 21.6722 44.9002 21.6134 42.241L21.5701 40.3279L18.3568 39.1361ZM13.0167 10.2658L15.7471 14.6895C15.9886 14.7452 16.2362 14.8164 16.4839 14.9093C20.1244 16.259 23.1737 21.1966 23.2789 25.9206L23.3377 28.5612L26.5479 29.75L26.4891 27.1094C26.3312 20.0791 21.8085 12.7516 16.3879 10.7456C15.1961 10.2999 14.06 10.1513 13.0167 10.2658ZM5.06704 30.3351L5.20944 36.6936C5.28065 39.879 6.09171 43.1945 7.5281 46.2623L5.29611 48.3921C3.31798 44.4142 2.09519 39.9224 1.99613 35.5048L1.85372 29.1463L5.06704 30.3351ZM6.85945 19.8345L7.06995 29.3104L10.2833 30.4991L10.0728 21.0233C10.0635 20.6363 10.0758 20.2648 10.1068 19.9057L7.40427 15.5254C7.01731 16.7853 6.8223 18.231 6.85945 19.8345ZM12.1345 22.4287L12.5029 38.8636C12.506 38.9658 12.509 39.0649 12.5152 39.167C12.5957 40.5074 13.382 41.4423 14.1559 41.7302C14.9639 42.0305 15.7564 41.625 15.7254 40.2443C15.7193 40.1824 15.7162 40.1174 15.7131 40.0555L15.3478 23.6701C15.3261 22.7352 15.8617 22.1315 16.583 22.3544C16.6046 22.3606 16.6294 22.3699 16.6511 22.3761C17.3909 22.6516 18.0101 23.6546 18.0317 24.6143L18.0967 27.4747C18.106 27.9019 17.846 28.1495 17.5179 28.0257L16.2053 27.5397L16.2982 31.7591L18.2082 32.4773L18.5332 32.598C20.1275 33.1893 21.3812 31.9912 21.3348 29.9233L21.2419 25.803C21.1676 22.5402 19.0719 19.1411 16.5551 18.2093C14.0414 17.2775 12.0633 19.1659 12.1345 22.4287ZM23.4275 32.5237L23.6751 43.6372C23.7804 48.3612 20.9045 51.1039 17.2609 49.7542C13.6204 48.4045 10.5711 43.4669 10.4659 38.7429L10.3699 34.4647L7.15662 33.276L7.25258 37.5542C7.41046 44.5844 11.9332 51.9119 17.3538 53.921C22.7743 55.9301 27.0433 51.8562 26.8854 44.8259L26.6377 33.7124L23.4275 32.5237ZM28.7861 39.1206L28.9285 45.4791C29.0214 49.5871 27.8729 52.9923 25.6997 55.0664C23.5235 57.1405 20.5826 57.6389 17.4157 56.4656C15.289 55.6793 13.2303 54.1996 11.4101 52.1812L9.14714 54.3389C11.571 57.255 14.4469 59.4932 17.5086 60.6293C25.8328 63.7126 32.3833 57.4625 32.1418 46.6678L31.9994 40.3093L28.7861 39.1206ZM1.60607 17.9957L1.70514 22.4844L4.91845 23.6732L4.81939 19.1844C4.72652 15.0765 5.87501 11.6712 8.04817 9.59714C10.2244 7.52304 13.1653 7.02463 16.3322 8.19789C18.4001 8.96252 20.3999 10.3803 22.1799 12.3089L24.4491 10.1451C22.0592 7.31872 19.239 5.14556 16.2393 4.03421C7.91816 0.954014 1.36461 7.20418 1.60607 17.9957Z" fill="#052C47"/>
<path d="M25.9073 18.31C27.4087 21.4398 28.257 24.8357 28.3313 28.1017L28.4303 32.5904L31.6436 33.7791L31.5446 29.2904C31.4455 24.7924 30.1794 20.217 28.1362 16.1864L25.9073 18.31ZM18.1527 39.2678L18.196 41.1809C18.196 41.2397 18.196 41.2954 18.1929 41.3512L18.3167 46.8274C20.1649 46.7779 21.4681 45.0319 21.4093 42.3727L21.366 40.4596L18.1527 39.2678ZM12.8095 10.3944L15.5399 14.8181C15.7814 14.8738 16.029 14.945 16.2767 15.0379C19.9172 16.3876 22.9665 21.3252 23.0717 26.0492L23.1305 28.6898L26.3407 29.8786L26.2819 27.238C26.124 20.2077 21.6013 12.8802 16.1807 10.8742C14.992 10.4316 13.8559 10.283 12.8095 10.3944ZM4.86294 30.4668L5.00532 36.8253C5.07652 40.0107 5.88759 43.3262 7.32398 46.394L5.09201 48.5238C3.11388 44.5459 1.89107 40.0541 1.79201 35.6365L1.64962 29.278L4.86294 30.4668ZM6.65223 19.9662L6.86273 29.4421L10.076 30.6308L9.86554 21.155C9.85625 20.768 9.86863 20.3965 9.89959 20.0374L7.19707 15.6571C6.8132 16.9139 6.61817 18.3627 6.65223 19.9662ZM11.9304 22.5573L12.2987 38.9922C12.3018 39.0944 12.3049 39.1935 12.3111 39.2956C12.3916 40.6361 13.1779 41.5709 13.9518 41.8588C14.7598 42.1591 15.5523 41.7536 15.5213 40.3729C15.5152 40.311 15.512 40.246 15.509 40.1841L15.1437 23.7987C15.122 22.8638 15.6575 22.2601 16.3788 22.483C16.4005 22.4892 16.4253 22.4985 16.4469 22.5047C17.1868 22.7802 17.806 23.7832 17.8276 24.7429L17.8926 27.6033C17.9019 28.0305 17.6419 28.2781 17.3137 28.1543L15.9981 27.6683L16.0909 31.8877L18.001 32.6059L18.326 32.7266C19.9203 33.3179 21.174 32.1198 21.1276 30.0519L21.0347 25.9316C20.9604 22.6688 18.8647 19.2697 16.3479 18.3379C13.8373 17.4061 11.8561 19.2976 11.9304 22.5573ZM23.2234 32.6554L23.471 43.7689C23.5763 48.4929 20.7004 51.2356 17.0568 49.8859C13.4163 48.5362 10.367 43.5986 10.2618 38.8746L10.1658 34.5964L6.95252 33.4076L7.04848 37.6859C7.20636 44.7161 11.7291 52.0436 17.1497 54.0527C22.5702 56.0618 26.8391 51.9879 26.6813 44.9576L26.4336 33.8441L23.2234 32.6554ZM28.582 39.2523L28.7244 45.6108C28.8173 49.7188 27.6688 53.124 25.4956 55.1981C23.3193 57.2722 20.3784 57.7706 17.2116 56.5973C15.0848 55.811 13.0262 54.3313 11.206 52.3129L8.94303 54.4706C11.3669 57.3867 14.2428 59.6249 17.3045 60.761C25.6287 63.8443 32.1792 57.5942 31.9377 46.7995L31.7953 40.441L28.582 39.2523ZM1.40197 18.1274L1.50102 22.6161L4.71433 23.8049L4.61527 19.3161C4.5224 15.2082 5.67091 11.8029 7.84407 9.72883C10.0172 7.65473 12.9612 7.15633 16.1281 8.32959C18.196 9.09422 20.1958 10.512 21.9758 12.4406L24.245 10.2768C21.852 7.44732 19.0318 5.27726 16.0321 4.16591C7.71404 1.08262 1.16051 7.33278 1.40197 18.1274Z" fill="#052B47"/>
<path d="M25.7032 18.4197C27.2047 21.5494 28.0529 24.9454 28.1272 28.2113L28.2262 32.7001L31.4395 33.8888L31.3405 29.4001C31.2414 24.9021 29.9753 20.3267 27.9321 16.2961L25.7032 18.4197ZM17.9486 39.3743L17.9919 41.2875C17.9919 41.3463 17.9919 41.402 17.9888 41.4577L18.1127 46.934C19.9608 46.8844 21.2641 45.1385 21.2052 42.4793L21.1619 40.5662L17.9486 39.3743ZM12.6054 10.5041L15.3358 14.9278C15.5773 14.9835 15.8249 15.0547 16.0726 15.1476C19.7131 16.4973 22.7624 21.4349 22.8676 26.1589L22.9264 28.7995L26.1367 29.9883L26.0778 27.3476C25.92 20.3174 21.3972 12.9899 15.9766 10.9839C14.7879 10.5381 13.6518 10.3895 12.6054 10.5041ZM4.65884 30.5733L4.80125 36.9319C4.87245 40.1173 5.68351 43.4328 7.11991 46.5006L4.88792 48.6304C2.90978 44.6525 1.68699 40.1606 1.58793 35.7431L1.44552 29.3846L4.65884 30.5733ZM6.44815 20.0728L6.65865 29.5487L9.87197 30.7374L9.66144 21.2616C9.65216 20.8746 9.66455 20.5031 9.69551 20.144L6.99297 15.7636C6.60911 17.0236 6.4141 18.4723 6.44815 20.0728ZM11.7263 22.667L12.0947 39.1019C12.0978 39.2041 12.1008 39.3031 12.107 39.4053C12.1875 40.7457 12.9738 41.6806 13.7477 41.9685C14.5557 42.2688 15.3482 41.8633 15.3173 40.4826C15.3111 40.4207 15.308 40.3557 15.3049 40.2938L14.9396 23.9084C14.9179 22.9735 15.4535 22.3698 16.1748 22.5927C16.1964 22.5989 16.2212 22.6082 16.2429 22.6144C16.9827 22.8899 17.6019 23.8929 17.6235 24.8525L17.6886 27.7129C17.6978 28.1401 17.4378 28.3878 17.1097 28.264L15.7971 27.7779L15.89 31.9973L17.8 32.7155L18.125 32.8363C19.7193 33.4276 20.9731 32.2295 20.9266 30.1616L20.8338 26.0413C20.7595 22.7784 18.6637 19.3794 16.1469 18.4476C13.6332 17.5158 11.652 19.4041 11.7263 22.667ZM23.0193 32.7651L23.267 43.8785C23.3722 48.6025 20.4963 51.3453 16.8527 49.9956C13.2122 48.6459 10.163 43.7083 10.0577 38.9843L9.96173 34.7061L6.74842 33.5173L6.84439 37.7955C7.00226 44.8258 11.5251 52.1533 16.9456 54.1624C22.3661 56.1715 26.635 52.0976 26.4772 45.0673L26.2295 33.9538L23.0193 32.7651ZM28.3779 39.3589L28.5203 45.7174C28.6132 49.8253 27.4647 53.2306 25.2915 55.3047C23.1153 57.3788 20.1744 57.8772 17.0075 56.7039C14.8808 55.9176 12.8221 54.4379 11.0019 52.4195L8.73894 54.5772C11.1629 57.4933 14.0387 59.7315 17.1004 60.8676C25.4246 63.9509 31.9751 57.7007 31.7336 46.9061L31.5912 40.5476L28.3779 39.3589ZM1.19787 18.234L1.29694 22.7227L4.51025 23.9114L4.41119 19.4227C4.31832 15.3148 5.46681 11.9095 7.63998 9.83542C9.81624 7.76132 12.7571 7.26291 15.924 8.43617C17.9919 9.2008 19.9917 10.6186 21.7718 12.5472L24.0409 10.3834C21.6479 7.55391 18.8278 5.38384 15.828 4.27249C7.50687 1.1923 0.95641 7.44246 1.19787 18.234Z" fill="#052A46"/>
<path d="M25.4982 18.5319C26.9996 21.6616 27.8478 25.0576 27.9221 28.3235L28.0211 32.8122L31.2344 34.001L31.1354 29.5122C31.0363 25.0142 29.7702 20.4388 27.7271 16.4083L25.4982 18.5319ZM17.7435 39.4865L17.7868 41.3996C17.7868 41.4585 17.7868 41.5142 17.7837 41.5699L17.9076 47.0462C19.7557 46.9966 21.059 45.2507 21.0001 42.5915L20.9568 40.6783L17.7435 39.4865ZM12.4004 10.6132L15.1308 15.0369C15.3722 15.0926 15.6199 15.1638 15.8675 15.2567C19.508 16.6064 22.5573 21.544 22.6625 26.268L22.7213 28.9086L25.9316 30.0973L25.8727 27.4567C25.7149 20.4264 21.1921 13.099 15.7715 11.093C14.5828 10.6503 13.4467 10.5017 12.4004 10.6132ZM4.45376 30.6855L4.59617 37.044C4.66737 40.2295 5.47843 43.5449 6.91482 46.6128L4.68285 48.7426C2.70472 44.7646 1.48191 40.2728 1.38285 35.8553L1.24046 29.4968L4.45376 30.6855ZM6.24307 20.185L6.45357 29.6608L9.66688 30.8496L9.45638 21.3737C9.44709 20.9868 9.45947 20.6153 9.49043 20.2562L6.78791 15.8758C6.40405 17.1326 6.20901 18.5814 6.24307 20.185ZM11.5212 22.7761L11.8896 39.211C11.8927 39.3132 11.8958 39.4122 11.902 39.5144C11.9824 40.8548 12.7688 41.7897 13.5427 42.0776C14.3506 42.3779 15.1431 41.9723 15.1122 40.5917C15.106 40.5298 15.1029 40.4647 15.0998 40.4028L14.7345 24.0174C14.7128 23.0825 15.2484 22.4789 15.9697 22.7018C15.9913 22.708 16.0161 22.7172 16.0378 22.7234C16.7777 22.9989 17.3968 24.0019 17.4184 24.9616L17.4835 27.822C17.4928 28.2492 17.2327 28.4969 16.9046 28.373L15.5889 27.887L15.6818 32.1064L17.5918 32.8246L17.9169 32.9454C19.5111 33.5366 20.7649 32.3386 20.7184 30.2707L20.6256 26.1503C20.5513 22.8875 18.4555 19.4885 15.9387 18.5567C13.4281 17.6249 11.4469 19.5163 11.5212 22.7761ZM22.8142 32.8742L23.0619 43.9876C23.1671 48.7116 20.2912 51.4544 16.6476 50.1047C13.0071 48.755 9.95787 43.8174 9.85262 39.0934L9.75665 34.8151L6.54334 33.6264L6.6393 37.9046C6.79718 44.9349 11.32 52.2624 16.7405 54.2715C22.161 56.2805 26.43 52.2066 26.2721 45.1764L26.0244 34.0629L22.8142 32.8742ZM28.1697 39.471L28.3121 45.8295C28.405 49.9375 27.2565 53.3428 25.0833 55.4169C22.9071 57.491 19.9662 57.9894 16.7993 56.8161C14.6726 56.0298 12.614 54.5501 10.7937 52.5317L8.53078 54.6894C10.9547 57.6055 13.8306 59.8437 16.8922 60.9798C25.2165 64.0631 31.7669 57.8129 31.5254 47.0183L31.3831 40.6598L28.1697 39.471ZM0.992795 18.3461L1.09186 22.8349L4.30517 24.0236L4.20611 19.5349C4.11324 15.4269 5.26173 12.0217 7.43489 9.94758C9.60806 7.87348 12.552 7.37508 15.7189 8.54834C17.7868 9.31297 19.7866 10.7308 21.5667 12.6594L23.8358 10.4955C21.4428 7.66607 18.6227 5.49601 15.623 4.38466C7.30178 1.30137 0.751332 7.55153 0.992795 18.3461Z" fill="#042946"/>
<path d="M25.2941 18.6562C26.7955 21.786 27.6437 25.1819 27.718 28.4478L27.817 32.9366L31.0303 34.1253L30.9313 29.6366C30.8322 25.1386 29.5661 20.5632 27.5229 16.5326L25.2941 18.6562ZM17.5394 39.6108L17.5827 41.524C17.5827 41.5828 17.5827 41.6385 17.5796 41.6942L17.7034 47.1705C19.5516 47.121 20.8549 45.375 20.796 42.7158L20.7527 40.8027L17.5394 39.6108ZM12.1962 10.7406L14.9266 15.1643C15.1681 15.22 15.4158 15.2912 15.6634 15.3841C19.3039 16.7338 22.3532 21.6714 22.4584 26.3954L22.5172 29.036L25.7275 30.2248L25.6686 27.5842C25.5108 20.5539 20.988 13.2264 15.5674 11.2204C14.3787 10.7746 13.2426 10.6291 12.1962 10.7406ZM4.24966 30.8098L4.39205 37.1684C4.46325 40.3538 5.27433 43.6693 6.71072 46.7371L4.47873 48.8669C2.5006 44.889 1.27781 40.3971 1.17875 35.9796L1.03634 29.6211L4.24966 30.8098ZM6.03895 20.3093L6.24945 29.7852L9.46276 30.9739L9.25226 21.4981C9.24297 21.1111 9.25537 20.7396 9.28633 20.3805L6.58379 16.0001C6.19992 17.2601 6.00489 18.7089 6.03895 20.3093ZM11.3171 22.9035L11.6855 39.3384C11.6886 39.4406 11.6917 39.5396 11.6979 39.6418C11.7783 40.9822 12.5646 41.9171 13.3386 42.205C14.1465 42.5053 14.939 42.0998 14.9081 40.7191C14.9019 40.6572 14.8988 40.5922 14.8957 40.5303L14.5304 24.1449C14.5087 23.21 15.0443 22.6063 15.7656 22.8292C15.7872 22.8354 15.812 22.8447 15.8337 22.8509C16.5735 23.1264 17.1927 24.1294 17.2143 25.089L17.2793 27.9494C17.2886 28.3766 17.0286 28.6243 16.7005 28.5005L15.3879 28.0145L15.4808 32.2339L17.3908 32.9521L17.7158 33.0728C19.3101 33.6641 20.5639 32.466 20.5174 30.3981L20.4246 26.2778C20.3503 23.0149 18.2545 19.6159 15.7377 18.6841C13.224 17.7523 11.2428 19.6407 11.3171 22.9035ZM22.6101 33.0016L22.8578 44.1151C22.963 48.8391 20.0871 51.5818 16.4435 50.2321C12.803 48.8824 9.75377 43.9448 9.64851 39.2208L9.55255 34.9426L6.33924 33.7538L6.4352 38.0321C6.59308 45.0623 11.1159 52.3898 16.5364 54.3989C21.9569 56.408 26.2258 52.3341 26.068 45.3038L25.8203 34.1903L22.6101 33.0016ZM27.9656 39.5954L28.108 45.9539C28.2009 50.0618 27.0524 53.4671 24.8792 55.5412C22.703 57.6153 19.7621 58.1137 16.5952 56.9404C14.4685 56.1541 12.4099 54.6744 10.5896 52.656L8.32666 54.8137C10.7506 57.7298 13.6265 59.968 16.6881 61.1041C25.0123 64.1874 31.5628 57.9372 31.3213 47.1426L31.1789 40.7841L27.9656 39.5954ZM0.788693 18.4736L0.887757 22.9623L4.10107 24.1511L4.00201 19.6623C3.90914 15.5544 5.05763 12.1491 7.23079 10.075C9.40705 8.00092 12.3479 7.50252 15.5148 8.67578C17.5827 9.44041 19.5825 10.8582 21.3625 12.7868L23.6317 10.623C21.2387 7.79351 18.4186 5.62345 15.4189 4.5121C7.09768 1.42881 0.547231 7.67897 0.788693 18.4736Z" fill="#042845"/>
<path d="M25.0958 18.7612C26.5972 21.8909 27.4454 25.2868 27.5197 28.5528L27.6188 33.0415L30.8321 34.2302L30.733 29.7415C30.634 25.2435 29.3678 20.6681 27.3247 16.6375L25.0958 18.7612ZM17.3411 39.7158L17.3845 41.6289C17.3845 41.6877 17.3845 41.7435 17.3814 41.7992L17.5052 47.2754C19.3533 47.2259 20.6566 45.4799 20.5978 42.8207L20.5545 40.9076L17.3411 39.7158ZM11.998 10.8455L14.7284 15.2692C14.9699 15.325 15.2175 15.3962 15.4652 15.489C19.1057 16.8387 22.1549 21.7763 22.2602 26.5003L22.319 29.141L25.5292 30.3297L25.4704 27.6891C25.3125 20.6588 20.7897 13.3313 15.3692 11.3253C14.1805 10.8796 13.0444 10.731 11.998 10.8455ZM4.05141 30.9148L4.19382 37.2733C4.26502 40.4587 5.07609 43.7742 6.51248 46.842L4.28049 48.9718C2.30235 44.9939 1.07957 40.5021 0.980509 36.0846L0.838101 29.726L4.05141 30.9148ZM5.84072 20.4142L6.05123 29.8901L9.26454 31.0788L9.05404 21.603C9.04475 21.216 9.05713 20.8445 9.08808 20.4854L6.38557 16.1051C6.0017 17.3619 5.80667 18.8107 5.84072 20.4142ZM11.1188 23.0053L11.4872 39.4403C11.4903 39.5424 11.4934 39.6415 11.4996 39.7436C11.5801 41.0841 12.3664 42.019 13.1403 42.3069C13.9483 42.6071 14.7408 42.2016 14.7098 40.8209C14.7036 40.759 14.7005 40.694 14.6974 40.6321L14.3322 24.2467C14.3105 23.3118 14.846 22.7081 15.5673 22.931C15.589 22.9372 15.6138 22.9465 15.6354 22.9527C16.3753 23.2282 16.9944 24.2312 17.0161 25.1909L17.0811 28.0513C17.0904 28.4785 16.8304 28.7261 16.5022 28.6023L15.1866 28.1163L15.2794 32.3357L17.1895 33.0539L17.5145 33.1746C19.1088 33.7659 20.3625 32.5679 20.3161 30.5L20.2232 26.3796C20.1489 23.1168 18.0532 19.7177 15.5364 18.7859C13.0258 17.8572 11.0445 19.7456 11.1188 23.0053ZM22.4119 33.1034L22.6595 44.2169C22.7648 48.9409 19.8889 51.6837 16.2453 50.3339C12.6048 48.9842 9.55553 44.0466 9.45027 39.3226L9.35431 35.0444L6.14099 33.8557L6.23696 38.1339C6.39484 45.1642 10.9176 52.4916 16.3382 54.5007C21.7587 56.5098 26.0276 52.4359 25.8697 45.4056L25.6221 34.2922L22.4119 33.1034ZM27.7674 39.7003L27.9098 46.0588C28.0027 50.1668 26.8542 53.572 24.681 55.6461C22.5047 57.7202 19.5638 58.2186 16.397 57.0454C14.2702 56.2591 12.2116 54.7793 10.3914 52.761L8.12843 54.9186C10.5523 57.8348 13.4282 60.0729 16.4898 61.209C24.8141 64.2923 31.3646 58.0422 31.1231 47.2476L30.9807 40.889L27.7674 39.7003ZM0.590451 18.5754L0.689515 23.0641L3.90283 24.2529L3.80376 19.7642C3.71089 15.6562 4.85939 12.251 7.03255 10.1768C9.20881 8.10275 12.1497 7.60434 15.3166 8.7776C17.3845 9.54224 19.3843 10.9601 21.1643 12.8887L23.4334 10.7248C21.0405 7.89534 18.2203 5.72527 15.2206 4.61392C6.89944 1.53063 0.348988 7.78389 0.590451 18.5754Z" fill="#042745"/>
<path d="M24.9005 18.894C26.4019 22.0238 27.2501 25.4197 27.3244 28.6857L27.4235 33.1744L30.6368 34.3631L30.5377 29.8744C30.4387 25.3764 29.1725 20.801 27.1294 16.7704L24.9005 18.894ZM17.1427 39.8487L17.1861 41.7618C17.1861 41.8206 17.1861 41.8763 17.183 41.932L17.3068 47.4083C19.1549 47.3588 20.4582 45.6128 20.3994 42.9536L20.3561 41.0405L17.1427 39.8487ZM11.8027 10.9784L14.5331 15.4021C14.7745 15.4578 15.0222 15.529 15.2699 15.6219C18.9104 16.9716 21.9596 21.9092 22.0649 26.6332L22.1237 29.2738L25.3339 30.4626L25.2751 27.822C25.1172 20.7917 20.5944 13.4642 15.1739 11.4582C13.9852 11.0124 12.849 10.8669 11.8027 10.9784ZM3.8561 31.0507L3.99849 37.4093C4.06969 40.5947 4.88076 43.9102 6.31715 46.978L4.08518 49.1078C2.10704 45.1299 0.88424 40.6381 0.785178 36.2205L0.642789 29.862L3.8561 31.0507ZM5.64539 20.5471L5.8559 30.023L9.06921 31.2117L8.85871 21.7359C8.84942 21.3489 8.8618 20.9774 8.89275 20.6183L6.19024 16.2379C5.80637 17.4979 5.61134 18.9467 5.64539 20.5471ZM10.9235 23.1413L11.2919 39.5762C11.295 39.6784 11.2981 39.7775 11.3043 39.8796C11.3848 41.22 12.1711 42.1549 12.945 42.4428C13.753 42.7431 14.5455 42.3376 14.5145 40.9569C14.5083 40.895 14.5052 40.83 14.5021 40.7681L14.1368 24.3827C14.1152 23.4478 14.6507 22.8441 15.372 23.067C15.3937 23.0732 15.4184 23.0825 15.4401 23.0887C16.18 23.3642 16.7991 24.3672 16.8208 25.3268L16.8858 28.1872C16.8951 28.6145 16.635 28.8621 16.3069 28.7383L14.9912 28.2523L15.0841 32.4717L16.9942 33.1899L17.3192 33.3106C18.9135 33.9019 20.1672 32.7038 20.1208 30.6359L20.0279 26.5156C19.9536 23.2527 17.8578 19.8537 15.3411 18.9219C12.8305 17.9901 10.8492 19.8785 10.9235 23.1413ZM22.2166 33.2394L22.4642 44.3529C22.5695 49.0769 19.6936 51.8196 16.05 50.4699C12.4094 49.1202 9.36022 44.1826 9.25496 39.4586L9.159 35.1804L5.94568 33.9916L6.04165 38.2699C6.19953 45.3001 10.7223 52.6276 16.1428 54.6367C21.5634 56.6458 25.8323 52.5719 25.6744 45.5416L25.4268 34.4281L22.2166 33.2394ZM27.5721 39.8332L27.7145 46.1917C27.8074 50.2997 26.6588 53.7049 24.4857 55.779C22.3094 57.8531 19.3685 58.3515 16.2017 57.1782C14.0749 56.3919 12.0163 54.9122 10.196 52.8938L7.9331 55.0515C10.357 57.9676 13.2329 60.2058 16.2945 61.3419C24.6188 64.4252 31.1692 58.1751 30.9278 47.3804L30.7854 41.0219L27.5721 39.8332ZM0.395139 18.7114L0.494184 23.2001L3.7075 24.3889L3.60843 19.9001C3.51556 15.7922 4.66408 12.3869 6.83724 10.3128C9.0135 8.23872 11.9544 7.74031 15.1213 8.91358C17.1892 9.67821 19.189 11.096 20.969 13.0246L23.2381 10.8608C20.8452 8.03131 18.025 5.86124 15.0253 4.74989C6.70411 1.6666 0.153676 7.91677 0.395139 18.7114Z" fill="#042645"/>
<path d="M24.7071 18.999C26.2085 22.1287 27.0568 25.5246 27.1311 28.7906L27.2301 33.2793L30.4434 34.468L30.3444 29.9793C30.2453 25.4813 28.9792 20.9059 26.936 16.8753L24.7071 18.999ZM16.9494 39.9536L16.9927 41.8667C16.9927 41.9255 16.9927 41.9812 16.9896 42.037L17.1135 47.5132C18.9616 47.4637 20.2649 45.7177 20.206 43.0585L20.1627 41.1454L16.9494 39.9536ZM11.6093 11.0833L14.3397 15.507C14.5812 15.5628 14.8288 15.634 15.0765 15.7268C18.717 17.0765 21.7663 22.0141 21.8715 26.7381L21.9303 29.3787L25.1405 30.5675L25.0817 27.9269C24.9238 20.8966 20.4011 13.5691 14.9805 11.5631C13.7918 11.1174 12.6557 10.9688 11.6093 11.0833ZM3.66274 31.1526L3.80515 37.5111C3.87635 40.6965 4.68741 44.012 6.12381 47.0798L3.89182 49.2096C1.91368 45.2317 0.690899 40.7399 0.591837 36.3223L0.44943 29.9638L3.66274 31.1526ZM5.45205 20.652L5.66256 30.1279L8.87587 31.3166L8.66535 21.8408C8.65606 21.4538 8.66846 21.0823 8.69941 20.7232L5.99687 16.3429C5.60991 17.6028 5.418 19.0485 5.45205 20.652ZM10.7302 23.2462L11.0986 39.6812C11.1017 39.7833 11.1047 39.8824 11.1109 39.9845C11.1914 41.325 11.9777 42.2598 12.7516 42.5477C13.5596 42.848 14.3521 42.4425 14.3211 41.0618C14.315 40.9999 14.3119 40.9349 14.3088 40.873L13.9435 24.4876C13.9218 23.5527 14.4574 22.949 15.1787 23.1719C15.2003 23.1781 15.2251 23.1874 15.2468 23.1936C15.9866 23.4691 16.6058 24.4721 16.6274 25.4318L16.6924 28.2922C16.7017 28.7194 16.4417 28.967 16.1136 28.8432L14.7979 28.3572L14.8908 32.5766L16.8008 33.2948L17.1258 33.4155C18.7201 34.0068 19.9738 32.8088 19.9274 30.7408L19.8345 26.6205C19.7603 23.3577 17.6645 19.9586 15.1477 19.0268C12.6371 18.095 10.6559 19.9834 10.7302 23.2462ZM22.0201 33.3412L22.2677 44.4547C22.373 49.1787 19.4971 51.9214 15.8535 50.5717C12.213 49.222 9.16375 44.2844 9.0585 39.5604L8.96254 35.2822L5.74922 34.0935L5.84519 38.3717C6.00307 45.402 10.5259 52.7294 15.9464 54.7385C21.3669 56.7476 25.6359 52.6737 25.478 45.6434L25.2303 34.53L22.0201 33.3412ZM27.3787 39.9381L27.5211 46.2966C27.614 50.4046 26.4655 53.8098 24.2923 55.8839C22.1161 57.958 19.1752 58.4564 16.0083 57.2832C13.8816 56.4969 11.8229 55.0171 10.0027 52.9987L7.73974 55.1564C10.1637 58.0726 13.0395 60.3107 16.1012 61.4468C24.4254 64.5301 30.9759 58.28 30.7344 47.4854L30.592 41.1268L27.3787 39.9381ZM0.201779 18.8132L0.300843 23.3019L3.51416 24.4907L3.41509 20.0019C3.32222 15.894 4.47071 12.4887 6.64388 10.4146C8.82014 8.34054 11.761 7.84214 14.9279 9.0154C16.9958 9.78003 18.9956 11.1978 20.7756 13.1265L23.0448 10.9626C20.6518 8.13313 17.8317 5.96306 14.8319 4.85171C6.51077 1.76842 -0.0396834 8.02168 0.201779 18.8132Z" fill="#032544"/>
<path d="M24.5118 19.1191C26.0132 22.2489 26.8614 25.6448 26.9357 28.9107L27.0348 33.3995L30.2481 34.5882L30.1491 30.0995C30.05 25.6015 28.7839 21.0261 26.7407 16.9955L24.5118 19.1191ZM16.7541 40.0737L16.7974 41.9869C16.7974 42.0457 16.7974 42.1014 16.7943 42.1571L16.9181 47.6334C18.7663 47.5839 20.0695 45.8379 20.0107 43.1787L19.9674 41.2656L16.7541 40.0737ZM11.414 11.2035L14.1444 15.6272C14.3859 15.6829 14.6335 15.7541 14.8812 15.847C18.5217 17.1967 21.5709 22.1343 21.6762 26.8583L21.735 29.4989L24.9452 30.6877L24.8864 28.0471C24.7285 21.0168 20.2057 13.6893 14.7852 11.6833C13.5965 11.2406 12.4604 11.092 11.414 11.2035ZM3.46743 31.2758L3.60984 37.6344C3.68104 40.8198 4.4921 44.1353 5.9285 47.2031L3.69653 49.3329C1.71839 45.355 0.495586 40.8631 0.396525 36.4456L0.254136 30.0871L3.46743 31.2758ZM5.25674 20.7753L5.46724 30.2512L8.68056 31.4399L8.47005 21.9641C8.46076 21.5771 8.47314 21.2056 8.5041 20.8465L5.80158 16.4661C5.41462 17.723 5.22269 19.1718 5.25674 20.7753ZM10.5349 23.3664L10.9032 39.8013C10.9063 39.9035 10.9094 40.0025 10.9156 40.1047C10.9961 41.4451 11.7824 42.38 12.5563 42.6679C13.3643 42.9682 14.1568 42.5627 14.1259 41.182C14.1197 41.1201 14.1166 41.0551 14.1135 40.9932L13.7482 24.6078C13.7265 23.6729 14.2621 23.0692 14.9833 23.2921C15.005 23.2983 15.0298 23.3076 15.0515 23.3138C15.7913 23.5893 16.4104 24.5923 16.4321 25.5519L16.4971 28.4123C16.5064 28.8395 16.2464 29.0872 15.9182 28.9634L14.6026 28.4774L14.6954 32.6968L16.6055 33.415L16.9305 33.5357C18.5248 34.127 19.7786 32.9289 19.7321 30.861L19.6393 26.7407C19.565 23.4778 17.4692 20.0788 14.9524 19.147C12.4418 18.2152 10.4606 20.1066 10.5349 23.3664ZM21.8248 33.4645L22.0725 44.578C22.1777 49.302 19.3018 52.0447 15.6582 50.695C12.0146 49.3453 8.96846 44.4077 8.86321 39.6837L8.76724 35.4055L5.55393 34.2167L5.6499 38.495C5.80778 45.5252 10.3306 52.8527 15.7511 54.8618C21.1716 56.8709 25.4405 52.797 25.2827 45.7667L25.035 34.6532L21.8248 33.4645ZM27.1834 40.0614L27.3258 46.4199C27.4187 50.5278 26.2702 53.9331 24.097 56.0072C21.9208 58.0813 18.9799 58.5797 15.813 57.4064C13.6863 56.6201 11.6276 55.1404 9.80739 53.122L7.54445 55.2797C9.96836 58.1958 12.8442 60.434 15.9059 61.5701C24.2301 64.6534 30.7806 58.4032 30.5391 47.6086L30.3967 41.2501L27.1834 40.0614ZM0.00646675 18.9365L0.105531 23.4252L3.31884 24.6139L3.21978 20.1252C3.12691 16.0173 4.2754 12.612 6.44857 10.5379C8.62173 8.46381 11.5657 7.96541 14.7326 9.13867C16.8005 9.9033 18.8003 11.3211 20.5803 13.2497L22.8495 11.0859C20.4565 8.25641 17.6363 6.08634 14.6366 4.97499C6.31546 1.8917 -0.234996 8.14187 0.00646675 18.9365Z" fill="#032444"/>
<path d="M24.5118 19.1191C26.0132 22.2489 26.8614 25.6448 26.9357 28.9107L27.0348 33.3995L30.2481 34.5882L30.1491 30.0995C30.05 25.6015 28.7839 21.0261 26.7407 16.9955L24.5118 19.1191ZM3.46743 31.2758L3.60984 37.6344C3.68104 40.8198 4.4921 44.1353 5.9285 47.2031L3.69653 49.3329C1.71839 45.355 0.495586 40.8631 0.396525 36.4456L0.254136 30.0871L3.46743 31.2758ZM5.25674 20.7753L5.46724 30.2512L8.68056 31.4399L8.47005 21.9641C8.46076 21.5771 8.47314 21.2056 8.5041 20.8465L5.80158 16.4661C5.41462 17.723 5.22269 19.1718 5.25674 20.7753ZM16.7541 40.0737L16.7974 41.9869C16.7974 42.0457 16.7974 42.1014 16.7943 42.1571L16.9181 47.6334C18.7663 47.5839 20.0695 45.8379 20.0107 43.1787L19.9674 41.2656L16.7541 40.0737ZM10.5349 23.3664L10.9032 39.8013C10.9063 39.9035 10.9094 40.0025 10.9156 40.1047C10.9961 41.4451 11.7824 42.38 12.5563 42.6679C13.3643 42.9682 14.1568 42.5627 14.1259 41.182C14.1197 41.1201 14.1166 41.0551 14.1135 40.9932L13.7482 24.6078C13.7265 23.6729 14.2621 23.0692 14.9833 23.2921C15.005 23.2983 15.0298 23.3076 15.0515 23.3138C15.7913 23.5893 16.4104 24.5923 16.4321 25.5519L16.4971 28.4123C16.5064 28.8395 16.2464 29.0872 15.9182 28.9634L14.6026 28.4774L14.6954 32.6968L16.6055 33.415L16.9305 33.5357C18.5248 34.127 19.7786 32.9289 19.7321 30.861L19.6393 26.7407C19.565 23.4778 17.4692 20.0788 14.9524 19.147C12.4418 18.2152 10.4606 20.1066 10.5349 23.3664ZM21.8248 33.4645L22.0725 44.578C22.1777 49.302 19.3018 52.0447 15.6582 50.695C12.0146 49.3453 8.96846 44.4077 8.86321 39.6837L8.76724 35.4055L5.55393 34.2167L5.6499 38.495C5.80778 45.5252 10.3306 52.8527 15.7511 54.8618C21.1716 56.8709 25.4405 52.797 25.2827 45.7667L25.035 34.6532L21.8248 33.4645ZM27.1834 40.0614L27.3258 46.4199C27.4187 50.5278 26.2702 53.9331 24.097 56.0072C21.9208 58.0813 18.9799 58.5797 15.813 57.4064C13.6863 56.6201 11.6276 55.1404 9.80739 53.122L7.54445 55.2797C9.96836 58.1958 12.8442 60.434 15.9059 61.5701C24.2301 64.6534 30.7806 58.4032 30.5391 47.6086L30.3967 41.2501L27.1834 40.0614ZM11.414 11.2035L14.1444 15.6272C14.3859 15.6829 14.6335 15.7541 14.8812 15.847C18.5217 17.1967 21.5709 22.1343 21.6762 26.8583L21.735 29.4989L24.9452 30.6877L24.8864 28.0471C24.7285 21.0168 20.2057 13.6893 14.7852 11.6833C13.5965 11.2406 12.4604 11.092 11.414 11.2035ZM0.00646675 18.9365L0.105531 23.4252L3.31884 24.6139L3.21978 20.1252C3.12691 16.0173 4.2754 12.612 6.44857 10.5379C8.62173 8.46381 11.5657 7.96541 14.7326 9.13867C16.8005 9.9033 18.8003 11.3211 20.5803 13.2497L22.8495 11.0859C20.4565 8.25641 17.6363 6.08634 14.6366 4.97499C6.31546 1.8917 -0.234996 8.14187 0.00646675 18.9365Z" fill="#00C39D"/>
</svg>
