<svg width="248" height="52" viewBox="0 0 248 52" fill="none" xmlns="http://www.w3.org/2000/svg">
<path fill-rule="evenodd" clip-rule="evenodd" d="M32.5014 47.2729V28.3636H27.8585V52H51.0736V47.2729H32.5014ZM4.64335 42.5459H0V52H4.64335V42.5459ZM18.5724 37.8181H4.64335V42.5459H18.5724V52H23.2157V42.5459H18.5724V37.8181H23.2157V28.3636H18.5724V37.8181ZM4.64335 28.3636H0V37.8181H4.64335V28.3636ZM46.431 9.45471H32.5014V0H27.8585V14.1818H46.431V18.9088H27.8585V23.6365H51.0736V0H46.431V9.45471ZM23.2157 0H0V23.6365H4.64335V14.1818H23.2157V0ZM4.64335 4.72707V9.45471H18.5724V4.72707H4.64335Z" fill="url(#paint0_linear_734_276)"/>
<g opacity="0.6">
<path opacity="0.6" d="M9.28845 52V47.2729H13.9318V52H9.28845Z" fill="url(#paint1_linear_734_276)"/>
<path opacity="0.6" d="M37.147 42.5459V37.8181H41.7896V42.5459H37.147Z" fill="url(#paint2_linear_734_276)"/>
<path opacity="0.6" d="M46.433 42.5458V33.091H37.147V28.3635H51.0761V42.5458H46.433Z" fill="url(#paint3_linear_734_276)"/>
<path opacity="0.6" d="M9.28845 33.091V28.3635H13.9318V33.091H9.28845Z" fill="url(#paint4_linear_734_276)"/>
<path opacity="0.6" d="M23.218 18.9089V23.6365H9.28845V18.9089H23.218Z" fill="url(#paint5_linear_734_276)"/>
<path opacity="0.6" d="M37.147 4.72707V0H41.7896V4.72707H37.147Z" fill="url(#paint6_linear_734_276)"/>
</g>
<path d="M62.474 26.0036V0.614358H69.0372C70.0735 0.614358 71.0866 0.798576 72.077 1.16705C73.0673 1.53552 73.9078 2.11122 74.5986 2.89421C75.3127 3.6772 75.8076 4.57532 76.084 5.58857C76.3835 6.60182 76.5331 7.62662 76.5331 8.66291C76.5331 9.67616 76.3835 10.6895 76.084 11.7027C75.8076 12.716 75.3127 13.6141 74.5986 14.3971C73.9078 15.1801 73.0673 15.7558 72.077 16.1242C71.0866 16.4927 70.0735 16.6769 69.0372 16.6769H66.9301V26.0036H62.474ZM66.9301 12.6699H69.0372C69.659 12.6699 70.2231 12.4627 70.7298 12.0481C71.2594 11.6336 71.6165 11.127 71.8006 10.5282C71.9848 9.90646 72.077 9.28469 72.077 8.66291C72.077 8.01809 71.9848 7.39632 71.8006 6.79758C71.6165 6.1758 71.2594 5.65766 70.7298 5.24314C70.2231 4.82862 69.659 4.62136 69.0372 4.62136H66.9301V12.6699ZM85.9633 26.0036V16.2969L83.269 10.8046C81.8182 7.85692 81.0927 4.96679 81.0927 2.13426V0.614358H85.5488V2.13426C85.5488 4.4141 86.1129 6.71699 87.2414 9.04289L88.1741 10.9082L89.1068 9.04289C90.2353 6.71699 90.7994 4.4141 90.7994 2.13426V0.614358H95.2554V2.13426C95.2554 4.96679 94.53 7.85692 93.0792 10.8046L90.3849 16.2969V26.0036H85.9633ZM100.091 26.0036V24.7255C100.091 22.2614 100.84 19.7628 102.337 17.2296L104.651 13.2917L102.337 9.38832C100.84 6.85516 100.091 4.35652 100.091 1.89245V0.614358H104.548V1.89245C104.548 3.6887 105.089 5.50798 106.171 7.35027L107.173 9.04289L108.175 7.35027C109.257 5.50798 109.798 3.6887 109.798 1.89245V0.614358H114.254V1.89245C114.254 4.35652 113.506 6.85516 112.009 9.38832L109.694 13.2917L112.009 17.2296C113.506 19.7628 114.254 22.2614 114.254 24.7255V26.0036H109.798V24.7255C109.798 22.9292 109.257 21.1099 108.175 19.2677L107.173 17.575L106.171 19.2677C105.089 21.1099 104.548 22.9292 104.548 24.7255V26.0036H100.091ZM119.885 26.0036V0.614358H133.253V4.62136H124.306V10.2864H131.146V14.2934H124.306V21.9966H133.253V26.0036H119.885ZM138.883 26.0036V0.614358H143.305V21.9966H152.528V26.0036H138.883ZM164.204 26.2799C163.213 26.2799 162.235 26.1187 161.267 25.7963C160.323 25.4739 159.494 24.9558 158.78 24.2419C158.089 23.505 157.583 22.6529 157.26 21.6857C156.961 20.7185 156.811 19.7398 156.811 18.7495V7.86842C156.811 6.87817 156.961 5.89946 157.26 4.93225C157.583 3.96504 158.089 3.12451 158.78 2.4106C159.494 1.67369 160.323 1.14401 161.267 0.821617C162.235 0.499226 163.213 0.338013 164.204 0.338013C165.309 0.338013 166.391 0.545272 167.451 0.959789C168.51 1.37431 169.385 2.04213 170.076 2.96329C170.767 3.86141 171.216 4.86316 171.423 5.96855L167.105 6.9703C167.036 6.48669 166.875 6.03763 166.622 5.62311C166.368 5.2086 166.023 4.89771 165.585 4.69045C165.148 4.46015 164.687 4.34502 164.204 4.34502C163.628 4.34502 163.087 4.51773 162.58 4.86316C162.096 5.18556 161.751 5.62311 161.544 6.1758C161.36 6.7285 161.267 7.29269 161.267 7.86842V18.7495C161.267 19.3252 161.36 19.8894 161.544 20.4421C161.751 20.9948 162.096 21.4439 162.58 21.7893C163.087 22.1117 163.628 22.2729 164.204 22.2729C164.687 22.2729 165.148 22.1693 165.585 21.962C166.023 21.7317 166.368 21.4093 166.622 20.9948C166.875 20.5803 167.036 20.1312 167.105 19.6476L171.423 20.6494C171.216 21.7548 170.767 22.768 170.076 23.6892C169.385 24.5873 168.51 25.2436 167.451 25.6581C166.391 26.0727 165.309 26.2799 164.204 26.2799ZM176.086 26.0036V0.614358H180.542V11.0464H185.793V0.614358H190.249V26.0036H185.793V15.0534H180.542V26.0036H176.086ZM195.085 26.0036V23.4474C195.085 18.8646 196.594 11.2536 199.61 0.614358H204.723C207.739 11.2536 209.248 18.8646 209.248 23.4474V26.0036H204.792V23.4474C204.792 22.6874 204.757 21.8238 204.688 20.8566H199.645C199.576 21.8238 199.541 22.6874 199.541 23.4474V26.0036H195.085ZM200.094 16.8496H204.239C203.801 13.6717 203.111 9.86042 202.166 5.41585C201.222 9.86042 200.532 13.6717 200.094 16.8496ZM216.329 26.0036V21.9966H218.954V4.62136H216.329V0.614358H226.001V4.62136H223.376V21.9966H226.001V26.0036H216.329ZM233.083 26.0036V0.614358H234.499H237.642L243.515 18.8531L243.446 18.3695C243.008 15.8594 242.789 13.3262 242.789 10.77V0.614358H247.245V26.0036H245.829H242.686L236.813 7.76479L236.882 8.24839C237.32 10.7585 237.539 13.2917 237.539 15.8479V26.0036H233.083Z" fill="#5CD1B4"/>
<path d="M66.0768 51.2879V34.12H62.1577V32.704H71.5634V34.12H67.6444V51.2879H66.0768ZM82.4356 51.2879V32.704H91.0322V34.12H84.0032V40.5421H89.6163V41.958H84.0032V49.872H91.0322V51.2879H82.4356ZM105.798 51.4902C105.124 51.4902 104.467 51.3805 103.826 51.1615C103.185 50.9254 102.629 50.5632 102.157 50.0743C101.702 49.5686 101.373 48.9956 101.171 48.3549C100.986 47.6976 100.893 47.0316 100.893 46.3575V37.6345C100.893 36.9603 100.986 36.3029 101.171 35.6623C101.373 35.0049 101.702 34.4319 102.157 33.943C102.629 33.4373 103.185 33.0748 103.826 32.8557C104.467 32.6196 105.124 32.5018 105.798 32.5018C106.371 32.5018 106.944 32.5862 107.517 32.7546C108.09 32.9231 108.596 33.2012 109.035 33.589C109.49 33.9768 109.852 34.4401 110.122 34.9796C110.391 35.502 110.56 36.0501 110.627 36.6231L109.085 36.9012C109.018 36.3617 108.841 35.856 108.554 35.3842C108.267 34.8952 107.871 34.533 107.366 34.2969C106.86 34.0441 106.338 33.9177 105.798 33.9177C105.326 33.9177 104.863 34.0103 104.408 34.1958C103.969 34.3642 103.598 34.6342 103.295 35.0049C102.992 35.3756 102.773 35.7887 102.638 36.2438C102.52 36.6989 102.461 37.1626 102.461 37.6345V46.3575C102.461 46.8293 102.52 47.293 102.638 47.7481C102.773 48.2032 102.992 48.6163 103.295 48.987C103.598 49.3578 103.969 49.6359 104.408 49.8214C104.863 49.9899 105.326 50.0743 105.798 50.0743C106.338 50.0743 106.86 49.9564 107.366 49.7203C107.871 49.4674 108.267 49.1049 108.554 48.6331C108.841 48.1441 109.018 47.6302 109.085 47.0907L110.627 47.3689C110.56 47.9418 110.391 48.4981 110.122 49.0376C109.852 49.56 109.49 50.0151 109.035 50.403C108.596 50.7908 108.09 51.0689 107.517 51.2373C106.944 51.4058 106.371 51.4902 105.798 51.4902ZM120.564 51.2879V32.704H122.132V40.8203H128.402V32.704H129.97V51.2879H128.402V42.2362H122.132V51.2879H120.564ZM140.033 51.2879V32.704H140.741H142.308L147.871 48.8101V32.704H149.439V51.2879H148.731H147.163L141.601 35.1819V51.2879H140.033ZM164.205 51.4902C163.53 51.4902 162.873 51.3805 162.232 51.1615C161.592 50.9254 161.036 50.5632 160.564 50.0743C160.109 49.5686 159.78 48.9956 159.578 48.3549C159.392 47.6976 159.299 47.0316 159.299 46.3575V37.6345C159.299 36.9603 159.392 36.3029 159.578 35.6623C159.78 35.0049 160.109 34.4319 160.564 33.943C161.036 33.4373 161.592 33.0748 162.232 32.8557C162.873 32.6196 163.53 32.5018 164.205 32.5018C164.879 32.5018 165.536 32.6196 166.177 32.8557C166.817 33.0748 167.365 33.4373 167.82 33.943C168.292 34.4319 168.621 35.0049 168.806 35.6623C169.009 36.3029 169.11 36.9603 169.11 37.6345V46.3575C169.11 47.0316 169.009 47.6976 168.806 48.3549C168.621 48.9956 168.292 49.5686 167.82 50.0743C167.365 50.5632 166.817 50.9254 166.177 51.1615C165.536 51.3805 164.879 51.4902 164.205 51.4902ZM164.205 50.0743C164.676 50.0743 165.132 49.9899 165.57 49.8214C166.025 49.6359 166.404 49.3578 166.708 48.987C167.011 48.6163 167.222 48.2032 167.34 47.7481C167.475 47.293 167.542 46.8293 167.542 46.3575V37.6345C167.542 37.1626 167.475 36.6989 167.34 36.2438C167.222 35.7887 167.011 35.3756 166.708 35.0049C166.404 34.6342 166.025 34.3642 165.57 34.1958C165.132 34.0103 164.676 33.9177 164.205 33.9177C163.733 33.9177 163.269 34.0103 162.814 34.1958C162.376 34.3642 162.005 34.6342 161.701 35.0049C161.398 35.3756 161.179 35.7887 161.044 36.2438C160.926 36.6989 160.867 37.1626 160.867 37.6345V46.3575C160.867 46.8293 160.926 47.293 161.044 47.7481C161.179 48.2032 161.398 48.6163 161.701 48.987C162.005 49.3578 162.376 49.6359 162.814 49.8214C163.269 49.9899 163.733 50.0743 164.205 50.0743ZM179.78 51.2879V32.704H181.347V49.872H188.578V51.2879H179.78ZM203.142 51.4902C202.468 51.4902 201.811 51.3805 201.17 51.1615C200.529 50.9254 199.973 50.5632 199.501 50.0743C199.046 49.5686 198.717 48.9956 198.515 48.3549C198.33 47.6976 198.237 47.0316 198.237 46.3575V37.6345C198.237 36.9603 198.33 36.3029 198.515 35.6623C198.717 35.0049 199.046 34.4319 199.501 33.943C199.973 33.4373 200.529 33.0748 201.17 32.8557C201.811 32.6196 202.468 32.5018 203.142 32.5018C203.816 32.5018 204.474 32.6196 205.114 32.8557C205.755 33.0748 206.303 33.4373 206.758 33.943C207.23 34.4319 207.558 35.0049 207.744 35.6623C207.946 36.3029 208.047 36.9603 208.047 37.6345V46.3575C208.047 47.0316 207.946 47.6976 207.744 48.3549C207.558 48.9956 207.23 49.5686 206.758 50.0743C206.303 50.5632 205.755 50.9254 205.114 51.1615C204.474 51.3805 203.816 51.4902 203.142 51.4902ZM203.142 50.0743C203.614 50.0743 204.069 49.9899 204.508 49.8214C204.963 49.6359 205.342 49.3578 205.645 48.987C205.949 48.6163 206.16 48.2032 206.277 47.7481C206.412 47.293 206.48 46.8293 206.48 46.3575V37.6345C206.48 37.1626 206.412 36.6989 206.277 36.2438C206.16 35.7887 205.949 35.3756 205.645 35.0049C205.342 34.6342 204.963 34.3642 204.508 34.1958C204.069 34.0103 203.614 33.9177 203.142 33.9177C202.67 33.9177 202.207 34.0103 201.752 34.1958C201.313 34.3642 200.942 34.6342 200.639 35.0049C200.336 35.3756 200.117 35.7887 199.982 36.2438C199.864 36.6989 199.805 37.1626 199.805 37.6345V46.3575C199.805 46.8293 199.864 47.293 199.982 47.7481C200.117 48.2032 200.336 48.6163 200.639 48.987C200.942 49.3578 201.313 49.6359 201.752 49.8214C202.207 49.9899 202.67 50.0743 203.142 50.0743ZM222.586 51.4902C221.928 51.4902 221.279 51.3805 220.639 51.1615C219.998 50.9254 219.442 50.5547 218.97 50.049C218.515 49.5433 218.186 48.9703 217.984 48.3296C217.798 47.689 217.706 47.0316 217.706 46.3575V37.6345C217.706 36.9603 217.798 36.3029 217.984 35.6623C218.186 35.0049 218.515 34.4319 218.97 33.943C219.442 33.4373 219.998 33.0748 220.639 32.8557C221.279 32.6196 221.937 32.5018 222.611 32.5018C223.184 32.5018 223.757 32.5862 224.33 32.7546C224.903 32.9231 225.409 33.2012 225.847 33.589C226.302 33.9768 226.665 34.4401 226.935 34.9796C227.204 35.502 227.373 36.0501 227.44 36.6231L225.898 36.9012C225.831 36.3617 225.654 35.856 225.367 35.3842C225.08 34.8952 224.684 34.533 224.179 34.2969C223.673 34.0441 223.15 33.9177 222.611 33.9177C222.139 33.9177 221.675 34.0103 221.22 34.1958C220.782 34.3642 220.411 34.6342 220.108 35.0049C219.804 35.3756 219.585 35.7887 219.45 36.2438C219.333 36.6989 219.273 37.1626 219.273 37.6345V46.3575C219.273 46.8293 219.333 47.293 219.45 47.7481C219.585 48.2032 219.804 48.6163 220.108 48.987C220.411 49.3578 220.782 49.6359 221.22 49.8214C221.659 49.9899 222.114 50.0743 222.586 50.0743C223.041 50.0743 223.479 49.9817 223.9 49.7961C224.339 49.6106 224.701 49.3325 224.988 48.9618C225.274 48.5739 225.468 48.1612 225.569 47.7228C225.687 47.2677 225.746 46.8126 225.746 46.3575V42.6913H222.611V41.2754H227.314V46.3575C227.314 47.0149 227.221 47.6637 227.036 48.3044C226.867 48.945 226.564 49.518 226.125 50.0237C225.687 50.5294 225.148 50.9001 224.507 51.1362C223.884 51.3723 223.243 51.4902 222.586 51.4902ZM241.296 51.2879V44.0061L239.046 39.8595C237.933 37.82 237.377 35.8054 237.377 33.8165V32.704H238.945V33.8165C238.945 35.5864 239.433 37.3731 240.411 39.1768L242.08 42.2615L243.749 39.1768C244.726 37.3731 245.215 35.5864 245.215 33.8165V32.704H246.783V33.8165C246.783 35.8054 246.226 37.82 245.114 39.8595L242.864 44.0061V51.2879H241.296Z" fill="white"/>
<defs>
<linearGradient id="paint0_linear_734_276" x1="35.3155" y1="-1.41042e-06" x2="-12.989" y2="32.9692" gradientUnits="userSpaceOnUse">
<stop stop-color="#5CD1B4"/>
<stop offset="1" stop-color="#225EF1"/>
</linearGradient>
<linearGradient id="paint1_linear_734_276" x1="38.1829" y1="1.22766e-05" x2="-5.97848" y2="24.661" gradientUnits="userSpaceOnUse">
<stop stop-color="#5CD1B4"/>
<stop offset="1" stop-color="#225EF1"/>
</linearGradient>
<linearGradient id="paint2_linear_734_276" x1="38.1829" y1="5.39507e-05" x2="-5.9785" y2="24.6611" gradientUnits="userSpaceOnUse">
<stop stop-color="#5CD1B4"/>
<stop offset="1" stop-color="#225EF1"/>
</linearGradient>
<linearGradient id="paint3_linear_734_276" x1="38.1829" y1="-2.49e-05" x2="-5.9785" y2="24.661" gradientUnits="userSpaceOnUse">
<stop stop-color="#5CD1B4"/>
<stop offset="1" stop-color="#225EF1"/>
</linearGradient>
<linearGradient id="paint4_linear_734_276" x1="38.1829" y1="-2.96915e-05" x2="-5.97848" y2="24.661" gradientUnits="userSpaceOnUse">
<stop stop-color="#5CD1B4"/>
<stop offset="1" stop-color="#225EF1"/>
</linearGradient>
<linearGradient id="paint5_linear_734_276" x1="38.1829" y1="3.31203e-05" x2="-5.97847" y2="24.6611" gradientUnits="userSpaceOnUse">
<stop stop-color="#5CD1B4"/>
<stop offset="1" stop-color="#225EF1"/>
</linearGradient>
<linearGradient id="paint6_linear_734_276" x1="38.1829" y1="7.67726e-07" x2="-5.97851" y2="24.661" gradientUnits="userSpaceOnUse">
<stop stop-color="#5CD1B4"/>
<stop offset="1" stop-color="#225EF1"/>
</linearGradient>
</defs>
</svg>
