<svg width="56" height="56" viewBox="0 0 56 56" fill="none" xmlns="http://www.w3.org/2000/svg">
<path d="M48.7667 22.9833L50.1434 46.06C50.1901 46.69 49.8867 47.11 49.7234 47.2967C49.5367 47.5067 49.1401 47.8333 48.4867 47.8333H42.1167L47.1567 22.9833H48.7667ZM51.3334 14L51.3101 14.0467C51.3567 14.6067 51.3101 15.19 51.1701 15.7733L33.9734 47.3433C33.4134 49.7 31.3134 51.3333 28.8867 51.3333H48.4867C51.4967 51.3333 53.8767 48.79 53.6434 45.78L51.3334 14Z" fill="url(#paint0_linear_4782_31797)"/>
<path d="M26.7169 5.22668C26.9502 4.29334 26.3669 3.33668 25.4336 3.10334C24.5002 2.89334 23.5436 3.45334 23.3102 4.38668L22.1436 9.21668H25.7369L26.7169 5.22668Z" fill="url(#paint1_linear_4782_31797)"/>
<path d="M42.1167 5.15655C42.3267 4.19988 41.7201 3.28988 40.7634 3.07988C39.8301 2.86988 38.8967 3.47655 38.6867 4.43321L37.6367 9.26322H41.2301L42.1167 5.15655Z" fill="url(#paint2_linear_4782_31797)"/>
<path d="M50.9134 12.4367C50.1434 10.57 48.3234 9.24003 46.0834 9.24003H41.2301L39.9234 15.2834C39.7367 16.1 39.0134 16.66 38.2201 16.66C38.1034 16.66 37.9634 16.66 37.8467 16.6134C36.9134 16.4034 36.3067 15.47 36.4934 14.5367L37.6367 9.21669H25.7367L24.2667 15.2834C24.0801 16.0767 23.3567 16.6134 22.5634 16.6134C22.4234 16.6134 22.2834 16.59 22.1434 16.5667C21.2101 16.3334 20.6267 15.4 20.8601 14.4434L22.1201 9.19336H17.3834C15.0967 9.19336 13.0667 10.6867 12.3901 12.88L2.56674 44.4967C1.54008 47.88 4.03674 51.3334 7.56008 51.3334H38.2201C40.6467 51.3334 42.7467 49.7 43.3067 47.3434L51.1701 15.7734C51.3101 15.19 51.3567 14.6067 51.3101 14.0467C51.2634 13.4867 51.1467 12.9267 50.9134 12.4367ZM34.3001 39.0834H15.6334C14.6767 39.0834 13.8834 38.29 13.8834 37.3334C13.8834 36.3767 14.6767 35.5834 15.6334 35.5834H34.3001C35.2567 35.5834 36.0501 36.3767 36.0501 37.3334C36.0501 38.29 35.2567 39.0834 34.3001 39.0834ZM36.6334 29.75H17.9667C17.0101 29.75 16.2167 28.9567 16.2167 28C16.2167 27.0434 17.0101 26.25 17.9667 26.25H36.6334C37.5901 26.25 38.3834 27.0434 38.3834 28C38.3834 28.9567 37.5901 29.75 36.6334 29.75Z" fill="url(#paint3_linear_4782_31797)"/>
<defs>
<linearGradient id="paint0_linear_4782_31797" x1="41.273" y1="14" x2="41.273" y2="51.3333" gradientUnits="userSpaceOnUse">
<stop stop-color="#66D4B9"/>
<stop offset="1" stop-color="#46A4CC"/>
</linearGradient>
<linearGradient id="paint1_linear_4782_31797" x1="24.4559" y1="3.05933" x2="24.4559" y2="9.21668" gradientUnits="userSpaceOnUse">
<stop stop-color="#66D4B9"/>
<stop offset="1" stop-color="#46A4CC"/>
</linearGradient>
<linearGradient id="paint2_linear_4782_31797" x1="39.8975" y1="3.03833" x2="39.8975" y2="9.26321" gradientUnits="userSpaceOnUse">
<stop stop-color="#66D4B9"/>
<stop offset="1" stop-color="#46A4CC"/>
</linearGradient>
<linearGradient id="paint3_linear_4782_31797" x1="26.8308" y1="9.19336" x2="26.8308" y2="51.3334" gradientUnits="userSpaceOnUse">
<stop stop-color="#66D4B9"/>
<stop offset="1" stop-color="#46A4CC"/>
</linearGradient>
</defs>
</svg>
