<svg width="100" height="21" viewBox="0 0 100 21" fill="none" xmlns="http://www.w3.org/2000/svg">
<path fill-rule="evenodd" clip-rule="evenodd" d="M13.1256 19.091V11.4545H11.2506V21H20.6259V19.091H13.1256ZM1.8752 17.182H0V21H1.8752V17.182ZM7.50039 15.2727H1.8752V17.182H7.50039V21H9.37559V17.182H7.50039V15.2727H9.37559V11.4545H7.50039V15.2727ZM1.8752 11.4545H0V15.2727H1.8752V11.4545ZM18.751 3.81825H13.1256V0H11.2506V5.72726H18.751V7.63626H11.2506V9.5455H20.6259V0H18.751V3.81825ZM9.37559 0H0V9.5455H1.8752V5.72726H9.37559V0ZM1.8752 1.90901V3.81825H7.50039V1.90901H1.8752Z" fill="url(#paint0_linear_657_276)"/>
<g opacity="0.6">
<path opacity="0.6" d="M3.7511 20.9998V19.0908H5.62628V20.9998H3.7511Z" fill="url(#paint1_linear_657_276)"/>
<path opacity="0.6" d="M15.0017 17.1818V15.2725H16.8766V17.1818H15.0017Z" fill="url(#paint2_linear_657_276)"/>
<path opacity="0.6" d="M18.7518 17.1821V13.3638H15.0017V11.4546H20.6269V17.1821H18.7518Z" fill="url(#paint3_linear_657_276)"/>
<path opacity="0.6" d="M3.7511 13.3638V11.4546H5.62628V13.3638H3.7511Z" fill="url(#paint4_linear_657_276)"/>
<path opacity="0.6" d="M9.37648 7.63623V9.54547H3.7511V7.63623H9.37648Z" fill="url(#paint5_linear_657_276)"/>
<path opacity="0.6" d="M15.0017 1.90901V0H16.8766V1.90901H15.0017Z" fill="url(#paint6_linear_657_276)"/>
</g>
<path d="M25.2299 10.5017V0.24832H27.8804C28.2989 0.24832 28.708 0.322716 29.108 0.471522C29.5079 0.620328 29.8473 0.85282 30.1263 1.16903C30.4147 1.48523 30.6146 1.84794 30.7262 2.25714C30.8472 2.66634 30.9076 3.08019 30.9076 3.4987C30.9076 3.9079 30.8472 4.31711 30.7262 4.72631C30.6146 5.13551 30.4147 5.49821 30.1263 5.81442C29.8473 6.13062 29.5079 6.36312 29.108 6.51192C28.708 6.66073 28.2989 6.73512 27.8804 6.73512H27.0294V10.5017H25.2299ZM27.0294 5.11691H27.8804C28.1315 5.11691 28.3593 5.03321 28.5639 4.86581C28.7778 4.69841 28.922 4.4938 28.9964 4.252C29.0707 4.0009 29.108 3.7498 29.108 3.4987C29.108 3.23829 29.0707 2.98719 28.9964 2.74539C28.922 2.49429 28.7778 2.28504 28.5639 2.11764C28.3593 1.95023 28.1315 1.86653 27.8804 1.86653H27.0294V5.11691ZM34.7159 10.5017V6.58167L33.6278 4.3636C33.0419 3.1732 32.749 2.00603 32.749 0.862125V0.24832H34.5485V0.862125C34.5485 1.78283 34.7763 2.71285 35.2321 3.65215L35.6087 4.40545L35.9854 3.65215C36.4411 2.71285 36.669 1.78283 36.669 0.862125V0.24832H38.4685V0.862125C38.4685 2.00603 38.1756 3.1732 37.5897 4.3636L36.5015 6.58167V10.5017H34.7159ZM40.4215 10.5017V9.9855C40.4215 8.9904 40.7238 7.98133 41.3283 6.95833L42.2629 5.36801L41.3283 3.79165C40.7238 2.76865 40.4215 1.75958 40.4215 0.764474V0.24832H42.2211V0.764474C42.2211 1.48988 42.4397 2.22459 42.8768 2.96859L43.2813 3.65215L43.6859 2.96859C44.1229 2.22459 44.3415 1.48988 44.3415 0.764474V0.24832H46.1411V0.764474C46.1411 1.75958 45.8388 2.76865 45.2343 3.79165L44.2997 5.36801L45.2343 6.95833C45.8388 7.98133 46.1411 8.9904 46.1411 9.9855V10.5017H44.3415V9.9855C44.3415 9.2601 44.1229 8.52538 43.6859 7.78138L43.2813 7.09783L42.8768 7.78138C42.4397 8.52538 42.2211 9.2601 42.2211 9.9855V10.5017H40.4215ZM48.4149 10.5017V0.24832H53.8136V1.86653H50.2006V4.15435H52.9627V5.77257H50.2006V8.88344H53.8136V10.5017H48.4149ZM56.0875 10.5017V0.24832H57.8731V8.88344H61.5978V10.5017H56.0875ZM66.3129 10.6133C65.913 10.6133 65.5178 10.5482 65.1272 10.418C64.7459 10.2878 64.4111 10.0785 64.1228 9.7902C63.8438 9.4926 63.6391 9.14849 63.509 8.75789C63.388 8.36729 63.3276 7.97204 63.3276 7.57213V3.17784C63.3276 2.77794 63.388 2.38269 63.509 1.99208C63.6391 1.60148 63.8438 1.26203 64.1228 0.973726C64.4111 0.676128 64.7459 0.462217 65.1272 0.33202C65.5178 0.201824 65.913 0.136719 66.3129 0.136719C66.7593 0.136719 67.1964 0.220419 67.6243 0.387821C68.0521 0.555222 68.4055 0.82492 68.6845 1.19693C68.9635 1.55963 69.1448 1.96418 69.2285 2.41059L67.4848 2.81514C67.4569 2.61984 67.3917 2.43849 67.2895 2.27109C67.1872 2.10369 67.0477 1.97813 66.8709 1.89443C66.6942 1.80143 66.5082 1.75493 66.3129 1.75493C66.0804 1.75493 65.8619 1.82468 65.6573 1.96418C65.462 2.09438 65.3225 2.27109 65.2388 2.49429C65.1644 2.71749 65.1272 2.94534 65.1272 3.17784V7.57213C65.1272 7.80464 65.1644 8.03249 65.2388 8.25569C65.3225 8.47889 65.462 8.66024 65.6573 8.79974C65.8619 8.92994 66.0804 8.99504 66.3129 8.99504C66.5082 8.99504 66.6942 8.95319 66.8709 8.86949C67.0477 8.77649 67.1872 8.64629 67.2895 8.47889C67.3917 8.31149 67.4569 8.13014 67.4848 7.93483L69.2285 8.33939C69.1448 8.78579 68.9635 9.19499 68.6845 9.567C68.4055 9.9297 68.0521 10.1948 67.6243 10.3622C67.1964 10.5296 66.7593 10.6133 66.3129 10.6133ZM71.1118 10.5017V0.24832H72.9113V4.46126H75.0318V0.24832H76.8313V10.5017H75.0318V6.07947H72.9113V10.5017H71.1118ZM78.7843 10.5017V9.46935C78.7843 7.61863 79.3935 4.54496 80.6118 0.24832H82.6764C83.8947 4.54496 84.5039 7.61863 84.5039 9.46935V10.5017H82.7043V9.46935C82.7043 9.16244 82.6904 8.81369 82.6625 8.42309H80.6258C80.5979 8.81369 80.5839 9.16244 80.5839 9.46935V10.5017H78.7843ZM80.8071 6.80487H82.4811C82.3044 5.52146 82.0254 3.98231 81.6441 2.18739C81.2629 3.98231 80.9839 5.52146 80.8071 6.80487ZM87.3637 10.5017V8.88344H88.4239V1.86653H87.3637V0.24832H91.2697V1.86653H90.2095V8.88344H91.2697V10.5017H87.3637ZM94.1295 10.5017V0.24832H94.7014H95.9709L98.3424 7.61398L98.3145 7.41868C98.1378 6.40497 98.0494 5.38196 98.0494 4.34965V0.24832H99.849V10.5017H99.2771H98.0076L95.6361 3.13599L95.664 3.3313C95.8407 4.34501 95.929 5.36801 95.929 6.40032V10.5017H94.1295Z" fill="#5CD1B4"/>
<path d="M26.6849 20.7122V13.779H25.1022V13.2072H28.9006V13.779H27.3179V20.7122H26.6849ZM33.2913 20.7122V13.2072H36.763V13.779H33.9244V16.3726H36.1912V16.9444H33.9244V20.1404H36.763V20.7122H33.2913ZM42.7262 20.7939C42.454 20.7939 42.1885 20.7496 41.9298 20.6611C41.671 20.5658 41.4464 20.4195 41.2558 20.2221C41.072 20.0178 40.9393 19.7865 40.8576 19.5277C40.7827 19.2622 40.7453 18.9933 40.7453 18.7211V15.1983C40.7453 14.9261 40.7827 14.6606 40.8576 14.4019C40.9393 14.1364 41.072 13.905 41.2558 13.7075C41.4464 13.5033 41.671 13.3569 41.9298 13.2684C42.1885 13.1731 42.454 13.1255 42.7262 13.1255C42.9576 13.1255 43.1892 13.1596 43.4206 13.2276C43.652 13.2956 43.8562 13.4079 44.0332 13.5646C44.217 13.7212 44.3634 13.9083 44.4723 14.1262C44.5811 14.3371 44.6493 14.5585 44.6765 14.7899L44.0536 14.9022C44.0264 14.6843 43.955 14.4801 43.8392 14.2895C43.7234 14.0921 43.5635 13.9458 43.3593 13.8505C43.1551 13.7484 42.9441 13.6973 42.7262 13.6973C42.5357 13.6973 42.3484 13.7347 42.1646 13.8096C41.9876 13.8776 41.8379 13.9867 41.7153 14.1364C41.5928 14.2861 41.5044 14.4529 41.4498 14.6367C41.4022 14.8205 41.3784 15.0077 41.3784 15.1983V18.7211C41.3784 18.9116 41.4022 19.0989 41.4498 19.2827C41.5044 19.4665 41.5928 19.6333 41.7153 19.783C41.8379 19.9327 41.9876 20.045 42.1646 20.12C42.3484 20.188 42.5357 20.2221 42.7262 20.2221C42.9441 20.2221 43.1551 20.1745 43.3593 20.0791C43.5635 19.977 43.7234 19.8306 43.8392 19.64C43.955 19.4426 44.0264 19.2351 44.0536 19.0172L44.6765 19.1295C44.6493 19.3609 44.5811 19.5855 44.4723 19.8034C44.3634 20.0144 44.217 20.1982 44.0332 20.3548C43.8562 20.5114 43.652 20.6237 43.4206 20.6918C43.1892 20.7598 42.9576 20.7939 42.7262 20.7939ZM48.6894 20.7122V13.2072H49.3225V16.4849H51.8548V13.2072H52.4878V20.7122H51.8548V17.0567H49.3225V20.7122H48.6894ZM56.5518 20.7122V13.2072H56.8377H57.4708L59.7172 19.7115V13.2072H60.3502V20.7122H60.0643H59.4313L57.1849 14.2078V20.7122H56.5518ZM66.3134 20.7939C66.0412 20.7939 65.7757 20.7496 65.517 20.6611C65.2582 20.5658 65.0336 20.4195 64.8431 20.2221C64.6593 20.0178 64.5265 19.7865 64.4448 19.5277C64.3699 19.2622 64.3325 18.9933 64.3325 18.7211V15.1983C64.3325 14.9261 64.3699 14.6606 64.4448 14.4019C64.5265 14.1364 64.6593 13.905 64.8431 13.7075C65.0336 13.5033 65.2582 13.3569 65.517 13.2684C65.7757 13.1731 66.0412 13.1255 66.3134 13.1255C66.5857 13.1255 66.8512 13.1731 67.1099 13.2684C67.3686 13.3569 67.5898 13.5033 67.7736 13.7075C67.9641 13.905 68.0969 14.1364 68.1718 14.4019C68.2535 14.6606 68.2943 14.9261 68.2943 15.1983V18.7211C68.2943 18.9933 68.2535 19.2622 68.1718 19.5277C68.0969 19.7865 67.9641 20.0178 67.7736 20.2221C67.5898 20.4195 67.3686 20.5658 67.1099 20.6611C66.8512 20.7496 66.5857 20.7939 66.3134 20.7939ZM66.3134 20.2221C66.504 20.2221 66.6878 20.188 66.8648 20.12C67.0486 20.045 67.2018 19.9327 67.3243 19.783C67.4468 19.6333 67.532 19.4665 67.5796 19.2827C67.6341 19.0989 67.6613 18.9116 67.6613 18.7211V15.1983C67.6613 15.0077 67.6341 14.8205 67.5796 14.6367C67.532 14.4529 67.4468 14.2861 67.3243 14.1364C67.2018 13.9867 67.0486 13.8776 66.8648 13.8096C66.6878 13.7347 66.504 13.6973 66.3134 13.6973C66.1229 13.6973 65.9356 13.7347 65.7518 13.8096C65.5748 13.8776 65.4251 13.9867 65.3025 14.1364C65.18 14.2861 65.0916 14.4529 65.0371 14.6367C64.9895 14.8205 64.9656 15.0077 64.9656 15.1983V18.7211C64.9656 18.9116 64.9895 19.0989 65.0371 19.2827C65.0916 19.4665 65.18 19.6333 65.3025 19.783C65.4251 19.9327 65.5748 20.045 65.7518 20.12C65.9356 20.188 66.1229 20.2221 66.3134 20.2221ZM72.6033 20.7122V13.2072H73.2364V20.1404H76.1567V20.7122H72.6033ZM82.0382 20.7939C81.766 20.7939 81.5005 20.7496 81.2418 20.6611C80.9831 20.5658 80.7584 20.4195 80.5679 20.2221C80.3841 20.0178 80.2513 19.7865 80.1696 19.5277C80.0947 19.2622 80.0573 18.9933 80.0573 18.7211V15.1983C80.0573 14.9261 80.0947 14.6606 80.1696 14.4019C80.2513 14.1364 80.3841 13.905 80.5679 13.7075C80.7584 13.5033 80.9831 13.3569 81.2418 13.2684C81.5005 13.1731 81.766 13.1255 82.0382 13.1255C82.3105 13.1255 82.576 13.1731 82.8347 13.2684C83.0934 13.3569 83.3146 13.5033 83.4984 13.7075C83.6889 13.905 83.8217 14.1364 83.8966 14.4019C83.9783 14.6606 84.0191 14.9261 84.0191 15.1983V18.7211C84.0191 18.9933 83.9783 19.2622 83.8966 19.5277C83.8217 19.7865 83.6889 20.0178 83.4984 20.2221C83.3146 20.4195 83.0934 20.5658 82.8347 20.6611C82.576 20.7496 82.3105 20.7939 82.0382 20.7939ZM82.0382 20.2221C82.2288 20.2221 82.4126 20.188 82.5896 20.12C82.7734 20.045 82.9266 19.9327 83.0491 19.783C83.1716 19.6333 83.2568 19.4665 83.3044 19.2827C83.3589 19.0989 83.3861 18.9116 83.3861 18.7211V15.1983C83.3861 15.0077 83.3589 14.8205 83.3044 14.6367C83.2568 14.4529 83.1716 14.2861 83.0491 14.1364C82.9266 13.9867 82.7734 13.8776 82.5896 13.8096C82.4126 13.7347 82.2288 13.6973 82.0382 13.6973C81.8477 13.6973 81.6604 13.7347 81.4766 13.8096C81.2996 13.8776 81.1499 13.9867 81.0274 14.1364C80.9048 14.2861 80.8164 14.4529 80.7619 14.6367C80.7143 14.8205 80.6904 15.0077 80.6904 15.1983V18.7211C80.6904 18.9116 80.7143 19.0989 80.7619 19.2827C80.8164 19.4665 80.9048 19.6333 81.0274 19.783C81.1499 19.9327 81.2996 20.045 81.4766 20.12C81.6604 20.188 81.8477 20.2221 82.0382 20.2221ZM89.8904 20.7939C89.6249 20.7939 89.3629 20.7496 89.1042 20.6611C88.8455 20.5658 88.6208 20.4161 88.4303 20.2119C88.2465 20.0076 88.1137 19.7762 88.032 19.5175C87.9571 19.2588 87.9197 18.9933 87.9197 18.7211V15.1983C87.9197 14.9261 87.9571 14.6606 88.032 14.4019C88.1137 14.1364 88.2465 13.905 88.4303 13.7075C88.6208 13.5033 88.8455 13.3569 89.1042 13.2684C89.3629 13.1731 89.6284 13.1255 89.9006 13.1255C90.132 13.1255 90.3636 13.1596 90.595 13.2276C90.8264 13.2956 91.0306 13.4079 91.2076 13.5646C91.3914 13.7212 91.5378 13.9083 91.6467 14.1262C91.7556 14.3371 91.8237 14.5585 91.8509 14.7899L91.2281 14.9022C91.2009 14.6843 91.1294 14.4801 91.0136 14.2895C90.8979 14.0921 90.7379 13.9458 90.5337 13.8505C90.3295 13.7484 90.1185 13.6973 89.9006 13.6973C89.7101 13.6973 89.5228 13.7347 89.339 13.8096C89.162 13.8776 89.0123 13.9867 88.8898 14.1364C88.7672 14.2861 88.6788 14.4529 88.6243 14.6367C88.5767 14.8205 88.5528 15.0077 88.5528 15.1983V18.7211C88.5528 18.9116 88.5767 19.0989 88.6243 19.2827C88.6788 19.4665 88.7672 19.6333 88.8898 19.783C89.0123 19.9327 89.162 20.045 89.339 20.12C89.5161 20.188 89.6999 20.2221 89.8904 20.2221C90.0742 20.2221 90.2513 20.1847 90.4214 20.1097C90.5984 20.0348 90.7447 19.9225 90.8605 19.7728C90.9762 19.6162 91.0545 19.4495 91.0953 19.2725C91.1429 19.0887 91.1668 18.9049 91.1668 18.7211V17.2405H89.9006V16.6687H91.7999V18.7211C91.7999 18.9865 91.7625 19.2486 91.6875 19.5073C91.6195 19.766 91.497 19.9974 91.32 20.2016C91.1429 20.4059 90.9252 20.5556 90.6665 20.6509C90.4146 20.7463 90.1559 20.7939 89.8904 20.7939ZM97.4465 20.7122V17.7715L96.5377 16.0969C96.0884 15.2732 95.8638 14.4597 95.8638 13.6565V13.2072H96.4969V13.6565C96.4969 14.3712 96.6943 15.0927 97.0891 15.8212L97.763 17.0669L98.437 15.8212C98.8317 15.0927 99.0292 14.3712 99.0292 13.6565V13.2072H99.6623V13.6565C99.6623 14.4597 99.4376 15.2732 98.9883 16.0969L98.0796 17.7715V20.7122H97.4465Z" fill="white"/>
<defs>
<linearGradient id="paint0_linear_657_276" x1="14.262" y1="-5.69592e-07" x2="-5.24557" y2="13.3145" gradientUnits="userSpaceOnUse">
<stop stop-color="#5CD1B4"/>
<stop offset="1" stop-color="#225EF1"/>
</linearGradient>
<linearGradient id="paint1_linear_657_276" x1="15.42" y1="-0.000172994" x2="-2.41439" y2="9.95909" gradientUnits="userSpaceOnUse">
<stop stop-color="#5CD1B4"/>
<stop offset="1" stop-color="#225EF1"/>
</linearGradient>
<linearGradient id="paint2_linear_657_276" x1="15.4201" y1="-0.000211496" x2="-2.41435" y2="9.95907" gradientUnits="userSpaceOnUse">
<stop stop-color="#5CD1B4"/>
<stop offset="1" stop-color="#225EF1"/>
</linearGradient>
<linearGradient id="paint3_linear_657_276" x1="15.4201" y1="7.65453e-05" x2="-2.41435" y2="9.95934" gradientUnits="userSpaceOnUse">
<stop stop-color="#5CD1B4"/>
<stop offset="1" stop-color="#225EF1"/>
</linearGradient>
<linearGradient id="paint4_linear_657_276" x1="15.42" y1="7.83698e-05" x2="-2.41439" y2="9.95934" gradientUnits="userSpaceOnUse">
<stop stop-color="#5CD1B4"/>
<stop offset="1" stop-color="#225EF1"/>
</linearGradient>
<linearGradient id="paint5_linear_657_276" x1="15.42" y1="-3.10071e-05" x2="-2.41439" y2="9.95924" gradientUnits="userSpaceOnUse">
<stop stop-color="#5CD1B4"/>
<stop offset="1" stop-color="#225EF1"/>
</linearGradient>
<linearGradient id="paint6_linear_657_276" x1="15.4201" y1="3.10043e-07" x2="-2.41435" y2="9.95927" gradientUnits="userSpaceOnUse">
<stop stop-color="#5CD1B4"/>
<stop offset="1" stop-color="#225EF1"/>
</linearGradient>
</defs>
</svg>
