<svg width="195" height="41" viewBox="0 0 195 41" fill="none" xmlns="http://www.w3.org/2000/svg">
<path fill-rule="evenodd" clip-rule="evenodd" d="M25.6261 37.2729V22.3636H21.9654V41H40.2696V37.2729H25.6261ZM3.6611 33.5458H0V41H3.6611V33.5458ZM14.6436 29.8181H3.6611V33.5458H14.6436V41H18.3047V33.5458H14.6436V29.8181H18.3047V22.3636H14.6436V29.8181ZM3.6611 22.3636H0V29.8181H3.6611V22.3636ZM36.609 7.45467H25.6261V0H21.9654V11.1818H36.609V14.9089H21.9654V18.6365H40.2696V0H36.609V7.45467ZM18.3047 0H0V18.6365H3.6611V11.1818H18.3047V0ZM3.6611 3.72711V7.45467H14.6436V3.72711H3.6611Z" fill="url(#paint0_linear_459_405)"/>
<g opacity="0.6">
<path opacity="0.6" d="M7.32373 41.0001V37.2729H10.9848V41.0001H7.32373Z" fill="url(#paint1_linear_459_405)"/>
<path opacity="0.6" d="M29.2891 33.5455V29.8179H32.9496V33.5455H29.2891Z" fill="url(#paint2_linear_459_405)"/>
<path opacity="0.6" d="M36.6108 33.546V26.0912H29.2891V22.3638H40.2716V33.546H36.6108Z" fill="url(#paint3_linear_459_405)"/>
<path opacity="0.6" d="M7.32373 26.0912V22.3638H10.9848V26.0912H7.32373Z" fill="url(#paint4_linear_459_405)"/>
<path opacity="0.6" d="M18.3066 14.9087V18.6363H7.32373V14.9087H18.3066Z" fill="url(#paint5_linear_459_405)"/>
<path opacity="0.6" d="M29.2891 3.72711V0H32.9496V3.72711H29.2891Z" fill="url(#paint6_linear_459_405)"/>
</g>
<path d="M49.2583 20.5029V0.484489H54.4331C55.2502 0.484489 56.049 0.629738 56.8299 0.920264C57.6107 1.21079 58.2734 1.6647 58.8181 2.28206C59.3811 2.89942 59.7714 3.60755 59.9893 4.40647C60.2254 5.20538 60.3433 6.01339 60.3433 6.83046C60.3433 7.62938 60.2254 8.42832 59.9893 9.22723C59.7714 10.0261 59.3811 10.7343 58.8181 11.3516C58.2734 11.969 57.6107 12.4229 56.8299 12.7134C56.049 13.004 55.2502 13.1492 54.4331 13.1492H52.7717V20.5029H49.2583ZM52.7717 9.98983H54.4331C54.9234 9.98983 55.3681 9.82642 55.7677 9.49959C56.1852 9.17276 56.4668 8.77329 56.612 8.30121C56.7572 7.81096 56.8299 7.32071 56.8299 6.83046C56.8299 6.32205 56.7572 5.8318 56.612 5.35972C56.4668 4.86948 56.1852 4.46094 55.7677 4.13411C55.3681 3.80727 54.9234 3.64386 54.4331 3.64386H52.7717V9.98983ZM67.7787 20.5029V12.8496L65.6543 8.51909C64.5104 6.19497 63.9385 3.91622 63.9385 1.68287V0.484489H67.4519V1.68287C67.4519 3.48044 67.8967 5.29618 68.7865 7.13006L69.5218 8.6008L70.2572 7.13006C71.147 5.29618 71.5918 3.48044 71.5918 1.68287V0.484489H75.1052V1.68287C75.1052 3.91622 74.5332 6.19497 73.3893 8.51909L71.2649 12.8496V20.5029H67.7787ZM78.9182 20.5029V19.4952C78.9182 17.5524 79.5084 15.5823 80.6886 13.585L82.5134 10.4801L80.6886 7.40242C79.5084 5.40513 78.9182 3.43504 78.9182 1.49222V0.484489H82.4317V1.49222C82.4317 2.90849 82.8585 4.34293 83.7118 5.7955L84.5016 7.13006L85.2914 5.7955C86.1447 4.34293 86.5715 2.90849 86.5715 1.49222V0.484489H90.085V1.49222C90.085 3.43504 89.4948 5.40513 88.3146 7.40242L86.4898 10.4801L88.3146 13.585C89.4948 15.5823 90.085 17.5524 90.085 19.4952V20.5029H86.5715V19.4952C86.5715 18.0789 86.1447 16.6445 85.2914 15.1919L84.5016 13.8573L83.7118 15.1919C82.8585 16.6445 82.4317 18.0789 82.4317 19.4952V20.5029H78.9182ZM94.5244 20.5029V0.484489H105.065V3.64386H98.0106V8.11055H103.403V11.2699H98.0106V17.3435H105.065V20.5029H94.5244ZM109.504 20.5029V0.484489H112.99V17.3435H120.262V20.5029H109.504ZM129.468 20.7208C128.687 20.7208 127.916 20.5937 127.153 20.3395C126.409 20.0853 125.755 19.6768 125.192 19.1139C124.647 18.5329 124.248 17.861 123.994 17.0984C123.758 16.3358 123.64 15.5641 123.64 14.7834V6.20404C123.64 5.42326 123.758 4.65159 123.994 3.88898C124.248 3.12638 124.647 2.46364 125.192 1.90076C125.755 1.31973 126.409 0.902098 127.153 0.647905C127.916 0.393712 128.687 0.266602 129.468 0.266602C130.34 0.266602 131.193 0.430017 132.028 0.756849C132.864 1.08368 133.554 1.61023 134.098 2.33653C134.643 3.04467 134.997 3.83451 135.16 4.70606L131.756 5.4959C131.701 5.1146 131.574 4.76053 131.375 4.4337C131.175 4.10687 130.903 3.86175 130.558 3.69833C130.212 3.51675 129.849 3.42597 129.468 3.42597C129.014 3.42597 128.588 3.56215 128.188 3.83451C127.807 4.0887 127.534 4.4337 127.371 4.86948C127.226 5.30525 127.153 5.7501 127.153 6.20404V14.7834C127.153 15.2373 127.226 15.6821 127.371 16.1179C127.534 16.5537 127.807 16.9078 128.188 17.1801C128.588 17.4343 129.014 17.5614 129.468 17.5614C129.849 17.5614 130.212 17.4797 130.558 17.3163C130.903 17.1347 131.175 16.8805 131.375 16.5537C131.574 16.2269 131.701 15.8728 131.756 15.4915L135.16 16.2813C134.997 17.1529 134.643 17.9518 134.098 18.6781C133.554 19.3862 132.864 19.9037 132.028 20.2306C131.193 20.5574 130.34 20.7208 129.468 20.7208ZM138.837 20.5029V0.484489H142.351V8.70975H146.491V0.484489H150.004V20.5029H146.491V11.8691H142.351V20.5029H138.837ZM153.817 20.5029V18.4874C153.817 14.8741 155.006 8.87316 157.385 0.484489H161.416C163.794 8.87316 164.984 14.8741 164.984 18.4874V20.5029H161.47V18.4874C161.47 17.8883 161.443 17.2074 161.389 16.4448H157.412C157.358 17.2074 157.33 17.8883 157.33 18.4874V20.5029H153.817ZM157.766 13.2854H161.035C160.689 10.7797 160.145 7.77465 159.4 4.27029C158.656 7.77465 158.111 10.7797 157.766 13.2854ZM170.567 20.5029V17.3435H172.637V3.64386H170.567V0.484489H178.193V3.64386H176.123V17.3435H178.193V20.5029H170.567ZM183.777 20.5029V0.484489H184.893H187.372L192.002 14.8651L191.947 14.4838C191.602 12.5046 191.43 10.5073 191.43 8.49186V0.484489H194.943V20.5029H193.827H191.348L186.718 6.12233L186.773 6.50363C187.118 8.48279 187.29 10.4801 187.29 12.4955V20.5029H183.777Z" fill="#5CD1B4"/>
<path d="M52.0988 40.4386V26.9023H49.0088V25.7859H56.4248V26.9023H53.3348V40.4386H52.0988ZM64.9971 40.4386V25.7859H71.7752V26.9023H66.2331V31.966H70.6588V33.0824H66.2331V39.3222H71.7752V40.4386H64.9971ZM83.4176 40.5981C82.8861 40.5981 82.3678 40.5116 81.8626 40.3389C81.3575 40.1528 80.9189 39.8672 80.5469 39.4817C80.188 39.083 79.9289 38.6312 79.7694 38.1261C79.6231 37.6077 79.5501 37.0827 79.5501 36.5512V29.6734C79.5501 29.1419 79.6231 28.6235 79.7694 28.1184C79.9289 27.6001 80.188 27.1483 80.5469 26.7628C80.9189 26.3641 81.3575 26.0782 81.8626 25.9056C82.3678 25.7194 82.8861 25.6265 83.4176 25.6265C83.8694 25.6265 84.3215 25.693 84.7732 25.8258C85.225 25.9586 85.6237 26.1779 85.9694 26.4837C86.3282 26.7895 86.614 27.1548 86.8266 27.5802C87.0391 27.9921 87.1722 28.4242 87.2253 28.876L86.0092 29.0953C85.9562 28.6699 85.8166 28.2712 85.5906 27.8991C85.3646 27.5136 85.0523 27.228 84.6536 27.0419C84.2549 26.8425 83.843 26.7429 83.4176 26.7429C83.0456 26.7429 82.68 26.8159 82.3212 26.9621C81.9755 27.095 81.6832 27.3078 81.444 27.6001C81.2048 27.8924 81.0321 28.2181 80.9257 28.5769C80.8327 28.9358 80.7861 29.3014 80.7861 29.6734V36.5512C80.7861 36.9232 80.8327 37.2888 80.9257 37.6476C81.0321 38.0065 81.2048 38.3322 81.444 38.6245C81.6832 38.9168 81.9755 39.136 82.3212 39.2823C82.68 39.4151 83.0456 39.4817 83.4176 39.4817C83.843 39.4817 84.2549 39.3888 84.6536 39.2026C85.0523 39.0032 85.3646 38.7174 85.5906 38.3454C85.8166 37.9598 85.9562 37.5547 86.0092 37.1293L87.2253 37.3486C87.1722 37.8004 87.0391 38.2389 86.8266 38.6643C86.614 39.0762 86.3282 39.4351 85.9694 39.7409C85.6237 40.0466 85.225 40.2659 84.7732 40.3987C84.3215 40.5315 83.8694 40.5981 83.4176 40.5981ZM95.06 40.4386V25.7859H96.296V32.1853H101.24V25.7859H102.476V40.4386H101.24V33.3017H96.296V40.4386H95.06ZM110.41 40.4386V25.7859H110.969H112.205L116.59 38.4849V25.7859H117.826V40.4386H117.268H116.032L111.646 27.7396V40.4386H110.41ZM129.469 40.5981C128.937 40.5981 128.419 40.5116 127.914 40.3389C127.409 40.1528 126.97 39.8672 126.598 39.4817C126.239 39.083 125.98 38.6312 125.821 38.1261C125.674 37.6077 125.601 37.0827 125.601 36.5512V29.6734C125.601 29.1419 125.674 28.6235 125.821 28.1184C125.98 27.6001 126.239 27.1483 126.598 26.7628C126.97 26.3641 127.409 26.0782 127.914 25.9056C128.419 25.7194 128.937 25.6265 129.469 25.6265C130 25.6265 130.519 25.7194 131.024 25.9056C131.529 26.0782 131.961 26.3641 132.32 26.7628C132.692 27.1483 132.951 27.6001 133.097 28.1184C133.257 28.6235 133.336 29.1419 133.336 29.6734V36.5512C133.336 37.0827 133.257 37.6077 133.097 38.1261C132.951 38.6312 132.692 39.083 132.32 39.4817C131.961 39.8672 131.529 40.1528 131.024 40.3389C130.519 40.5116 130 40.5981 129.469 40.5981ZM129.469 39.4817C129.841 39.4817 130.2 39.4151 130.545 39.2823C130.904 39.136 131.203 38.9168 131.442 38.6245C131.682 38.3322 131.848 38.0065 131.941 37.6476C132.047 37.2888 132.1 36.9232 132.1 36.5512V29.6734C132.1 29.3014 132.047 28.9358 131.941 28.5769C131.848 28.2181 131.682 27.8924 131.442 27.6001C131.203 27.3078 130.904 27.095 130.545 26.9621C130.2 26.8159 129.841 26.7429 129.469 26.7429C129.097 26.7429 128.731 26.8159 128.372 26.9621C128.027 27.095 127.734 27.3078 127.495 27.6001C127.256 27.8924 127.083 28.2181 126.977 28.5769C126.884 28.9358 126.837 29.3014 126.837 29.6734V36.5512C126.837 36.9232 126.884 37.2888 126.977 37.6476C127.083 38.0065 127.256 38.3322 127.495 38.6245C127.734 38.9168 128.027 39.136 128.372 39.2823C128.731 39.4151 129.097 39.4817 129.469 39.4817ZM141.749 40.4386V25.7859H142.985V39.3222H148.687V40.4386H141.749ZM160.17 40.5981C159.638 40.5981 159.12 40.5116 158.615 40.3389C158.11 40.1528 157.671 39.8672 157.299 39.4817C156.94 39.083 156.681 38.6312 156.521 38.1261C156.375 37.6077 156.302 37.0827 156.302 36.5512V29.6734C156.302 29.1419 156.375 28.6235 156.521 28.1184C156.681 27.6001 156.94 27.1483 157.299 26.7628C157.671 26.3641 158.11 26.0782 158.615 25.9056C159.12 25.7194 159.638 25.6265 160.17 25.6265C160.701 25.6265 161.219 25.7194 161.725 25.9056C162.23 26.0782 162.662 26.3641 163.02 26.7628C163.392 27.1483 163.652 27.6001 163.798 28.1184C163.957 28.6235 164.037 29.1419 164.037 29.6734V36.5512C164.037 37.0827 163.957 37.6077 163.798 38.1261C163.652 38.6312 163.392 39.083 163.02 39.4817C162.662 39.8672 162.23 40.1528 161.725 40.3389C161.219 40.5116 160.701 40.5981 160.17 40.5981ZM160.17 39.4817C160.542 39.4817 160.901 39.4151 161.246 39.2823C161.605 39.136 161.904 38.9168 162.143 38.6245C162.382 38.3322 162.549 38.0065 162.642 37.6476C162.748 37.2888 162.801 36.9232 162.801 36.5512V29.6734C162.801 29.3014 162.748 28.9358 162.642 28.5769C162.549 28.2181 162.382 27.8924 162.143 27.6001C161.904 27.3078 161.605 27.095 161.246 26.9621C160.901 26.8159 160.542 26.7429 160.17 26.7429C159.798 26.7429 159.432 26.8159 159.073 26.9621C158.728 27.095 158.435 27.3078 158.196 27.6001C157.957 27.8924 157.784 28.2181 157.678 28.5769C157.585 28.9358 157.538 29.3014 157.538 29.6734V36.5512C157.538 36.9232 157.585 37.2888 157.678 37.6476C157.784 38.0065 157.957 38.3322 158.196 38.6245C158.435 38.9168 158.728 39.136 159.073 39.2823C159.432 39.4151 159.798 39.4817 160.17 39.4817ZM175.5 40.5981C174.982 40.5981 174.47 40.5116 173.965 40.3389C173.46 40.1528 173.021 39.8605 172.649 39.4618C172.29 39.063 172.031 38.6113 171.872 38.1061C171.726 37.601 171.653 37.0827 171.653 36.5512V29.6734C171.653 29.1419 171.726 28.6235 171.872 28.1184C172.031 27.6001 172.29 27.1483 172.649 26.7628C173.021 26.3641 173.46 26.0782 173.965 25.9056C174.47 25.7194 174.989 25.6265 175.52 25.6265C175.972 25.6265 176.424 25.693 176.876 25.8258C177.327 25.9586 177.726 26.1779 178.072 26.4837C178.431 26.7895 178.716 27.1548 178.929 27.5802C179.142 27.9921 179.275 28.4242 179.328 28.876L178.112 29.0953C178.059 28.6699 177.919 28.2712 177.693 27.8991C177.467 27.5136 177.155 27.228 176.756 27.0419C176.357 26.8425 175.945 26.7429 175.52 26.7429C175.148 26.7429 174.782 26.8159 174.424 26.9621C174.078 27.095 173.786 27.3078 173.546 27.6001C173.307 27.8924 173.134 28.2181 173.028 28.5769C172.935 28.9358 172.889 29.3014 172.889 29.6734V36.5512C172.889 36.9232 172.935 37.2888 173.028 37.6476C173.134 38.0065 173.307 38.3322 173.546 38.6245C173.786 38.9168 174.078 39.136 174.424 39.2823C174.769 39.4151 175.128 39.4817 175.5 39.4817C175.859 39.4817 176.205 39.4087 176.537 39.2624C176.882 39.1161 177.168 38.8968 177.394 38.6045C177.62 38.2988 177.773 37.9733 177.852 37.6277C177.945 37.2688 177.992 36.91 177.992 36.5512V33.6605H175.52V32.5441H179.228V36.5512C179.228 37.0695 179.155 37.5811 179.009 38.0862C178.876 38.5913 178.637 39.0431 178.291 39.4418C177.945 39.8405 177.52 40.1328 177.015 40.319C176.524 40.5051 176.018 40.5981 175.5 40.5981ZM190.252 40.4386V34.6972L188.478 31.4277C187.601 29.8197 187.162 28.2313 187.162 26.6631V25.7859H188.398V26.6631C188.398 28.0586 188.784 29.4673 189.555 30.8895L190.87 33.3216L192.186 30.8895C192.957 29.4673 193.342 28.0586 193.342 26.6631V25.7859H194.578V26.6631C194.578 28.2313 194.14 29.8197 193.263 31.4277L191.488 34.6972V40.4386H190.252Z" fill="white"/>
<defs>
<linearGradient id="paint0_linear_459_405" x1="27.8449" y1="-1.11206e-06" x2="-10.2414" y2="25.995" gradientUnits="userSpaceOnUse">
<stop stop-color="#5CD1B4"/>
<stop offset="1" stop-color="#225EF1"/>
</linearGradient>
<linearGradient id="paint1_linear_459_405" x1="30.1059" y1="5.76385e-05" x2="-4.71366" y2="19.4443" gradientUnits="userSpaceOnUse">
<stop stop-color="#5CD1B4"/>
<stop offset="1" stop-color="#225EF1"/>
</linearGradient>
<linearGradient id="paint2_linear_459_405" x1="30.1059" y1="-0.000203658" x2="-4.71371" y2="19.4441" gradientUnits="userSpaceOnUse">
<stop stop-color="#5CD1B4"/>
<stop offset="1" stop-color="#225EF1"/>
</linearGradient>
<linearGradient id="paint3_linear_459_405" x1="30.1059" y1="0.000197402" x2="-4.71371" y2="19.4445" gradientUnits="userSpaceOnUse">
<stop stop-color="#5CD1B4"/>
<stop offset="1" stop-color="#225EF1"/>
</linearGradient>
<linearGradient id="paint4_linear_459_405" x1="30.1059" y1="0.000203087" x2="-4.71365" y2="19.4445" gradientUnits="userSpaceOnUse">
<stop stop-color="#5CD1B4"/>
<stop offset="1" stop-color="#225EF1"/>
</linearGradient>
<linearGradient id="paint5_linear_459_405" x1="30.1059" y1="-0.000200751" x2="-4.71365" y2="19.4441" gradientUnits="userSpaceOnUse">
<stop stop-color="#5CD1B4"/>
<stop offset="1" stop-color="#225EF1"/>
</linearGradient>
<linearGradient id="paint6_linear_459_405" x1="30.1059" y1="6.05322e-07" x2="-4.71372" y2="19.4443" gradientUnits="userSpaceOnUse">
<stop stop-color="#5CD1B4"/>
<stop offset="1" stop-color="#225EF1"/>
</linearGradient>
</defs>
</svg>
