<svg width="78" height="91" viewBox="0 0 78 91" fill="none" xmlns="http://www.w3.org/2000/svg">
<g filter="url(#filter0_i_674_12389)">
<path fill-rule="evenodd" clip-rule="evenodd" d="M54.7449 3.70421C54.9043 3.8034 55.0282 3.95039 55.0989 4.1242C56.4361 8.25712 57.06 12.5875 56.944 16.9298L42.0152 7.52383C45.8266 5.52306 49.9513 4.18662 54.2119 3.57191C54.3991 3.55872 54.5856 3.60502 54.7449 3.70421ZM26.8305 23.3859L19.4769 44.8203C19.411 45.0111 19.4118 45.2186 19.4793 45.4089C19.5468 45.5991 19.677 45.7607 19.8484 45.8673L32.3102 53.626C32.4096 53.6893 32.5205 53.7322 32.6366 53.7523C32.7527 53.7723 32.8716 53.7692 32.9864 53.743C33.1502 53.7058 33.2991 53.6203 33.4137 53.4973L49.4514 37.3733C53.8217 32.1801 56.4226 25.7289 56.8762 18.9567L40.2307 8.49679C34.2898 11.903 29.5943 17.1203 26.8305 23.3859Z" fill="url(#paint0_linear_674_12389)"/>
</g>
<g filter="url(#filter1_bdiii_674_12389)">
<path d="M-nan -nanL23.1007 52.6961L19.7736 58.04C19.7111 58.1395 19.6689 58.2504 19.6494 58.3663C19.63 58.4822 19.6337 58.6008 19.6603 58.7153C19.6869 58.8297 19.7359 58.9378 19.8045 59.0332C19.8731 59.1286 19.96 59.2095 20.06 59.2712C20.1597 59.3328 20.2706 59.374 20.3862 59.3926C20.5019 59.4111 20.6201 59.4067 20.7341 59.3795C20.9613 59.3256 21.1583 59.1846 21.2826 58.9869L24.6096 53.643C24.6722 53.5435 24.7144 53.4326 24.7338 53.3167C24.7533 53.2008 24.7496 53.0822 24.7229 52.9677C24.6963 52.8533 24.6473 52.7452 24.5787 52.6498C24.5101 52.5544 24.4233 52.4735 24.3233 52.4118C24.1232 52.2881 23.8824 52.2485 23.6533 52.3018C23.4242 52.3551 23.2256 52.4968 23.1007 52.6961L-nan -nanZ" fill="url(#paint1_linear_674_12389)" fill-opacity="0.21"/>
<path d="M-nan -nanL23.1007 52.6961L19.7736 58.04C19.7111 58.1395 19.6689 58.2504 19.6494 58.3663C19.63 58.4822 19.6337 58.6008 19.6603 58.7153C19.6869 58.8297 19.7359 58.9378 19.8045 59.0332C19.8731 59.1286 19.96 59.2095 20.06 59.2712C20.1597 59.3328 20.2706 59.374 20.3862 59.3926C20.5019 59.4111 20.6201 59.4067 20.7341 59.3795C20.9613 59.3256 21.1583 59.1846 21.2826 58.9869L24.6096 53.643C24.6722 53.5435 24.7144 53.4326 24.7338 53.3167C24.7533 53.2008 24.7496 53.0822 24.7229 52.9677C24.6963 52.8533 24.6473 52.7452 24.5787 52.6498C24.5101 52.5544 24.4233 52.4735 24.3233 52.4118C24.1232 52.2881 23.8824 52.2485 23.6533 52.3018C23.4242 52.3551 23.2256 52.4968 23.1007 52.6961L-nan -nanZ" fill="#D7FFC2" fill-opacity="0.1"/>
</g>
<g filter="url(#filter2_bdii_674_12389)">
<path fill-rule="evenodd" clip-rule="evenodd" d="M20.9639 44.8965C20.969 44.8883 20.9676 44.8776 20.9606 44.871C20.9539 44.8647 20.9522 44.8548 20.9566 44.8468C21.0126 44.7435 21.0885 44.6524 21.1799 44.5785C21.2754 44.5014 21.3858 44.4449 21.5041 44.4126C21.6225 44.3802 21.7462 44.3726 21.8676 44.3903C21.989 44.408 22.1055 44.4506 22.2096 44.5155C22.3138 44.5803 22.4034 44.666 22.4729 44.7671C22.5424 44.8683 22.5902 44.9827 22.6134 45.1032C22.6365 45.2236 22.6345 45.3476 22.6075 45.4673C22.5805 45.587 22.529 45.6998 22.4563 45.7986L20.9724 48.182C20.8586 48.3886 20.6673 48.5416 20.4407 48.6073C20.269 48.6464 20.0896 48.6338 19.9251 48.571C19.7607 48.5082 19.6185 48.3981 19.5166 48.2545C19.4147 48.1109 19.3577 47.9403 19.3528 47.7643C19.3478 47.5883 19.3952 47.4148 19.4889 47.2657L20.9639 44.8965ZM15.7029 64.3532L20.2749 56.974C20.3994 56.7693 20.6001 56.6225 20.8329 56.5658C21.0657 56.5091 21.3115 56.5471 21.5162 56.6716C21.7209 56.7961 21.8677 56.9968 21.9244 57.2296C21.9812 57.4624 21.9431 57.7082 21.8186 57.9129L17.2119 65.3001C17.0863 65.5002 16.8864 65.6422 16.6561 65.6949C16.4259 65.7476 16.1841 65.7067 15.984 65.5811C15.7839 65.4556 15.6418 65.2556 15.5891 65.0254C15.5364 64.7951 15.5774 64.5533 15.7029 64.3532ZM25.6613 49.1196C25.6684 49.1263 25.6698 49.137 25.6646 49.1452L24.1896 51.5144C24.0959 51.6635 24.0485 51.837 24.0535 52.013C24.0584 52.189 24.1154 52.3596 24.2173 52.5032C24.3192 52.6468 24.4614 52.7569 24.6258 52.8197C24.7903 52.8825 24.9698 52.8951 25.1414 52.856C25.368 52.7903 25.5593 52.6373 25.6731 52.4307L27.157 50.0473C27.2297 49.9485 27.2812 49.8357 27.3082 49.716C27.3352 49.5963 27.3372 49.4723 27.3141 49.3518C27.2909 49.2314 27.2431 49.117 27.1736 49.0158C27.1041 48.9147 27.0145 48.829 26.9103 48.7642C26.8062 48.6993 26.6898 48.6567 26.5683 48.639C26.4469 48.6213 26.3232 48.6289 26.2048 48.6612C26.0865 48.6936 25.9761 48.7501 25.8807 48.8272C25.7892 48.901 25.7133 48.9922 25.6573 49.0955C25.6529 49.1035 25.6546 49.1134 25.6613 49.1196ZM30.9678 51.1254C30.9726 51.1174 30.9825 51.1139 30.9913 51.1172C31 51.1205 31.0097 51.1172 31.0148 51.1094C31.1408 50.9164 31.3369 50.7795 31.562 50.728C31.7923 50.6753 32.0341 50.7162 32.2342 50.8418C32.4343 50.9674 32.5763 51.1673 32.629 51.3976C32.6817 51.6279 32.6408 51.8696 32.5152 52.0697L31.0313 54.4531C30.9071 54.6509 30.7101 54.7919 30.4828 54.8457C30.3689 54.8729 30.2507 54.8774 30.135 54.8588C30.0193 54.8402 29.9084 54.799 29.8087 54.7375C29.7087 54.6758 29.6219 54.5949 29.5533 54.4994C29.4847 54.404 29.4357 54.2959 29.409 54.1815C29.3824 54.067 29.3787 53.9484 29.3982 53.8325C29.4176 53.7166 29.4598 53.6057 29.5223 53.5062L30.9678 51.1254ZM26.6197 58.1203L23.8828 62.5043C23.8203 62.6038 23.7781 62.7147 23.7587 62.8306C23.7392 62.9465 23.7429 63.0651 23.7695 63.1796C23.7962 63.294 23.8452 63.4021 23.9138 63.4975C23.9824 63.593 24.0692 63.6738 24.1692 63.7356C24.2689 63.7971 24.3798 63.8383 24.4955 63.8569C24.6112 63.8755 24.7294 63.871 24.8433 63.8438C24.9576 63.8179 25.0656 63.7697 25.1612 63.702C25.2568 63.6343 25.3381 63.5484 25.4005 63.4492L28.1267 59.0586C28.2301 58.8596 28.2547 58.629 28.1955 58.4127C28.1364 58.1965 27.9977 58.0105 27.8074 57.892C27.6171 57.7735 27.389 57.7312 27.1688 57.7735C26.9486 57.8158 26.7525 57.9397 26.6197 58.1203ZM12.8869 57.3362L15.6238 52.9522C15.7566 52.7716 15.9527 52.6477 16.1729 52.6054C16.3931 52.5631 16.6211 52.6054 16.8115 52.7239C17.0018 52.8424 17.1404 53.0284 17.1996 53.2446C17.2588 53.4609 17.2342 53.6915 17.1307 53.8905L14.4046 58.2811C14.3422 58.3803 14.2609 58.4662 14.1653 58.5339C14.0697 58.6017 13.9617 58.6498 13.8474 58.6757C13.7335 58.7029 13.6152 58.7074 13.4996 58.6888C13.3839 58.6702 13.273 58.629 13.1733 58.5675C13.0733 58.5058 12.9865 58.4249 12.9179 58.3294C12.8493 58.234 12.8002 58.126 12.7736 58.0115C12.747 57.897 12.7433 57.7784 12.7627 57.6625C12.7822 57.5466 12.8244 57.4357 12.8869 57.3362Z" fill="url(#paint2_linear_674_12389)" fill-opacity="0.1"/>
</g>
<path fill-rule="evenodd" clip-rule="evenodd" d="M54.7449 3.70416C54.9042 3.80334 55.0281 3.95034 55.0989 4.12415C56.436 8.25707 57.06 12.5874 56.944 16.9297L42.0151 7.52377C45.8266 5.52301 49.9512 4.18656 54.2118 3.57186C54.399 3.55866 54.5856 3.60497 54.7449 3.70416ZM26.8305 23.3858L19.4769 44.8203C19.411 45.0111 19.4118 45.2186 19.4793 45.4088C19.5468 45.599 19.677 45.7607 19.8484 45.8672L32.3102 53.626C32.4096 53.6892 32.5205 53.7321 32.6366 53.7522C32.7527 53.7723 32.8716 53.7691 32.9864 53.7429C33.1502 53.7058 33.2991 53.6202 33.4137 53.4973L49.4514 37.3732C53.8217 32.1801 56.4226 25.7288 56.8762 18.9566L40.2307 8.49674C34.2898 11.903 29.5943 17.1202 26.8305 23.3858Z" fill="url(#paint3_linear_674_12389)"/>
<g filter="url(#filter3_biii_674_12389)">
<path d="M37.7438 47.5406C36.5232 49.1377 36.4411 51.2922 37.0988 53.1916C38.2607 56.547 38.4056 60.1987 37.473 63.6766C37.408 63.8702 37.4116 64.0803 37.4832 64.2715C37.5548 64.4628 37.6899 64.6237 37.866 64.7271C37.9783 64.7912 38.1032 64.83 38.232 64.8409C38.3608 64.8518 38.4905 64.8345 38.612 64.7902C38.7519 64.7387 38.8767 64.6528 38.9748 64.5405C42.5044 60.5169 48.9665 51.9093 48.7597 43.0666C48.675 39.4447 44.3248 38.9294 42.125 41.8079L37.7438 47.5406Z" fill="url(#paint4_linear_674_12389)" fill-opacity="0.09"/>
<path d="M37.7438 47.5406C36.5232 49.1377 36.4411 51.2922 37.0988 53.1916C38.2607 56.547 38.4056 60.1987 37.473 63.6766C37.408 63.8702 37.4116 64.0803 37.4832 64.2715C37.5548 64.4628 37.6899 64.6237 37.866 64.7271C37.9783 64.7912 38.1032 64.83 38.232 64.8409C38.3608 64.8518 38.4905 64.8345 38.612 64.7902C38.7519 64.7387 38.8767 64.6528 38.9748 64.5405C42.5044 60.5169 48.9665 51.9093 48.7597 43.0666C48.675 39.4447 44.3248 38.9294 42.125 41.8079L37.7438 47.5406Z" fill="#03627A"/>
</g>
<g filter="url(#filter4_biii_674_12389)">
<path d="M23.5496 39.1378C22.6139 40.9168 20.6937 41.8974 18.6938 42.0994C15.161 42.4564 11.7869 43.8606 9.02379 46.1694C8.87542 46.3097 8.68331 46.3948 8.47967 46.4103C8.27603 46.4258 8.07325 46.3709 7.90534 46.2546C7.79999 46.1797 7.71223 46.0827 7.64817 45.9704C7.5841 45.8581 7.54527 45.7332 7.53437 45.6044C7.52229 45.4557 7.54775 45.3064 7.60841 45.1702C9.77452 40.2757 14.8664 30.793 22.976 27.2618C26.2977 25.8155 28.5947 29.5456 26.9082 32.752L23.5496 39.1378Z" fill="url(#paint5_linear_674_12389)" fill-opacity="0.09"/>
<path d="M23.5496 39.1378C22.6139 40.9168 20.6937 41.8974 18.6938 42.0994C15.161 42.4564 11.7869 43.8606 9.02379 46.1694C8.87542 46.3097 8.68331 46.3948 8.47967 46.4103C8.27603 46.4258 8.07325 46.3709 7.90534 46.2546C7.79999 46.1797 7.71223 46.0827 7.64817 45.9704C7.5841 45.8581 7.54527 45.7332 7.53437 45.6044C7.52229 45.4557 7.54775 45.3064 7.60841 45.1702C9.77452 40.2757 14.8664 30.793 22.976 27.2618C26.2977 25.8155 28.5947 29.5456 26.9082 32.752L23.5496 39.1378Z" fill="#03627A"/>
</g>
<g filter="url(#filter5_bdiii_674_12389)">
<path d="M-nan -nanL23.1006 52.6961L19.7735 58.0399C19.711 58.1394 19.6688 58.2503 19.6494 58.3662C19.6299 58.4821 19.6336 58.6007 19.6602 58.7152C19.6869 58.8297 19.7359 58.9377 19.8045 59.0331C19.8731 59.1286 19.9599 59.2095 20.0599 59.2712C20.1596 59.3327 20.2705 59.3739 20.3862 59.3925C20.5019 59.4111 20.6201 59.4066 20.734 59.3794C20.9613 59.3256 21.1583 59.1846 21.2825 58.9868L24.6096 53.643C24.6721 53.5435 24.7143 53.4326 24.7337 53.3167C24.7532 53.2008 24.7495 53.0821 24.7229 52.9677C24.6962 52.8532 24.6472 52.7452 24.5786 52.6497C24.51 52.5543 24.4232 52.4734 24.3232 52.4117C24.1232 52.288 23.8823 52.2485 23.6532 52.3017C23.4242 52.355 23.2255 52.4968 23.1006 52.6961L-nan -nanZ" fill="url(#paint6_linear_674_12389)" fill-opacity="0.21"/>
<path d="M-nan -nanL23.1006 52.6961L19.7735 58.0399C19.711 58.1394 19.6688 58.2503 19.6494 58.3662C19.6299 58.4821 19.6336 58.6007 19.6602 58.7152C19.6869 58.8297 19.7359 58.9377 19.8045 59.0331C19.8731 59.1286 19.9599 59.2095 20.0599 59.2712C20.1596 59.3327 20.2705 59.3739 20.3862 59.3925C20.5019 59.4111 20.6201 59.4066 20.734 59.3794C20.9613 59.3256 21.1583 59.1846 21.2825 58.9868L24.6096 53.643C24.6721 53.5435 24.7143 53.4326 24.7337 53.3167C24.7532 53.2008 24.7495 53.0821 24.7229 52.9677C24.6962 52.8532 24.6472 52.7452 24.5786 52.6497C24.51 52.5543 24.4232 52.4734 24.3232 52.4117C24.1232 52.288 23.8823 52.2485 23.6532 52.3017C23.4242 52.355 23.2255 52.4968 23.1006 52.6961L-nan -nanZ" fill="#D7FFC2" fill-opacity="0.1"/>
</g>
<g filter="url(#filter6_bdii_674_12389)">
<path fill-rule="evenodd" clip-rule="evenodd" d="M20.9639 44.8966C20.9691 44.8884 20.9677 44.8777 20.9606 44.871C20.954 44.8648 20.9522 44.8549 20.9566 44.8469C21.0126 44.7436 21.0885 44.6524 21.18 44.5786C21.2754 44.5015 21.3858 44.445 21.5041 44.4126C21.6225 44.3803 21.7462 44.3727 21.8677 44.3904C21.9891 44.4081 22.1055 44.4507 22.2097 44.5156C22.3138 44.5804 22.4034 44.6661 22.4729 44.7672C22.5424 44.8684 22.5902 44.9828 22.6134 45.1032C22.6365 45.2237 22.6345 45.3477 22.6075 45.4674C22.5805 45.5871 22.529 45.6999 22.4563 45.7987L20.9725 48.1821C20.8586 48.3887 20.6673 48.5417 20.4407 48.6074C20.2691 48.6465 20.0896 48.6339 19.9252 48.5711C19.7607 48.5083 19.6185 48.3982 19.5166 48.2546C19.4147 48.111 19.3577 47.9404 19.3528 47.7644C19.3479 47.5884 19.3952 47.4149 19.4889 47.2658L20.9639 44.8966ZM15.703 64.3528L20.275 56.9736C20.3995 56.7689 20.6002 56.6221 20.833 56.5654C21.0657 56.5087 21.3115 56.5467 21.5162 56.6712C21.7209 56.7957 21.8678 56.9964 21.9245 57.2292C21.9812 57.462 21.9431 57.7078 21.8186 57.9125L17.2119 65.2997C17.0864 65.4998 16.8865 65.6418 16.6562 65.6945C16.4259 65.7472 16.1841 65.7063 15.984 65.5807C15.7839 65.4552 15.6419 65.2552 15.5892 65.025C15.5365 64.7947 15.5774 64.5529 15.703 64.3528ZM25.6613 49.1195C25.6684 49.1261 25.6698 49.1368 25.6646 49.1451L24.1896 51.5143C24.0959 51.6633 24.0486 51.8368 24.0535 52.0128C24.0584 52.1888 24.1154 52.3594 24.2173 52.503C24.3192 52.6466 24.4614 52.7568 24.6259 52.8196C24.7904 52.8824 24.9698 52.895 25.1414 52.8558C25.368 52.7901 25.5593 52.6371 25.6732 52.4305L27.157 50.0472C27.2297 49.9483 27.2812 49.8355 27.3082 49.7158C27.3352 49.5962 27.3372 49.4722 27.3141 49.3517C27.2909 49.2312 27.2431 49.1168 27.1736 49.0157C27.1041 48.9145 27.0145 48.8289 26.9104 48.764C26.8062 48.6992 26.6898 48.6566 26.5684 48.6388C26.447 48.6211 26.3232 48.6287 26.2048 48.6611C26.0865 48.6935 25.9761 48.75 25.8807 48.827C25.7892 48.9009 25.7133 48.9921 25.6573 49.0953C25.653 49.1033 25.6547 49.1132 25.6613 49.1195ZM30.9678 51.125C30.9726 51.117 30.9825 51.1135 30.9913 51.1168C31 51.1201 31.0097 51.1168 31.0148 51.109C31.1408 50.916 31.3369 50.7791 31.562 50.7276C31.7923 50.6749 32.034 50.7158 32.2341 50.8414C32.4342 50.967 32.5763 51.1669 32.629 51.3972C32.6817 51.6275 32.6407 51.8692 32.5152 52.0693L31.0313 54.4527C30.9071 54.6505 30.7101 54.7915 30.4828 54.8453C30.3689 54.8725 30.2507 54.877 30.135 54.8584C30.0193 54.8398 29.9084 54.7986 29.8087 54.7371C29.7087 54.6754 29.6219 54.5945 29.5533 54.499C29.4847 54.4036 29.4357 54.2956 29.409 54.1811C29.3824 54.0666 29.3787 53.948 29.3982 53.8321C29.4176 53.7162 29.4598 53.6053 29.5223 53.5058L30.9678 51.125ZM26.6197 58.1199L23.8828 62.5039C23.8203 62.6034 23.7781 62.7143 23.7586 62.8302C23.7392 62.9461 23.7429 63.0647 23.7695 63.1792C23.7961 63.2936 23.8452 63.4017 23.9138 63.4971C23.9824 63.5926 24.0692 63.6734 24.1692 63.7352C24.2689 63.7967 24.3798 63.8379 24.4955 63.8565C24.6111 63.8751 24.7294 63.8706 24.8433 63.8434C24.9576 63.8175 25.0656 63.7693 25.1612 63.7016C25.2568 63.6339 25.3381 63.548 25.4005 63.4488L28.1266 59.0582C28.2301 58.8592 28.2547 58.6286 28.1955 58.4123C28.1363 58.1961 27.9977 58.0101 27.8074 57.8916C27.617 57.7731 27.389 57.7308 27.1688 57.7731C26.9486 57.8154 26.7525 57.9393 26.6197 58.1199ZM12.8869 57.3357L15.6238 52.9517C15.7566 52.7711 15.9527 52.6472 16.1729 52.6049C16.3931 52.5626 16.6211 52.6049 16.8115 52.7234C17.0018 52.8419 17.1404 53.0279 17.1996 53.2441C17.2588 53.4604 17.2342 53.691 17.1307 53.8899L14.4046 58.2806C14.3422 58.3798 14.2609 58.4657 14.1653 58.5334C14.0697 58.6011 13.9617 58.6493 13.8474 58.6752C13.7334 58.7024 13.6152 58.7068 13.4996 58.6883C13.3839 58.6697 13.273 58.6285 13.1733 58.5669C13.0733 58.5052 12.9865 58.4243 12.9179 58.3289C12.8493 58.2335 12.8002 58.1254 12.7736 58.011C12.747 57.8965 12.7433 57.7779 12.7627 57.662C12.7822 57.5461 12.8244 57.4352 12.8869 57.3357Z" fill="url(#paint7_linear_674_12389)" fill-opacity="0.1"/>
</g>
<g filter="url(#filter7_bdii_674_12389)">
<path d="M48.8142 21.0253C49.6555 24.6424 47.4053 28.2566 43.7882 29.0979C40.1712 29.9392 36.5569 27.689 35.7156 24.0719C34.8743 20.4548 37.1245 16.8406 40.7416 15.9993C44.3587 15.158 47.9729 17.4082 48.8142 21.0253Z" fill="url(#paint8_linear_674_12389)" fill-opacity="0.21"/>
<path d="M48.8142 21.0253C49.6555 24.6424 47.4053 28.2566 43.7882 29.0979C40.1712 29.9392 36.5569 27.689 35.7156 24.0719C34.8743 20.4548 37.1245 16.8406 40.7416 15.9993C44.3587 15.158 47.9729 17.4082 48.8142 21.0253Z" fill="black"/>
</g>
<defs>
<filter id="filter0_i_674_12389" x="19.4281" y="0.569702" width="46.5295" height="53.1956" filterUnits="userSpaceOnUse" color-interpolation-filters="sRGB">
<feFlood flood-opacity="0" result="BackgroundImageFix"/>
<feBlend mode="normal" in="SourceGraphic" in2="BackgroundImageFix" result="shape"/>
<feColorMatrix in="SourceAlpha" type="matrix" values="0 0 0 0 0 0 0 0 0 0 0 0 0 0 0 0 0 0 127 0" result="hardAlpha"/>
<feOffset dx="9" dy="-3"/>
<feGaussianBlur stdDeviation="10"/>
<feComposite in2="hardAlpha" operator="arithmetic" k2="-1" k3="1"/>
<feColorMatrix type="matrix" values="0 0 0 0 0 0 0 0 0 0 0 0 0 0 0 0 0 0 0.17 0"/>
<feBlend mode="normal" in2="shape" result="effect1_innerShadow_674_12389"/>
</filter>
<filter id="filter1_bdiii_674_12389" x="-0.362854" y="32.2786" width="54.1089" height="52.1252" filterUnits="userSpaceOnUse" color-interpolation-filters="sRGB">
<feFlood flood-opacity="0" result="BackgroundImageFix"/>
<feGaussianBlur in="BackgroundImage" stdDeviation="10"/>
<feComposite in2="SourceAlpha" operator="in" result="effect1_backgroundBlur_674_12389"/>
<feColorMatrix in="SourceAlpha" type="matrix" values="0 0 0 0 0 0 0 0 0 0 0 0 0 0 0 0 0 0 127 0" result="hardAlpha"/>
<feOffset dx="9" dy="5"/>
<feGaussianBlur stdDeviation="10"/>
<feColorMatrix type="matrix" values="0 0 0 0 0.0690278 0 0 0 0 0.295833 0 0 0 0 0.11166 0 0 0 0.08 0"/>
<feBlend mode="normal" in2="effect1_backgroundBlur_674_12389" result="effect2_dropShadow_674_12389"/>
<feBlend mode="normal" in="SourceGraphic" in2="effect2_dropShadow_674_12389" result="shape"/>
<feColorMatrix in="SourceAlpha" type="matrix" values="0 0 0 0 0 0 0 0 0 0 0 0 0 0 0 0 0 0 127 0" result="hardAlpha"/>
<feOffset dx="-10" dy="10"/>
<feGaussianBlur stdDeviation="5"/>
<feComposite in2="hardAlpha" operator="arithmetic" k2="-1" k3="1"/>
<feColorMatrix type="matrix" values="0 0 0 0 1 0 0 0 0 1 0 0 0 0 1 0 0 0 0.15 0"/>
<feBlend mode="normal" in2="shape" result="effect3_innerShadow_674_12389"/>
<feColorMatrix in="SourceAlpha" type="matrix" values="0 0 0 0 0 0 0 0 0 0 0 0 0 0 0 0 0 0 127 0" result="hardAlpha"/>
<feOffset dy="-10"/>
<feGaussianBlur stdDeviation="5"/>
<feComposite in2="hardAlpha" operator="arithmetic" k2="-1" k3="1"/>
<feColorMatrix type="matrix" values="0 0 0 0 0.156863 0 0 0 0 0.67451 0 0 0 0 0.25098 0 0 0 0.3 0"/>
<feBlend mode="normal" in2="effect3_innerShadow_674_12389" result="effect4_innerShadow_674_12389"/>
<feColorMatrix in="SourceAlpha" type="matrix" values="0 0 0 0 0 0 0 0 0 0 0 0 0 0 0 0 0 0 127 0" result="hardAlpha"/>
<feOffset dx="-3" dy="6"/>
<feGaussianBlur stdDeviation="7.5"/>
<feComposite in2="hardAlpha" operator="arithmetic" k2="-1" k3="1"/>
<feColorMatrix type="matrix" values="0 0 0 0 0.0770313 0 0 0 0 0.6375 0 0 0 0 0.178935 0 0 0 0.09 0"/>
<feBlend mode="normal" in2="effect4_innerShadow_674_12389" result="effect5_innerShadow_674_12389"/>
</filter>
<filter id="filter2_bdii_674_12389" x="-7.24951" y="24.381" width="68.9009" height="66.3364" filterUnits="userSpaceOnUse" color-interpolation-filters="sRGB">
<feFlood flood-opacity="0" result="BackgroundImageFix"/>
<feGaussianBlur in="BackgroundImage" stdDeviation="10"/>
<feComposite in2="SourceAlpha" operator="in" result="effect1_backgroundBlur_674_12389"/>
<feColorMatrix in="SourceAlpha" type="matrix" values="0 0 0 0 0 0 0 0 0 0 0 0 0 0 0 0 0 0 127 0" result="hardAlpha"/>
<feOffset dx="9" dy="5"/>
<feGaussianBlur stdDeviation="10"/>
<feColorMatrix type="matrix" values="0 0 0 0 0.0690278 0 0 0 0 0.295833 0 0 0 0 0.11166 0 0 0 0.08 0"/>
<feBlend mode="normal" in2="effect1_backgroundBlur_674_12389" result="effect2_dropShadow_674_12389"/>
<feBlend mode="normal" in="SourceGraphic" in2="effect2_dropShadow_674_12389" result="shape"/>
<feColorMatrix in="SourceAlpha" type="matrix" values="0 0 0 0 0 0 0 0 0 0 0 0 0 0 0 0 0 0 127 0" result="hardAlpha"/>
<feOffset/>
<feGaussianBlur stdDeviation="5"/>
<feComposite in2="hardAlpha" operator="arithmetic" k2="-1" k3="1"/>
<feColorMatrix type="matrix" values="0 0 0 0 0.156863 0 0 0 0 0.67451 0 0 0 0 0.25098 0 0 0 0.2 0"/>
<feBlend mode="normal" in2="shape" result="effect3_innerShadow_674_12389"/>
<feColorMatrix in="SourceAlpha" type="matrix" values="0 0 0 0 0 0 0 0 0 0 0 0 0 0 0 0 0 0 127 0" result="hardAlpha"/>
<feOffset dx="-3" dy="6"/>
<feGaussianBlur stdDeviation="7.5"/>
<feComposite in2="hardAlpha" operator="arithmetic" k2="-1" k3="1"/>
<feColorMatrix type="matrix" values="0 0 0 0 0.0770313 0 0 0 0 0.6375 0 0 0 0 0.178935 0 0 0 0.09 0"/>
<feBlend mode="normal" in2="effect3_innerShadow_674_12389" result="effect4_innerShadow_674_12389"/>
</filter>
<filter id="filter3_biii_674_12389" x="16.6902" y="19.9543" width="52.0744" height="64.8898" filterUnits="userSpaceOnUse" color-interpolation-filters="sRGB">
<feFlood flood-opacity="0" result="BackgroundImageFix"/>
<feGaussianBlur in="BackgroundImage" stdDeviation="10"/>
<feComposite in2="SourceAlpha" operator="in" result="effect1_backgroundBlur_674_12389"/>
<feBlend mode="normal" in="SourceGraphic" in2="effect1_backgroundBlur_674_12389" result="shape"/>
<feColorMatrix in="SourceAlpha" type="matrix" values="0 0 0 0 0 0 0 0 0 0 0 0 0 0 0 0 0 0 127 0" result="hardAlpha"/>
<feOffset dx="-10" dy="10"/>
<feGaussianBlur stdDeviation="5"/>
<feComposite in2="hardAlpha" operator="arithmetic" k2="-1" k3="1"/>
<feColorMatrix type="matrix" values="0 0 0 0 1 0 0 0 0 1 0 0 0 0 1 0 0 0 0.15 0"/>
<feBlend mode="normal" in2="shape" result="effect2_innerShadow_674_12389"/>
<feColorMatrix in="SourceAlpha" type="matrix" values="0 0 0 0 0 0 0 0 0 0 0 0 0 0 0 0 0 0 127 0" result="hardAlpha"/>
<feOffset dy="-10"/>
<feGaussianBlur stdDeviation="5"/>
<feComposite in2="hardAlpha" operator="arithmetic" k2="-1" k3="1"/>
<feColorMatrix type="matrix" values="0 0 0 0 0.156863 0 0 0 0 0.67451 0 0 0 0 0.25098 0 0 0 0.05 0"/>
<feBlend mode="normal" in2="effect2_innerShadow_674_12389" result="effect3_innerShadow_674_12389"/>
<feColorMatrix in="SourceAlpha" type="matrix" values="0 0 0 0 0 0 0 0 0 0 0 0 0 0 0 0 0 0 127 0" result="hardAlpha"/>
<feOffset dx="-3" dy="6"/>
<feGaussianBlur stdDeviation="7.5"/>
<feComposite in2="hardAlpha" operator="arithmetic" k2="-1" k3="1"/>
<feColorMatrix type="matrix" values="0 0 0 0 0.0770313 0 0 0 0 0.6375 0 0 0 0 0.178935 0 0 0 0.2 0"/>
<feBlend mode="normal" in2="effect3_innerShadow_674_12389" result="effect4_innerShadow_674_12389"/>
</filter>
<filter id="filter4_biii_674_12389" x="-12.4686" y="6.94104" width="59.9443" height="59.4719" filterUnits="userSpaceOnUse" color-interpolation-filters="sRGB">
<feFlood flood-opacity="0" result="BackgroundImageFix"/>
<feGaussianBlur in="BackgroundImage" stdDeviation="10"/>
<feComposite in2="SourceAlpha" operator="in" result="effect1_backgroundBlur_674_12389"/>
<feBlend mode="normal" in="SourceGraphic" in2="effect1_backgroundBlur_674_12389" result="shape"/>
<feColorMatrix in="SourceAlpha" type="matrix" values="0 0 0 0 0 0 0 0 0 0 0 0 0 0 0 0 0 0 127 0" result="hardAlpha"/>
<feOffset dx="-10" dy="10"/>
<feGaussianBlur stdDeviation="5"/>
<feComposite in2="hardAlpha" operator="arithmetic" k2="-1" k3="1"/>
<feColorMatrix type="matrix" values="0 0 0 0 1 0 0 0 0 1 0 0 0 0 1 0 0 0 0.15 0"/>
<feBlend mode="normal" in2="shape" result="effect2_innerShadow_674_12389"/>
<feColorMatrix in="SourceAlpha" type="matrix" values="0 0 0 0 0 0 0 0 0 0 0 0 0 0 0 0 0 0 127 0" result="hardAlpha"/>
<feOffset dy="-10"/>
<feGaussianBlur stdDeviation="5"/>
<feComposite in2="hardAlpha" operator="arithmetic" k2="-1" k3="1"/>
<feColorMatrix type="matrix" values="0 0 0 0 0.156863 0 0 0 0 0.67451 0 0 0 0 0.25098 0 0 0 0.05 0"/>
<feBlend mode="normal" in2="effect2_innerShadow_674_12389" result="effect3_innerShadow_674_12389"/>
<feColorMatrix in="SourceAlpha" type="matrix" values="0 0 0 0 0 0 0 0 0 0 0 0 0 0 0 0 0 0 127 0" result="hardAlpha"/>
<feOffset dx="-3" dy="6"/>
<feGaussianBlur stdDeviation="7.5"/>
<feComposite in2="hardAlpha" operator="arithmetic" k2="-1" k3="1"/>
<feColorMatrix type="matrix" values="0 0 0 0 0.0770313 0 0 0 0 0.6375 0 0 0 0 0.178935 0 0 0 0.2 0"/>
<feBlend mode="normal" in2="effect3_innerShadow_674_12389" result="effect4_innerShadow_674_12389"/>
</filter>
<filter id="filter5_bdiii_674_12389" x="-0.362915" y="32.2786" width="54.1089" height="52.1252" filterUnits="userSpaceOnUse" color-interpolation-filters="sRGB">
<feFlood flood-opacity="0" result="BackgroundImageFix"/>
<feGaussianBlur in="BackgroundImage" stdDeviation="10"/>
<feComposite in2="SourceAlpha" operator="in" result="effect1_backgroundBlur_674_12389"/>
<feColorMatrix in="SourceAlpha" type="matrix" values="0 0 0 0 0 0 0 0 0 0 0 0 0 0 0 0 0 0 127 0" result="hardAlpha"/>
<feOffset dx="9" dy="5"/>
<feGaussianBlur stdDeviation="10"/>
<feColorMatrix type="matrix" values="0 0 0 0 0.0690278 0 0 0 0 0.295833 0 0 0 0 0.11166 0 0 0 0.08 0"/>
<feBlend mode="normal" in2="effect1_backgroundBlur_674_12389" result="effect2_dropShadow_674_12389"/>
<feBlend mode="normal" in="SourceGraphic" in2="effect2_dropShadow_674_12389" result="shape"/>
<feColorMatrix in="SourceAlpha" type="matrix" values="0 0 0 0 0 0 0 0 0 0 0 0 0 0 0 0 0 0 127 0" result="hardAlpha"/>
<feOffset dx="-10" dy="10"/>
<feGaussianBlur stdDeviation="5"/>
<feComposite in2="hardAlpha" operator="arithmetic" k2="-1" k3="1"/>
<feColorMatrix type="matrix" values="0 0 0 0 1 0 0 0 0 1 0 0 0 0 1 0 0 0 0.15 0"/>
<feBlend mode="normal" in2="shape" result="effect3_innerShadow_674_12389"/>
<feColorMatrix in="SourceAlpha" type="matrix" values="0 0 0 0 0 0 0 0 0 0 0 0 0 0 0 0 0 0 127 0" result="hardAlpha"/>
<feOffset dy="-10"/>
<feGaussianBlur stdDeviation="5"/>
<feComposite in2="hardAlpha" operator="arithmetic" k2="-1" k3="1"/>
<feColorMatrix type="matrix" values="0 0 0 0 0.156863 0 0 0 0 0.67451 0 0 0 0 0.25098 0 0 0 0.3 0"/>
<feBlend mode="normal" in2="effect3_innerShadow_674_12389" result="effect4_innerShadow_674_12389"/>
<feColorMatrix in="SourceAlpha" type="matrix" values="0 0 0 0 0 0 0 0 0 0 0 0 0 0 0 0 0 0 127 0" result="hardAlpha"/>
<feOffset dx="-3" dy="6"/>
<feGaussianBlur stdDeviation="7.5"/>
<feComposite in2="hardAlpha" operator="arithmetic" k2="-1" k3="1"/>
<feColorMatrix type="matrix" values="0 0 0 0 0.0770313 0 0 0 0 0.6375 0 0 0 0 0.178935 0 0 0 0.09 0"/>
<feBlend mode="normal" in2="effect4_innerShadow_674_12389" result="effect5_innerShadow_674_12389"/>
</filter>
<filter id="filter6_bdii_674_12389" x="-7.24951" y="24.381" width="68.9009" height="66.3359" filterUnits="userSpaceOnUse" color-interpolation-filters="sRGB">
<feFlood flood-opacity="0" result="BackgroundImageFix"/>
<feGaussianBlur in="BackgroundImage" stdDeviation="10"/>
<feComposite in2="SourceAlpha" operator="in" result="effect1_backgroundBlur_674_12389"/>
<feColorMatrix in="SourceAlpha" type="matrix" values="0 0 0 0 0 0 0 0 0 0 0 0 0 0 0 0 0 0 127 0" result="hardAlpha"/>
<feOffset dx="9" dy="5"/>
<feGaussianBlur stdDeviation="10"/>
<feColorMatrix type="matrix" values="0 0 0 0 0.0690278 0 0 0 0 0.295833 0 0 0 0 0.11166 0 0 0 0.08 0"/>
<feBlend mode="normal" in2="effect1_backgroundBlur_674_12389" result="effect2_dropShadow_674_12389"/>
<feBlend mode="normal" in="SourceGraphic" in2="effect2_dropShadow_674_12389" result="shape"/>
<feColorMatrix in="SourceAlpha" type="matrix" values="0 0 0 0 0 0 0 0 0 0 0 0 0 0 0 0 0 0 127 0" result="hardAlpha"/>
<feOffset/>
<feGaussianBlur stdDeviation="5"/>
<feComposite in2="hardAlpha" operator="arithmetic" k2="-1" k3="1"/>
<feColorMatrix type="matrix" values="0 0 0 0 0.156863 0 0 0 0 0.67451 0 0 0 0 0.25098 0 0 0 0.2 0"/>
<feBlend mode="normal" in2="shape" result="effect3_innerShadow_674_12389"/>
<feColorMatrix in="SourceAlpha" type="matrix" values="0 0 0 0 0 0 0 0 0 0 0 0 0 0 0 0 0 0 127 0" result="hardAlpha"/>
<feOffset dx="-3" dy="6"/>
<feGaussianBlur stdDeviation="7.5"/>
<feComposite in2="hardAlpha" operator="arithmetic" k2="-1" k3="1"/>
<feColorMatrix type="matrix" values="0 0 0 0 0.0770313 0 0 0 0 0.6375 0 0 0 0 0.178935 0 0 0 0.09 0"/>
<feBlend mode="normal" in2="effect3_innerShadow_674_12389" result="effect4_innerShadow_674_12389"/>
</filter>
<filter id="filter7_bdii_674_12389" x="15.5393" y="-4.17706" width="62.4512" height="58.4513" filterUnits="userSpaceOnUse" color-interpolation-filters="sRGB">
<feFlood flood-opacity="0" result="BackgroundImageFix"/>
<feGaussianBlur in="BackgroundImage" stdDeviation="10"/>
<feComposite in2="SourceAlpha" operator="in" result="effect1_backgroundBlur_674_12389"/>
<feColorMatrix in="SourceAlpha" type="matrix" values="0 0 0 0 0 0 0 0 0 0 0 0 0 0 0 0 0 0 127 0" result="hardAlpha"/>
<feOffset dx="9" dy="5"/>
<feGaussianBlur stdDeviation="10"/>
<feColorMatrix type="matrix" values="0 0 0 0 0.0690278 0 0 0 0 0.295833 0 0 0 0 0.11166 0 0 0 0.08 0"/>
<feBlend mode="normal" in2="effect1_backgroundBlur_674_12389" result="effect2_dropShadow_674_12389"/>
<feBlend mode="normal" in="SourceGraphic" in2="effect2_dropShadow_674_12389" result="shape"/>
<feColorMatrix in="SourceAlpha" type="matrix" values="0 0 0 0 0 0 0 0 0 0 0 0 0 0 0 0 0 0 127 0" result="hardAlpha"/>
<feOffset dx="-10" dy="10"/>
<feGaussianBlur stdDeviation="5"/>
<feComposite in2="hardAlpha" operator="arithmetic" k2="-1" k3="1"/>
<feColorMatrix type="matrix" values="0 0 0 0 1 0 0 0 0 1 0 0 0 0 1 0 0 0 0.15 0"/>
<feBlend mode="normal" in2="shape" result="effect3_innerShadow_674_12389"/>
<feColorMatrix in="SourceAlpha" type="matrix" values="0 0 0 0 0 0 0 0 0 0 0 0 0 0 0 0 0 0 127 0" result="hardAlpha"/>
<feOffset dx="3" dy="-6"/>
<feGaussianBlur stdDeviation="4.5"/>
<feComposite in2="hardAlpha" operator="arithmetic" k2="-1" k3="1"/>
<feColorMatrix type="matrix" values="0 0 0 0 0.0199306 0 0 0 0 0.341667 0 0 0 0 0.0521041 0 0 0 0.05 0"/>
<feBlend mode="normal" in2="effect3_innerShadow_674_12389" result="effect4_innerShadow_674_12389"/>
</filter>
<linearGradient id="paint0_linear_674_12389" x1="50.2819" y1="4.34478" x2="50.7681" y2="54.9142" gradientUnits="userSpaceOnUse">
<stop stop-color="#9BE15D"/>
<stop offset="1" stop-color="#00E3AE"/>
</linearGradient>
<linearGradient id="paint1_linear_674_12389" x1="23.8509" y1="52.2558" x2="23.9199" y2="59.3871" gradientUnits="userSpaceOnUse">
<stop stop-color="#9BE15D"/>
<stop offset="1" stop-color="#00E3AE"/>
</linearGradient>
<linearGradient id="paint2_linear_674_12389" x1="16.4264" y1="52.5444" x2="16.4871" y2="58.7081" gradientUnits="userSpaceOnUse">
<stop stop-color="#9BE15D"/>
<stop offset="1" stop-color="#00E3AE"/>
</linearGradient>
<linearGradient id="paint3_linear_674_12389" x1="37.5246" y1="30.684" x2="49.0133" y2="15.057" gradientUnits="userSpaceOnUse">
<stop stop-color="#00C39D"/>
<stop offset="1" stop-color="#042666"/>
</linearGradient>
<linearGradient id="paint4_linear_674_12389" x1="45.0018" y1="36.3562" x2="47.1593" y2="63.7564" gradientUnits="userSpaceOnUse">
<stop stop-color="#042666"/>
<stop offset="1" stop-color="#00E3AE"/>
</linearGradient>
<linearGradient id="paint5_linear_674_12389" x1="30.6446" y1="27.8493" x2="4.87785" y2="37.4149" gradientUnits="userSpaceOnUse">
<stop stop-color="#042666"/>
<stop offset="1" stop-color="#00E3AE"/>
</linearGradient>
<linearGradient id="paint6_linear_674_12389" x1="23.8509" y1="52.2558" x2="23.9198" y2="59.387" gradientUnits="userSpaceOnUse">
<stop stop-color="#9BE15D"/>
<stop offset="1" stop-color="#00E3AE"/>
</linearGradient>
<linearGradient id="paint7_linear_674_12389" x1="16.4265" y1="52.5444" x2="16.4872" y2="58.7079" gradientUnits="userSpaceOnUse">
<stop stop-color="white"/>
<stop offset="1" stop-color="white"/>
</linearGradient>
<linearGradient id="paint8_linear_674_12389" x1="45.845" y1="14.8123" x2="45.9935" y2="30.2001" gradientUnits="userSpaceOnUse">
<stop stop-color="#9BE15D"/>
<stop offset="1" stop-color="#00E3AE"/>
</linearGradient>
</defs>
</svg>
