<svg width="713" height="157" viewBox="0 0 713 157" fill="none" xmlns="http://www.w3.org/2000/svg">
<path fill-rule="evenodd" clip-rule="evenodd" d="M91.2666 143.726V90.6269H78.2291V157H143.419V143.726H91.2666ZM13.0389 130.452H0V157H13.0389V130.452ZM52.1528 117.176H13.0389V130.452H52.1528V157H65.1917V130.452H52.1528V117.176H65.1917V90.6269H52.1528V117.176ZM13.0389 90.6269H0V117.176H13.0389V90.6269ZM130.382 37.5293H91.2666V10.9797H78.2291V50.8033H130.382V64.0773H78.2291V77.3529H143.419V10.9797H130.382V37.5293ZM65.1917 10.9797H0V77.3529H13.0389V50.8033H65.1917V10.9797ZM13.0389 24.2537V37.5293H52.1528V24.2537H13.0389Z" fill="url(#paint0_linear_428_2361)"/>
<g opacity="0.6">
<path d="M26.083 157V143.726H39.1219V157H26.083Z" fill="url(#paint1_linear_428_2361)"/>
<path d="M104.312 130.452V117.176H117.349V130.452H104.312Z" fill="url(#paint2_linear_428_2361)"/>
<path d="M130.388 130.452V103.902H104.312V90.6269H143.426V130.452H130.388Z" fill="url(#paint3_linear_428_2361)"/>
<path d="M26.083 103.902V90.6269H39.1219V103.902H26.083Z" fill="url(#paint4_linear_428_2361)"/>
<path d="M65.1982 64.0773V77.3529H26.083V64.0773H65.1982Z" fill="url(#paint5_linear_428_2361)"/>
<path d="M104.312 24.2537V10.9797H117.349V24.2537H104.312Z" fill="url(#paint6_linear_428_2361)"/>
</g>
<path d="M175.432 84V12.705H193.862C196.772 12.705 199.617 13.2223 202.398 14.257C205.179 15.2917 207.539 16.9083 209.479 19.107C211.484 21.3057 212.874 23.8277 213.65 26.673C214.491 29.5183 214.911 32.396 214.911 35.306C214.911 38.1513 214.491 40.9967 213.65 43.842C212.874 46.6873 211.484 49.2093 209.479 51.408C207.539 53.6067 205.179 55.2233 202.398 56.258C199.617 57.2927 196.772 57.81 193.862 57.81H187.945V84H175.432ZM187.945 46.558H193.862C195.608 46.558 197.192 45.976 198.615 44.812C200.102 43.648 201.105 42.2253 201.622 40.544C202.139 38.798 202.398 37.052 202.398 35.306C202.398 33.4953 202.139 31.7493 201.622 30.068C201.105 28.322 200.102 26.867 198.615 25.703C197.192 24.539 195.608 23.957 193.862 23.957H187.945V46.558ZM241.392 84V56.743L233.826 41.32C229.752 33.0427 227.715 24.927 227.715 16.973V12.705H240.228V16.973C240.228 23.375 241.812 29.8417 244.981 36.373L247.6 41.611L250.219 36.373C253.388 29.8417 254.972 23.375 254.972 16.973V12.705H267.485V16.973C267.485 24.927 265.448 33.0427 261.374 41.32L253.808 56.743V84H241.392ZM281.065 84V80.411C281.065 73.4917 283.167 66.4753 287.37 59.362L293.869 48.304L287.37 37.343C283.167 30.2297 281.065 23.2133 281.065 16.294V12.705H293.578V16.294C293.578 21.338 295.098 26.4467 298.137 31.62L300.95 36.373L303.763 31.62C306.802 26.4467 308.322 21.338 308.322 16.294V12.705H320.835V16.294C320.835 23.2133 318.733 30.2297 314.53 37.343L308.031 48.304L314.53 59.362C318.733 66.4753 320.835 73.4917 320.835 80.411V84H308.322V80.411C308.322 75.367 306.802 70.2583 303.763 65.085L300.95 60.332L298.137 65.085C295.098 70.2583 293.578 75.367 293.578 80.411V84H281.065ZM336.646 84V12.705H374.185V23.957H349.062V39.865H368.268V51.117H349.062V72.748H374.185V84H336.646ZM389.996 84V12.705H402.412V72.748H428.311V84H389.996ZM461.097 84.776C458.316 84.776 455.568 84.3233 452.852 83.418C450.201 82.5127 447.873 81.0577 445.868 79.053C443.928 76.9837 442.505 74.591 441.6 71.875C440.759 69.159 440.339 66.4107 440.339 63.63V33.075C440.339 30.2943 440.759 27.546 441.6 24.83C442.505 22.114 443.928 19.7537 445.868 17.749C447.873 15.6797 450.201 14.1923 452.852 13.287C455.568 12.3817 458.316 11.929 461.097 11.929C464.201 11.929 467.24 12.511 470.215 13.675C473.19 14.839 475.647 16.7143 477.587 19.301C479.527 21.823 480.788 24.636 481.37 27.74L469.245 30.553C469.051 29.195 468.598 27.934 467.887 26.77C467.176 25.606 466.206 24.733 464.977 24.151C463.748 23.5043 462.455 23.181 461.097 23.181C459.48 23.181 457.961 23.666 456.538 24.636C455.18 25.5413 454.21 26.77 453.628 28.322C453.111 29.874 452.852 31.4583 452.852 33.075V63.63C452.852 65.2467 453.111 66.831 453.628 68.383C454.21 69.935 455.18 71.196 456.538 72.166C457.961 73.0713 459.48 73.524 461.097 73.524C462.455 73.524 463.748 73.233 464.977 72.651C466.206 72.0043 467.176 71.099 467.887 69.935C468.598 68.771 469.051 67.51 469.245 66.152L481.37 68.965C480.788 72.069 479.527 74.9143 477.587 77.501C475.647 80.023 473.19 81.866 470.215 83.03C467.24 84.194 464.201 84.776 461.097 84.776ZM494.465 84V12.705H506.978V41.999H521.722V12.705H534.235V84H521.722V53.251H506.978V84H494.465ZM547.815 84V76.822C547.815 63.9533 552.051 42.581 560.522 12.705H574.878C583.349 42.581 587.585 63.9533 587.585 76.822V84H575.072V76.822C575.072 74.688 574.975 72.263 574.781 69.547H560.619C560.425 72.263 560.328 74.688 560.328 76.822V84H547.815ZM561.88 58.295H573.52C572.291 49.371 570.351 38.6687 567.7 26.188C565.049 38.6687 563.109 49.371 561.88 58.295ZM607.47 84V72.748H614.842V23.957H607.47V12.705H634.63V23.957H627.258V72.748H634.63V84H607.47ZM654.515 84V12.705H658.492H667.319L683.809 63.921L683.615 62.563C682.386 55.5143 681.772 48.401 681.772 41.223V12.705H694.285V84H690.308H681.481L664.991 32.784L665.185 34.142C666.414 41.1907 667.028 48.304 667.028 55.482V84H654.515Z" fill="#2FD8A1"/>
<path d="M185.549 155V106.791H174.544V102.815H200.956V106.791H189.951V155H185.549ZM231.486 155V102.815H255.626V106.791H235.888V124.825H251.65V128.801H235.888V151.024H255.626V155H231.486ZM297.09 155.568C295.197 155.568 293.351 155.26 291.552 154.645C289.753 153.982 288.191 152.965 286.866 151.592C285.588 150.172 284.665 148.563 284.097 146.764C283.576 144.918 283.316 143.048 283.316 141.155V116.66C283.316 114.767 283.576 112.921 284.097 111.122C284.665 109.276 285.588 107.667 286.866 106.294C288.191 104.874 289.753 103.856 291.552 103.241C293.351 102.578 295.197 102.247 297.09 102.247C298.699 102.247 300.309 102.484 301.918 102.957C303.527 103.43 304.947 104.211 306.178 105.3C307.456 106.389 308.474 107.69 309.231 109.205C309.988 110.672 310.462 112.211 310.651 113.82L306.32 114.601C306.131 113.086 305.634 111.666 304.829 110.341C304.024 108.968 302.912 107.951 301.492 107.288C300.072 106.578 298.605 106.223 297.09 106.223C295.765 106.223 294.463 106.483 293.185 107.004C291.954 107.477 290.913 108.235 290.061 109.276C289.209 110.317 288.594 111.477 288.215 112.755C287.884 114.033 287.718 115.335 287.718 116.66V141.155C287.718 142.48 287.884 143.782 288.215 145.06C288.594 146.338 289.209 147.498 290.061 148.539C290.913 149.58 291.954 150.361 293.185 150.882C294.463 151.355 295.765 151.592 297.09 151.592C298.605 151.592 300.072 151.261 301.492 150.598C302.912 149.888 304.024 148.87 304.829 147.545C305.634 146.172 306.131 144.729 306.32 143.214L310.651 143.995C310.462 145.604 309.988 147.166 309.231 148.681C308.474 150.148 307.456 151.426 306.178 152.515C304.947 153.604 303.527 154.385 301.918 154.858C300.309 155.331 298.699 155.568 297.09 155.568ZM338.554 155V102.815H342.956V125.606H360.564V102.815H364.966V155H360.564V129.582H342.956V155H338.554ZM393.224 155V102.815H395.212H399.614L415.234 148.042V102.815H419.636V155H417.648H413.246L397.626 109.773V155H393.224ZM461.1 155.568C459.207 155.568 457.361 155.26 455.562 154.645C453.763 153.982 452.201 152.965 450.876 151.592C449.598 150.172 448.675 148.563 448.107 146.764C447.586 144.918 447.326 143.048 447.326 141.155V116.66C447.326 114.767 447.586 112.921 448.107 111.122C448.675 109.276 449.598 107.667 450.876 106.294C452.201 104.874 453.763 103.856 455.562 103.241C457.361 102.578 459.207 102.247 461.1 102.247C462.993 102.247 464.839 102.578 466.638 103.241C468.437 103.856 469.975 104.874 471.253 106.294C472.578 107.667 473.501 109.276 474.022 111.122C474.59 112.921 474.874 114.767 474.874 116.66V141.155C474.874 143.048 474.59 144.918 474.022 146.764C473.501 148.563 472.578 150.172 471.253 151.592C469.975 152.965 468.437 153.982 466.638 154.645C464.839 155.26 462.993 155.568 461.1 155.568ZM461.1 151.592C462.425 151.592 463.703 151.355 464.934 150.882C466.212 150.361 467.277 149.58 468.129 148.539C468.981 147.498 469.573 146.338 469.904 145.06C470.283 143.782 470.472 142.48 470.472 141.155V116.66C470.472 115.335 470.283 114.033 469.904 112.755C469.573 111.477 468.981 110.317 468.129 109.276C467.277 108.235 466.212 107.477 464.934 107.004C463.703 106.483 462.425 106.223 461.1 106.223C459.775 106.223 458.473 106.483 457.195 107.004C455.964 107.477 454.923 108.235 454.071 109.276C453.219 110.317 452.604 111.477 452.225 112.755C451.894 114.033 451.728 115.335 451.728 116.66V141.155C451.728 142.48 451.894 143.782 452.225 145.06C452.604 146.338 453.219 147.498 454.071 148.539C454.923 149.58 455.964 150.361 457.195 150.882C458.473 151.355 459.775 151.592 461.1 151.592ZM504.836 155V102.815H509.238V151.024H529.544V155H504.836ZM570.44 155.568C568.547 155.568 566.701 155.26 564.902 154.645C563.103 153.982 561.541 152.965 560.216 151.592C558.938 150.172 558.015 148.563 557.447 146.764C556.926 144.918 556.666 143.048 556.666 141.155V116.66C556.666 114.767 556.926 112.921 557.447 111.122C558.015 109.276 558.938 107.667 560.216 106.294C561.541 104.874 563.103 103.856 564.902 103.241C566.701 102.578 568.547 102.247 570.44 102.247C572.333 102.247 574.179 102.578 575.978 103.241C577.777 103.856 579.315 104.874 580.593 106.294C581.918 107.667 582.841 109.276 583.362 111.122C583.93 112.921 584.214 114.767 584.214 116.66V141.155C584.214 143.048 583.93 144.918 583.362 146.764C582.841 148.563 581.918 150.172 580.593 151.592C579.315 152.965 577.777 153.982 575.978 154.645C574.179 155.26 572.333 155.568 570.44 155.568ZM570.44 151.592C571.765 151.592 573.043 151.355 574.274 150.882C575.552 150.361 576.617 149.58 577.469 148.539C578.321 147.498 578.913 146.338 579.244 145.06C579.623 143.782 579.812 142.48 579.812 141.155V116.66C579.812 115.335 579.623 114.033 579.244 112.755C578.913 111.477 578.321 110.317 577.469 109.276C576.617 108.235 575.552 107.477 574.274 107.004C573.043 106.483 571.765 106.223 570.44 106.223C569.115 106.223 567.813 106.483 566.535 107.004C565.304 107.477 564.263 108.235 563.411 109.276C562.559 110.317 561.944 111.477 561.565 112.755C561.234 114.033 561.068 115.335 561.068 116.66V141.155C561.068 142.48 561.234 143.782 561.565 145.06C561.944 146.338 562.559 147.498 563.411 148.539C564.263 149.58 565.304 150.361 566.535 150.882C567.813 151.355 569.115 151.592 570.44 151.592ZM625.039 155.568C623.193 155.568 621.371 155.26 619.572 154.645C617.773 153.982 616.211 152.941 614.886 151.521C613.608 150.101 612.685 148.492 612.117 146.693C611.596 144.894 611.336 143.048 611.336 141.155V116.66C611.336 114.767 611.596 112.921 612.117 111.122C612.685 109.276 613.608 107.667 614.886 106.294C616.211 104.874 617.773 103.856 619.572 103.241C621.371 102.578 623.217 102.247 625.11 102.247C626.719 102.247 628.329 102.484 629.938 102.957C631.547 103.43 632.967 104.211 634.198 105.3C635.476 106.389 636.494 107.69 637.251 109.205C638.008 110.672 638.482 112.211 638.671 113.82L634.34 114.601C634.151 113.086 633.654 111.666 632.849 110.341C632.044 108.968 630.932 107.951 629.512 107.288C628.092 106.578 626.625 106.223 625.11 106.223C623.785 106.223 622.483 106.483 621.205 107.004C619.974 107.477 618.933 108.235 618.081 109.276C617.229 110.317 616.614 111.477 616.235 112.755C615.904 114.033 615.738 115.335 615.738 116.66V141.155C615.738 142.48 615.904 143.782 616.235 145.06C616.614 146.338 617.229 147.498 618.081 148.539C618.933 149.58 619.974 150.361 621.205 150.882C622.436 151.355 623.714 151.592 625.039 151.592C626.317 151.592 627.548 151.332 628.731 150.811C629.962 150.29 630.979 149.509 631.784 148.468C632.589 147.379 633.133 146.22 633.417 144.989C633.748 143.711 633.914 142.433 633.914 141.155V130.86H625.11V126.884H638.316V141.155C638.316 143.001 638.056 144.823 637.535 146.622C637.062 148.421 636.21 150.03 634.979 151.45C633.748 152.87 632.234 153.911 630.435 154.574C628.684 155.237 626.885 155.568 625.039 155.568ZM677.579 155V134.552L671.26 122.908C668.136 117.181 666.574 111.524 666.574 105.939V102.815H670.976V105.939C670.976 110.909 672.349 115.926 675.094 120.991L679.78 129.653L684.466 120.991C687.211 115.926 688.584 110.909 688.584 105.939V102.815H692.986V105.939C692.986 111.524 691.424 117.181 688.3 122.908L681.981 134.552V155H677.579Z" fill="#232323"/>
<defs>
<linearGradient id="paint0_linear_428_2361" x1="99.1688" y1="10.9797" x2="-36.4743" y2="103.56" gradientUnits="userSpaceOnUse">
<stop stop-color="#5CD1B4"/>
<stop offset="1" stop-color="#225EF1"/>
</linearGradient>
<linearGradient id="paint1_linear_428_2361" x1="107.221" y1="10.9797" x2="-16.7878" y2="80.2299" gradientUnits="userSpaceOnUse">
<stop stop-color="#5CD1B4"/>
<stop offset="1" stop-color="#225EF1"/>
</linearGradient>
<linearGradient id="paint2_linear_428_2361" x1="107.221" y1="10.9797" x2="-16.7878" y2="80.2299" gradientUnits="userSpaceOnUse">
<stop stop-color="#5CD1B4"/>
<stop offset="1" stop-color="#225EF1"/>
</linearGradient>
<linearGradient id="paint3_linear_428_2361" x1="107.221" y1="10.9797" x2="-16.7878" y2="80.2299" gradientUnits="userSpaceOnUse">
<stop stop-color="#5CD1B4"/>
<stop offset="1" stop-color="#225EF1"/>
</linearGradient>
<linearGradient id="paint4_linear_428_2361" x1="107.221" y1="10.9797" x2="-16.7878" y2="80.2299" gradientUnits="userSpaceOnUse">
<stop stop-color="#5CD1B4"/>
<stop offset="1" stop-color="#225EF1"/>
</linearGradient>
<linearGradient id="paint5_linear_428_2361" x1="107.221" y1="10.9797" x2="-16.7878" y2="80.2299" gradientUnits="userSpaceOnUse">
<stop stop-color="#5CD1B4"/>
<stop offset="1" stop-color="#225EF1"/>
</linearGradient>
<linearGradient id="paint6_linear_428_2361" x1="107.221" y1="10.9797" x2="-16.7878" y2="80.2299" gradientUnits="userSpaceOnUse">
<stop stop-color="#5CD1B4"/>
<stop offset="1" stop-color="#225EF1"/>
</linearGradient>
</defs>
</svg>
