<svg width="100" height="100" viewBox="0 0 100 100" fill="none" xmlns="http://www.w3.org/2000/svg">
<path d="M27.3584 78.4L9.85838 85.4C9.72011 85.4579 9.5688 85.4773 9.42039 85.4564C9.27198 85.4355 9.13196 85.3749 9.01509 85.281C8.89822 85.1872 8.80882 85.0636 8.75631 84.9232C8.7038 84.7828 8.69012 84.6309 8.71672 84.4834L15.7417 42.35C15.8269 41.8274 16.0353 41.3325 16.3498 40.9065C16.6642 40.4804 17.0757 40.1354 17.55 39.9L31.1167 33.1167L27.3584 78.4Z" fill="url(#paint0_linear_674_12367)"/>
<path d="M49.9999 85.95L27.3583 78.4L31.1333 33.1167L49.9999 40.6667V85.95Z" fill="#01AE96"/>
<path d="M90.125 85.4L72.625 78.4L68.8667 33.1167L82.4334 39.9C82.9077 40.1354 83.3192 40.4804 83.6336 40.9065C83.9481 41.3325 84.1566 41.8274 84.2417 42.35L91.2667 84.4834C91.2933 84.6309 91.2796 84.7828 91.2271 84.9232C91.1746 85.0636 91.0852 85.1872 90.9683 85.281C90.8515 85.3749 90.7114 85.4355 90.563 85.4564C90.4146 85.4773 90.2633 85.4579 90.125 85.4Z" fill="#01AE96"/>
<path d="M72.6417 78.4L50 85.95V40.6667L68.8667 33.1167L72.6417 78.4Z" fill="url(#paint1_linear_674_12367)"/>
<path d="M27.375 47.55C25.7992 47.556 24.2437 47.9056 22.8169 48.5746C21.3901 49.2436 20.1265 50.2157 19.1141 51.4233C18.1017 52.6309 17.3649 54.0448 16.9552 55.5664C16.5454 57.088 16.4726 58.6807 16.7417 60.2334C17.1333 63.8084 19.575 66.8334 21.875 69.4584C23.293 71.1646 24.4655 73.0608 25.3583 75.0917L26.575 77.8834C26.6317 78.0471 26.738 78.1891 26.8791 78.2896C27.0203 78.3902 27.1892 78.4442 27.3625 78.4442C27.5358 78.4442 27.7047 78.3902 27.8459 78.2896C27.987 78.1891 28.0933 78.0471 28.15 77.8834L29.375 75.0917C30.2651 73.063 31.4317 71.1672 32.8417 69.4584C35.15 66.8417 37.5833 63.8167 37.975 60.2334C38.2437 58.6835 38.1716 57.0936 37.7637 55.5744C37.3559 54.0552 36.6221 52.643 35.6134 51.436C34.6046 50.229 33.3452 49.2561 31.9225 48.5851C30.4998 47.914 28.948 47.5608 27.375 47.55Z" fill="#4A90E2"/>
<path d="M37.9666 60.2333C37.5833 63.8166 35.1499 66.8333 32.8416 69.4583C31.4262 71.1648 30.2565 73.061 29.3666 75.0916L28.1416 77.8833C28.078 78.0381 27.9693 78.1702 27.8296 78.2624C27.6899 78.3545 27.5256 78.4025 27.3583 78.4V47.5667C28.9303 47.5766 30.4813 47.9286 31.9036 48.5982C33.326 49.2677 34.5856 50.2388 35.5949 51.444C36.6043 52.6492 37.3393 54.0597 37.7488 55.5775C38.1584 57.0952 38.2327 58.6839 37.9666 60.2333Z" fill="#4A90E2"/>
<path d="M69.8667 14.05C68.2909 14.056 66.7354 14.4056 65.3086 15.0746C63.8818 15.7436 62.6182 16.7157 61.6058 17.9233C60.5934 19.1309 59.8566 20.5448 59.4469 22.0664C59.0371 23.588 58.9643 25.1807 59.2334 26.7334C59.625 30.3167 62.0667 33.3334 64.3667 35.9584C65.7808 37.6674 66.953 39.563 67.85 41.5917L69.0667 44.3917C69.1234 44.5555 69.2297 44.6975 69.3708 44.798C69.512 44.8985 69.6809 44.9525 69.8542 44.9525C70.0275 44.9525 70.1964 44.8985 70.3376 44.798C70.4787 44.6975 70.585 44.5555 70.6417 44.3917L71.8667 41.5917C72.7605 39.5631 73.9299 37.6675 75.3417 35.9584C77.6417 33.3417 80.075 30.3167 80.4667 26.7334C80.7354 25.1835 80.6633 23.5936 80.2554 22.0744C79.8476 20.5552 79.1138 19.143 78.1051 17.936C77.0963 16.729 75.8368 15.7561 74.4141 15.0851C72.9915 14.414 71.4397 14.0608 69.8667 14.05Z" fill="#5CD1B4"/>
<path d="M80.4583 26.7333C80.075 30.3167 77.6416 33.3417 75.3333 35.9583C73.9215 37.6674 72.7521 39.563 71.8583 41.5917L70.6333 44.3917C70.5684 44.5449 70.4591 44.6752 70.3195 44.7658C70.1799 44.8564 70.0164 44.9032 69.85 44.9V14.0667C71.422 14.0766 72.973 14.4286 74.3954 15.0982C75.8177 15.7677 77.0773 16.7388 78.0866 17.944C79.096 19.1492 79.831 20.5597 80.2405 22.0775C80.6501 23.5952 80.7244 25.1839 80.4583 26.7333Z" fill="#5CD1B4"/>
<path d="M92.0833 84.35L85.0667 42.2167C84.9586 41.5658 84.6975 40.9499 84.3049 40.4196C83.9123 39.8894 83.3993 39.46 82.8083 39.1667L76.4333 35.9834C78.65 33.4167 80.9 30.4167 81.2833 26.8833C82.6666 20.1083 76.7916 12.975 69.8666 13.225C62.9166 12.9833 57.0583 20.0833 58.4083 26.8334C58.7416 29.8834 60.45 32.5333 62.325 34.85L50 39.7667L31.4417 32.35C31.3342 32.3017 31.2178 32.2768 31.1 32.2768C30.9822 32.2768 30.8657 32.3017 30.7583 32.35L17.2 39.1667C16.6084 39.4625 16.0949 39.8935 15.7011 40.4249C15.3073 40.9563 15.0442 41.573 14.9333 42.225L7.91665 84.3417C7.86433 84.6357 7.89196 84.9383 7.99665 85.218C8.10133 85.4977 8.27923 85.7441 8.51175 85.9314C8.74426 86.1188 9.02284 86.2403 9.31836 86.2831C9.61389 86.326 9.91549 86.2886 10.1916 86.175L27.3833 79.2917L49.7333 86.7417C49.9063 86.8001 50.0937 86.8001 50.2667 86.7417L72.6167 79.2917L89.8167 86.175C90.0917 86.286 90.3913 86.3215 90.6847 86.2781C90.978 86.2346 91.2545 86.1136 91.4855 85.9276C91.7165 85.7416 91.8936 85.4974 91.9987 85.22C92.1038 84.9427 92.133 84.6424 92.0833 84.35ZM62.3417 18.3333C63.2609 17.2401 64.4092 16.3622 65.7052 15.7617C67.0012 15.1612 68.4133 14.8528 69.8417 14.8583C75.8333 14.7083 80.8333 20.7833 79.6333 26.6667C78.925 32.45 73.0417 35.9333 71.1 41.275L69.825 44.075C68.575 41.0583 67.1666 37.9417 64.9916 35.425C60.375 30.7 57.6667 23.925 62.3417 18.3333ZM63.725 36.4667C65.0799 38.1164 66.2015 39.9447 67.0583 41.9L68.3333 44.7167C68.4838 45.0754 68.755 45.3702 69.1 45.55L71.7917 77.8334L50.8333 84.7917V77.9584L54.2333 76.9917C54.4351 76.9222 54.6025 76.7779 54.7011 76.5886C54.7997 76.3993 54.8218 76.1794 54.7631 75.9743C54.7043 75.7691 54.5691 75.5943 54.3852 75.4859C54.2014 75.3775 53.983 75.3438 53.775 75.3917L50.8333 76.225V41.225L63.4583 36.175L63.725 36.4667ZM34.875 51.8667C39.5583 57.4917 36.8083 64.2167 32.2 68.925C30.0667 71.425 28.6417 74.5917 27.3333 77.55L26.1167 74.7584C24.1667 69.45 18.2167 65.8334 17.5667 60.0917C16.3917 54.2584 21.4083 48.1584 27.3667 48.425C28.7941 48.4125 30.2067 48.7143 31.5043 49.3091C32.802 49.9039 33.9528 50.7771 34.875 51.8667ZM30.1333 75.425C32.25 69.9333 38.125 66.5583 38.7917 60.375C39.2536 57.5929 38.7052 54.7373 37.2457 52.3242C35.7862 49.911 33.5118 48.0994 30.8333 47.2167L31.9083 34.3167L49.1667 41.2333V84.7917L28.9833 78.0667L30.1333 75.425ZM9.55832 84.5917L16.575 42.5C16.6419 42.1061 16.8005 41.7335 17.0379 41.4122C17.2753 41.0908 17.5849 40.8298 17.9417 40.65L30.175 34.5333L29.1667 46.85C21.55 45.4667 14.4833 52.7584 15.9333 60.325C16.5917 66.525 22.5 70 24.5917 75.425L25.775 78.1417L9.55832 84.5917ZM73.425 77.7917L70.7333 45.4584C71.0286 45.2806 71.2615 45.0156 71.4 44.7L72.625 41.9C73.3509 40.2561 74.2683 38.7037 75.3583 37.275L82.025 40.6083C82.3927 40.7886 82.7118 41.0545 82.9554 41.3836C83.199 41.7128 83.3601 42.0957 83.425 42.5L90.4417 84.6417L73.425 77.7917Z" fill="#033E6E"/>
<path d="M65.2749 48.4751C65.924 48.2618 66.5495 47.9825 67.1416 47.6417C67.2395 47.5919 67.3267 47.5233 67.3982 47.4398C67.4696 47.3564 67.5239 47.2596 67.5579 47.1552C67.592 47.0507 67.6051 46.9405 67.5966 46.831C67.5881 46.7215 67.5581 46.6147 67.5083 46.5167C67.4585 46.4188 67.3899 46.3316 67.3064 46.2602C67.2229 46.1887 67.1262 46.1344 67.0217 46.1004C66.9172 46.0663 66.8071 46.0532 66.6975 46.0617C66.588 46.0702 66.4812 46.1003 66.3833 46.1501L64.8999 46.9001C64.7338 46.9851 64.6011 47.1235 64.523 47.293C64.4449 47.4624 64.426 47.6532 64.4692 47.8348C64.5124 48.0163 64.6153 48.178 64.7614 48.2941C64.9075 48.4102 65.0883 48.4739 65.2749 48.4751Z" fill="black"/>
<path d="M59.5083 59.6251C59.3988 59.6335 59.2919 59.6635 59.194 59.7133C59.0961 59.7632 59.009 59.8319 58.9377 59.9156C58.8665 59.9992 58.8125 60.0961 58.7788 60.2007C58.7452 60.3053 58.7325 60.4156 58.7416 60.5251L59.025 64.1167C59.0427 64.3377 59.1474 64.5427 59.3162 64.6865C59.485 64.8302 59.704 64.9011 59.925 64.8834C60.146 64.8657 60.3509 64.761 60.4947 64.5922C60.6385 64.4234 60.7093 64.2044 60.6916 63.9834L60.4083 60.3917C60.3999 60.2822 60.3699 60.1754 60.32 60.0774C60.2702 59.9795 60.2015 59.8924 60.1178 59.8212C60.0342 59.7499 59.9372 59.6959 59.8326 59.6622C59.728 59.6286 59.6178 59.616 59.5083 59.6251Z" fill="black"/>
<path d="M59.5083 70.4C59.5083 70.5833 59.5916 71.4 59.5916 71.5583C59.5905 72.1789 59.392 72.783 59.0249 73.2833C58.9593 73.3709 58.9115 73.4705 58.8843 73.5765C58.8572 73.6825 58.8512 73.7929 58.8667 73.9012C58.8821 74.0095 58.9188 74.1138 58.9745 74.2079C59.0303 74.3021 59.1041 74.3843 59.1916 74.45C60.6999 75.2833 61.3749 72.2417 61.2416 71.2L61.1749 70.275C61.1667 70.1656 61.1371 70.0588 61.0876 69.9609C61.0381 69.8629 60.9699 69.7756 60.8867 69.7041C60.8035 69.6325 60.707 69.578 60.6028 69.5437C60.4985 69.5094 60.3885 69.496 60.2791 69.5042C60.1697 69.5124 60.0629 69.5421 59.965 69.5915C59.867 69.641 59.7797 69.7093 59.7082 69.7924C59.6366 69.8756 59.5821 69.9721 59.5478 70.0763C59.5135 70.1806 59.5001 70.2906 59.5083 70.4Z" fill="black"/>
<path d="M58.2583 54.2417C58.276 54.4627 58.3807 54.6676 58.5495 54.8114C58.7183 54.9552 58.9373 55.026 59.1583 55.0084C59.3793 54.9907 59.5842 54.8859 59.728 54.7171C59.8718 54.5484 59.9426 54.3294 59.925 54.1084C59.8141 53.6237 59.8081 53.1209 59.9073 52.6337C60.0064 52.1466 60.2085 51.6862 60.4999 51.2834C60.6362 51.1107 60.6987 50.8911 60.6737 50.6725C60.6487 50.454 60.5383 50.2542 60.3666 50.1167C58.9416 49.2167 58.1583 52.1084 58.1916 53.1167C58.175 53.3334 58.2416 53.9834 58.2583 54.2417Z" fill="black"/>
<path d="M44.2999 76.2417L40.6999 76.0834C40.4789 76.0734 40.263 76.1517 40.0997 76.3009C39.9364 76.4502 39.839 76.6582 39.8291 76.8792C39.8191 77.1002 39.8974 77.3161 40.0467 77.4794C40.1959 77.6427 40.4039 77.7401 40.6249 77.75L44.2583 77.9167C44.3682 77.9194 44.4777 77.9005 44.5803 77.8609C44.683 77.8214 44.7769 77.762 44.8566 77.6861C44.9363 77.6103 45.0003 77.5195 45.0449 77.4189C45.0895 77.3184 45.1139 77.21 45.1166 77.1C45.1193 76.99 45.1004 76.8806 45.0608 76.7779C45.0213 76.6753 44.9619 76.5814 44.886 76.5017C44.8102 76.422 44.7194 76.358 44.6188 76.3134C44.5183 76.2688 44.4099 76.2444 44.2999 76.2417Z" fill="black"/>
<path d="M34.3916 75.8333L32.7249 75.7583C32.5039 75.7583 32.292 75.8461 32.1357 76.0024C31.9794 76.1587 31.8916 76.3706 31.8916 76.5916C31.8916 76.8126 31.9794 77.0246 32.1357 77.1809C32.292 77.3372 32.5039 77.425 32.7249 77.425L34.3916 77.5C34.6126 77.5 34.8246 77.4122 34.9809 77.2559C35.1371 77.0996 35.2249 76.8876 35.2249 76.6666C35.2249 76.4456 35.1371 76.2337 34.9809 76.0774C34.8246 75.9211 34.6126 75.8333 34.3916 75.8333Z" fill="black"/>
<path d="M21.1917 57.7C21.1939 59.3348 21.8443 60.9021 23.0003 62.058C24.1563 63.214 25.7235 63.8645 27.3583 63.8667C35.5167 63.5833 35.5167 51.825 27.3583 51.5333C25.7235 51.5355 24.1563 52.1859 23.0003 53.3419C21.8443 54.4979 21.1939 56.0652 21.1917 57.7ZM31.8583 57.7C31.6667 63.65 23.05 63.65 22.8583 57.7C23.05 51.7583 31.6667 51.7583 31.8583 57.7Z" fill="white"/>
<path d="M69.85 30.375C71.4848 30.3728 73.0521 29.7224 74.2081 28.5664C75.3641 27.4104 76.0145 25.8432 76.0167 24.2083C75.7334 16.05 63.975 16.05 63.6833 24.2083C63.6856 25.8432 64.336 27.4104 65.492 28.5664C66.648 29.7224 68.2152 30.3728 69.85 30.375ZM69.85 19.7084C75.8 19.9 75.8 28.5167 69.85 28.7084C63.9084 28.5167 63.9084 19.9 69.85 19.7084Z" fill="white"/>
<defs>
<linearGradient id="paint0_linear_674_12367" x1="22.0521" y1="-47.1133" x2="15.3782" y2="101.193" gradientUnits="userSpaceOnUse">
<stop stop-color="#00C39D"/>
<stop offset="1" stop-color="#042666"/>
</linearGradient>
<linearGradient id="paint1_linear_674_12367" x1="63.4847" y1="-47.8573" x2="56.755" y2="101.825" gradientUnits="userSpaceOnUse">
<stop stop-color="#00C39D"/>
<stop offset="1" stop-color="#042666"/>
</linearGradient>
</defs>
</svg>
