<svg width="420" height="416" viewBox="0 0 420 416" fill="none" xmlns="http://www.w3.org/2000/svg">
<g opacity="0.05">
<path d="M88.1965 413.922C88.1546 414.01 88.0988 414.068 88.0569 414.156C88.3921 414.244 88.7133 414.361 89.0484 414.434L88.1965 413.922Z" fill="#E9EFF4"/>
<path d="M74.1611 85.6131L73.7142 84.6653C77.443 84.082 77.6944 81.3406 80.5294 80.3344C83.7555 79.2262 82.6522 80.4365 85.8224 80.3344C88.3921 80.2178 89.9562 82.1717 92.889 80.7427C92.1767 82.0551 91.0176 82.9592 89.8584 83.8487C87.4424 85.6423 84.9705 87.4796 82.0936 88.1795C79.2167 88.8649 75.837 88.1358 74.1611 85.6131Z" fill="#E9EFF4"/>
<path d="M118.795 293.239C118.739 295.295 117.58 297.088 116.575 298.823C112.092 306.464 109.368 315.314 108.768 324.281C108.167 332.869 108.53 343.454 101.366 347.683C97.2742 350.059 91.5204 349.637 88.7971 353.646C87.9452 354.856 87.5402 356.387 87.1352 357.816C85.3755 364.509 83.6019 371.201 81.8422 377.893C79.5658 377.689 77.2475 377.427 74.9851 377.164C77.6665 378.054 79.5239 381.845 77.9179 384.44C75.3482 383.026 71.9686 384.703 70.5441 387.4C69.1894 390.083 69.3849 393.349 70.1391 396.309C72.4713 405.057 79.6357 412.114 88.0709 414.214C86.6045 417.115 82.1215 415.847 79.3843 413.907C59.8464 400.114 45.0988 379.104 38.3674 355.498C35.9932 347.172 34.471 338.322 29.8204 331.163C25.938 325.112 20.0724 320.68 16.19 314.629C10.7434 305.939 9.72396 294.668 3.41151 286.722C-0.121778 282.187 -5.58232 276.617 -2.45403 271.762C-1.19713 269.765 1.48426 267.869 0.42288 265.755C0.07374 265.07 -0.638504 264.647 -1.19713 264.064C-3.3199 261.687 -1.85351 257.954 -0.792126 254.892C0.967537 249.571 0.967537 243.884 0.213394 238.198C-5.09352 233.24 -9.2832 227.087 -11.9087 220.176C-13.4729 215.963 -15.5537 210.699 -19.8831 210.641C-21.0003 207.375 -22.1595 204.109 -23.2767 200.843C-23.6817 202.009 -24.785 202.738 -26 202.898C-22.6483 149.519 -2.03506 101.083 30.0439 63.5526C30.7561 63.2318 31.4544 62.809 32.1666 62.3862C39.7779 57.7496 45.839 50.7947 53.1988 45.7352C54.7071 44.6854 56.4249 43.6794 58.2962 43.8835C60.1118 44.0439 61.8295 45.9831 61.1732 47.7765C60.9218 48.5201 60.3213 49.1033 59.7068 49.5699C51.09 57.2247 41.6493 63.9171 31.608 69.4577C30.407 70.0847 29.1361 70.8283 28.5915 72.0968C27.572 74.2547 29.2897 76.9375 31.4684 77.7248C33.633 78.5122 36.063 78.0456 38.2836 77.5207C36.4122 80.3056 35.8536 84.0528 36.8172 87.3188C38.8841 87.5229 39.5405 84.5777 40.155 82.5218C42.6688 74.3567 55.14 71.0324 54.33 62.4299C57.7097 64.267 61.1452 60.1553 63.2121 56.7872C65.279 53.3608 69.8737 49.9927 72.4015 52.9963C72.5411 54.6731 72.7367 56.3644 72.8903 58.0557C77.3313 56.8893 81.8283 55.6791 86.2693 54.5127C83.7415 56.3644 82.8896 60.3157 84.3421 63.1589C85.8084 66.0021 89.4395 67.431 92.3164 66.2646C92.2745 68.7432 90.1517 70.6387 88.2245 72.1113C83.3365 75.9606 78.0855 79.9119 72.3875 81.8074L73.7003 84.6506C73.5606 84.7089 73.407 84.7672 73.2534 84.7672C69.6223 85.1317 65.7818 82.4052 61.8994 82.9301C59.5252 83.2508 56.6064 83.2508 55.2378 85.7733C55.0423 86.094 54.1904 90.5119 54.7909 90.1474C56.9137 88.8789 59.0225 87.6104 61.1033 86.3565C61.7457 88.1499 61.8994 90.1474 61.5502 92.1012C64.1199 91.8388 66.8013 92.4074 69.0777 93.8363C66.7035 99.581 60.6006 103.43 54.5954 102.949C54.5395 101.054 54.4417 99.1582 54.3859 97.2627C49.4421 96.8399 45.406 101.272 42.9341 105.705C40.4203 110.181 38.507 115.299 34.3592 118.142C31.8454 119.935 28.759 120.621 26.0358 122.093C23.3683 123.624 20.8964 126.526 21.455 129.631C21.7064 131.104 22.6142 132.475 22.5723 134.006C22.4187 136.849 19.2485 138.176 17.1257 140.013C13.4947 143.177 12.5869 148.98 8.70447 151.765C5.88342 153.82 2.14065 153.777 -1.14126 154.827C-4.42318 155.876 -7.70509 159.303 -6.37836 162.627C-7.99837 163.21 -9.96751 161.942 -10.1211 160.148C-15.9168 172.061 -19.7434 185.023 -21.3076 198.306C-18.4307 200.405 -15.5118 195.608 -14.9532 191.978C-14.3527 188.347 -11.3222 183.594 -8.50113 185.752C-9.15751 190.972 -9.81389 196.133 -10.4563 201.353C-10.6099 202.359 -10.7077 203.409 -10.2468 204.298C-9.6882 205.406 -8.48716 205.873 -7.56543 206.66C-4.99577 208.978 -5.34491 213.09 -5.19128 216.619C-5.03766 220.934 -3.66903 225.148 -1.50437 228.837C-1.71385 228.093 -1.85351 227.364 -2.00713 226.621C1.93116 227.146 6.02308 225.819 8.99774 223.078C10.5619 221.605 11.8747 219.71 13.8438 218.966C15.8688 218.179 18.0893 218.747 20.1562 219.331C26.5664 221.168 33.3816 223.224 37.6691 228.487C39.8337 231.17 41.2024 234.553 43.786 236.754C49.6376 241.916 59.5392 239.641 64.888 245.386C69.1754 250.023 68.3794 257.502 67.2203 263.874C64.2875 262.197 60.3632 266.411 62.0809 269.415C63.6451 267.621 65.4606 265.726 67.737 265.726C70.0553 265.667 72.0803 268.992 70.3625 270.523C74.3986 265.143 84.2862 267.359 85.8503 274.051C91.5064 274.474 97.2044 274.882 102.86 275.363C101.771 284.024 119.144 284.535 118.795 293.239Z" fill="#E9EFF4"/>
<path d="M84.3979 49.4679C82.2193 50.5906 79.2167 49.3221 78.4067 46.9309C77.5827 44.5397 79.1329 41.5798 81.5071 41.0112C83.0014 40.6467 85.0823 40.8217 85.5431 39.2907C85.6828 38.8241 85.599 38.3138 85.599 37.8327C85.5431 34.9457 88.015 32.5545 90.6825 31.8255C93.3499 31.111 96.1709 31.6651 98.8802 32.2192C99.8439 34.3042 100.123 36.7245 99.6623 38.9845C97.8049 39.072 95.9475 39.1449 94.09 39.2324C94.2576 42.4547 93.9504 46.5081 91.0874 47.7037C88.5178 48.768 85.166 46.7851 83.0293 48.5931" fill="#E9EFF4"/>
<path d="M113.321 17.2884C118.39 14.7514 122.678 10.7564 127.677 8.07354C136.28 3.46611 146.321 3.05785 155.986 2.73708C177.981 2.02264 199.977 1.30819 221.973 0.59375C216.875 3.50985 211.778 6.44053 206.667 9.35663C202.505 11.7478 197.771 14.1974 193.204 12.8414C193.106 16.676 196.444 20.2337 200.131 20.2045C191.095 26.0367 178.554 20.0733 169.015 24.9723C165.021 27.0282 161.795 30.9066 157.396 31.6356C154.854 32.0585 152.215 31.344 149.687 31.9272C145.455 32.8895 142.788 37.0742 139.66 40.1944C136.057 43.7958 130.764 46.2599 126.057 44.5394C121.351 42.8189 118.893 35.514 122.664 32.1022C124.521 30.4254 127.175 30.1484 129.367 28.9674C131.56 27.801 133.291 24.6661 131.644 22.7561C130.931 21.925 129.758 21.6042 129.102 20.7148C128.39 19.7525 128.459 18.382 127.873 17.3322C125.638 13.235 119.424 18.7465 115.192 17.0989" fill="#E9EFF4"/>
<path d="M180.118 36.6668C183.093 35.9522 185.676 34.1149 188.455 32.7733C191.235 31.4318 194.544 30.6444 197.268 32.0588C198.078 34.1732 195.746 36.0981 193.693 36.8563C189.754 38.2999 185.481 38.6937 181.361 37.9791" fill="#E9EFF4"/>
<path d="M359.953 59.8346C359.143 59.9366 358.291 59.8929 357.425 59.6742C353.64 58.8285 350.763 55.7812 347.523 53.565C340.052 48.4035 329.857 47.7328 321.785 51.9465C323.698 49.045 324.662 45.4582 324.452 41.9297L323.293 42.3526C310.068 34.3479 294.566 26.037 280.139 31.4172C276.802 32.6857 273.785 34.5812 270.405 35.7913C266.816 37.1036 262.836 37.6431 259.764 39.9614C256.635 42.2797 254.974 47.3974 257.655 50.1823C259.931 52.5589 263.562 51.9174 266.746 52.2381C269.875 52.5589 273.464 55.8104 271.746 58.6098C257.92 65.3606 244.052 72.1697 230.226 78.9788C236.581 81.1367 240.784 88.6602 239.416 95.5131C234.765 96.3587 230.282 93.4135 225.59 93.0927C218.775 92.7282 212.267 98.9978 212.127 106.113C211.932 113.228 218.188 119.804 225.003 119.702C230.101 119.644 235.1 116.436 240.044 117.792C240.24 112.937 243.424 108.825 246.692 105.355C253.046 98.7062 262.124 92.699 270.615 95.965C273.394 97.0148 275.768 98.9686 278.087 100.908C283.184 105.122 288.281 109.379 293.393 113.651C295.013 111.916 296.619 110.166 298.239 108.49C301.018 111.552 303.797 114.599 306.618 117.705C308.029 116.699 309.495 115.751 310.906 114.745C311.911 117.486 312.973 120.169 313.992 122.91C314.397 119.906 314.746 116.961 315.095 114.001C318.433 114.103 321.966 114.205 324.983 112.631C328.013 111.1 330.234 107.309 328.963 104.043C328.307 102.308 326.743 100.937 326.435 99.0853C325.779 95.3964 330.821 92.874 334.102 94.5507C337.329 96.1838 338.949 100.033 340.317 103.561C341.071 99.9747 341.77 96.4462 342.538 92.8594C345.694 101.52 350.247 109.627 355.903 116.742C345.554 114.686 334.647 115.867 324.969 120.023C328.055 124.557 333.348 127.24 338.655 127.021C341.029 126.963 343.655 126.395 345.47 127.969C346.839 129.179 347.188 131.133 347.44 132.927C348.25 137.986 349.06 142.987 349.814 147.988C344.353 143.308 336.491 143.833 329.368 143.687C322.246 143.483 313.922 141.427 311.297 134.53C308.476 137.855 307.219 142.593 308.029 147.026C300.655 145.189 292.178 142.244 290.055 134.647C284.301 136.863 277.137 133.029 275.573 126.861C275.014 124.703 274.86 122.064 273.045 120.912C271.942 120.227 270.517 120.329 269.204 120.489C258.255 121.816 247.348 123.085 236.455 124.412C230.506 125.155 224.347 125.899 219.096 128.946C213.845 131.95 209.669 137.855 210.27 144.081C200.228 150.307 191.709 159.317 185.956 169.917C184.14 173.183 182.576 176.931 183.288 180.619C183.791 183.463 185.606 185.883 186.165 188.682C187.129 193.479 184.503 198.116 183.4 202.855C180.272 216.342 190.075 229.041 199.167 239.248C203.454 243.986 208.412 249.148 214.669 249.41C218.551 249.571 222.238 247.777 225.869 246.29C236.26 242.018 247.572 240.064 258.716 240.531C256.189 242.587 258.814 247.063 261.956 247.748C265.085 248.433 268.464 247.369 271.495 248.477C278.408 251.058 277.458 261.643 274.33 268.554C275.894 268.234 277.514 267.913 279.12 267.607C278.268 269.925 277.402 272.243 276.55 274.503C286.033 275.757 289.622 288.778 287.416 298.517C285.251 308.272 279.707 317.224 279.553 327.241C279.511 332.723 281.117 338.045 282.737 343.25C286.787 356.475 290.823 369.699 294.873 382.968C306.185 384.382 312.679 369.364 323.181 364.669C327.12 362.876 331.756 362.511 334.843 359.449C337.817 356.504 336.854 349.593 333.027 349.593C338.222 349.01 342.663 344.052 342.817 338.57C342.873 337.039 342.663 335.508 342.859 333.992C343.208 331.834 344.521 329.938 345.778 328.087C353.794 316.072 358.989 302.308 364.184 288.719C365.539 285.074 366.908 281.502 368.262 277.857C373.402 264.311 378.499 250.824 383.638 237.279C385.649 231.957 387.674 226.694 389.686 221.357C386.906 226.154 379.644 225.527 375.496 221.941C371.307 218.368 369.128 212.93 365.846 208.454C363.067 204.604 359.324 201.192 358.012 196.498C357.257 193.815 357.397 190.913 356.95 188.114C355.931 182.048 352.104 177.003 349.479 171.521C346.853 166.039 345.484 158.938 349.171 154.127C359.785 173.46 369.435 193.363 378.164 213.761C379.128 210.597 381.348 207.856 384.169 206.325C386.236 205.158 388.554 204.692 390.733 203.744C396.487 201.105 400.467 194.733 400.467 188.201C400.411 181.669 396.431 175.298 390.621 172.717C387.744 171.448 384.462 171.04 381.739 169.29C379.016 167.614 377.047 163.764 378.764 160.965C380.37 158.326 384.267 158.384 386.934 159.857C389.616 161.388 391.585 163.968 394.099 165.704C395.914 166.972 398.037 167.803 400.006 168.97C410.662 175.341 413.287 189.834 415.522 202.476C416.737 209.27 418.105 216.021 419.725 222.655C419.781 221.226 419.767 219.753 419.767 218.339C419.712 157.072 397.017 101.389 359.953 59.8346ZM380.384 136.382C378.918 136.28 377.563 135.274 376.39 134.326C374.477 132.752 372.55 130.9 371.991 128.421C371.335 125.476 372.689 122.093 371.181 119.469C370.469 118.2 369.212 117.413 368.151 116.524C365.371 114.205 363.346 110.881 362.592 107.309C361.936 104.145 362.886 99.9309 365.972 99.406C367.438 99.1436 369.044 99.9893 369.701 101.404L367.634 102.57C371.111 102.993 372.731 108.475 370.064 110.837C369.715 111.202 369.254 111.522 369.254 112.047C369.254 112.368 369.449 112.674 369.715 112.893C371.879 115.372 375.119 116.261 377.94 117.836C380.761 119.367 383.541 122.21 383.094 125.476C382.186 125.84 381.334 126.161 380.426 126.526C379.463 127.532 380.231 129.325 381.236 130.317C382.242 131.308 383.555 132.314 383.61 133.787C383.61 135.376 381.893 136.484 380.384 136.382Z" fill="#E9EFF4"/>
<path d="M381.837 298.488L378.192 301.186C379.463 305.851 376.921 311.319 372.606 313.142C370.329 314.104 367.299 314.527 366.531 316.962C365.888 319.032 367.424 321.132 367.634 323.29C367.969 326.877 364.757 329.559 362.439 332.228C360.12 334.896 358.891 339.911 361.978 341.515C362.69 341.894 363.514 341.967 364.31 342.04C367.662 342.346 371.335 342.448 374.072 340.407C381.921 334.56 374.463 318.697 382.214 312.69C383.317 311.844 384.7 311.232 385.3 309.949C387.13 306.172 380.384 302.425 381.837 298.488Z" fill="#E9EFF4"/>
</g>
</svg>
