<svg width="15" height="15" viewBox="0 0 15 15" fill="none" xmlns="http://www.w3.org/2000/svg">
<path d="M4.63328 9.34739C4.52141 9.23552 4.51209 9.05994 4.60531 8.93745L4.63328 8.90545L9.05269 4.48603C9.17473 4.36399 9.3726 4.36399 9.49464 4.48603C9.60651 4.5979 9.61583 4.77348 9.5226 4.89597L9.49464 4.92797L5.07522 9.34739C4.95318 9.46943 4.75532 9.46943 4.63328 9.34739Z" fill="white"/>
<path d="M5.71682 5.02664C5.54423 5.02701 5.40402 4.8874 5.40364 4.71482C5.40331 4.55792 5.51865 4.42778 5.6693 4.40513L5.71547 4.40164L9.27281 4.39398C9.43017 4.39364 9.56053 4.50966 9.58267 4.66081L9.58598 4.70713L9.57861 8.26476C9.57826 8.43735 9.43805 8.57697 9.26547 8.57661C9.10857 8.57629 8.97891 8.46039 8.95691 8.30965L8.95361 8.26347L8.96014 5.01964L5.71682 5.02664Z" fill="white"/>
</svg>
