<svg width="26" height="26" viewBox="0 0 26 26" fill="none" xmlns="http://www.w3.org/2000/svg">
<g clip-path="url(#clip0_1810_16193)">
<path d="M20.4099 7.5927C19.506 3.2 15.2122 0.371782 10.8195 1.27568C7.05812 2.0497 4.35323 5.35281 4.33597 9.19292C4.33597 9.37588 4.34354 9.56321 4.35978 9.76135C1.68387 10.0446 -0.255782 12.4434 0.0274665 15.1194C0.290008 17.5996 2.38318 19.4812 4.8773 19.4787H5.44572C5.43273 19.299 5.41867 19.1204 5.41867 18.9373C5.41867 15.0506 8.56952 11.8997 12.4563 11.8997C16.3431 11.8997 19.4939 15.0506 19.4939 18.9373C19.4939 19.1203 19.4799 19.299 19.4669 19.4787H20.0353C23.3205 19.4877 25.991 16.8318 26 13.5465C26.0086 10.3943 23.5565 7.78262 20.4099 7.5927Z" fill="white"/>
<path d="M12.4564 24.8922C15.7452 24.8922 18.4113 22.2261 18.4113 18.9373C18.4113 15.6485 15.7452 12.9824 12.4564 12.9824C9.16757 12.9824 6.50146 15.6485 6.50146 18.9373C6.50146 22.2261 9.16757 24.8922 12.4564 24.8922Z" fill="#4CAF50"/>
<path d="M12.4564 22.727C12.1574 22.727 11.915 22.4846 11.915 22.1856V15.6893C11.915 15.3903 12.1574 15.1479 12.4564 15.1479C12.7554 15.1479 12.9978 15.3903 12.9978 15.6893V22.1856C12.9977 22.4846 12.7554 22.727 12.4564 22.727Z" fill="#FAFAFA"/>
<path d="M12.4566 22.7269C12.3129 22.7271 12.175 22.6703 12.0733 22.5688L9.90783 20.4033C9.7001 20.1883 9.70609 19.8456 9.92113 19.6378C10.1309 19.4352 10.4635 19.4352 10.6733 19.6378L12.4566 21.42L14.2387 19.6378C14.4538 19.4301 14.7965 19.4361 15.0042 19.6511C15.2069 19.8609 15.2069 20.1935 15.0042 20.4033L12.8388 22.5688C12.7373 22.67 12.5998 22.7268 12.4566 22.7269Z" fill="#FAFAFA"/>
</g>
<defs>
<clipPath id="clip0_1810_16193">
<rect width="26" height="26" fill="white"/>
</clipPath>
</defs>
</svg>
